<svg width="465" height="309" viewBox="0 0 465 309" fill="none" xmlns="http://www.w3.org/2000/svg">
<g clip-path="url(#clip0_4003_5290)">
<rect x="4.14258" y="4.67383" width="456" height="304" rx="4" fill="#F6F9FC"/>
<g clip-path="url(#clip1_4003_5290)">
<g clip-path="url(#clip2_4003_5290)">
<g clip-path="url(#clip3_4003_5290)">
<rect x="67.9727" y="65.4746" width="434" height="272" rx="8" fill="white"/>
<g clip-path="url(#clip4_4003_5290)">
<g clip-path="url(#clip5_4003_5290)">
<g clip-path="url(#clip6_4003_5290)">
<mask id="mask0_4003_5290" style="mask-type:luminance" maskUnits="userSpaceOnUse" x="67" y="65" width="435" height="273">
<path d="M67.9727 73.4746C67.9727 71.3529 68.8155 69.318 70.3158 67.8178C71.8161 66.3175 73.8509 65.4746 75.9727 65.4746H501.973V337.475H67.9727V73.4746Z" fill="white"/>
</mask>
<g mask="url(#mask0_4003_5290)">
<path d="M67.9727 73.4746C67.9727 71.3529 68.8155 69.318 70.3158 67.8178C71.8161 66.3175 73.8509 65.4746 75.9727 65.4746H501.973V337.475H67.9727V73.4746Z" fill="white"/>
<path d="M275.059 116.384H276.842L279.803 121.147H282.8L279.607 116.135C281.409 115.618 282.461 114.315 282.461 112.372C282.461 109.732 280.624 108.34 277.681 108.34H272.437V121.147H275.059V116.384ZM275.059 114.191V110.57H277.538C279.072 110.57 279.857 111.23 279.857 112.39C279.857 113.531 279.072 114.19 277.538 114.19L275.059 114.191ZM292.868 116.456C292.868 113.549 290.977 111.586 288.266 111.586C285.555 111.586 283.664 113.549 283.664 116.456C283.664 119.381 285.555 121.344 288.266 121.344C290.977 121.344 292.868 119.382 292.868 116.456ZM286.144 116.456C286.144 114.69 286.964 113.656 288.266 113.656C289.568 113.656 290.371 114.69 290.371 116.456C290.371 118.24 289.568 119.275 288.266 119.275C286.964 119.275 286.144 118.24 286.144 116.456ZM296.637 116.456C296.637 114.708 297.511 113.674 298.831 113.674C299.866 113.674 300.49 114.387 300.722 115.35L302.844 114.352C302.399 112.835 300.972 111.587 298.813 111.587C296.084 111.587 294.158 113.567 294.158 116.457C294.158 119.364 296.084 121.344 298.813 121.344C300.989 121.344 302.452 120.059 302.88 118.525L300.722 117.562C300.49 118.525 299.866 119.239 298.831 119.239C297.511 119.239 296.637 118.222 296.637 116.456ZM306.883 108.34H304.386V121.147H306.883V118.276L307.989 117.134L310.575 121.147H313.429L309.719 115.332L313.162 111.765H310.165L306.883 115.404V108.34ZM318.303 121.344C320.175 121.344 321.763 120.38 322.441 118.668L320.336 117.918C320.051 118.828 319.284 119.292 318.32 119.292C317.09 119.292 316.216 118.436 316.037 117.009H322.494V116.278C322.494 113.656 320.996 111.587 318.213 111.587C315.556 111.587 313.647 113.692 313.647 116.457C313.647 119.364 315.538 121.344 318.303 121.344ZM318.196 113.584C319.408 113.584 319.997 114.387 320.015 115.314H316.126C316.43 114.174 317.197 113.584 318.196 113.584ZM324.525 118.704C324.525 120.63 325.524 121.254 327.415 121.254C328.039 121.254 328.574 121.201 329.02 121.112V119.042C328.736 119.079 328.45 119.097 328.164 119.096C327.433 119.096 326.987 118.989 326.987 118.186V113.852H328.895V111.765H326.987V109.09H324.525V111.765H323.277V113.852H324.525V118.704ZM333.526 116.384H335.31L338.271 121.147H341.268L338.075 116.135C339.876 115.618 340.929 114.315 340.929 112.372C340.929 109.732 339.092 108.34 336.148 108.34H330.904V121.147H333.526V116.384ZM333.526 114.191V110.57H336.006C337.54 110.57 338.325 111.23 338.325 112.39C338.325 113.531 337.54 114.19 336.006 114.19L333.526 114.191ZM342.771 110.659H345.322V108.34H342.771V110.659ZM345.304 111.765H342.807V121.147H345.304V111.765ZM351.171 121.344C352.348 121.344 353.24 120.88 353.793 120.184V121.147H356.29V108.34H353.793V112.728C353.24 112.051 352.348 111.587 351.171 111.587C348.584 111.587 347.086 113.799 347.086 116.457C347.086 119.132 348.584 121.344 351.171 121.344ZM353.846 116.207V116.724C353.846 118.311 352.954 119.204 351.759 119.204C350.35 119.204 349.601 118.079 349.601 116.456C349.601 114.851 350.35 113.727 351.759 113.727C352.954 113.727 353.846 114.601 353.846 116.207ZM362.758 121.344C364.631 121.344 366.218 120.38 366.896 118.668L364.792 117.918C364.506 118.828 363.739 119.292 362.776 119.292C361.545 119.292 360.671 118.436 360.493 117.009H366.95V116.278C366.95 113.656 365.451 111.587 362.669 111.587C360.011 111.587 358.103 113.692 358.103 116.457C358.103 119.364 359.993 121.344 362.758 121.344ZM362.651 113.584C363.864 113.584 364.453 114.387 364.47 115.314H360.582C360.885 114.174 361.652 113.584 362.651 113.584ZM367.821 119.56C368.677 120.72 370.461 121.344 372.155 121.344C374.403 121.344 376.222 120.131 376.222 118.169C376.222 116.046 374.278 115.671 372.637 115.332C371.478 115.101 370.853 114.994 370.853 114.387C370.853 113.87 371.371 113.531 372.155 113.531C373.136 113.531 374.046 113.977 374.67 114.779L376.097 113.209C375.366 112.265 373.886 111.587 372.227 111.587C369.979 111.587 368.392 112.835 368.392 114.637C368.392 116.652 370.069 117.045 371.585 117.348C373.083 117.633 373.779 117.723 373.779 118.436C373.779 119.114 373.047 119.399 372.209 119.399C371.157 119.399 370.015 118.846 369.373 117.972L367.821 119.56ZM377.527 121.147H378.758V121.272C378.758 122.039 378.347 122.396 377.527 122.449V123.769C379.293 123.769 380.452 122.771 380.452 121.094V118.258H377.527V121.147ZM389.093 108.34H386.471V121.147H389.093V108.34ZM391.545 121.147H394.042V115.725C394.042 114.495 394.898 113.87 395.772 113.87C396.843 113.87 397.271 114.619 397.271 115.671V121.147H399.768V114.957C399.768 112.925 398.573 111.587 396.611 111.587C395.416 111.587 394.559 112.122 394.042 112.728V111.765H391.545V121.147ZM404 116.457C404 114.708 404.874 113.674 406.194 113.674C407.228 113.674 407.853 114.387 408.085 115.35L410.207 114.352C409.761 112.835 408.334 111.587 406.176 111.587C403.447 111.587 401.521 113.567 401.521 116.457C401.521 119.364 403.447 121.344 406.176 121.344C408.352 121.344 409.815 120.059 410.243 118.525L408.085 117.562C407.853 118.525 407.228 119.239 406.194 119.239C404.874 119.239 404 118.222 404 116.456V116.457ZM411.531 121.147H414.456V118.257H411.531V121.147Z" fill="#0A2540"/>
<path d="M863.5 136.852H278.448C274.507 136.852 271.312 140.046 271.312 143.987V169.121C271.312 173.061 274.507 176.256 278.448 176.256H863.5C867.44 176.256 870.635 173.061 870.635 169.121V143.987C870.635 140.046 867.44 136.852 863.5 136.852Z" fill="white"/>
<path fill-rule="evenodd" clip-rule="evenodd" d="M301.634 156.553C301.634 158.445 300.883 160.26 299.544 161.598C298.206 162.936 296.392 163.688 294.499 163.688C292.607 163.688 290.792 162.936 289.454 161.598C288.116 160.26 287.364 158.445 287.364 156.553C287.364 154.661 288.116 152.846 289.454 151.508C290.792 150.17 292.607 149.418 294.499 149.418C296.392 149.418 298.206 150.17 299.544 151.508C300.883 152.846 301.634 154.661 301.634 156.553ZM298.51 153.873C298.343 153.706 298.116 153.612 297.88 153.612C297.643 153.612 297.417 153.706 297.249 153.873L293.608 157.521L292.009 155.922C291.84 155.767 291.617 155.684 291.387 155.689C291.158 155.695 290.939 155.788 290.777 155.95C290.614 156.113 290.521 156.331 290.515 156.561C290.51 156.79 290.593 157.013 290.747 157.183L292.977 159.413C293.145 159.58 293.371 159.674 293.608 159.674C293.844 159.674 294.071 159.58 294.238 159.413L298.51 155.134C298.593 155.051 298.659 154.953 298.704 154.845C298.749 154.737 298.772 154.621 298.772 154.503C298.772 154.386 298.749 154.27 298.704 154.162C298.659 154.054 298.593 153.956 298.51 153.873Z" fill="#15BE53"/>
<g filter="url(#filter0_d_4003_5290)">
<path d="M317.689 136.852H856.365V176.256H317.689V136.852Z" fill="white"/>
<path d="M320.312 152.588V161.553H318.476V152.588H320.312ZM321.679 161.553V154.985H323.427V155.659C323.789 155.235 324.388 154.86 325.225 154.86C326.598 154.86 327.435 155.797 327.435 157.22V161.553H325.687V157.719C325.687 156.983 325.387 156.459 324.638 156.459C324.026 156.459 323.427 156.895 323.427 157.757V161.553H321.679ZM330.047 158.269C330.047 159.505 330.659 160.217 331.583 160.217C332.307 160.217 332.744 159.717 332.906 159.043L334.417 159.717C334.117 160.791 333.094 161.69 331.57 161.69C329.66 161.69 328.312 160.304 328.312 158.269C328.312 156.246 329.66 154.86 331.57 154.86C333.081 154.86 334.08 155.734 334.392 156.795L332.906 157.495C332.744 156.821 332.307 156.321 331.583 156.321C330.659 156.321 330.047 157.045 330.047 158.269ZM341.177 158.269C341.177 160.316 339.853 161.69 337.956 161.69C336.058 161.69 334.734 160.316 334.734 158.269C334.734 156.234 336.058 154.86 337.956 154.86C339.853 154.86 341.177 156.234 341.177 158.269ZM336.47 158.269C336.47 159.517 337.044 160.242 337.956 160.242C338.867 160.242 339.429 159.517 339.429 158.269C339.429 157.033 338.867 156.309 337.956 156.309C337.044 156.309 336.47 157.033 336.47 158.269ZM346.025 154.973V156.683C345.838 156.658 345.651 156.645 345.463 156.646C344.552 156.646 343.853 157.208 343.853 158.219V161.553H342.105V154.985H343.853V155.909C344.14 155.335 344.789 154.948 345.601 154.948C345.776 154.948 345.9 154.96 346.025 154.973ZM350.428 161.69C349.604 161.69 348.98 161.365 348.593 160.878V163.775H346.845V154.985H348.593V155.659C348.98 155.185 349.604 154.86 350.428 154.86C352.239 154.86 353.287 156.408 353.287 158.269C353.287 160.142 352.239 161.69 350.428 161.69ZM348.555 158.094V158.456C348.555 159.567 349.18 160.192 350.016 160.192C351.002 160.192 351.527 159.405 351.527 158.269C351.527 157.145 351.002 156.359 350.016 156.359C349.18 156.359 348.555 156.97 348.555 158.094ZM360.262 158.269C360.262 160.316 358.938 161.69 357.04 161.69C355.143 161.69 353.819 160.316 353.819 158.269C353.819 156.234 355.143 154.86 357.04 154.86C358.938 154.86 360.262 156.234 360.262 158.269ZM355.555 158.269C355.555 159.517 356.129 160.242 357.04 160.242C357.952 160.242 358.514 159.517 358.514 158.269C358.514 157.033 357.952 156.309 357.04 156.309C356.129 156.309 355.555 157.033 355.555 158.269ZM365.11 154.973V156.683C364.923 156.658 364.736 156.645 364.548 156.646C363.637 156.646 362.938 157.208 362.938 158.219V161.553H361.19V154.985H362.938V155.909C363.225 155.335 363.874 154.948 364.686 154.948C364.861 154.948 364.985 154.96 365.11 154.973ZM371.065 159.942C371.065 160.504 371.09 161.066 371.165 161.552H369.48C369.464 161.378 369.456 161.203 369.455 161.028C369.03 161.44 368.393 161.665 367.594 161.665C366.308 161.665 365.347 160.891 365.347 159.73C365.347 158.419 366.383 157.87 367.719 157.632L369.355 157.32V157.033C369.355 156.508 369.005 156.296 368.381 156.296C367.669 156.296 367.37 156.583 367.332 157.108H365.634C365.697 155.597 366.845 154.86 368.468 154.86C370.092 154.86 371.065 155.547 371.065 156.808V159.942ZM369.355 159.218V158.544L368.081 158.794C367.494 158.906 367.07 159.093 367.07 159.617C367.07 160.079 367.407 160.329 367.931 160.329C368.668 160.329 369.355 159.954 369.355 159.218ZM372.503 159.842V156.446H371.629V154.986H372.503V153.112H374.226V154.985H375.562V156.445H374.226V159.48C374.226 160.042 374.538 160.117 375.05 160.117C375.3 160.117 375.424 160.104 375.649 160.079V161.528C375.337 161.59 374.962 161.628 374.525 161.628C373.202 161.628 372.503 161.19 372.503 159.842ZM379.379 161.69C377.443 161.69 376.12 160.304 376.12 158.269C376.12 156.334 377.456 154.86 379.316 154.86C381.264 154.86 382.313 156.309 382.313 158.144V158.656H377.793C377.918 159.655 378.53 160.254 379.391 160.254C380.065 160.254 380.602 159.929 380.802 159.293L382.275 159.817C381.801 161.016 380.69 161.69 379.379 161.69ZM379.304 156.259C378.605 156.259 378.068 156.671 377.855 157.469H380.577C380.565 156.821 380.153 156.259 379.304 156.259ZM388.793 161.927C388.369 163.088 387.769 163.837 386.321 163.837C385.984 163.837 385.859 163.825 385.634 163.8V162.39C385.821 162.402 385.934 162.414 386.134 162.414C386.596 162.414 386.845 162.289 387.033 161.814L387.245 161.29L384.885 154.985H386.695L388.181 159.305L389.63 154.985H391.39L388.793 161.927ZM397.758 158.269C397.758 160.316 396.434 161.69 394.537 161.69C392.639 161.69 391.315 160.316 391.315 158.269C391.315 156.234 392.639 154.86 394.537 154.86C396.434 154.86 397.758 156.234 397.758 158.269ZM393.051 158.269C393.051 159.517 393.625 160.242 394.537 160.242C395.448 160.242 396.01 159.517 396.01 158.269C396.01 157.033 395.448 156.309 394.537 156.309C393.625 156.309 393.051 157.033 393.051 158.269ZM404.392 154.985V161.553H402.644V160.878C402.427 161.137 402.156 161.344 401.849 161.485C401.542 161.625 401.208 161.695 400.871 161.69C399.51 161.69 398.636 160.753 398.636 159.33V154.985H400.384V158.943C400.384 159.667 400.708 160.142 401.433 160.142C402.044 160.142 402.644 159.692 402.644 158.843V154.985H404.392ZM409.626 154.973V156.683C409.44 156.658 409.252 156.645 409.065 156.646C408.153 156.646 407.454 157.208 407.454 158.219V161.553H405.706V154.985H407.454V155.909C407.741 155.335 408.39 154.948 409.202 154.948C409.377 154.948 409.502 154.96 409.626 154.973ZM414.181 158.269C414.181 159.505 414.793 160.217 415.717 160.217C416.441 160.217 416.878 159.717 417.04 159.043L418.551 159.717C418.251 160.791 417.227 161.69 415.704 161.69C413.794 161.69 412.445 160.304 412.445 158.269C412.445 156.246 413.794 154.86 415.704 154.86C417.215 154.86 418.214 155.734 418.526 156.795L417.04 157.495C416.878 156.821 416.441 156.321 415.717 156.321C414.793 156.321 414.181 157.045 414.181 158.269ZM425.311 158.269C425.311 160.316 423.987 161.69 422.089 161.69C420.191 161.69 418.868 160.316 418.868 158.269C418.868 156.234 420.191 154.86 422.089 154.86C423.987 154.86 425.311 156.234 425.311 158.269ZM420.604 158.269C420.604 159.517 421.178 160.242 422.089 160.242C423.001 160.242 423.563 159.517 423.563 158.269C423.563 157.033 423.001 156.309 422.089 156.309C421.178 156.309 420.604 157.033 420.604 158.269ZM427.987 157.757V161.553H426.239V154.985H427.987V155.659C428.336 155.235 428.923 154.86 429.772 154.86C430.571 154.86 431.183 155.197 431.545 155.76C431.945 155.347 432.569 154.86 433.58 154.86C434.929 154.86 435.803 155.797 435.803 157.22V161.553H434.055V157.719C434.055 156.983 433.78 156.459 433.056 156.459C432.481 156.459 431.895 156.895 431.895 157.757V161.553H430.147V157.719C430.147 156.983 429.872 156.459 429.148 156.459C428.573 156.459 427.987 156.895 427.987 157.757ZM440.659 161.69C439.834 161.69 439.21 161.365 438.823 160.878V163.775H437.075V154.985H438.823V155.659C439.21 155.185 439.834 154.86 440.659 154.86C442.469 154.86 443.518 156.408 443.518 158.269C443.518 160.142 442.469 161.69 440.659 161.69ZM438.786 158.094V158.456C438.786 159.567 439.41 160.192 440.247 160.192C441.233 160.192 441.757 159.405 441.757 158.269C441.757 157.145 441.233 156.359 440.247 156.359C439.41 156.359 438.786 156.97 438.786 158.094ZM449.731 159.942C449.731 160.504 449.756 161.066 449.831 161.552H448.145C448.133 161.39 448.12 161.215 448.12 161.028C447.696 161.44 447.059 161.665 446.26 161.665C444.974 161.665 444.012 160.891 444.012 159.73C444.012 158.419 445.049 157.87 446.385 157.632L448.02 157.32V157.033C448.02 156.508 447.671 156.296 447.046 156.296C446.335 156.296 446.035 156.583 445.998 157.108H444.3C444.362 155.597 445.511 154.86 447.134 154.86C448.757 154.86 449.731 155.547 449.731 156.808V159.942ZM448.02 159.218V158.544L446.747 158.794C446.16 158.906 445.735 159.093 445.735 159.617C445.735 160.079 446.073 160.329 446.597 160.329C447.334 160.329 448.02 159.954 448.02 159.218ZM450.993 161.553V154.985H452.741V155.659C453.103 155.235 453.703 154.86 454.539 154.86C455.913 154.86 456.749 155.797 456.749 157.22V161.553H455.001V157.719C455.001 156.983 454.702 156.459 453.953 156.459C453.341 156.459 452.741 156.895 452.741 157.757V161.553H450.993ZM461.124 161.927C460.7 163.088 460.101 163.837 458.652 163.837C458.315 163.837 458.19 163.825 457.966 163.8V162.39C458.153 162.402 458.265 162.414 458.465 162.414C458.927 162.414 459.177 162.289 459.364 161.814L459.576 161.29L457.216 154.985H459.027L460.513 159.305L461.961 154.985H463.722L461.124 161.927Z" fill="#4F5B76"/>
</g>
<path d="M863.5 177.146H278.448C274.507 177.146 271.312 180.341 271.312 184.281V209.415C271.312 213.356 274.507 216.55 278.448 216.55H863.5C867.44 216.55 870.635 213.356 870.635 209.415V184.281C870.635 180.341 867.44 177.146 863.5 177.146Z" fill="white"/>
<path fill-rule="evenodd" clip-rule="evenodd" d="M301.634 196.848C301.634 198.74 300.883 200.555 299.544 201.893C298.206 203.231 296.392 203.983 294.499 203.983C292.607 203.983 290.792 203.231 289.454 201.893C288.116 200.555 287.364 198.74 287.364 196.848C287.364 194.956 288.116 193.141 289.454 191.803C290.792 190.465 292.607 189.713 294.499 189.713C296.392 189.713 298.206 190.465 299.544 191.803C300.883 193.141 301.634 194.956 301.634 196.848ZM298.51 194.168C298.343 194.001 298.116 193.907 297.88 193.907C297.643 193.907 297.417 194.001 297.249 194.168L293.608 197.816L292.009 196.217C291.84 196.062 291.617 195.979 291.387 195.984C291.158 195.99 290.939 196.083 290.777 196.245C290.614 196.408 290.521 196.626 290.515 196.856C290.51 197.085 290.593 197.308 290.747 197.478L292.977 199.708C293.145 199.875 293.371 199.969 293.608 199.969C293.844 199.969 294.071 199.875 294.238 199.708L298.51 195.429C298.593 195.346 298.659 195.248 298.704 195.14C298.749 195.032 298.772 194.916 298.772 194.798C298.772 194.681 298.749 194.565 298.704 194.457C298.659 194.349 298.593 194.251 298.51 194.168Z" fill="#15BE53"/>
<g filter="url(#filter1_d_4003_5290)">
<path d="M317.689 177.146H856.365V216.55H317.689V177.146Z" fill="white"/>
<path d="M317.576 200.212L318.837 198.989C319.499 199.925 320.461 200.449 321.447 200.449C322.383 200.449 323.07 200.037 323.07 199.276C323.07 198.452 322.221 198.339 320.873 198.04C319.537 197.727 318.088 197.303 318.088 195.53C318.088 193.819 319.562 192.746 321.422 192.746C322.97 192.746 324.181 193.432 324.806 194.331L323.595 195.517C323.07 194.781 322.371 194.281 321.372 194.281C320.498 194.281 319.899 194.706 319.899 195.355C319.899 196.054 320.548 196.192 321.722 196.454C323.145 196.766 324.893 197.128 324.893 199.088C324.893 200.899 323.295 201.985 321.385 201.985C319.874 201.985 318.301 201.298 317.576 200.212ZM325.986 200.137V196.741H325.112V195.28H325.986V193.407H327.709V195.28H329.045V196.741H327.709V199.775C327.709 200.337 328.021 200.412 328.533 200.412C328.783 200.412 328.908 200.399 329.132 200.374V201.823C328.82 201.885 328.446 201.923 328.009 201.923C326.685 201.923 325.986 201.486 325.986 200.137ZM336.046 198.564C336.046 200.612 334.722 201.985 332.824 201.985C330.927 201.985 329.603 200.612 329.603 198.564C329.603 196.529 330.927 195.155 332.824 195.155C334.722 195.155 336.046 196.529 336.046 198.564ZM331.339 198.564C331.339 199.813 331.913 200.537 332.824 200.537C333.736 200.537 334.298 199.813 334.298 198.564C334.298 197.328 333.736 196.604 332.824 196.604C331.913 196.604 331.339 197.328 331.339 198.564ZM338.334 198.564C338.334 199.8 338.946 200.512 339.87 200.512C340.594 200.512 341.031 200.012 341.194 199.338L342.704 200.012C342.405 201.086 341.381 201.985 339.858 201.985C337.947 201.985 336.599 200.599 336.599 198.564C336.599 196.541 337.947 195.155 339.858 195.155C341.368 195.155 342.367 196.029 342.679 197.091L341.194 197.79C341.031 197.116 340.594 196.616 339.87 196.616C338.946 196.616 338.334 197.34 338.334 198.564ZM345.156 192.883V197.827L347.454 195.28H349.551L347.142 197.777L349.739 201.848H347.741L345.931 199.038L345.156 199.838V201.848H343.408V192.883H345.156ZM352.644 194.506V192.883H354.429V194.506H352.644ZM354.417 195.28V201.848H352.669V195.28H354.417ZM355.065 200.737L356.151 199.625C356.6 200.237 357.4 200.624 358.136 200.624C358.723 200.624 359.235 200.424 359.235 199.95C359.235 199.45 358.748 199.388 357.699 199.188C356.638 198.976 355.464 198.701 355.464 197.29C355.464 196.029 356.575 195.155 358.149 195.155C359.31 195.155 360.346 195.63 360.858 196.292L359.859 197.39C359.653 197.119 359.387 196.898 359.082 196.747C358.776 196.595 358.44 196.516 358.099 196.516C357.549 196.516 357.187 196.754 357.187 197.116C357.187 197.54 357.624 197.615 358.436 197.777C359.585 198.015 360.946 198.277 360.946 199.763C360.946 201.136 359.672 201.985 358.099 201.985C356.913 201.985 355.664 201.548 355.065 200.737ZM361.182 200.737L362.269 199.625C362.718 200.237 363.517 200.624 364.254 200.624C364.841 200.624 365.353 200.424 365.353 199.95C365.353 199.45 364.866 199.388 363.817 199.188C362.756 198.976 361.582 198.701 361.582 197.29C361.582 196.029 362.693 195.155 364.266 195.155C365.428 195.155 366.464 195.63 366.976 196.292L365.977 197.39C365.771 197.119 365.505 196.898 365.2 196.747C364.894 196.595 364.558 196.516 364.217 196.516C363.667 196.516 363.305 196.754 363.305 197.116C363.305 197.54 363.742 197.615 364.554 197.777C365.702 198.015 367.063 198.277 367.063 199.763C367.063 201.136 365.79 201.985 364.217 201.985C363.03 201.985 361.782 201.548 361.182 200.737ZM373.643 195.28V201.848H371.895V201.174C371.679 201.433 371.407 201.64 371.1 201.78C370.794 201.921 370.459 201.991 370.122 201.985C368.761 201.985 367.887 201.049 367.887 199.625V195.28H369.635V199.238C369.635 199.962 369.96 200.437 370.684 200.437C371.296 200.437 371.895 199.987 371.895 199.138V195.28H373.643ZM377.829 201.985C375.894 201.985 374.57 200.599 374.57 198.564C374.57 196.629 375.906 195.155 377.767 195.155C379.715 195.155 380.763 196.604 380.763 198.439V198.951H376.243C376.368 199.95 376.98 200.549 377.842 200.549C378.516 200.549 379.053 200.225 379.253 199.588L380.726 200.112C380.251 201.311 379.14 201.985 377.829 201.985ZM377.754 196.554C377.055 196.554 376.518 196.966 376.306 197.765H379.028C379.015 197.116 378.603 196.554 377.754 196.554ZM384.132 201.985C382.322 201.985 381.273 200.437 381.273 198.564C381.273 196.704 382.322 195.155 384.132 195.155C384.956 195.155 385.581 195.48 385.968 195.954V192.883H387.716V201.848H385.968V201.174C385.581 201.66 384.956 201.985 384.132 201.985ZM386.005 198.389C386.005 197.265 385.381 196.654 384.544 196.654C383.558 196.654 383.034 197.44 383.034 198.564C383.034 199.7 383.558 200.487 384.544 200.487C385.381 200.487 386.005 199.863 386.005 198.751V198.389ZM394.655 192.783V194.219C394.493 194.206 394.393 194.206 394.205 194.206C393.656 194.206 393.369 194.369 393.369 195.018V195.28H394.642V196.741H393.369V201.848H391.621V196.741H390.734V195.28H391.621V194.918C391.621 193.532 392.37 192.758 393.981 192.758C394.23 192.758 394.38 192.758 394.655 192.783ZM401.302 198.564C401.302 200.612 399.978 201.985 398.081 201.985C396.183 201.985 394.859 200.612 394.859 198.564C394.859 196.529 396.183 195.155 398.081 195.155C399.978 195.155 401.302 196.529 401.302 198.564ZM396.595 198.564C396.595 199.813 397.169 200.537 398.081 200.537C398.992 200.537 399.554 199.813 399.554 198.564C399.554 197.328 398.992 196.604 398.081 196.604C397.169 196.604 396.595 197.328 396.595 198.564ZM406.15 195.268V196.978C405.964 196.953 405.776 196.94 405.588 196.941C404.677 196.941 403.978 197.503 403.978 198.514V201.848H402.23V195.28H403.978V196.204C404.265 195.63 404.914 195.243 405.726 195.243C405.901 195.243 406.025 195.255 406.15 195.268ZM412.603 192.783V194.219C412.44 194.206 412.34 194.206 412.153 194.206C411.604 194.206 411.317 194.369 411.317 195.018V195.28H412.59V196.741H411.317V201.848H409.569V196.741H408.682V195.28H409.569V194.918C409.569 193.532 410.318 192.758 411.928 192.758C412.178 192.758 412.328 192.758 412.603 192.783ZM419.25 198.564C419.25 200.612 417.926 201.985 416.028 201.985C414.13 201.985 412.807 200.612 412.807 198.564C412.807 196.529 414.13 195.155 416.028 195.155C417.926 195.155 419.25 196.529 419.25 198.564ZM414.542 198.564C414.542 199.813 415.117 200.537 416.028 200.537C416.94 200.537 417.502 199.813 417.502 198.564C417.502 197.328 416.94 196.604 416.028 196.604C415.117 196.604 414.542 197.328 414.542 198.564ZM425.884 195.28V201.848H424.136V201.174C423.92 201.433 423.648 201.64 423.341 201.78C423.035 201.92 422.7 201.99 422.363 201.985C421.002 201.985 420.128 201.049 420.128 199.625V195.28H421.876V199.238C421.876 199.962 422.2 200.437 422.924 200.437C423.536 200.437 424.136 199.987 424.136 199.138V195.28H425.884ZM427.198 201.848V195.28H428.946V195.954C429.308 195.53 429.907 195.155 430.744 195.155C432.117 195.155 432.954 196.092 432.954 197.515V201.848H431.206V198.015C431.206 197.278 430.906 196.754 430.157 196.754C429.545 196.754 428.946 197.191 428.946 198.052V201.848H427.198ZM436.677 201.985C434.867 201.985 433.818 200.437 433.818 198.564C433.818 196.704 434.867 195.155 436.677 195.155C437.501 195.155 438.126 195.48 438.513 195.954V192.883H440.261V201.848H438.513V201.174C438.126 201.66 437.501 201.985 436.677 201.985ZM438.55 198.389C438.55 197.265 437.926 196.654 437.089 196.654C436.103 196.654 435.579 197.44 435.579 198.564C435.579 199.7 436.103 200.487 437.089 200.487C437.926 200.487 438.55 199.863 438.55 198.751V198.389ZM444.439 201.985C442.503 201.985 441.18 200.599 441.18 198.564C441.18 196.629 442.516 195.155 444.376 195.155C446.324 195.155 447.373 196.604 447.373 198.439V198.951H442.853C442.978 199.95 443.59 200.549 444.451 200.549C445.125 200.549 445.662 200.225 445.862 199.588L447.335 200.112C446.861 201.311 445.75 201.985 444.439 201.985ZM444.364 196.554C443.665 196.554 443.128 196.966 442.915 197.765H445.637C445.625 197.116 445.213 196.554 444.364 196.554ZM452.191 195.268V196.978C451.991 196.953 451.841 196.941 451.629 196.941C450.717 196.941 450.018 197.503 450.018 198.514V201.848H448.27V195.28H450.018V196.204C450.305 195.63 450.954 195.243 451.766 195.243C451.941 195.243 452.066 195.255 452.191 195.268ZM452.263 200.737L453.349 199.625C453.799 200.237 454.598 200.624 455.335 200.624C455.922 200.624 456.433 200.424 456.433 199.95C456.433 199.45 455.947 199.388 454.898 199.188C453.836 198.976 452.663 198.701 452.663 197.29C452.663 196.029 453.774 195.155 455.347 195.155C456.508 195.155 457.545 195.63 458.057 196.292L457.058 197.39C456.852 197.118 456.586 196.898 456.28 196.747C455.975 196.595 455.638 196.516 455.297 196.516C454.748 196.516 454.386 196.754 454.386 197.116C454.386 197.54 454.823 197.615 455.634 197.777C456.783 198.015 458.144 198.277 458.144 199.763C458.144 201.136 456.87 201.985 455.297 201.985C454.111 201.985 452.862 201.548 452.263 200.737Z" fill="#4F5B76"/>
</g>
<path d="M863.5 217.443H278.448C274.507 217.443 271.312 220.638 271.312 224.578V249.712C271.312 253.653 274.507 256.847 278.448 256.847H863.5C867.44 256.847 870.635 253.653 870.635 249.712V224.578C870.635 220.638 867.44 217.443 863.5 217.443Z" fill="white"/>
<path fill-rule="evenodd" clip-rule="evenodd" d="M301.634 237.145C301.634 239.037 300.883 240.852 299.544 242.19C298.206 243.528 296.392 244.28 294.499 244.28C292.607 244.28 290.792 243.528 289.454 242.19C288.116 240.852 287.364 239.037 287.364 237.145C287.364 235.252 288.116 233.438 289.454 232.1C290.792 230.761 292.607 230.01 294.499 230.01C296.392 230.01 298.206 230.761 299.544 232.1C300.883 233.438 301.634 235.252 301.634 237.145ZM298.51 234.465C298.343 234.298 298.116 234.204 297.88 234.204C297.643 234.204 297.417 234.298 297.249 234.465L293.608 238.113L292.009 236.514C291.84 236.357 291.616 236.271 291.385 236.276C291.154 236.28 290.934 236.374 290.771 236.537C290.607 236.7 290.513 236.921 290.509 237.152C290.505 237.383 290.59 237.606 290.747 237.776L292.977 240.005C293.145 240.172 293.371 240.266 293.608 240.266C293.844 240.266 294.071 240.172 294.238 240.005L298.51 235.726C298.593 235.643 298.659 235.545 298.704 235.437C298.749 235.328 298.772 235.212 298.772 235.095C298.772 234.978 298.749 234.862 298.704 234.754C298.659 234.646 298.593 234.547 298.51 234.465Z" fill="#15BE53"/>
<g filter="url(#filter2_d_4003_5290)">
<path d="M317.689 217.443H856.365V256.847H317.689V217.443Z" fill="white"/>
<path d="M320.312 238.849V242.145H318.476V233.18H322.147C324.207 233.18 325.493 234.154 325.493 236.014C325.493 237.862 324.207 238.849 322.147 238.849H320.312ZM320.312 237.288H322.047C323.121 237.288 323.671 236.813 323.671 236.014C323.671 235.203 323.121 234.741 322.047 234.741H320.312V237.288ZM331.86 235.577V242.145H330.111V241.471C329.894 241.729 329.623 241.937 329.316 242.077C329.009 242.217 328.675 242.287 328.338 242.282C326.978 242.282 326.104 241.346 326.104 239.922V235.577H327.852V239.535C327.852 240.26 328.176 240.734 328.9 240.734C329.512 240.734 330.111 240.285 330.111 239.435V235.577H331.86ZM337.094 235.565V237.275C336.907 237.249 336.72 237.237 336.532 237.238C335.621 237.238 334.922 237.8 334.922 238.811V242.145H333.174V235.577H334.922V236.501C335.209 235.927 335.858 235.54 336.67 235.54C336.844 235.54 336.969 235.552 337.094 235.565ZM338.982 238.861C338.982 240.097 339.593 240.809 340.517 240.809C341.241 240.809 341.678 240.309 341.841 239.635L343.352 240.309C343.052 241.383 342.028 242.282 340.505 242.282C338.594 242.282 337.246 240.896 337.246 238.861C337.246 236.838 338.594 235.452 340.505 235.452C342.016 235.452 343.014 236.327 343.327 237.388L341.841 238.087C341.678 237.413 341.241 236.913 340.517 236.913C339.593 236.913 338.982 237.638 338.982 238.861ZM344.056 242.145V233.18H345.804V236.252C346.166 235.827 346.765 235.452 347.602 235.452C348.975 235.452 349.812 236.389 349.812 237.812V242.145H348.064V238.312C348.064 237.575 347.764 237.051 347.015 237.051C346.403 237.051 345.804 237.488 345.804 238.349V242.145H344.056ZM356.382 240.534C356.382 241.096 356.407 241.658 356.482 242.145H354.797C354.781 241.97 354.773 241.796 354.772 241.621C354.347 242.033 353.71 242.257 352.911 242.257C351.625 242.257 350.664 241.483 350.664 240.322C350.664 239.011 351.7 238.462 353.036 238.224L354.672 237.912V237.625C354.672 237.101 354.322 236.888 353.698 236.888C352.986 236.888 352.686 237.176 352.649 237.7H350.951C351.013 236.189 352.162 235.452 353.785 235.452C355.408 235.452 356.382 236.139 356.382 237.4V240.534ZM354.672 239.81V239.136L353.398 239.386C352.811 239.498 352.387 239.685 352.387 240.21C352.387 240.672 352.724 240.921 353.248 240.921C353.985 240.921 354.672 240.547 354.672 239.81ZM356.995 241.034L358.082 239.922C358.531 240.534 359.33 240.921 360.067 240.921C360.654 240.921 361.166 240.722 361.166 240.247C361.166 239.748 360.679 239.685 359.63 239.485C358.569 239.273 357.395 238.998 357.395 237.588C357.395 236.327 358.506 235.452 360.079 235.452C361.241 235.452 362.277 235.927 362.789 236.589L361.79 237.687C361.583 237.415 361.317 237.195 361.011 237.044C360.706 236.892 360.37 236.813 360.029 236.813C359.48 236.813 359.118 237.051 359.118 237.413C359.118 237.837 359.555 237.912 360.367 238.075C361.515 238.312 362.876 238.574 362.876 240.06C362.876 241.433 361.603 242.282 360.029 242.282C358.843 242.282 357.595 241.845 356.995 241.034ZM366.634 242.282C364.699 242.282 363.375 240.896 363.375 238.861C363.375 236.926 364.711 235.452 366.572 235.452C368.52 235.452 369.568 236.901 369.568 238.736V239.248H365.049C365.173 240.247 365.785 240.846 366.647 240.846C367.321 240.846 367.858 240.522 368.058 239.885L369.531 240.409C369.056 241.608 367.945 242.282 366.634 242.282ZM366.559 236.851C365.86 236.851 365.323 237.263 365.111 238.062H367.833C367.82 237.413 367.408 236.851 366.559 236.851ZM376.049 242.519C375.624 243.681 375.025 244.43 373.576 244.43C373.239 244.43 373.114 244.417 372.89 244.392V242.981C373.077 242.994 373.189 243.006 373.389 243.006C373.851 243.006 374.101 242.882 374.288 242.407L374.5 241.883L372.14 235.577H373.951L375.437 239.897L376.885 235.577H378.646L376.049 242.519ZM385.013 238.861C385.013 240.909 383.69 242.282 381.792 242.282C379.894 242.282 378.571 240.909 378.571 238.861C378.571 236.826 379.894 235.452 381.792 235.452C383.69 235.452 385.013 236.826 385.013 238.861ZM380.306 238.861C380.306 240.11 380.881 240.834 381.792 240.834C382.704 240.834 383.265 240.11 383.265 238.861C383.265 237.625 382.704 236.901 381.792 236.901C380.881 236.901 380.306 237.625 380.306 238.861ZM391.647 235.577V242.145H389.899V241.471C389.682 241.729 389.411 241.937 389.104 242.077C388.797 242.217 388.463 242.287 388.126 242.282C386.765 242.282 385.891 241.346 385.891 239.922V235.577H387.639V239.535C387.639 240.26 387.964 240.734 388.688 240.734C389.3 240.734 389.899 240.285 389.899 239.435V235.577H391.647ZM396.882 235.565V237.275C396.682 237.25 396.532 237.238 396.32 237.238C395.409 237.238 394.709 237.8 394.709 238.811V242.145H392.961V235.577H394.709V236.501C394.997 235.927 395.646 235.54 396.457 235.54C396.632 235.54 396.757 235.552 396.882 235.565ZM399.439 241.034L400.525 239.922C400.974 240.534 401.774 240.921 402.51 240.921C403.097 240.921 403.609 240.722 403.609 240.247C403.609 239.748 403.122 239.685 402.073 239.485C401.012 239.273 399.838 238.998 399.838 237.588C399.838 236.327 400.949 235.452 402.523 235.452C403.684 235.452 404.72 235.927 405.232 236.589L404.233 237.687C404.026 237.415 403.76 237.195 403.455 237.044C403.15 236.892 402.813 236.813 402.473 236.813C401.923 236.813 401.561 237.051 401.561 237.413C401.561 237.837 401.998 237.912 402.81 238.075C403.959 238.312 405.32 238.574 405.32 240.06C405.32 241.433 404.046 242.282 402.473 242.282C401.287 242.282 400.038 241.845 399.439 241.034ZM406.206 242.145V233.18H407.954V236.252C408.316 235.827 408.915 235.452 409.752 235.452C411.125 235.452 411.962 236.389 411.962 237.812V242.145H410.214V238.312C410.214 237.575 409.914 237.051 409.165 237.051C408.553 237.051 407.954 237.488 407.954 238.349V242.145H406.206ZM418.532 240.534C418.532 241.096 418.557 241.658 418.632 242.145H416.947C416.931 241.97 416.923 241.796 416.922 241.621C416.497 242.033 415.86 242.257 415.061 242.257C413.775 242.257 412.814 241.483 412.814 240.322C412.814 239.011 413.85 238.462 415.186 238.224L416.822 237.912V237.625C416.822 237.101 416.472 236.888 415.848 236.888C415.136 236.888 414.837 237.176 414.799 237.7H413.101C413.163 236.189 414.312 235.452 415.935 235.452C417.558 235.452 418.532 236.139 418.532 237.4V240.534ZM416.822 239.81V239.136L415.548 239.386C414.961 239.498 414.537 239.685 414.537 240.21C414.537 240.672 414.874 240.921 415.398 240.921C416.135 240.921 416.822 240.547 416.822 239.81ZM423.715 235.565V237.275C423.528 237.249 423.341 237.237 423.153 237.238C422.242 237.238 421.543 237.8 421.543 238.811V242.145H419.795V235.577H421.543V236.501C421.83 235.927 422.479 235.54 423.291 235.54C423.466 235.54 423.59 235.552 423.715 235.565ZM427.126 242.282C425.191 242.282 423.867 240.896 423.867 238.861C423.867 236.926 425.203 235.452 427.064 235.452C429.011 235.452 430.06 236.901 430.06 238.736V239.248H425.54C425.665 240.247 426.277 240.846 427.139 240.846C427.813 240.846 428.35 240.522 428.549 239.885L430.023 240.409C429.548 241.608 428.437 242.282 427.126 242.282ZM427.051 236.851C426.352 236.851 425.815 237.263 425.603 238.062H428.325C428.312 237.413 427.9 236.851 427.051 236.851ZM430.32 241.034L431.407 239.922C431.856 240.534 432.655 240.921 433.392 240.921C433.979 240.921 434.491 240.722 434.491 240.247C434.491 239.748 434.004 239.685 432.955 239.485C431.893 239.273 430.72 238.998 430.72 237.588C430.72 236.327 431.831 235.452 433.404 235.452C434.565 235.452 435.602 235.927 436.114 236.589L435.115 237.687C434.908 237.415 434.642 237.195 434.336 237.044C434.031 236.892 433.695 236.813 433.354 236.813C432.805 236.813 432.443 237.051 432.443 237.413C432.443 237.837 432.88 237.912 433.691 238.075C434.84 238.312 436.201 238.574 436.201 240.06C436.201 241.433 434.928 242.282 433.354 242.282C432.168 242.282 430.92 241.845 430.32 241.034Z" fill="#4F5B76"/>
</g>
<path d="M863.5 257.738H278.448C274.507 257.738 271.312 260.933 271.312 264.873V290.007C271.312 293.948 274.507 297.142 278.448 297.142H863.5C867.44 297.142 870.635 293.948 870.635 290.007V264.873C870.635 260.933 867.44 257.738 863.5 257.738Z" fill="white"/>
<path fill-rule="evenodd" clip-rule="evenodd" d="M288.232 283.015C288.232 282.646 288.532 282.346 288.902 282.346H300.072C300.163 282.341 300.254 282.355 300.34 282.386C300.425 282.418 300.504 282.466 300.57 282.529C300.636 282.592 300.688 282.667 300.724 282.751C300.76 282.834 300.779 282.924 300.779 283.015C300.779 283.106 300.76 283.197 300.724 283.28C300.688 283.364 300.636 283.439 300.57 283.502C300.504 283.565 300.425 283.613 300.34 283.644C300.254 283.676 300.163 283.689 300.072 283.684H288.902C288.725 283.684 288.555 283.614 288.429 283.489C288.303 283.363 288.233 283.193 288.232 283.015ZM294.487 275.881C294.487 275.511 294.787 275.212 295.157 275.212H300.072C300.164 275.206 300.256 275.219 300.342 275.25C300.429 275.281 300.508 275.329 300.575 275.392C300.642 275.454 300.695 275.53 300.732 275.614C300.768 275.698 300.787 275.789 300.787 275.881C300.787 275.973 300.768 276.063 300.732 276.148C300.695 276.232 300.642 276.308 300.575 276.37C300.508 276.433 300.429 276.481 300.342 276.512C300.256 276.543 300.164 276.556 300.072 276.549H295.157C295.07 276.55 294.983 276.532 294.901 276.499C294.82 276.465 294.746 276.416 294.684 276.354C294.622 276.292 294.572 276.218 294.539 276.137C294.505 276.056 294.488 275.969 294.487 275.881ZM288.232 279.448C288.232 279.079 288.532 278.779 288.902 278.779H300.072C300.163 278.774 300.254 278.788 300.34 278.819C300.425 278.851 300.504 278.899 300.57 278.962C300.636 279.025 300.688 279.1 300.724 279.184C300.76 279.267 300.779 279.357 300.779 279.448C300.779 279.54 300.76 279.63 300.724 279.713C300.688 279.797 300.636 279.872 300.57 279.935C300.504 279.998 300.425 280.046 300.34 280.077C300.254 280.109 300.163 280.122 300.072 280.117H288.902C288.725 280.117 288.555 280.047 288.429 279.922C288.303 279.796 288.233 279.626 288.232 279.448Z" fill="#0A2540"/>
<path d="M295.385 272.337C295.509 272.211 295.578 272.04 295.577 271.862C295.576 271.685 295.504 271.515 295.378 271.39C295.251 271.266 295.08 271.196 294.903 271.197C294.725 271.198 294.555 271.27 294.431 271.396L290.233 275.633L288.541 273.693C288.422 273.567 288.259 273.491 288.086 273.482C287.913 273.473 287.743 273.532 287.613 273.646C287.482 273.759 287.4 273.919 287.385 274.092C287.369 274.264 287.421 274.436 287.53 274.571L289.684 277.041C289.743 277.111 289.817 277.167 289.901 277.206C290.154 277.336 290.473 277.294 290.684 277.081L295.385 272.337Z" fill="#0A2540"/>
<g filter="url(#filter3_d_4003_5290)">
<path d="M317.689 257.738H856.365V297.142H317.689V257.738Z" fill="white"/>
<path d="M317.689 268.439H702.967V286.439H317.689V268.439Z" fill="white"/>
<path d="M320.287 282.441H318.476V273.476H324.594V275.062H320.287V277.297H323.883V278.883H320.287V282.441ZM325.312 275.1V273.476H327.097V275.1H325.312ZM327.085 275.874V282.441H325.337V275.874H327.085ZM330.13 273.476V282.441H328.382V273.476H330.13ZM334.298 282.579C332.363 282.579 331.04 281.193 331.04 279.158C331.04 277.222 332.376 275.749 334.236 275.749C336.184 275.749 337.233 277.197 337.233 279.033V279.545H332.713C332.838 280.543 333.449 281.143 334.311 281.143C334.985 281.143 335.522 280.818 335.722 280.181L337.195 280.706C336.721 281.904 335.609 282.579 334.298 282.579ZM334.224 277.147C333.524 277.147 332.987 277.559 332.775 278.358H335.497C335.485 277.709 335.073 277.147 334.224 277.147ZM343.575 273.339C345.236 273.339 346.585 274.301 346.585 275.861C346.585 276.71 346.123 277.372 345.348 277.759C346.285 278.084 347.009 278.87 347.009 279.944C347.009 281.555 345.536 282.579 343.575 282.579C341.615 282.579 340.129 281.555 340.129 279.944C340.129 278.87 340.866 278.084 341.802 277.759C341.016 277.372 340.566 276.71 340.566 275.861C340.566 274.301 341.915 273.339 343.575 273.339ZM343.575 277.035C344.387 277.035 344.936 276.573 344.936 275.886C344.936 275.2 344.387 274.738 343.575 274.738C342.764 274.738 342.214 275.2 342.214 275.886C342.214 276.573 342.764 277.035 343.575 277.035ZM343.575 278.483C342.602 278.483 341.94 279.033 341.94 279.807C341.94 280.618 342.602 281.143 343.575 281.143C344.537 281.143 345.211 280.618 345.211 279.807C345.211 279.033 344.537 278.483 343.575 278.483ZM350.861 282.579C349.039 282.579 347.628 281.617 347.365 279.819L349.151 279.507C349.288 280.494 349.975 281.055 350.836 281.055C351.698 281.055 352.322 280.606 352.322 279.769C352.322 278.945 351.661 278.596 350.724 278.596H349.863V277.085H350.699C351.573 277.085 352.11 276.735 352.11 275.999C352.11 275.299 351.648 274.862 350.849 274.862C349.987 274.862 349.426 275.474 349.276 276.348L347.603 276.098C347.827 274.575 349.026 273.339 350.911 273.339C352.759 273.339 353.871 274.413 353.871 275.886C353.871 276.798 353.334 277.534 352.622 277.809C353.459 278.096 354.108 278.758 354.108 279.894C354.108 281.355 352.859 282.579 350.861 282.579ZM356.519 278.446C356.519 280.431 357.355 282.341 358.504 283.665H356.793C355.645 282.479 354.583 280.681 354.583 278.446C354.583 276.211 355.645 274.413 356.793 273.227H358.504C357.355 274.575 356.519 276.461 356.519 278.446ZM362.673 282.579C361.849 282.579 361.224 282.254 360.837 281.767V282.441H359.089V273.476H360.837V276.548C361.224 276.074 361.849 275.749 362.673 275.749C364.483 275.749 365.532 277.297 365.532 279.158C365.532 281.03 364.483 282.579 362.673 282.579ZM360.8 278.983V279.345C360.8 280.456 361.424 281.08 362.261 281.08C363.247 281.08 363.771 280.294 363.771 279.158C363.771 278.034 363.247 277.247 362.261 277.247C361.424 277.247 360.8 277.859 360.8 278.983ZM367.7 278.446C367.7 276.461 366.863 274.575 365.714 273.227H367.425C368.574 274.413 369.635 276.211 369.635 278.446C369.635 280.681 368.574 282.479 367.425 283.665H365.714C366.863 282.341 367.7 280.431 367.7 278.446ZM375.778 282.579C373.843 282.579 372.52 281.193 372.52 279.158C372.52 277.222 373.856 275.749 375.716 275.749C377.664 275.749 378.713 277.197 378.713 279.033V279.545H374.193C374.318 280.543 374.929 281.143 375.791 281.143C376.465 281.143 377.002 280.818 377.202 280.181L378.675 280.706C378.201 281.904 377.089 282.579 375.778 282.579ZM375.704 277.147C375.004 277.147 374.467 277.559 374.255 278.358H376.977C376.965 277.709 376.553 277.147 375.704 277.147ZM381.358 273.476V282.441H379.61V273.476H381.358ZM385.527 282.579C383.591 282.579 382.268 281.193 382.268 279.158C382.268 277.222 383.604 275.749 385.464 275.749C387.412 275.749 388.461 277.197 388.461 279.033V279.545H383.941C384.066 280.543 384.678 281.143 385.539 281.143C386.213 281.143 386.75 280.818 386.95 280.181L388.423 280.706C387.949 281.904 386.838 282.579 385.527 282.579ZM385.452 277.147C384.752 277.147 384.216 277.559 384.003 278.358H386.725C386.713 277.709 386.301 277.147 385.452 277.147ZM390.719 279.158C390.719 280.394 391.33 281.105 392.254 281.105C392.979 281.105 393.416 280.606 393.578 279.932L395.089 280.606C394.789 281.68 393.765 282.579 392.242 282.579C390.332 282.579 388.983 281.193 388.983 279.158C388.983 277.135 390.332 275.749 392.242 275.749C393.753 275.749 394.752 276.623 395.064 277.684L393.578 278.383C393.416 277.709 392.979 277.21 392.254 277.21C391.33 277.21 390.719 277.934 390.719 279.158ZM395.992 280.731V277.335H395.118V275.874H395.992V274.001H397.715V275.874H399.051V277.335H397.715V280.369C397.715 280.931 398.027 281.005 398.539 281.005C398.789 281.005 398.914 280.993 399.138 280.968V282.416C398.826 282.479 398.452 282.516 398.015 282.516C396.691 282.516 395.992 282.079 395.992 280.731ZM400.02 275.1V273.476H401.805V275.1H400.02ZM401.793 275.874V282.441H400.045V275.874H401.793ZM409.146 279.158C409.146 281.205 407.822 282.579 405.924 282.579C404.026 282.579 402.703 281.205 402.703 279.158C402.703 277.122 404.026 275.749 405.924 275.749C407.822 275.749 409.146 277.122 409.146 279.158ZM404.439 279.158C404.439 280.406 405.013 281.13 405.924 281.13C406.836 281.13 407.398 280.406 407.398 279.158C407.398 277.921 406.836 277.197 405.924 277.197C405.013 277.197 404.439 277.921 404.439 279.158ZM410.074 282.441V275.874H411.822V276.548C412.184 276.123 412.783 275.749 413.62 275.749C414.993 275.749 415.83 276.685 415.83 278.109V282.441H414.082V278.608C414.082 277.871 413.782 277.347 413.033 277.347C412.421 277.347 411.822 277.784 411.822 278.646V282.441H410.074Z" fill="#0A2540"/>
</g>
<path d="M863.5 298.035H278.448C274.507 298.035 271.312 301.23 271.312 305.17V330.304C271.312 334.245 274.507 337.439 278.448 337.439H863.5C867.44 337.439 870.635 334.245 870.635 330.304V305.17C870.635 301.23 867.44 298.035 863.5 298.035Z" fill="white"/>
<g filter="url(#filter4_d_4003_5290)">
<path d="M317.689 298.035H856.365V337.439H317.689V298.035Z" fill="white"/>
</g>
<path d="M107.583 105.299L103.759 115.544H105.842L106.656 113.347H110.88L111.693 115.544H113.819L109.981 105.299H107.583ZM108.753 107.625L110.209 111.563H107.312L108.753 107.625ZM114.388 113.589C114.388 115.131 115.188 115.63 116.7 115.63C117.2 115.63 117.628 115.587 117.984 115.516V113.861C117.727 113.889 117.584 113.903 117.299 113.903C116.714 113.903 116.358 113.818 116.358 113.176V109.708H117.884V108.038H116.358V105.898H114.388V108.038H113.39V109.708H114.388V113.589ZM120.872 105.299H118.873V115.544H120.873V105.299H120.872ZM128.272 113.704V110.122C128.272 108.681 127.16 107.896 125.304 107.896C123.449 107.896 122.137 108.738 122.065 110.464H124.006C124.049 109.865 124.391 109.537 125.205 109.537C125.918 109.537 126.318 109.779 126.318 110.379V110.707L124.448 111.064C122.922 111.334 121.738 111.963 121.738 113.461C121.738 114.788 122.836 115.673 124.306 115.673C125.219 115.673 125.946 115.416 126.432 114.945C126.432 115.159 126.446 115.359 126.46 115.545H128.387C128.301 114.988 128.272 114.345 128.272 113.704ZM126.318 112.876C126.318 113.718 125.533 114.146 124.691 114.146C124.091 114.146 123.706 113.861 123.706 113.333C123.706 112.733 124.192 112.519 124.862 112.391L126.318 112.105V112.876ZM128.828 114.274C129.512 115.202 130.939 115.701 132.295 115.701C134.093 115.701 135.548 114.731 135.548 113.161C135.548 111.463 133.993 111.164 132.68 110.892C131.752 110.707 131.253 110.622 131.253 110.136C131.253 109.722 131.667 109.451 132.295 109.451C133.079 109.451 133.807 109.808 134.307 110.451L135.448 109.194C134.863 108.438 133.678 107.896 132.352 107.896C130.554 107.896 129.284 108.895 129.284 110.336C129.284 111.948 130.625 112.262 131.838 112.505C133.037 112.733 133.593 112.805 133.593 113.375C133.593 113.918 133.008 114.145 132.337 114.145C131.495 114.145 130.582 113.704 130.068 113.005L128.828 114.274Z" fill="#0A2540"/>
<g filter="url(#filter5_d_4003_5290)">
<path d="M103.645 136.822H174.915V230.226H103.645V136.822Z" fill="white"/>
<path d="M103.645 136.822H168.915V154.822H103.645V136.822Z" fill="white"/>
<path d="M118.301 146.339C118.301 149.061 120.049 150.959 122.471 150.959C124.894 150.959 126.642 149.061 126.642 146.339C126.642 143.617 124.894 141.719 122.472 141.719C120.05 141.719 118.301 143.617 118.301 146.339ZM125.044 146.339C125.044 148.287 123.983 149.549 122.472 149.549C120.961 149.549 119.9 148.287 119.9 146.339C119.9 144.391 120.961 143.13 122.472 143.13C123.982 143.13 125.044 144.39 125.044 146.339ZM130.831 150.822L133.228 144.267H131.68L130.093 149.024L128.495 144.267H126.923L129.32 150.822H130.83H130.831ZM136.513 150.959C137.823 150.959 138.86 150.272 139.323 149.124L138.036 148.637C137.836 149.311 137.25 149.685 136.513 149.685C135.551 149.685 134.877 148.999 134.765 147.875H139.36V147.375C139.36 145.578 138.348 144.142 136.45 144.142C134.627 144.142 133.329 145.627 133.329 147.55C133.329 149.573 134.64 150.959 136.513 150.959ZM136.438 145.403C137.387 145.403 137.836 146.027 137.848 146.751H134.84C135.064 145.865 135.664 145.403 136.438 145.403ZM144.068 144.254C143.927 144.237 143.785 144.229 143.643 144.229C142.806 144.229 142.132 144.629 141.845 145.24V144.267H140.347V150.822H141.845V147.376C141.845 146.326 142.569 145.715 143.518 145.715C143.73 145.715 143.88 145.727 144.068 145.752V144.254ZM148.233 150.822L150.63 144.267H149.083L147.497 149.024L145.899 144.267H144.326L146.723 150.822H148.233ZM151.277 143.392H152.825V141.857H151.277V143.392ZM152.8 144.267H151.303V150.822H152.801L152.8 144.267ZM157.009 150.959C158.32 150.959 159.356 150.272 159.819 149.124L158.532 148.637C158.332 149.311 157.746 149.685 157.009 149.685C156.048 149.685 155.373 148.999 155.261 147.875H159.856V147.375C159.856 145.578 158.845 144.142 156.946 144.142C155.124 144.142 153.826 145.627 153.826 147.55C153.826 149.573 155.136 150.959 157.009 150.959ZM156.934 145.403C157.884 145.403 158.332 146.027 158.345 146.751H155.335C155.561 145.865 156.159 145.403 156.934 145.403ZM163.904 144.267L162.742 148.612L161.556 144.267H160.02L161.993 150.822H163.291L164.49 146.526L165.689 150.822H166.987L168.96 144.267H167.474L166.313 148.612L165.139 144.267H163.904Z" fill="#635BFF"/>
<path d="M103.645 161.957H170.915V179.957H103.645V161.957Z" fill="white"/>
<path d="M119.575 171.474C119.575 169.351 120.749 167.916 122.409 167.916C123.57 167.916 124.407 168.59 124.732 169.726L125.868 169.351C125.343 167.803 124.12 166.854 122.409 166.854C120.087 166.854 118.376 168.74 118.376 171.474C118.376 174.208 120.086 176.094 122.409 176.094C124.119 176.094 125.343 175.145 125.868 173.597L124.732 173.222C124.407 174.358 123.57 175.032 122.409 175.032C120.749 175.032 119.575 173.597 119.575 171.474ZM132.563 172.698C132.563 170.675 131.314 169.301 129.528 169.301C127.743 169.301 126.494 170.675 126.494 172.698C126.494 174.72 127.743 176.094 129.529 176.094C131.314 176.094 132.563 174.72 132.563 172.698ZM127.631 172.698C127.631 171.199 128.38 170.25 129.529 170.25C130.677 170.25 131.426 171.199 131.426 172.698C131.426 174.183 130.677 175.132 129.528 175.132C128.38 175.132 127.631 174.183 127.631 172.698ZM134.978 172.048C134.978 170.987 135.778 170.35 136.526 170.35C137.45 170.35 137.825 171.037 137.825 171.948V175.956H138.948V172.048C138.948 170.987 139.748 170.35 140.497 170.35C141.421 170.35 141.795 171.037 141.795 171.948V175.956H142.919V171.649C142.919 170.263 142.107 169.301 140.759 169.301C140.347 169.299 139.94 169.4 139.576 169.594C139.213 169.788 138.903 170.069 138.674 170.413C138.349 169.738 137.737 169.301 136.864 169.301C135.952 169.301 135.328 169.776 134.978 170.313V169.426H133.854V175.956H134.978V172.048ZM147.74 176.094C149.55 176.094 150.587 174.546 150.587 172.698C150.587 170.837 149.55 169.301 147.74 169.301C146.828 169.301 146.104 169.738 145.717 170.375V169.426H144.593V178.204H145.717V175.007C146.104 175.657 146.828 176.094 147.74 176.094ZM145.692 172.473C145.692 170.95 146.616 170.288 147.54 170.288C148.764 170.288 149.45 171.287 149.45 172.698C149.45 174.096 148.764 175.107 147.54 175.107C146.616 175.107 145.692 174.433 145.692 172.935V172.473ZM156.577 174.533V171.162C156.577 169.963 155.677 169.301 154.229 169.301C152.831 169.301 151.745 169.963 151.645 171.349H152.744C152.831 170.65 153.305 170.288 154.167 170.288C154.966 170.288 155.49 170.6 155.49 171.324V171.724L153.867 172.048C152.407 172.336 151.382 172.885 151.382 174.183C151.382 175.357 152.356 176.069 153.542 176.069C154.392 176.069 155.116 175.757 155.515 175.282C155.528 175.544 155.54 175.769 155.565 175.956H156.677C156.614 175.544 156.577 175.02 156.577 174.533ZM155.49 173.734C155.49 174.57 154.654 175.157 153.692 175.157C152.981 175.157 152.506 174.77 152.506 174.133C152.506 173.347 153.168 173.072 154.166 172.872L155.49 172.598V173.734ZM158.256 175.956H159.379V172.061C159.379 170.975 160.203 170.35 161.015 170.35C161.989 170.35 162.375 171.037 162.375 171.948V175.956H163.499V171.649C163.499 170.263 162.713 169.301 161.327 169.301C160.403 169.301 159.754 169.776 159.379 170.313V169.426H158.255L158.256 175.956ZM167.552 176.668L170.361 169.426H169.187L167.377 174.421L165.541 169.426H164.355L166.777 175.719L166.465 176.493C166.203 177.143 165.941 177.317 165.454 177.317C165.267 177.317 165.129 177.305 164.917 177.255V178.229C165.117 178.266 165.254 178.279 165.529 178.279C166.665 178.279 167.177 177.655 167.552 176.668Z" fill="#4F5B76"/>
<path d="M103.645 187.092H174.915V205.092H103.645V187.092Z" fill="white"/>
<path d="M125.393 193.176V192.127H118.127V193.176H121.161V201.092H122.359V193.176H125.393ZM127.627 201.23C128.925 201.23 129.912 200.518 130.311 199.357L129.325 199.007C129.125 199.781 128.501 200.256 127.627 200.256C126.491 200.256 125.704 199.382 125.642 198.008H130.362V197.634C130.362 195.823 129.4 194.437 127.577 194.437C125.804 194.437 124.567 195.886 124.567 197.833C124.567 199.844 125.817 201.23 127.627 201.23ZM127.564 195.399C128.701 195.399 129.2 196.223 129.225 197.147H125.705C125.904 196.035 126.614 195.399 127.564 195.399ZM132.747 197.184C132.747 196.123 133.546 195.486 134.295 195.486C135.219 195.486 135.593 196.173 135.593 197.084V201.092H136.717V197.184C136.717 196.123 137.517 195.486 138.265 195.486C139.189 195.486 139.564 196.173 139.564 197.084V201.092H140.688V196.785C140.688 195.399 139.876 194.437 138.528 194.437C138.116 194.435 137.709 194.536 137.345 194.73C136.981 194.924 136.671 195.205 136.442 195.548C136.118 194.874 135.506 194.437 134.632 194.437C133.72 194.437 133.096 194.912 132.747 195.449V194.562H131.623V201.092H132.747V197.184ZM145.508 201.23C147.318 201.23 148.355 199.681 148.355 197.833C148.355 195.973 147.319 194.437 145.508 194.437C144.597 194.437 143.873 194.874 143.486 195.511V194.562H142.362V203.34H143.486V200.143C143.873 200.793 144.596 201.23 145.508 201.23ZM143.461 197.609C143.461 196.085 144.385 195.424 145.309 195.424C146.532 195.424 147.219 196.422 147.219 197.833C147.219 199.232 146.532 200.243 145.309 200.243C144.385 200.243 143.461 199.569 143.461 198.071V197.609ZM150.761 192.127H149.638V201.092H150.762L150.761 192.127ZM157.207 199.669V196.298C157.207 195.099 156.309 194.437 154.86 194.437C153.462 194.437 152.375 195.099 152.275 196.485H153.375C153.462 195.786 153.936 195.424 154.798 195.424C155.597 195.424 156.121 195.736 156.121 196.46V196.859L154.498 197.184C153.038 197.471 152.013 198.021 152.013 199.319C152.013 200.493 152.987 201.205 154.173 201.205C155.023 201.205 155.747 200.892 156.146 200.418C156.159 200.68 156.171 200.905 156.196 201.092H157.307C157.245 200.68 157.207 200.156 157.207 199.669ZM156.121 198.87C156.121 199.706 155.285 200.293 154.323 200.293C153.611 200.293 153.137 199.906 153.137 199.269C153.137 198.483 153.799 198.208 154.797 198.008L156.121 197.733V198.87ZM159.061 199.531C159.061 200.78 159.698 201.155 160.809 201.155C161.184 201.155 161.509 201.117 161.796 201.055V200.093C161.533 200.156 161.346 200.168 161.084 200.168C160.509 200.168 160.172 200.043 160.172 199.357V195.523H161.658V194.562H160.173V192.652H159.063V194.562H158.051V195.523H159.062L159.061 199.531ZM165.565 201.23C166.864 201.23 167.85 200.518 168.25 199.357L167.263 199.007C167.063 199.781 166.439 200.256 165.565 200.256C164.429 200.256 163.642 199.382 163.58 198.008H168.3V197.634C168.3 195.823 167.338 194.437 165.515 194.437C163.742 194.437 162.506 195.886 162.506 197.833C162.506 199.844 163.754 201.23 165.565 201.23ZM165.503 195.399C166.639 195.399 167.138 196.223 167.163 197.147H163.643C163.843 196.035 164.553 195.399 165.503 195.399ZM168.837 199.706C169.336 200.718 170.523 201.23 171.709 201.23C173.107 201.23 174.243 200.405 174.243 199.157C174.243 197.733 172.957 197.509 171.834 197.247C170.922 197.047 170.348 196.934 170.348 196.323C170.348 195.736 170.847 195.361 171.596 195.361C172.42 195.361 173.032 195.773 173.369 196.422L174.168 195.786C173.781 195.012 172.82 194.437 171.646 194.437C170.26 194.437 169.249 195.249 169.249 196.41C169.249 197.746 170.373 197.983 171.447 198.22C172.52 198.445 173.145 198.545 173.145 199.257C173.145 199.968 172.47 200.293 171.709 200.293C170.86 200.293 170.061 199.831 169.711 199.069L168.837 199.706Z" fill="#4F5B76"/>
<path d="M103.645 212.227H164.915V230.227H103.645V212.227Z" fill="white"/>
<path d="M120.098 222.469H122.321C124.219 222.469 125.43 221.545 125.43 219.859C125.43 218.149 124.219 217.262 122.32 217.262H118.9V226.227H120.098V222.469ZM120.098 221.432V218.298H122.258C123.532 218.298 124.244 218.848 124.244 219.859C124.244 220.871 123.532 221.432 122.258 221.432H120.098ZM130.992 224.804V221.432C130.992 220.234 130.092 219.572 128.644 219.572C127.246 219.572 126.16 220.234 126.06 221.62H127.159C127.246 220.92 127.72 220.558 128.582 220.558C129.381 220.558 129.905 220.871 129.905 221.595V221.994L128.282 222.319C126.822 222.606 125.798 223.155 125.798 224.454C125.798 225.628 126.772 226.339 127.958 226.339C128.807 226.339 129.531 226.027 129.93 225.553C129.943 225.815 129.955 226.04 129.98 226.227H131.092C131.029 225.815 130.992 225.291 130.992 224.804ZM129.905 224.004C129.905 224.841 129.069 225.428 128.107 225.428C127.396 225.428 126.921 225.041 126.921 224.404C126.921 223.617 127.583 223.343 128.581 223.143L129.905 222.868V224.004ZM136.055 219.672C135.906 219.655 135.756 219.647 135.605 219.647C134.718 219.647 134.081 220.146 133.795 220.808V219.697H132.671V226.227H133.794V222.656C133.794 221.507 134.556 220.758 135.504 220.758C135.717 220.758 135.867 220.771 136.054 220.808L136.055 219.672ZM137.402 224.666C137.402 225.915 138.039 226.289 139.15 226.289C139.525 226.289 139.85 226.252 140.137 226.189V225.228C139.875 225.291 139.687 225.303 139.425 225.303C138.851 225.303 138.514 225.178 138.514 224.491V220.658H140V219.697H138.514V217.787H137.402V219.697H136.392V220.658H137.403L137.402 224.666ZM141.333 226.227H142.457V222.331C142.457 221.245 143.281 220.621 144.093 220.621C145.067 220.621 145.453 221.308 145.453 222.219V226.227H146.578V221.919C146.578 220.533 145.791 219.572 144.405 219.572C143.481 219.572 142.832 220.046 142.457 220.583V219.697H141.334L141.333 226.227ZM150.853 226.364C152.152 226.364 153.138 225.653 153.538 224.491L152.551 224.142C152.351 224.916 151.727 225.39 150.853 225.39C149.717 225.39 148.931 224.516 148.868 223.143H153.588V222.768C153.588 220.958 152.626 219.572 150.803 219.572C149.03 219.572 147.794 221.02 147.794 222.968C147.794 224.978 149.043 226.364 150.854 226.364H150.853ZM150.791 220.533C151.927 220.533 152.427 221.357 152.451 222.281H148.931C149.131 221.17 149.842 220.533 150.791 220.533ZM158.233 219.672C158.084 219.655 157.934 219.647 157.783 219.647C156.897 219.647 156.26 220.146 155.973 220.808V219.697H154.849V226.227H155.973V222.656C155.973 221.507 156.735 220.758 157.683 220.758C157.896 220.758 158.046 220.771 158.233 220.808V219.672ZM158.487 224.841C158.987 225.852 160.173 226.364 161.359 226.364C162.757 226.364 163.893 225.54 163.893 224.292C163.893 222.868 162.607 222.644 161.483 222.381C160.573 222.182 159.998 222.069 159.998 221.457C159.998 220.871 160.498 220.496 161.247 220.496C162.071 220.496 162.682 220.908 163.019 221.557L163.819 220.92C163.432 220.146 162.47 219.572 161.296 219.572C159.911 219.572 158.899 220.384 158.899 221.545C158.899 222.881 160.023 223.118 161.097 223.355C162.17 223.58 162.795 223.68 162.795 224.392C162.795 225.103 162.121 225.428 161.359 225.428C160.509 225.428 159.711 224.966 159.361 224.204L158.487 224.841Z" fill="#4F5B76"/>
</g>
<path d="M104.537 136.822V154.659" stroke="#635BFF" stroke-width="1.784"/>
</g>
</g>
</g>
</g>
</g>
</g>
</g>
<g opacity="0.3">
<path d="M4.14258 4.67383H460.143V304.674C460.143 306.883 458.352 308.674 456.143 308.674H8.14259C5.93345 308.674 4.14258 306.883 4.14258 304.674V4.67383Z" fill="url(#paint0_linear_4003_5290)"/>
</g>
</g>
<defs>
<filter id="filter0_d_4003_5290" x="317.689" y="136.852" width="538.676" height="40.2963" filterUnits="userSpaceOnUse" color-interpolation-filters="sRGB">
<feFlood flood-opacity="0" result="BackgroundImageFix"/>
<feColorMatrix in="SourceAlpha" type="matrix" values="0 0 0 0 0 0 0 0 0 0 0 0 0 0 0 0 0 0 127 0" result="hardAlpha"/>
<feOffset dy="0.892"/>
<feComposite in2="hardAlpha" operator="out"/>
<feColorMatrix type="matrix" values="0 0 0 0 0.898039 0 0 0 0 0.917647 0 0 0 0 0.941176 0 0 0 1 0"/>
<feBlend mode="normal" in2="BackgroundImageFix" result="effect1_dropShadow_4003_5290"/>
<feBlend mode="normal" in="SourceGraphic" in2="effect1_dropShadow_4003_5290" result="shape"/>
</filter>
<filter id="filter1_d_4003_5290" x="317.576" y="177.146" width="538.789" height="40.2963" filterUnits="userSpaceOnUse" color-interpolation-filters="sRGB">
<feFlood flood-opacity="0" result="BackgroundImageFix"/>
<feColorMatrix in="SourceAlpha" type="matrix" values="0 0 0 0 0 0 0 0 0 0 0 0 0 0 0 0 0 0 127 0" result="hardAlpha"/>
<feOffset dy="0.892"/>
<feComposite in2="hardAlpha" operator="out"/>
<feColorMatrix type="matrix" values="0 0 0 0 0.898039 0 0 0 0 0.917647 0 0 0 0 0.941176 0 0 0 1 0"/>
<feBlend mode="normal" in2="BackgroundImageFix" result="effect1_dropShadow_4003_5290"/>
<feBlend mode="normal" in="SourceGraphic" in2="effect1_dropShadow_4003_5290" result="shape"/>
</filter>
<filter id="filter2_d_4003_5290" x="317.689" y="217.443" width="538.676" height="40.2963" filterUnits="userSpaceOnUse" color-interpolation-filters="sRGB">
<feFlood flood-opacity="0" result="BackgroundImageFix"/>
<feColorMatrix in="SourceAlpha" type="matrix" values="0 0 0 0 0 0 0 0 0 0 0 0 0 0 0 0 0 0 127 0" result="hardAlpha"/>
<feOffset dy="0.892"/>
<feComposite in2="hardAlpha" operator="out"/>
<feColorMatrix type="matrix" values="0 0 0 0 0.898039 0 0 0 0 0.917647 0 0 0 0 0.941176 0 0 0 1 0"/>
<feBlend mode="normal" in2="BackgroundImageFix" result="effect1_dropShadow_4003_5290"/>
<feBlend mode="normal" in="SourceGraphic" in2="effect1_dropShadow_4003_5290" result="shape"/>
</filter>
<filter id="filter3_d_4003_5290" x="317.689" y="257.738" width="538.676" height="40.2963" filterUnits="userSpaceOnUse" color-interpolation-filters="sRGB">
<feFlood flood-opacity="0" result="BackgroundImageFix"/>
<feColorMatrix in="SourceAlpha" type="matrix" values="0 0 0 0 0 0 0 0 0 0 0 0 0 0 0 0 0 0 127 0" result="hardAlpha"/>
<feOffset dy="0.892"/>
<feComposite in2="hardAlpha" operator="out"/>
<feColorMatrix type="matrix" values="0 0 0 0 0.898039 0 0 0 0 0.917647 0 0 0 0 0.941176 0 0 0 1 0"/>
<feBlend mode="normal" in2="BackgroundImageFix" result="effect1_dropShadow_4003_5290"/>
<feBlend mode="normal" in="SourceGraphic" in2="effect1_dropShadow_4003_5290" result="shape"/>
</filter>
<filter id="filter4_d_4003_5290" x="317.689" y="298.035" width="538.676" height="40.2963" filterUnits="userSpaceOnUse" color-interpolation-filters="sRGB">
<feFlood flood-opacity="0" result="BackgroundImageFix"/>
<feColorMatrix in="SourceAlpha" type="matrix" values="0 0 0 0 0 0 0 0 0 0 0 0 0 0 0 0 0 0 127 0" result="hardAlpha"/>
<feOffset dy="0.892"/>
<feComposite in2="hardAlpha" operator="out"/>
<feColorMatrix type="matrix" values="0 0 0 0 0.898039 0 0 0 0 0.917647 0 0 0 0 0.941176 0 0 0 1 0"/>
<feBlend mode="normal" in2="BackgroundImageFix" result="effect1_dropShadow_4003_5290"/>
<feBlend mode="normal" in="SourceGraphic" in2="effect1_dropShadow_4003_5290" result="shape"/>
</filter>
<filter id="filter5_d_4003_5290" x="103.645" y="136.822" width="73.0535" height="93.4043" filterUnits="userSpaceOnUse" color-interpolation-filters="sRGB">
<feFlood flood-opacity="0" result="BackgroundImageFix"/>
<feColorMatrix in="SourceAlpha" type="matrix" values="0 0 0 0 0 0 0 0 0 0 0 0 0 0 0 0 0 0 127 0" result="hardAlpha"/>
<feOffset dx="1.784"/>
<feComposite in2="hardAlpha" operator="out"/>
<feColorMatrix type="matrix" values="0 0 0 0 0.423529 0 0 0 0 0.54902 0 0 0 0 0.670588 0 0 0 0.15 0"/>
<feBlend mode="normal" in2="BackgroundImageFix" result="effect1_dropShadow_4003_5290"/>
<feBlend mode="normal" in="SourceGraphic" in2="effect1_dropShadow_4003_5290" result="shape"/>
</filter>
<linearGradient id="paint0_linear_4003_5290" x1="232.143" y1="4.67383" x2="232.143" y2="308.674" gradientUnits="userSpaceOnUse">
<stop stop-color="#BEC9DC" stop-opacity="0"/>
<stop offset="1" stop-color="#BEC9DC" stop-opacity="0.4"/>
</linearGradient>
<clipPath id="clip0_4003_5290">
<rect x="4.14258" y="4.67383" width="456" height="304" rx="4" fill="white"/>
</clipPath>
<clipPath id="clip1_4003_5290">
<rect x="4.14258" y="4.67383" width="456" height="304" rx="4" fill="white"/>
</clipPath>
<clipPath id="clip2_4003_5290">
<rect width="456" height="304" fill="white" transform="translate(67.9727 65.4746)"/>
</clipPath>
<clipPath id="clip3_4003_5290">
<rect x="67.9727" y="65.4746" width="434" height="272" rx="8" fill="white"/>
</clipPath>
<clipPath id="clip4_4003_5290">
<rect width="434" height="272" fill="white" transform="translate(67.9727 65.4746)"/>
</clipPath>
<clipPath id="clip5_4003_5290">
<rect width="434" height="272" fill="white" transform="translate(67.9727 65.4746)"/>
</clipPath>
<clipPath id="clip6_4003_5290">
<rect width="434" height="272" fill="white" transform="translate(67.9727 65.4746)"/>
</clipPath>
</defs>
</svg>
