<svg width="465" height="309" viewBox="0 0 465 309" fill="none" xmlns="http://www.w3.org/2000/svg">
<g clip-path="url(#clip0_4003_5367)">
<rect x="4.14258" y="4.66406" width="456" height="304" rx="4" fill="#F6F9FC"/>
<g clip-path="url(#clip1_4003_5367)">
<g clip-path="url(#clip2_4003_5367)">
<g clip-path="url(#clip3_4003_5367)">
<rect x="67.9727" y="65.4531" width="456" height="359.84" rx="8" fill="white"/>
<rect width="456" height="359.85" transform="translate(67.9727 65.4473)" fill="white"/>
<path d="M106.592 104.6V95.9595H112.009V97.0817H107.895V99.7142H111.726V100.832H107.895V103.477H112.059V104.6H106.592ZM113.849 104.6V98.1195H115.06V99.1742H115.14C115.275 98.817 115.496 98.5386 115.802 98.3389C116.109 98.1364 116.476 98.0351 116.903 98.0351C117.336 98.0351 117.699 98.1364 117.992 98.3389C118.287 98.5414 118.505 98.8198 118.646 99.1742H118.713C118.868 98.8283 119.114 98.5527 119.451 98.3473C119.789 98.1392 120.191 98.0351 120.658 98.0351C121.246 98.0351 121.725 98.2194 122.097 98.5878C122.471 98.9563 122.658 99.5117 122.658 100.254V104.6H121.396V100.372C121.396 99.9336 121.277 99.6158 121.038 99.4189C120.799 99.222 120.513 99.1236 120.181 99.1236C119.771 99.1236 119.451 99.2502 119.224 99.5033C118.996 99.7536 118.882 100.076 118.882 100.469V104.6H117.625V100.292C117.625 99.9406 117.515 99.658 117.296 99.4442C117.076 99.2305 116.791 99.1236 116.439 99.1236C116.2 99.1236 115.979 99.1869 115.777 99.3134C115.577 99.4372 115.415 99.6102 115.292 99.8324C115.171 100.055 115.11 100.312 115.11 100.604V104.6H113.849ZM126.434 104.743C126.024 104.743 125.652 104.667 125.32 104.515C124.989 104.361 124.726 104.137 124.531 103.844C124.34 103.552 124.245 103.193 124.245 102.769C124.245 102.403 124.315 102.102 124.456 101.866C124.596 101.63 124.786 101.443 125.025 101.305C125.264 101.167 125.531 101.063 125.827 100.993C126.122 100.922 126.423 100.869 126.729 100.832C127.118 100.787 127.433 100.751 127.675 100.723C127.916 100.692 128.092 100.642 128.202 100.575C128.312 100.507 128.366 100.398 128.366 100.246V100.216C128.366 99.8478 128.262 99.5624 128.054 99.3599C127.849 99.1573 127.542 99.0561 127.135 99.0561C126.71 99.0561 126.375 99.1503 126.13 99.3388C125.889 99.5244 125.721 99.7311 125.628 99.9589L124.443 99.6889C124.584 99.2952 124.789 98.9773 125.059 98.7355C125.332 98.4908 125.645 98.3136 126 98.2039C126.354 98.0914 126.727 98.0351 127.118 98.0351C127.376 98.0351 127.651 98.0661 127.94 98.128C128.233 98.187 128.506 98.2967 128.759 98.457C129.015 98.6173 129.224 98.8466 129.387 99.1447C129.55 99.44 129.632 99.8239 129.632 100.296V104.6H128.4V103.714H128.35C128.268 103.877 128.146 104.037 127.982 104.195C127.819 104.352 127.61 104.483 127.354 104.587C127.098 104.691 126.791 104.743 126.434 104.743ZM126.708 103.731C127.057 103.731 127.355 103.662 127.603 103.524C127.853 103.386 128.043 103.206 128.172 102.984C128.305 102.759 128.371 102.518 128.371 102.262V101.427C128.326 101.472 128.238 101.514 128.109 101.554C127.982 101.59 127.838 101.623 127.675 101.651C127.511 101.676 127.352 101.7 127.198 101.722C127.043 101.742 126.914 101.759 126.81 101.773C126.565 101.804 126.341 101.856 126.139 101.929C125.939 102.002 125.779 102.108 125.658 102.246C125.54 102.381 125.481 102.561 125.481 102.786C125.481 103.098 125.596 103.334 125.827 103.494C126.057 103.652 126.351 103.731 126.708 103.731ZM131.512 104.6V98.1195H132.774V104.6H131.512ZM132.149 97.1197C131.93 97.1197 131.741 97.0465 131.584 96.9003C131.429 96.7512 131.352 96.574 131.352 96.3687C131.352 96.1606 131.429 95.9834 131.584 95.8371C131.741 95.6881 131.93 95.6136 132.149 95.6136C132.369 95.6136 132.556 95.6881 132.71 95.8371C132.868 95.9834 132.947 96.1606 132.947 96.3687C132.947 96.574 132.868 96.7512 132.71 96.9003C132.556 97.0465 132.369 97.1197 132.149 97.1197ZM135.932 95.9595V104.6H134.671V95.9595H135.932Z" fill="#0A2540"/>
<rect x="106.143" y="115.08" width="379.66" height="38.67" rx="5.5" fill="white"/>
<rect x="106.143" y="115.08" width="379.66" height="38.67" rx="5.5" stroke="#E6EBF1"/>
<path d="M119.412 132.036H120.557V138.299C120.557 138.692 120.485 139.024 120.342 139.294C120.202 139.565 119.993 139.77 119.714 139.911C119.439 140.051 119.098 140.121 118.692 140.121C118.652 140.121 118.613 140.121 118.577 140.121C118.539 140.121 118.5 140.12 118.459 140.117V139.133C118.495 139.133 118.526 139.133 118.555 139.133C118.58 139.133 118.609 139.133 118.643 139.133C118.913 139.133 119.108 139.061 119.228 138.915C119.351 138.772 119.412 138.564 119.412 138.291V132.036ZM119.979 131.128C119.78 131.128 119.609 131.062 119.466 130.929C119.325 130.794 119.255 130.633 119.255 130.447C119.255 130.258 119.325 130.097 119.466 129.965C119.609 129.829 119.78 129.762 119.979 129.762C120.178 129.762 120.347 129.829 120.488 129.965C120.631 130.097 120.702 130.258 120.702 130.447C120.702 130.633 120.631 130.794 120.488 130.929C120.347 131.062 120.178 131.128 119.979 131.128ZM124.008 138.046C123.635 138.046 123.298 137.977 122.997 137.839C122.696 137.699 122.457 137.496 122.281 137.231C122.108 136.965 122.021 136.64 122.021 136.255C122.021 135.923 122.085 135.65 122.212 135.435C122.34 135.221 122.512 135.051 122.729 134.926C122.946 134.801 123.189 134.707 123.457 134.643C123.725 134.579 123.998 134.531 124.276 134.497C124.628 134.457 124.914 134.423 125.133 134.398C125.353 134.37 125.512 134.325 125.612 134.264C125.711 134.203 125.761 134.103 125.761 133.965V133.938C125.761 133.604 125.667 133.345 125.478 133.161C125.292 132.978 125.013 132.886 124.643 132.886C124.258 132.886 123.954 132.971 123.732 133.142C123.513 133.311 123.361 133.498 123.277 133.705L122.201 133.46C122.329 133.103 122.515 132.814 122.76 132.595C123.007 132.373 123.292 132.212 123.614 132.112C123.935 132.01 124.273 131.959 124.628 131.959C124.863 131.959 125.112 131.987 125.375 132.043C125.64 132.097 125.888 132.197 126.117 132.342C126.35 132.488 126.54 132.696 126.688 132.966C126.836 133.234 126.91 133.582 126.91 134.011V137.916H125.792V137.112H125.746C125.672 137.26 125.561 137.406 125.413 137.549C125.265 137.691 125.075 137.81 124.842 137.905C124.61 137.999 124.332 138.046 124.008 138.046ZM124.257 137.127C124.573 137.127 124.844 137.065 125.068 136.94C125.295 136.815 125.468 136.651 125.585 136.45C125.705 136.246 125.765 136.027 125.765 135.795V135.037C125.724 135.078 125.645 135.116 125.528 135.152C125.413 135.185 125.281 135.215 125.133 135.24C124.985 135.263 124.841 135.285 124.701 135.305C124.56 135.323 124.443 135.338 124.349 135.351C124.127 135.379 123.924 135.426 123.74 135.493C123.559 135.559 123.413 135.655 123.303 135.78C123.196 135.902 123.143 136.066 123.143 136.27C123.143 136.553 123.247 136.768 123.457 136.913C123.666 137.056 123.933 137.127 124.257 137.127ZM129.779 134.425V137.916H128.634V132.036H129.733V132.993H129.806C129.941 132.681 130.153 132.431 130.441 132.243C130.732 132.054 131.098 131.959 131.54 131.959C131.941 131.959 132.292 132.043 132.593 132.212C132.894 132.378 133.127 132.625 133.293 132.955C133.459 133.284 133.542 133.691 133.542 134.176V137.916H132.398V134.314C132.398 133.887 132.287 133.554 132.064 133.314C131.842 133.072 131.537 132.951 131.15 132.951C130.884 132.951 130.648 133.008 130.441 133.123C130.237 133.238 130.075 133.406 129.955 133.628C129.838 133.848 129.779 134.113 129.779 134.425ZM137.812 138.035C137.232 138.035 136.733 137.911 136.315 137.663C135.899 137.413 135.577 137.062 135.35 136.611C135.125 136.156 135.013 135.624 135.013 135.014C135.013 134.412 135.125 133.881 135.35 133.422C135.577 132.962 135.894 132.604 136.299 132.346C136.708 132.088 137.185 131.959 137.731 131.959C138.063 131.959 138.385 132.014 138.696 132.124C139.007 132.234 139.287 132.406 139.534 132.641C139.782 132.875 139.977 133.18 140.12 133.556C140.263 133.928 140.334 134.381 140.334 134.915V135.32H135.66V134.463H139.213C139.213 134.162 139.152 133.895 139.029 133.663C138.907 133.428 138.734 133.243 138.512 133.108C138.293 132.972 138.035 132.905 137.739 132.905C137.417 132.905 137.137 132.984 136.897 133.142C136.659 133.298 136.476 133.502 136.345 133.755C136.218 134.005 136.154 134.277 136.154 134.57V135.24C136.154 135.633 136.223 135.967 136.361 136.243C136.501 136.519 136.696 136.729 136.946 136.875C137.197 137.018 137.489 137.089 137.823 137.089C138.04 137.089 138.238 137.058 138.417 136.997C138.595 136.933 138.75 136.839 138.88 136.714C139.01 136.589 139.109 136.434 139.178 136.251L140.262 136.446C140.175 136.765 140.019 137.044 139.795 137.284C139.573 137.522 139.293 137.707 138.956 137.839C138.622 137.97 138.24 138.035 137.812 138.035ZM142.559 137.989C142.349 137.989 142.169 137.915 142.019 137.767C141.868 137.616 141.793 137.435 141.793 137.223C141.793 137.014 141.868 136.835 142.019 136.687C142.169 136.537 142.349 136.461 142.559 136.461C142.768 136.461 142.948 136.537 143.098 136.687C143.249 136.835 143.324 137.014 143.324 137.223C143.324 137.363 143.289 137.492 143.217 137.61C143.148 137.725 143.056 137.816 142.942 137.885C142.827 137.954 142.699 137.989 142.559 137.989ZM147.259 138.031C146.784 138.031 146.36 137.91 145.988 137.667C145.618 137.422 145.327 137.074 145.115 136.622C144.906 136.168 144.801 135.623 144.801 134.987C144.801 134.352 144.907 133.808 145.119 133.357C145.333 132.905 145.627 132.559 145.999 132.319C146.372 132.079 146.794 131.959 147.266 131.959C147.631 131.959 147.925 132.02 148.147 132.143C148.372 132.263 148.545 132.403 148.668 132.564C148.793 132.725 148.89 132.867 148.959 132.989H149.027V130.076H150.172V137.916H149.054V137.001H148.959C148.89 137.126 148.79 137.269 148.66 137.43C148.532 137.591 148.356 137.731 148.132 137.851C147.907 137.971 147.616 138.031 147.259 138.031ZM147.511 137.055C147.841 137.055 148.119 136.968 148.346 136.794C148.576 136.618 148.749 136.374 148.867 136.063C148.987 135.752 149.047 135.389 149.047 134.976C149.047 134.568 148.988 134.21 148.871 133.904C148.753 133.598 148.581 133.359 148.354 133.188C148.127 133.017 147.846 132.932 147.511 132.932C147.167 132.932 146.88 133.021 146.65 133.2C146.42 133.378 146.247 133.622 146.129 133.931C146.015 134.24 145.957 134.588 145.957 134.976C145.957 135.369 146.016 135.722 146.133 136.036C146.251 136.35 146.424 136.599 146.654 136.783C146.886 136.964 147.172 137.055 147.511 137.055ZM152.006 137.916V132.036H153.151V137.916H152.006ZM152.584 131.128C152.385 131.128 152.214 131.062 152.071 130.929C151.931 130.794 151.86 130.633 151.86 130.447C151.86 130.258 151.931 130.097 152.071 129.965C152.214 129.829 152.385 129.762 152.584 129.762C152.783 129.762 152.953 129.829 153.093 129.965C153.236 130.097 153.307 130.258 153.307 130.447C153.307 130.633 153.236 130.794 153.093 130.929C152.953 131.062 152.783 131.128 152.584 131.128ZM156.602 138.046C156.229 138.046 155.892 137.977 155.591 137.839C155.29 137.699 155.051 137.496 154.875 137.231C154.702 136.965 154.615 136.64 154.615 136.255C154.615 135.923 154.679 135.65 154.806 135.435C154.934 135.221 155.106 135.051 155.323 134.926C155.54 134.801 155.782 134.707 156.05 134.643C156.318 134.579 156.591 134.531 156.87 134.497C157.222 134.457 157.508 134.423 157.727 134.398C157.947 134.37 158.106 134.325 158.206 134.264C158.305 134.203 158.355 134.103 158.355 133.965V133.938C158.355 133.604 158.261 133.345 158.072 133.161C157.885 132.978 157.607 132.886 157.237 132.886C156.852 132.886 156.548 132.971 156.326 133.142C156.107 133.311 155.955 133.498 155.87 133.705L154.795 133.46C154.922 133.103 155.109 132.814 155.354 132.595C155.601 132.373 155.886 132.212 156.207 132.112C156.529 132.01 156.867 131.959 157.222 131.959C157.457 131.959 157.705 131.987 157.968 132.043C158.234 132.097 158.481 132.197 158.711 132.342C158.943 132.488 159.133 132.696 159.281 132.966C159.429 133.234 159.504 133.582 159.504 134.011V137.916H158.386V137.112H158.34C158.266 137.26 158.155 137.406 158.007 137.549C157.859 137.691 157.668 137.81 157.436 137.905C157.204 137.999 156.926 138.046 156.602 138.046ZM156.851 137.127C157.167 137.127 157.438 137.065 157.662 136.94C157.889 136.815 158.062 136.651 158.179 136.45C158.299 136.246 158.359 136.027 158.359 135.795V135.037C158.318 135.078 158.239 135.116 158.122 135.152C158.007 135.185 157.875 135.215 157.727 135.24C157.579 135.263 157.435 135.285 157.295 135.305C157.154 135.323 157.037 135.338 156.942 135.351C156.72 135.379 156.517 135.426 156.334 135.493C156.152 135.559 156.007 135.655 155.897 135.78C155.79 135.902 155.736 136.066 155.736 136.27C155.736 136.553 155.841 136.768 156.05 136.913C156.26 137.056 156.526 137.127 156.851 137.127ZM161.106 137.916V137.131L164.291 133.085V133.031H161.209V132.036H165.719V132.87L162.656 136.867V136.921H165.826V137.916H161.106ZM172.097 140.048C171.305 140.048 170.604 139.94 169.991 139.723C169.381 139.509 168.867 139.192 168.448 138.774C168.03 138.358 167.712 137.847 167.495 137.242C167.278 136.637 167.17 135.947 167.17 135.171C167.17 134.416 167.279 133.737 167.499 133.134C167.718 132.532 168.037 132.019 168.456 131.596C168.877 131.169 169.389 130.844 169.991 130.619C170.593 130.395 171.277 130.282 172.043 130.282C172.775 130.282 173.421 130.397 173.98 130.627C174.539 130.857 175.009 131.172 175.389 131.573C175.772 131.973 176.06 132.433 176.254 132.951C176.448 133.469 176.545 134.016 176.545 134.593C176.545 134.996 176.52 135.391 176.468 135.776C176.417 136.159 176.323 136.506 176.185 136.817C176.05 137.126 175.853 137.374 175.596 137.56C175.34 137.744 175.009 137.839 174.6 137.847C174.383 137.855 174.173 137.829 173.969 137.771C173.764 137.712 173.591 137.617 173.448 137.487C173.305 137.355 173.218 137.186 173.188 136.982H173.142C173.08 137.132 172.978 137.273 172.835 137.403C172.693 137.531 172.51 137.633 172.288 137.709C172.069 137.783 171.813 137.814 171.522 137.801C171.201 137.788 170.911 137.716 170.653 137.583C170.396 137.45 170.175 137.266 169.991 137.032C169.81 136.797 169.671 136.519 169.574 136.197C169.477 135.876 169.428 135.518 169.428 135.125C169.428 134.747 169.483 134.409 169.593 134.111C169.703 133.81 169.852 133.551 170.041 133.334C170.232 133.114 170.452 132.941 170.699 132.813C170.947 132.685 171.208 132.605 171.484 132.572C171.752 132.541 171.998 132.549 172.223 132.595C172.448 132.641 172.634 132.711 172.782 132.805C172.932 132.9 173.027 133.003 173.065 133.115H173.115V132.687H174.057V136.239C174.057 136.441 174.109 136.612 174.214 136.752C174.321 136.893 174.473 136.963 174.669 136.963C174.901 136.963 175.083 136.877 175.213 136.706C175.346 136.535 175.439 136.272 175.492 135.918C175.548 135.563 175.576 135.109 175.576 134.555C175.576 134.167 175.524 133.802 175.42 133.46C175.317 133.115 175.166 132.804 174.964 132.526C174.765 132.245 174.52 132.004 174.229 131.802C173.938 131.601 173.606 131.445 173.234 131.335C172.864 131.225 172.454 131.171 172.005 131.171C171.395 131.171 170.852 131.265 170.378 131.454C169.903 131.64 169.502 131.909 169.176 132.262C168.851 132.614 168.605 133.036 168.437 133.529C168.271 134.019 168.188 134.569 168.188 135.179C168.188 135.814 168.273 136.378 168.444 136.871C168.615 137.361 168.868 137.774 169.202 138.111C169.537 138.448 169.95 138.703 170.443 138.877C170.935 139.053 171.503 139.141 172.146 139.141C172.432 139.141 172.713 139.116 172.989 139.064C173.264 139.016 173.509 138.96 173.724 138.896C173.941 138.835 174.103 138.785 174.21 138.747L174.478 139.585C174.32 139.659 174.109 139.732 173.846 139.803C173.586 139.875 173.302 139.934 172.996 139.979C172.693 140.025 172.393 140.048 172.097 140.048ZM171.744 136.863C172.076 136.863 172.343 136.797 172.544 136.664C172.749 136.531 172.895 136.334 172.985 136.071C173.077 135.805 173.123 135.474 173.123 135.075C173.12 134.688 173.07 134.379 172.973 134.149C172.879 133.917 172.731 133.751 172.529 133.651C172.33 133.549 172.074 133.498 171.76 133.498C171.471 133.498 171.225 133.568 171.021 133.709C170.819 133.849 170.665 134.039 170.558 134.279C170.453 134.519 170.399 134.786 170.397 135.079C170.399 135.388 170.443 135.679 170.527 135.952C170.614 136.223 170.754 136.442 170.948 136.611C171.145 136.779 171.41 136.863 171.744 136.863ZM180.544 138.035C179.964 138.035 179.465 137.911 179.047 137.663C178.631 137.413 178.309 137.062 178.082 136.611C177.857 136.156 177.745 135.624 177.745 135.014C177.745 134.412 177.857 133.881 178.082 133.422C178.309 132.962 178.626 132.604 179.031 132.346C179.44 132.088 179.917 131.959 180.463 131.959C180.795 131.959 181.117 132.014 181.428 132.124C181.739 132.234 182.019 132.406 182.266 132.641C182.514 132.875 182.709 133.18 182.852 133.556C182.995 133.928 183.066 134.381 183.066 134.915V135.32H178.392V134.463H181.945C181.945 134.162 181.884 133.895 181.761 133.663C181.639 133.428 181.466 133.243 181.244 133.108C181.025 132.972 180.767 132.905 180.471 132.905C180.149 132.905 179.869 132.984 179.629 133.142C179.391 133.298 179.208 133.502 179.077 133.755C178.95 134.005 178.886 134.277 178.886 134.57V135.24C178.886 135.633 178.955 135.967 179.093 136.243C179.233 136.519 179.428 136.729 179.678 136.875C179.929 137.018 180.221 137.089 180.555 137.089C180.772 137.089 180.97 137.058 181.149 136.997C181.327 136.933 181.482 136.839 181.612 136.714C181.742 136.589 181.841 136.434 181.91 136.251L182.994 136.446C182.907 136.765 182.751 137.044 182.527 137.284C182.305 137.522 182.025 137.707 181.688 137.839C181.354 137.97 180.972 138.035 180.544 138.035ZM185.303 132.036L186.601 134.325L187.91 132.036H189.162L187.328 134.976L189.177 137.916H187.925L186.601 135.719L185.28 137.916H184.024L185.854 134.976L184.047 132.036H185.303ZM192.238 138.046C191.865 138.046 191.529 137.977 191.227 137.839C190.926 137.699 190.688 137.496 190.511 137.231C190.338 136.965 190.251 136.64 190.251 136.255C190.251 135.923 190.315 135.65 190.443 135.435C190.57 135.221 190.742 135.051 190.959 134.926C191.176 134.801 191.419 134.707 191.687 134.643C191.955 134.579 192.228 134.531 192.506 134.497C192.858 134.457 193.144 134.423 193.364 134.398C193.583 134.37 193.743 134.325 193.842 134.264C193.942 134.203 193.991 134.103 193.991 133.965V133.938C193.991 133.604 193.897 133.345 193.708 133.161C193.522 132.978 193.244 132.886 192.874 132.886C192.488 132.886 192.184 132.971 191.962 133.142C191.743 133.311 191.591 133.498 191.507 133.705L190.431 133.46C190.559 133.103 190.745 132.814 190.99 132.595C191.238 132.373 191.522 132.212 191.844 132.112C192.165 132.01 192.503 131.959 192.858 131.959C193.093 131.959 193.342 131.987 193.605 132.043C193.87 132.097 194.118 132.197 194.347 132.342C194.58 132.488 194.77 132.696 194.918 132.966C195.066 133.234 195.14 133.582 195.14 134.011V137.916H194.022V137.112H193.976C193.902 137.26 193.791 137.406 193.643 137.549C193.495 137.691 193.305 137.81 193.073 137.905C192.84 137.999 192.562 138.046 192.238 138.046ZM192.487 137.127C192.803 137.127 193.074 137.065 193.298 136.94C193.526 136.815 193.698 136.651 193.815 136.45C193.935 136.246 193.995 136.027 193.995 135.795V135.037C193.954 135.078 193.875 135.116 193.758 135.152C193.643 135.185 193.512 135.215 193.364 135.24C193.216 135.263 193.071 135.285 192.931 135.305C192.791 135.323 192.673 135.338 192.579 135.351C192.357 135.379 192.154 135.426 191.97 135.493C191.789 135.559 191.643 135.655 191.534 135.78C191.426 135.902 191.373 136.066 191.373 136.27C191.373 136.553 191.477 136.768 191.687 136.913C191.896 137.056 192.163 137.127 192.487 137.127ZM196.864 137.916V132.036H197.963V132.993H198.036C198.158 132.669 198.359 132.416 198.637 132.235C198.915 132.051 199.248 131.959 199.636 131.959C200.029 131.959 200.358 132.051 200.624 132.235C200.892 132.419 201.09 132.671 201.217 132.993H201.278C201.419 132.679 201.642 132.429 201.948 132.243C202.255 132.054 202.62 131.959 203.043 131.959C203.577 131.959 204.012 132.126 204.349 132.461C204.688 132.795 204.858 133.299 204.858 133.973V137.916H203.713V134.08C203.713 133.682 203.605 133.394 203.388 133.215C203.171 133.036 202.912 132.947 202.611 132.947C202.238 132.947 201.948 133.062 201.742 133.291C201.535 133.519 201.432 133.811 201.432 134.168V137.916H200.291V134.007C200.291 133.688 200.191 133.432 199.992 133.238C199.793 133.044 199.534 132.947 199.215 132.947C198.998 132.947 198.798 133.004 198.614 133.119C198.433 133.231 198.286 133.388 198.174 133.59C198.064 133.792 198.009 134.025 198.009 134.291V137.916H196.864ZM206.592 140.121V132.036H207.71V132.989H207.806C207.872 132.867 207.968 132.725 208.093 132.564C208.218 132.403 208.391 132.263 208.613 132.143C208.835 132.02 209.129 131.959 209.494 131.959C209.969 131.959 210.392 132.079 210.765 132.319C211.138 132.559 211.43 132.905 211.642 133.357C211.856 133.808 211.963 134.352 211.963 134.987C211.963 135.623 211.857 136.168 211.645 136.622C211.434 137.074 211.143 137.422 210.773 137.667C210.403 137.91 209.98 138.031 209.505 138.031C209.148 138.031 208.856 137.971 208.629 137.851C208.404 137.731 208.228 137.591 208.1 137.43C207.973 137.269 207.875 137.126 207.806 137.001H207.737V140.121H206.592ZM207.714 134.976C207.714 135.389 207.774 135.752 207.894 136.063C208.014 136.374 208.187 136.618 208.414 136.794C208.641 136.968 208.92 137.055 209.249 137.055C209.591 137.055 209.877 136.964 210.106 136.783C210.336 136.599 210.51 136.35 210.627 136.036C210.747 135.722 210.807 135.369 210.807 134.976C210.807 134.588 210.748 134.24 210.631 133.931C210.516 133.622 210.343 133.378 210.11 133.2C209.881 133.021 209.593 132.932 209.249 132.932C208.917 132.932 208.636 133.017 208.407 133.188C208.18 133.359 208.007 133.598 207.89 133.904C207.772 134.21 207.714 134.568 207.714 134.976ZM214.59 130.076V137.916H213.446V130.076H214.59ZM218.865 138.035C218.285 138.035 217.786 137.911 217.368 137.663C216.952 137.413 216.63 137.062 216.403 136.611C216.178 136.156 216.066 135.624 216.066 135.014C216.066 134.412 216.178 133.881 216.403 133.422C216.63 132.962 216.947 132.604 217.352 132.346C217.761 132.088 218.238 131.959 218.784 131.959C219.116 131.959 219.438 132.014 219.749 132.124C220.06 132.234 220.34 132.406 220.587 132.641C220.835 132.875 221.03 133.18 221.173 133.556C221.316 133.928 221.387 134.381 221.387 134.915V135.32H216.713V134.463H220.266C220.266 134.162 220.204 133.895 220.082 133.663C219.959 133.428 219.787 133.243 219.565 133.108C219.346 132.972 219.088 132.905 218.792 132.905C218.47 132.905 218.189 132.984 217.95 133.142C217.712 133.298 217.528 133.502 217.398 133.755C217.271 134.005 217.207 134.277 217.207 134.57V135.24C217.207 135.633 217.276 135.967 217.414 136.243C217.554 136.519 217.749 136.729 217.999 136.875C218.249 137.018 218.542 137.089 218.876 137.089C219.093 137.089 219.291 137.058 219.469 136.997C219.648 136.933 219.802 136.839 219.933 136.714C220.063 136.589 220.162 136.434 220.231 136.251L221.315 136.446C221.228 136.765 221.072 137.044 220.848 137.284C220.626 137.522 220.346 137.707 220.009 137.839C219.675 137.97 219.293 138.035 218.865 138.035ZM223.612 137.989C223.402 137.989 223.222 137.915 223.072 137.767C222.921 137.616 222.846 137.435 222.846 137.223C222.846 137.014 222.921 136.835 223.072 136.687C223.222 136.537 223.402 136.461 223.612 136.461C223.821 136.461 224.001 136.537 224.151 136.687C224.302 136.835 224.377 137.014 224.377 137.223C224.377 137.363 224.342 137.492 224.27 137.61C224.201 137.725 224.109 137.816 223.994 137.885C223.88 137.954 223.752 137.989 223.612 137.989ZM228.587 138.035C228.018 138.035 227.528 137.906 227.117 137.648C226.709 137.388 226.395 137.029 226.176 136.572C225.956 136.115 225.846 135.592 225.846 135.003C225.846 134.405 225.959 133.878 226.183 133.422C226.408 132.962 226.724 132.604 227.133 132.346C227.541 132.088 228.022 131.959 228.576 131.959C229.023 131.959 229.421 132.042 229.77 132.208C230.12 132.371 230.402 132.601 230.616 132.897C230.833 133.193 230.962 133.539 231.003 133.935H229.889C229.828 133.659 229.687 133.422 229.468 133.223C229.251 133.023 228.96 132.924 228.595 132.924C228.276 132.924 227.997 133.008 227.757 133.177C227.519 133.342 227.334 133.58 227.202 133.889C227.069 134.195 227.002 134.557 227.002 134.976C227.002 135.405 227.068 135.775 227.198 136.086C227.328 136.397 227.512 136.639 227.749 136.81C227.989 136.981 228.271 137.066 228.595 137.066C228.812 137.066 229.008 137.027 229.185 136.947C229.363 136.866 229.513 136.75 229.632 136.599C229.755 136.449 229.84 136.267 229.889 136.055H231.003C230.962 136.436 230.838 136.775 230.632 137.074C230.425 137.372 230.148 137.607 229.801 137.778C229.456 137.949 229.052 138.035 228.587 138.035ZM234.904 138.035C234.353 138.035 233.872 137.908 233.461 137.656C233.05 137.403 232.731 137.05 232.504 136.595C232.277 136.141 232.163 135.61 232.163 135.003C232.163 134.393 232.277 133.859 232.504 133.402C232.731 132.946 233.05 132.591 233.461 132.338C233.872 132.086 234.353 131.959 234.904 131.959C235.455 131.959 235.936 132.086 236.347 132.338C236.758 132.591 237.077 132.946 237.304 133.402C237.531 133.859 237.645 134.393 237.645 135.003C237.645 135.61 237.531 136.141 237.304 136.595C237.077 137.05 236.758 137.403 236.347 137.656C235.936 137.908 235.455 138.035 234.904 138.035ZM234.908 137.074C235.265 137.074 235.561 136.979 235.796 136.791C236.031 136.602 236.204 136.35 236.317 136.036C236.431 135.722 236.489 135.377 236.489 134.999C236.489 134.624 236.431 134.279 236.317 133.965C236.204 133.649 236.031 133.395 235.796 133.203C235.561 133.012 235.265 132.916 234.908 132.916C234.548 132.916 234.249 133.012 234.012 133.203C233.777 133.395 233.602 133.649 233.488 133.965C233.375 134.279 233.319 134.624 233.319 134.999C233.319 135.377 233.375 135.722 233.488 136.036C233.602 136.35 233.777 136.602 234.012 136.791C234.249 136.979 234.548 137.074 234.908 137.074ZM239.123 137.916V132.036H240.221V132.993H240.294C240.417 132.669 240.617 132.416 240.895 132.235C241.173 132.051 241.506 131.959 241.894 131.959C242.287 131.959 242.617 132.051 242.882 132.235C243.15 132.419 243.348 132.671 243.475 132.993H243.537C243.677 132.679 243.9 132.429 244.207 132.243C244.513 132.054 244.878 131.959 245.302 131.959C245.835 131.959 246.27 132.126 246.607 132.461C246.946 132.795 247.116 133.299 247.116 133.973V137.916H245.972V134.08C245.972 133.682 245.863 133.394 245.646 133.215C245.429 133.036 245.17 132.947 244.869 132.947C244.496 132.947 244.207 133.062 244 133.291C243.793 133.519 243.69 133.811 243.69 134.168V137.916H242.549V134.007C242.549 133.688 242.449 133.432 242.25 133.238C242.051 133.044 241.792 132.947 241.473 132.947C241.256 132.947 241.056 133.004 240.872 133.119C240.691 133.231 240.544 133.388 240.432 133.59C240.322 133.792 240.267 134.025 240.267 134.291V137.916H239.123Z" fill="#425466"/>
<path d="M113.561 180.244H112.279C112.229 179.97 112.137 179.728 112.003 179.52C111.869 179.312 111.704 179.135 111.51 178.99C111.315 178.844 111.097 178.735 110.856 178.661C110.618 178.587 110.364 178.55 110.095 178.55C109.61 178.55 109.176 178.672 108.792 178.916C108.411 179.16 108.11 179.517 107.887 179.989C107.668 180.46 107.559 181.036 107.559 181.716C107.559 182.401 107.668 182.979 107.887 183.451C108.11 183.922 108.412 184.278 108.796 184.52C109.18 184.761 109.612 184.881 110.091 184.881C110.357 184.881 110.609 184.846 110.848 184.775C111.089 184.701 111.307 184.592 111.502 184.45C111.696 184.307 111.861 184.133 111.995 183.928C112.132 183.719 112.227 183.481 112.279 183.212L113.561 183.216C113.493 183.63 113.36 184.011 113.163 184.359C112.968 184.705 112.717 185.003 112.41 185.256C112.106 185.505 111.758 185.698 111.366 185.835C110.974 185.972 110.546 186.041 110.083 186.041C109.354 186.041 108.704 185.868 108.134 185.523C107.564 185.175 107.115 184.677 106.786 184.03C106.459 183.383 106.296 182.612 106.296 181.716C106.296 180.816 106.461 180.045 106.79 179.401C107.119 178.754 107.568 178.258 108.138 177.912C108.708 177.564 109.357 177.39 110.083 177.39C110.53 177.39 110.946 177.455 111.333 177.583C111.722 177.71 112.072 177.896 112.381 178.143C112.691 178.387 112.947 178.685 113.15 179.039C113.353 179.39 113.49 179.791 113.561 180.244ZM117.021 186.066C116.621 186.066 116.259 185.992 115.935 185.844C115.612 185.693 115.356 185.475 115.167 185.19C114.98 184.905 114.887 184.555 114.887 184.141C114.887 183.785 114.955 183.492 115.093 183.261C115.23 183.031 115.415 182.849 115.648 182.715C115.881 182.58 116.141 182.479 116.429 182.41C116.717 182.342 117.01 182.29 117.309 182.254C117.687 182.21 117.994 182.175 118.23 182.147C118.465 182.117 118.637 182.069 118.744 182.003C118.85 181.938 118.904 181.831 118.904 181.683V181.654C118.904 181.295 118.803 181.017 118.6 180.819C118.4 180.622 118.101 180.523 117.703 180.523C117.289 180.523 116.963 180.615 116.725 180.799C116.489 180.98 116.326 181.181 116.236 181.403L115.08 181.14C115.217 180.756 115.417 180.446 115.68 180.211C115.946 179.972 116.252 179.8 116.597 179.693C116.943 179.583 117.306 179.528 117.687 179.528C117.939 179.528 118.206 179.558 118.489 179.619C118.774 179.676 119.04 179.783 119.286 179.939C119.536 180.096 119.74 180.319 119.899 180.61C120.058 180.897 120.137 181.272 120.137 181.732V185.926H118.937V185.062H118.887C118.808 185.221 118.689 185.378 118.53 185.531C118.371 185.685 118.167 185.812 117.917 185.913C117.668 186.015 117.369 186.066 117.021 186.066ZM117.288 185.079C117.628 185.079 117.919 185.012 118.16 184.877C118.404 184.743 118.589 184.568 118.715 184.351C118.844 184.132 118.908 183.897 118.908 183.648V182.834C118.864 182.878 118.779 182.919 118.653 182.957C118.53 182.993 118.389 183.024 118.23 183.052C118.071 183.076 117.916 183.1 117.765 183.122C117.614 183.141 117.488 183.157 117.387 183.171C117.148 183.201 116.93 183.252 116.733 183.323C116.538 183.394 116.382 183.497 116.264 183.632C116.149 183.763 116.092 183.939 116.092 184.158C116.092 184.462 116.204 184.692 116.429 184.849C116.654 185.002 116.94 185.079 117.288 185.079ZM121.975 185.926V179.61H123.163V180.614H123.229C123.344 180.274 123.547 180.007 123.837 179.812C124.131 179.615 124.462 179.516 124.832 179.516C124.909 179.516 125 179.519 125.104 179.524C125.211 179.53 125.294 179.536 125.355 179.545V180.721C125.305 180.707 125.217 180.692 125.091 180.675C124.965 180.656 124.839 180.647 124.713 180.647C124.423 180.647 124.164 180.708 123.936 180.832C123.711 180.952 123.533 181.121 123.402 181.337C123.27 181.551 123.204 181.795 123.204 182.069V185.926H121.975ZM128.756 186.049C128.247 186.049 127.792 185.919 127.391 185.659C126.994 185.395 126.681 185.021 126.454 184.536C126.229 184.048 126.117 183.463 126.117 182.78C126.117 182.098 126.231 181.514 126.458 181.029C126.688 180.544 127.003 180.172 127.404 179.915C127.804 179.657 128.258 179.528 128.765 179.528C129.157 179.528 129.472 179.594 129.71 179.726C129.951 179.854 130.138 180.005 130.269 180.178C130.404 180.351 130.508 180.503 130.582 180.634H130.656V177.505H131.885V185.926H130.685V184.943H130.582C130.508 185.077 130.401 185.231 130.261 185.404C130.124 185.576 129.935 185.727 129.694 185.856C129.453 185.985 129.14 186.049 128.756 186.049ZM129.028 185.001C129.381 185.001 129.68 184.907 129.924 184.721C130.171 184.532 130.357 184.27 130.483 183.936C130.612 183.601 130.676 183.212 130.676 182.768C130.676 182.33 130.613 181.946 130.487 181.617C130.361 181.288 130.176 181.032 129.932 180.848C129.688 180.664 129.387 180.573 129.028 180.573C128.658 180.573 128.349 180.668 128.103 180.86C127.856 181.052 127.67 181.314 127.543 181.646C127.42 181.977 127.358 182.351 127.358 182.768C127.358 183.19 127.422 183.57 127.548 183.907C127.674 184.244 127.86 184.511 128.107 184.709C128.356 184.903 128.663 185.001 129.028 185.001ZM137.104 185.926V179.61H138.333V185.926H137.104ZM137.725 178.636C137.511 178.636 137.327 178.565 137.174 178.422C137.023 178.277 136.948 178.104 136.948 177.904C136.948 177.701 137.023 177.529 137.174 177.386C137.327 177.241 137.511 177.168 137.725 177.168C137.939 177.168 138.121 177.241 138.272 177.386C138.425 177.529 138.502 177.701 138.502 177.904C138.502 178.104 138.425 178.277 138.272 178.422C138.121 178.565 137.939 178.636 137.725 178.636ZM141.417 182.176V185.926H140.187V179.61H141.367V180.638H141.445C141.591 180.304 141.818 180.035 142.128 179.832C142.44 179.63 142.834 179.528 143.308 179.528C143.738 179.528 144.115 179.619 144.439 179.8C144.762 179.978 145.013 180.244 145.191 180.597C145.369 180.951 145.458 181.388 145.458 181.909V185.926H144.229V182.057C144.229 181.599 144.11 181.241 143.871 180.984C143.633 180.723 143.305 180.593 142.889 180.593C142.603 180.593 142.35 180.655 142.128 180.778C141.909 180.901 141.735 181.082 141.606 181.321C141.48 181.557 141.417 181.842 141.417 182.176ZM150.313 179.61V180.597H146.744V179.61H150.313ZM147.722 185.926V178.879C147.722 178.484 147.809 178.156 147.981 177.896C148.154 177.633 148.383 177.437 148.668 177.308C148.953 177.176 149.263 177.111 149.597 177.111C149.844 177.111 150.055 177.131 150.23 177.172C150.406 177.211 150.536 177.246 150.621 177.279L150.333 178.274C150.276 178.258 150.202 178.239 150.111 178.217C150.021 178.192 149.911 178.18 149.782 178.18C149.483 178.18 149.27 178.254 149.141 178.402C149.015 178.55 148.952 178.763 148.952 179.043V185.926H147.722ZM154.192 186.053C153.6 186.053 153.084 185.918 152.642 185.646C152.201 185.375 151.858 184.995 151.614 184.507C151.37 184.019 151.248 183.449 151.248 182.797C151.248 182.142 151.37 181.569 151.614 181.078C151.858 180.588 152.201 180.207 152.642 179.935C153.084 179.664 153.6 179.528 154.192 179.528C154.784 179.528 155.301 179.664 155.742 179.935C156.184 180.207 156.526 180.588 156.77 181.078C157.014 181.569 157.136 182.142 157.136 182.797C157.136 183.449 157.014 184.019 156.77 184.507C156.526 184.995 156.184 185.375 155.742 185.646C155.301 185.918 154.784 186.053 154.192 186.053ZM154.196 185.021C154.58 185.021 154.898 184.92 155.15 184.717C155.403 184.514 155.589 184.244 155.71 183.907C155.833 183.57 155.895 183.198 155.895 182.793C155.895 182.39 155.833 182.02 155.71 181.683C155.589 181.343 155.403 181.07 155.15 180.864C154.898 180.659 154.58 180.556 154.196 180.556C153.81 180.556 153.489 180.659 153.234 180.864C152.982 181.07 152.794 181.343 152.671 181.683C152.55 182.02 152.49 182.39 152.49 182.793C152.49 183.198 152.55 183.57 152.671 183.907C152.794 184.244 152.982 184.514 153.234 184.717C153.489 184.92 153.81 185.021 154.196 185.021ZM158.708 185.926V179.61H159.897V180.614H159.962C160.078 180.274 160.28 180.007 160.571 179.812C160.864 179.615 161.196 179.516 161.566 179.516C161.643 179.516 161.733 179.519 161.837 179.524C161.944 179.53 162.028 179.536 162.088 179.545V180.721C162.039 180.707 161.951 180.692 161.825 180.675C161.699 180.656 161.573 180.647 161.447 180.647C161.156 180.647 160.897 180.708 160.67 180.832C160.445 180.952 160.267 181.121 160.135 181.337C160.004 181.551 159.938 181.795 159.938 182.069V185.926H158.708ZM163.352 185.926V179.61H164.532V180.638H164.61C164.742 180.29 164.957 180.019 165.256 179.824C165.554 179.627 165.912 179.528 166.329 179.528C166.751 179.528 167.104 179.627 167.39 179.824C167.677 180.022 167.89 180.293 168.027 180.638H168.093C168.243 180.301 168.483 180.033 168.812 179.832C169.141 179.63 169.533 179.528 169.988 179.528C170.561 179.528 171.028 179.708 171.39 180.067C171.755 180.426 171.937 180.967 171.937 181.691V185.926H170.708V181.806C170.708 181.378 170.591 181.069 170.358 180.877C170.125 180.685 169.847 180.589 169.523 180.589C169.123 180.589 168.812 180.712 168.59 180.959C168.368 181.203 168.257 181.517 168.257 181.901V185.926H167.032V181.728C167.032 181.385 166.925 181.11 166.711 180.901C166.497 180.693 166.219 180.589 165.876 180.589C165.644 180.589 165.428 180.651 165.231 180.774C165.036 180.895 164.879 181.063 164.758 181.28C164.64 181.496 164.581 181.747 164.581 182.032V185.926H163.352ZM175.622 186.066C175.222 186.066 174.86 185.992 174.537 185.844C174.214 185.693 173.957 185.475 173.768 185.19C173.582 184.905 173.489 184.555 173.489 184.141C173.489 183.785 173.557 183.492 173.694 183.261C173.831 183.031 174.016 182.849 174.249 182.715C174.482 182.58 174.743 182.479 175.03 182.41C175.318 182.342 175.612 182.29 175.91 182.254C176.289 182.21 176.596 182.175 176.831 182.147C177.067 182.117 177.238 182.069 177.345 182.003C177.452 181.938 177.506 181.831 177.506 181.683V181.654C177.506 181.295 177.404 181.017 177.201 180.819C177.001 180.622 176.702 180.523 176.305 180.523C175.891 180.523 175.565 180.615 175.326 180.799C175.091 180.98 174.928 181.181 174.837 181.403L173.682 181.14C173.819 180.756 174.019 180.446 174.282 180.211C174.548 179.972 174.854 179.8 175.199 179.693C175.544 179.583 175.908 179.528 176.289 179.528C176.541 179.528 176.808 179.558 177.09 179.619C177.375 179.676 177.641 179.783 177.888 179.939C178.137 180.096 178.342 180.319 178.501 180.61C178.66 180.897 178.739 181.272 178.739 181.732V185.926H177.538V185.062H177.489C177.41 185.221 177.29 185.378 177.131 185.531C176.972 185.685 176.768 185.812 176.519 185.913C176.269 186.015 175.971 186.066 175.622 186.066ZM175.89 185.079C176.23 185.079 176.52 185.012 176.761 184.877C177.005 184.743 177.19 184.568 177.316 184.351C177.445 184.132 177.51 183.897 177.51 183.648V182.834C177.466 182.878 177.381 182.919 177.255 182.957C177.131 182.993 176.99 183.024 176.831 183.052C176.672 183.076 176.517 183.1 176.367 183.122C176.216 183.141 176.09 183.157 175.988 183.171C175.75 183.201 175.532 183.252 175.335 183.323C175.14 183.394 174.984 183.497 174.866 183.632C174.751 183.763 174.693 183.939 174.693 184.158C174.693 184.462 174.806 184.692 175.03 184.849C175.255 185.002 175.542 185.079 175.89 185.079ZM183.524 179.61V180.597H180.075V179.61H183.524ZM181 178.097H182.229V184.071C182.229 184.31 182.265 184.489 182.336 184.61C182.407 184.728 182.499 184.809 182.612 184.853C182.727 184.894 182.852 184.914 182.986 184.914C183.085 184.914 183.171 184.907 183.245 184.894C183.319 184.88 183.376 184.869 183.418 184.861L183.64 185.876C183.568 185.904 183.467 185.931 183.335 185.959C183.204 185.989 183.039 186.005 182.842 186.008C182.518 186.013 182.217 185.956 181.937 185.835C181.658 185.715 181.432 185.528 181.259 185.276C181.086 185.024 181 184.707 181 184.326V178.097ZM185.084 185.926V179.61H186.314V185.926H185.084ZM185.705 178.636C185.491 178.636 185.308 178.565 185.154 178.422C185.003 178.277 184.928 178.104 184.928 177.904C184.928 177.701 185.003 177.529 185.154 177.386C185.308 177.241 185.491 177.168 185.705 177.168C185.919 177.168 186.101 177.241 186.252 177.386C186.406 177.529 186.482 177.701 186.482 177.904C186.482 178.104 186.406 178.277 186.252 178.422C186.101 178.565 185.919 178.636 185.705 178.636ZM190.828 186.053C190.236 186.053 189.719 185.918 189.278 185.646C188.836 185.375 188.494 184.995 188.25 184.507C188.006 184.019 187.884 183.449 187.884 182.797C187.884 182.142 188.006 181.569 188.25 181.078C188.494 180.588 188.836 180.207 189.278 179.935C189.719 179.664 190.236 179.528 190.828 179.528C191.42 179.528 191.936 179.664 192.378 179.935C192.819 180.207 193.162 180.588 193.406 181.078C193.65 181.569 193.772 182.142 193.772 182.797C193.772 183.449 193.65 184.019 193.406 184.507C193.162 184.995 192.819 185.375 192.378 185.646C191.936 185.918 191.42 186.053 190.828 186.053ZM190.832 185.021C191.216 185.021 191.534 184.92 191.786 184.717C192.038 184.514 192.224 184.244 192.345 183.907C192.468 183.57 192.53 183.198 192.53 182.793C192.53 182.39 192.468 182.02 192.345 181.683C192.224 181.343 192.038 181.07 191.786 180.864C191.534 180.659 191.216 180.556 190.832 180.556C190.445 180.556 190.125 180.659 189.87 180.864C189.618 181.07 189.43 181.343 189.306 181.683C189.186 182.02 189.126 182.39 189.126 182.793C189.126 183.198 189.186 183.57 189.306 183.907C189.43 184.244 189.618 184.514 189.87 184.717C190.125 184.92 190.445 185.021 190.832 185.021ZM196.573 182.176V185.926H195.344V179.61H196.524V180.638H196.602C196.747 180.304 196.975 180.035 197.284 179.832C197.597 179.63 197.99 179.528 198.464 179.528C198.895 179.528 199.272 179.619 199.595 179.8C199.919 179.978 200.169 180.244 200.348 180.597C200.526 180.951 200.615 181.388 200.615 181.909V185.926H199.385V182.057C199.385 181.599 199.266 181.241 199.028 180.984C198.789 180.723 198.462 180.593 198.045 180.593C197.76 180.593 197.507 180.655 197.284 180.778C197.065 180.901 196.891 181.082 196.762 181.321C196.636 181.557 196.573 181.842 196.573 182.176Z" fill="#0A2540"/>
<mask id="path-9-inside-1_4003_5367" fill="white">
<path d="M105.643 201.906C105.643 198.593 108.329 195.906 111.643 195.906H480.303C483.616 195.906 486.303 198.593 486.303 201.906V234.576H105.643V201.906Z"/>
</mask>
<path d="M105.643 201.906C105.643 198.593 108.329 195.906 111.643 195.906H480.303C483.616 195.906 486.303 198.593 486.303 201.906V234.576H105.643V201.906Z" fill="white"/>
<path d="M104.643 201.906C104.643 198.04 107.777 194.906 111.643 194.906H480.303C484.169 194.906 487.303 198.04 487.303 201.906H485.303C485.303 199.145 483.064 196.906 480.303 196.906H111.643C108.881 196.906 106.643 199.145 106.643 201.906H104.643ZM486.303 234.576H105.643H486.303ZM104.643 234.576V201.906C104.643 198.04 107.777 194.906 111.643 194.906V196.906C108.881 196.906 106.643 199.145 106.643 201.906V234.576H104.643ZM480.303 194.906C484.169 194.906 487.303 198.04 487.303 201.906V234.576H485.303V201.906C485.303 199.145 483.064 196.906 480.303 196.906V194.906Z" fill="#E6EBF1" mask="url(#path-9-inside-1_4003_5367)"/>
<path d="M122.315 211.267V219.242H121.108V212.474H121.062L119.153 213.72V212.567L121.143 211.267H122.315ZM124.673 219.242V218.37L127.372 215.574C127.66 215.27 127.897 215.004 128.084 214.775C128.274 214.544 128.415 214.325 128.509 214.117C128.602 213.91 128.649 213.689 128.649 213.455C128.649 213.19 128.587 212.962 128.462 212.77C128.337 212.575 128.167 212.426 127.952 212.322C127.736 212.216 127.494 212.162 127.224 212.162C126.938 212.162 126.689 212.221 126.476 212.338C126.263 212.454 126.1 212.619 125.985 212.832C125.871 213.045 125.814 213.294 125.814 213.58H124.665C124.665 213.094 124.777 212.67 125 212.306C125.223 211.943 125.53 211.661 125.919 211.461C126.309 211.259 126.751 211.158 127.247 211.158C127.748 211.158 128.189 211.258 128.571 211.458C128.955 211.655 129.255 211.925 129.471 212.268C129.686 212.608 129.794 212.992 129.794 213.42C129.794 213.716 129.738 214.006 129.626 214.289C129.517 214.572 129.327 214.887 129.054 215.235C128.781 215.58 128.402 216 127.917 216.493L126.332 218.152V218.21H129.922V219.242H124.673ZM134.375 219.351C133.84 219.351 133.362 219.259 132.942 219.075C132.524 218.89 132.193 218.635 131.949 218.308C131.707 217.978 131.578 217.596 131.559 217.163H132.782C132.798 217.399 132.877 217.604 133.02 217.778C133.165 217.949 133.355 218.082 133.588 218.175C133.822 218.269 134.082 218.315 134.367 218.315C134.681 218.315 134.959 218.261 135.201 218.152C135.445 218.043 135.635 217.891 135.773 217.696C135.911 217.499 135.979 217.272 135.979 217.015C135.979 216.747 135.911 216.512 135.773 216.31C135.638 216.105 135.439 215.944 135.177 215.827C134.918 215.71 134.603 215.652 134.235 215.652H133.561V214.67H134.235C134.531 214.67 134.79 214.617 135.014 214.511C135.24 214.404 135.416 214.256 135.543 214.067C135.67 213.875 135.734 213.65 135.734 213.393C135.734 213.146 135.678 212.932 135.567 212.75C135.458 212.566 135.302 212.422 135.099 212.318C134.899 212.214 134.663 212.162 134.391 212.162C134.131 212.162 133.888 212.21 133.662 212.306C133.439 212.4 133.257 212.535 133.117 212.711C132.977 212.885 132.902 213.094 132.891 213.338H131.727C131.74 212.907 131.867 212.528 132.109 212.201C132.353 211.874 132.674 211.618 133.074 211.434C133.474 211.25 133.918 211.158 134.406 211.158C134.918 211.158 135.359 211.258 135.73 211.458C136.104 211.655 136.392 211.918 136.595 212.248C136.8 212.578 136.901 212.939 136.898 213.331C136.901 213.777 136.776 214.156 136.525 214.468C136.275 214.779 135.943 214.988 135.528 215.095V215.157C136.057 215.238 136.468 215.448 136.758 215.788C137.052 216.128 137.197 216.55 137.194 217.054C137.197 217.492 137.075 217.886 136.828 218.234C136.584 218.581 136.251 218.855 135.828 219.055C135.404 219.253 134.92 219.351 134.375 219.351ZM138.699 217.684V216.711L142.145 211.267H142.913V212.7H142.426L139.961 216.602V216.664H144.685V217.684H138.699ZM142.48 219.242V217.389L142.488 216.945V211.267H143.629V219.242H142.48ZM152.37 211.267V219.242H151.163V212.474H151.116L149.208 213.72V212.567L151.198 211.267H152.37ZM154.727 219.242V218.37L157.426 215.574C157.714 215.27 157.952 215.004 158.139 214.775C158.328 214.544 158.47 214.325 158.563 214.117C158.657 213.91 158.703 213.689 158.703 213.455C158.703 213.19 158.641 212.962 158.516 212.77C158.392 212.575 158.222 212.426 158.006 212.322C157.791 212.216 157.548 212.162 157.278 212.162C156.992 212.162 156.743 212.221 156.53 212.338C156.317 212.454 156.154 212.619 156.04 212.832C155.925 213.045 155.868 213.294 155.868 213.58H154.719C154.719 213.094 154.831 212.67 155.054 212.306C155.278 211.943 155.584 211.661 155.973 211.461C156.363 211.259 156.805 211.158 157.301 211.158C157.802 211.158 158.244 211.258 158.625 211.458C159.01 211.655 159.309 211.925 159.525 212.268C159.74 212.608 159.848 212.992 159.848 213.42C159.848 213.716 159.792 214.006 159.681 214.289C159.572 214.572 159.381 214.887 159.108 215.235C158.836 215.58 158.457 216 157.971 216.493L156.386 218.152V218.21H159.977V219.242H154.727ZM164.429 219.351C163.894 219.351 163.417 219.259 162.996 219.075C162.578 218.89 162.247 218.635 162.003 218.308C161.762 217.978 161.632 217.596 161.614 217.163H162.836C162.852 217.399 162.931 217.604 163.074 217.778C163.219 217.949 163.409 218.082 163.643 218.175C163.876 218.269 164.136 218.315 164.421 218.315C164.736 218.315 165.013 218.261 165.255 218.152C165.499 218.043 165.69 217.891 165.827 217.696C165.965 217.499 166.034 217.272 166.034 217.015C166.034 216.747 165.965 216.512 165.827 216.31C165.692 216.105 165.494 215.944 165.231 215.827C164.972 215.71 164.658 215.652 164.289 215.652H163.615V214.67H164.289C164.585 214.67 164.845 214.617 165.068 214.511C165.294 214.404 165.47 214.256 165.598 214.067C165.725 213.875 165.788 213.65 165.788 213.393C165.788 213.146 165.733 212.932 165.621 212.75C165.512 212.566 165.356 212.422 165.154 212.318C164.954 212.214 164.717 212.162 164.445 212.162C164.185 212.162 163.942 212.21 163.717 212.306C163.493 212.4 163.312 212.535 163.171 212.711C163.031 212.885 162.956 213.094 162.946 213.338H161.781C161.794 212.907 161.921 212.528 162.163 212.201C162.407 211.874 162.729 211.618 163.129 211.434C163.528 211.25 163.972 211.158 164.46 211.158C164.972 211.158 165.413 211.258 165.784 211.458C166.158 211.655 166.446 211.918 166.649 212.248C166.854 212.578 166.955 212.939 166.953 213.331C166.955 213.777 166.831 214.156 166.579 214.468C166.33 214.779 165.997 214.988 165.582 215.095V215.157C166.112 215.238 166.522 215.448 166.813 215.788C167.106 216.128 167.251 216.55 167.249 217.054C167.251 217.492 167.129 217.886 166.883 218.234C166.639 218.581 166.305 218.855 165.882 219.055C165.459 219.253 164.974 219.351 164.429 219.351ZM168.753 217.684V216.711L172.2 211.267H172.967V212.7H172.48L170.015 216.602V216.664H174.739V217.684H168.753ZM172.535 219.242V217.389L172.542 216.945V211.267H173.683V219.242H172.535ZM182.424 211.267V219.242H181.217V212.474H181.17L179.262 213.72V212.567L181.252 211.267H182.424ZM184.781 219.242V218.37L187.48 215.574C187.768 215.27 188.006 215.004 188.193 214.775C188.382 214.544 188.524 214.325 188.617 214.117C188.711 213.91 188.758 213.689 188.758 213.455C188.758 213.19 188.695 212.962 188.571 212.77C188.446 212.575 188.276 212.426 188.06 212.322C187.845 212.216 187.602 212.162 187.332 212.162C187.047 212.162 186.797 212.221 186.585 212.338C186.372 212.454 186.208 212.619 186.094 212.832C185.98 213.045 185.922 213.294 185.922 213.58H184.774C184.774 213.094 184.885 212.67 185.109 212.306C185.332 211.943 185.638 211.661 186.028 211.461C186.417 211.259 186.86 211.158 187.356 211.158C187.857 211.158 188.298 211.258 188.68 211.458C189.064 211.655 189.364 211.925 189.579 212.268C189.795 212.608 189.902 212.992 189.902 213.42C189.902 213.716 189.847 214.006 189.735 214.289C189.626 214.572 189.435 214.887 189.163 215.235C188.89 215.58 188.511 216 188.025 216.493L186.44 218.152V218.21H190.031V219.242H184.781ZM194.484 219.351C193.949 219.351 193.471 219.259 193.05 219.075C192.632 218.89 192.301 218.635 192.057 218.308C191.816 217.978 191.686 217.596 191.668 217.163H192.891C192.906 217.399 192.986 217.604 193.128 217.778C193.274 217.949 193.463 218.082 193.697 218.175C193.931 218.269 194.19 218.315 194.476 218.315C194.79 218.315 195.068 218.261 195.309 218.152C195.553 218.043 195.744 217.891 195.882 217.696C196.019 217.499 196.088 217.272 196.088 217.015C196.088 216.747 196.019 216.512 195.882 216.31C195.747 216.105 195.548 215.944 195.286 215.827C195.026 215.71 194.712 215.652 194.343 215.652H193.67V214.67H194.343C194.639 214.67 194.899 214.617 195.122 214.511C195.348 214.404 195.525 214.256 195.652 214.067C195.779 213.875 195.843 213.65 195.843 213.393C195.843 213.146 195.787 212.932 195.675 212.75C195.566 212.566 195.41 212.422 195.208 212.318C195.008 212.214 194.772 212.162 194.499 212.162C194.239 212.162 193.997 212.21 193.771 212.306C193.548 212.4 193.366 212.535 193.226 212.711C193.085 212.885 193.01 213.094 193 213.338H191.835C191.848 212.907 191.976 212.528 192.217 212.201C192.461 211.874 192.783 211.618 193.183 211.434C193.583 211.25 194.027 211.158 194.515 211.158C195.026 211.158 195.467 211.258 195.839 211.458C196.213 211.655 196.501 211.918 196.703 212.248C196.908 212.578 197.01 212.939 197.007 213.331C197.01 213.777 196.885 214.156 196.633 214.468C196.384 214.779 196.052 214.988 195.636 215.095V215.157C196.166 215.238 196.576 215.448 196.867 215.788C197.16 216.128 197.306 216.55 197.303 217.054C197.306 217.492 197.184 217.886 196.937 218.234C196.693 218.581 196.359 218.855 195.936 219.055C195.513 219.253 195.029 219.351 194.484 219.351ZM198.808 217.684V216.711L202.254 211.267H203.021V212.7H202.534L200.069 216.602V216.664H204.793V217.684H198.808ZM202.589 219.242V217.389L202.597 216.945V211.267H203.738V219.242H202.589ZM212.478 211.267V219.242H211.271V212.474H211.224L209.316 213.72V212.567L211.306 211.267H212.478ZM214.836 219.242V218.37L217.534 215.574C217.823 215.27 218.06 215.004 218.247 214.775C218.437 214.544 218.578 214.325 218.672 214.117C218.765 213.91 218.812 213.689 218.812 213.455C218.812 213.19 218.749 212.962 218.625 212.77C218.5 212.575 218.33 212.426 218.115 212.322C217.899 212.216 217.656 212.162 217.386 212.162C217.101 212.162 216.852 212.221 216.639 212.338C216.426 212.454 216.262 212.619 216.148 212.832C216.034 213.045 215.977 213.294 215.977 213.58H214.828C214.828 213.094 214.94 212.67 215.163 212.306C215.386 211.943 215.692 211.661 216.082 211.461C216.471 211.259 216.914 211.158 217.41 211.158C217.911 211.158 218.352 211.258 218.734 211.458C219.118 211.655 219.418 211.925 219.633 212.268C219.849 212.608 219.957 212.992 219.957 213.42C219.957 213.716 219.901 214.006 219.789 214.289C219.68 214.572 219.489 214.887 219.217 215.235C218.944 215.58 218.565 216 218.08 216.493L216.495 218.152V218.21H220.085V219.242H214.836ZM224.538 219.351C224.003 219.351 223.525 219.259 223.105 219.075C222.687 218.89 222.356 218.635 222.112 218.308C221.87 217.978 221.74 217.596 221.722 217.163H222.945C222.961 217.399 223.04 217.604 223.183 217.778C223.328 217.949 223.517 218.082 223.751 218.175C223.985 218.269 224.244 218.315 224.53 218.315C224.844 218.315 225.122 218.261 225.363 218.152C225.607 218.043 225.798 217.891 225.936 217.696C226.073 217.499 226.142 217.272 226.142 217.015C226.142 216.747 226.073 216.512 225.936 216.31C225.801 216.105 225.602 215.944 225.34 215.827C225.08 215.71 224.766 215.652 224.398 215.652H223.724V214.67H224.398C224.694 214.67 224.953 214.617 225.176 214.511C225.402 214.404 225.579 214.256 225.706 214.067C225.833 213.875 225.897 213.65 225.897 213.393C225.897 213.146 225.841 212.932 225.729 212.75C225.62 212.566 225.465 212.422 225.262 212.318C225.062 212.214 224.826 212.162 224.553 212.162C224.294 212.162 224.051 212.21 223.825 212.306C223.602 212.4 223.42 212.535 223.28 212.711C223.14 212.885 223.064 213.094 223.054 213.338H221.89C221.903 212.907 222.03 212.528 222.271 212.201C222.515 211.874 222.837 211.618 223.237 211.434C223.637 211.25 224.081 211.158 224.569 211.158C225.08 211.158 225.522 211.258 225.893 211.458C226.267 211.655 226.555 211.918 226.758 212.248C226.963 212.578 227.064 212.939 227.061 213.331C227.064 213.777 226.939 214.156 226.687 214.468C226.438 214.779 226.106 214.988 225.691 215.095V215.157C226.22 215.238 226.63 215.448 226.921 215.788C227.214 216.128 227.36 216.55 227.357 217.054C227.36 217.492 227.238 217.886 226.991 218.234C226.747 218.581 226.414 218.855 225.99 219.055C225.567 219.253 225.083 219.351 224.538 219.351ZM228.862 217.684V216.711L232.308 211.267H233.075V212.7H232.589L230.124 216.602V216.664H234.847V217.684H228.862ZM232.643 219.242V217.389L232.651 216.945V211.267H233.792V219.242H232.643Z" fill="#425466"/>
<path d="M387.802 208.059H368.473C367.378 208.059 366.49 208.946 366.49 210.041V221.44C366.49 222.535 367.378 223.423 368.473 223.423H387.802C388.897 223.423 389.785 222.535 389.785 221.44V210.041C389.785 208.946 388.897 208.059 387.802 208.059Z" fill="white" stroke="black" stroke-opacity="0.2" stroke-width="0.5"/>
<path d="M369.008 213.67C368.448 213.37 367.852 213.147 367.233 213.005L367.263 212.877H369.969C370.346 212.887 370.643 213.005 370.733 213.392L371.327 216.207L371.506 217.05L373.161 212.887H374.945L372.289 218.983H370.505L369.018 213.66L369.008 213.67ZM376.254 218.993H374.569L375.619 212.877H377.304L376.254 218.993ZM382.37 213.025L382.142 214.354L381.983 214.284C381.686 214.165 381.279 214.036 380.724 214.046C380.06 214.046 379.763 214.314 379.753 214.582C379.753 214.859 380.12 215.047 380.704 215.335C381.676 215.771 382.132 216.306 382.122 217C382.112 218.269 380.962 219.082 379.188 219.082C378.435 219.082 377.701 218.933 377.304 218.765L377.542 217.387L377.77 217.486C378.316 217.714 378.672 217.813 379.356 217.813C379.832 217.813 380.348 217.615 380.358 217.218C380.358 216.951 380.139 216.752 379.485 216.455C378.851 216.158 377.998 215.662 378.008 214.79C378.008 213.6 379.198 212.768 380.853 212.768C381.507 212.768 382.043 212.906 382.37 213.025ZM384.61 216.832H386.008L385.621 215.057L385.502 214.532L385.284 215.127L384.61 216.832ZM386.692 212.877L388.05 218.993H386.483L386.285 218.081H384.124L383.767 218.993H382.003L384.501 213.382C384.679 212.986 384.987 212.887 385.393 212.887H386.682L386.692 212.877Z" fill="#1434CB"/>
<path d="M415.84 207.811H396.015C394.92 207.811 394.032 208.698 394.032 209.793V221.688C394.032 222.783 394.92 223.671 396.015 223.671H415.84C416.935 223.671 417.822 222.783 417.822 221.688V209.793C417.822 208.698 416.935 207.811 415.84 207.811Z" fill="#252525"/>
<path d="M402.953 220.698C405.691 220.698 407.91 218.479 407.91 215.741C407.91 213.004 405.691 210.785 402.953 210.785C400.216 210.785 397.997 213.004 397.997 215.741C397.997 218.479 400.216 220.698 402.953 220.698Z" fill="#EB001B"/>
<path d="M408.901 220.698C411.638 220.698 413.857 218.479 413.857 215.741C413.857 213.004 411.638 210.785 408.901 210.785C406.163 210.785 403.944 213.004 403.944 215.741C403.944 218.479 406.163 220.698 408.901 220.698Z" fill="#F79E1B"/>
<path fill-rule="evenodd" clip-rule="evenodd" d="M405.927 211.775C406.542 212.237 407.042 212.836 407.386 213.524C407.73 214.212 407.909 214.971 407.909 215.74C407.909 216.51 407.73 217.269 407.386 217.957C407.042 218.645 406.542 219.244 405.927 219.705C405.311 219.244 404.812 218.645 404.468 217.957C404.123 217.269 403.944 216.51 403.944 215.74C403.944 214.971 404.123 214.212 404.468 213.524C404.812 212.836 405.311 212.237 405.927 211.775Z" fill="#FF5F00"/>
<path d="M443.639 207.811H423.806C422.71 207.811 421.822 208.698 421.822 209.793V221.688C421.822 222.783 422.71 223.671 423.806 223.671H443.639C444.734 223.671 445.622 222.783 445.622 221.688V209.793C445.622 208.698 444.734 207.811 443.639 207.811Z" fill="#016FD0"/>
<path fill-rule="evenodd" clip-rule="evenodd" d="M435.468 221.093V215.443H445.533V217.01L444.373 218.249L445.533 219.498V221.093H443.679L442.687 220.003L441.715 221.093H435.468Z" fill="#FFFFFE"/>
<path fill-rule="evenodd" clip-rule="evenodd" d="M436.142 220.47V216.059H439.88V217.07H437.351V217.764H439.831V218.755H437.351V219.449H439.88V220.47H436.142Z" fill="#016FD0"/>
<path fill-rule="evenodd" clip-rule="evenodd" d="M439.87 220.47L441.933 218.259L439.87 216.059H441.467L442.736 217.456L444.005 216.059H445.533V216.098L443.51 218.259L445.533 220.41V220.47H443.986L442.696 219.052L441.427 220.47H439.87Z" fill="#016FD0"/>
<path fill-rule="evenodd" clip-rule="evenodd" d="M435.943 210.418H438.363L439.216 212.351V210.418H442.211L442.726 211.865L443.252 210.418H445.533V216.068H433.454L435.943 210.418Z" fill="#FFFFFE"/>
<path fill-rule="evenodd" clip-rule="evenodd" d="M436.4 211.031L434.446 215.442H435.785L436.152 214.55H438.155L438.522 215.442H439.9L437.947 211.031H436.4ZM436.568 213.569L437.163 212.161L437.739 213.569H436.568Z" fill="#016FD0"/>
<path fill-rule="evenodd" clip-rule="evenodd" d="M439.881 215.442V211.031H441.765L442.747 213.757L443.729 211.041H445.543V215.442H444.373V212.429L443.262 215.442H442.191L441.071 212.409V215.442H439.881Z" fill="#016FD0"/>
<path d="M454.281 207.81H460.228C460.415 207.801 460.6 207.837 460.77 207.915C460.939 207.994 461.086 208.113 461.2 208.261C461.313 208.409 461.388 208.583 461.419 208.767C461.45 208.951 461.436 209.139 461.378 209.317L458.613 221.212C458.502 221.624 458.26 221.99 457.924 222.255C457.588 222.519 457.176 222.668 456.749 222.679H450.801C450.616 222.69 450.43 222.656 450.26 222.579C450.09 222.503 449.941 222.388 449.825 222.242C449.71 222.096 449.631 221.924 449.595 221.742C449.56 221.559 449.569 221.37 449.622 221.192L452.387 209.297C452.496 208.876 452.74 208.502 453.083 208.233C453.425 207.964 453.846 207.816 454.281 207.81Z" fill="#E21836"/>
<path d="M459.723 207.811H466.552C467.385 207.811 467.008 208.485 466.81 209.317L464.045 221.212C463.856 222.035 463.916 222.709 463.053 222.709H456.253C456.067 222.717 455.881 222.679 455.712 222.599C455.543 222.519 455.395 222.4 455.282 222.251C455.17 222.102 455.094 221.928 455.063 221.744C455.032 221.559 455.046 221.37 455.103 221.192L457.869 209.297C457.976 208.883 458.214 208.514 458.548 208.245C458.883 207.977 459.295 207.825 459.723 207.811Z" fill="#00447C"/>
<path d="M455.827 211.617C455.546 211.638 455.265 211.638 454.984 211.617C454.984 211.726 454.548 213.6 454.548 213.6C454.52 213.912 454.387 214.205 454.171 214.432C454.052 214.539 453.895 214.596 453.735 214.591C453.679 214.596 453.622 214.59 453.568 214.573C453.514 214.556 453.465 214.528 453.422 214.491C453.379 214.454 453.345 214.408 453.32 214.357C453.295 214.306 453.282 214.251 453.279 214.194V214.125L453.358 213.6C453.358 213.6 453.795 211.875 453.874 211.617C453.545 211.654 453.212 211.654 452.883 211.617C452.885 211.66 452.885 211.703 452.883 211.746L452.446 213.729V213.897L452.377 214.432C452.36 214.538 452.363 214.645 452.387 214.75C452.585 215.106 453.16 215.156 453.487 215.156C453.864 215.182 454.24 215.107 454.578 214.938C454.759 214.816 454.913 214.658 455.031 214.474C455.148 214.289 455.227 214.083 455.262 213.867L455.311 213.679C455.311 213.679 455.757 211.875 455.837 211.637L455.827 211.617ZM457.343 213.064C457.178 213.07 457.016 213.111 456.867 213.183L456.679 213.282L456.739 213.084C456.362 213.164 456.273 213.173 455.936 213.223C455.885 213.64 455.809 214.054 455.708 214.462L455.529 215.186C455.787 215.171 456.045 215.171 456.302 215.186L456.431 214.531C456.431 214.343 456.56 213.917 456.6 213.768C456.672 213.733 456.749 213.71 456.828 213.699C456.996 213.699 456.976 213.848 456.976 213.907C456.976 213.966 456.897 214.343 456.838 214.621V214.799C456.838 214.938 456.768 215.067 456.739 215.206C456.989 215.191 457.241 215.191 457.492 215.206C457.551 214.839 457.551 214.75 457.651 214.294L457.7 214.085C457.789 213.679 457.839 213.471 457.769 213.302C457.733 213.223 457.671 213.157 457.595 213.114C457.518 213.072 457.43 213.054 457.343 213.064ZM459.038 213.491L458.622 213.57L458.206 213.629L458.146 214.016C458.119 214.196 458.083 214.375 458.037 214.551C458.037 214.72 457.978 214.779 457.958 214.849C457.916 214.941 457.883 215.038 457.859 215.136H458.691C458.691 214.987 458.691 214.938 458.691 214.868C458.691 214.799 458.691 214.67 458.8 214.373C458.8 214.224 458.87 214.085 458.9 213.947C458.929 213.808 458.969 213.659 458.999 213.52L459.038 213.491ZM459.038 212.916C458.931 212.869 458.813 212.85 458.697 212.862C458.581 212.875 458.469 212.917 458.374 212.985C458.176 213.124 458.146 213.312 458.315 213.411C458.422 213.458 458.539 213.477 458.656 213.465C458.772 213.453 458.884 213.41 458.979 213.342C459.187 213.203 459.207 213.015 459.048 212.916H459.038ZM460.03 215.215C460.211 215.228 460.394 215.203 460.565 215.139C460.736 215.076 460.891 214.977 461.021 214.849C461.178 214.639 461.289 214.4 461.348 214.145C461.396 214.014 461.414 213.873 461.401 213.734C461.387 213.595 461.342 213.461 461.269 213.342C461.173 213.245 461.056 213.171 460.927 213.127C460.798 213.082 460.661 213.068 460.525 213.084C460.199 213.069 459.88 213.179 459.633 213.392C459.423 213.601 459.285 213.872 459.237 214.165C459.167 214.442 459.098 214.958 459.564 215.156C459.724 215.206 459.892 215.227 460.059 215.215H460.03ZM460.03 214.224C460.109 213.877 460.198 213.59 460.436 213.59C460.674 213.59 460.634 213.808 460.555 214.155C460.52 214.325 460.46 214.488 460.376 214.64C460.355 214.681 460.323 214.715 460.286 214.741C460.248 214.767 460.204 214.784 460.158 214.789C460.158 214.789 459.98 214.789 459.98 214.571C459.982 214.44 460.002 214.31 460.039 214.185L460.03 214.224ZM462.19 215.215L462.319 214.561C462.319 214.373 462.448 213.947 462.488 213.798C462.559 213.761 462.636 213.738 462.716 213.729C462.884 213.729 462.865 213.877 462.855 213.937C462.825 214.177 462.782 214.415 462.726 214.65V214.829C462.726 214.968 462.656 215.096 462.627 215.235C462.878 215.221 463.129 215.221 463.38 215.235C463.43 214.928 463.449 214.839 463.548 214.383V214.175C463.648 213.768 463.697 213.56 463.628 213.392C463.591 213.312 463.53 213.246 463.453 213.204C463.377 213.161 463.289 213.143 463.202 213.154C463.036 213.158 462.874 213.199 462.726 213.273L462.537 213.382L462.587 213.173C462.21 213.253 462.121 213.263 461.774 213.312C461.724 213.73 461.648 214.143 461.546 214.551C461.487 214.789 461.427 215.037 461.378 215.275C461.635 215.26 461.893 215.26 462.151 215.275L462.19 215.215ZM464.758 215.215L464.906 214.472C464.906 214.472 465.025 214.006 465.025 213.986L465.095 213.927H465.154C465.662 213.981 466.173 213.87 466.611 213.61C466.913 213.38 467.12 213.049 467.196 212.678C467.211 212.573 467.211 212.466 467.196 212.361C467.204 212.212 467.162 212.066 467.077 211.944C466.859 211.637 466.423 211.627 465.918 211.627H465.67C465.025 211.627 464.768 211.627 464.679 211.627C464.589 211.627 464.679 211.756 464.679 211.756L464.49 212.767C464.49 212.767 463.945 215.047 463.915 215.156C464.49 215.176 464.669 215.176 464.768 215.186L464.758 215.215ZM465.184 213.312L465.481 212.222V212.123H465.581H466.096C466.197 212.167 466.277 212.248 466.32 212.349C466.362 212.451 466.364 212.565 466.324 212.668C466.3 212.782 466.251 212.889 466.181 212.981C466.111 213.074 466.021 213.15 465.918 213.203C465.738 213.274 465.545 213.305 465.353 213.292H465.184V213.312ZM466.72 214.234C466.651 214.512 466.582 215.017 467.038 215.225C467.175 215.27 467.323 215.277 467.464 215.245C467.611 215.228 467.75 215.165 467.86 215.067V215.186H468.653C468.713 214.868 468.762 214.571 468.901 213.976C468.961 213.699 469.03 213.411 469.099 213.134L468.267 213.263V213.352C468.208 213.252 468.117 213.175 468.009 213.134C467.852 213.115 467.693 213.134 467.544 213.189C467.396 213.244 467.263 213.334 467.157 213.451C466.949 213.659 466.811 213.925 466.76 214.214L466.72 214.234ZM467.504 214.234C467.583 213.897 467.672 213.6 467.91 213.6C468.148 213.6 468.138 213.738 468.118 213.976C468.122 214.039 468.122 214.102 468.118 214.165C468.098 214.269 468.071 214.371 468.039 214.472C468.022 214.535 467.995 214.596 467.96 214.65C467.922 214.692 467.876 214.726 467.825 214.75C467.774 214.774 467.719 214.787 467.662 214.789C467.662 214.789 467.464 214.75 467.464 214.561C467.467 214.447 467.483 214.334 467.513 214.224L467.504 214.234ZM471.588 213.104C471.221 213.173 471.151 213.193 470.814 213.233C470.557 213.808 470.567 213.689 470.358 214.145V214.085L470.309 213.094C469.922 213.164 469.912 213.183 469.555 213.223C469.555 213.451 469.555 213.401 469.635 213.758C469.635 213.937 469.635 214.115 469.704 214.294C469.774 214.472 469.754 214.73 469.793 215.166C469.555 215.572 469.496 215.721 469.268 216.068L469.109 216.326C469.095 216.35 469.074 216.371 469.05 216.385H468.852L468.713 216.831H469.179C469.286 216.838 469.392 216.813 469.485 216.76C469.579 216.707 469.655 216.629 469.704 216.534L470.002 216.038C470.2 215.622 471.687 213.064 471.687 213.064L471.588 213.104ZM466.72 218.982H466.522L467.246 216.583H467.464L467.543 216.336V216.613C467.543 216.782 467.662 216.93 468.019 216.91H468.455L468.594 216.445H468.455C468.366 216.445 468.326 216.445 468.336 216.375V216.088H467.563C467.325 216.088 466.572 216.088 466.453 216.147C466.322 216.191 466.198 216.254 466.086 216.336L466.155 216.088H465.481L465.333 216.573L464.599 219.002H464.451L464.312 219.468H465.709V219.617H466.393L466.443 219.468H466.631L466.79 218.972L466.72 218.982ZM466.146 217.069C466.034 217.104 465.924 217.147 465.818 217.198L466.007 216.583H466.562L466.473 217.019C466.377 217.012 466.281 217.012 466.185 217.019L466.146 217.069ZM466.146 217.941H465.848C465.739 217.941 465.531 218.09 465.531 218.09L465.719 217.446H466.274L466.146 217.892V217.941ZM465.828 218.933H465.273L465.432 218.397H465.987L465.828 218.933ZM467.176 217.446H467.989L467.87 217.822H467.067L466.948 218.239H467.662L467.127 219.002C467.096 219.038 467.059 219.068 467.018 219.091C466.969 219.103 466.918 219.103 466.869 219.091H466.671L466.532 219.537H467.048C467.156 219.541 467.264 219.518 467.361 219.47C467.458 219.421 467.541 219.349 467.603 219.26L467.969 218.754L468.049 219.27C468.057 219.306 468.075 219.341 468.099 219.37C468.123 219.399 468.153 219.423 468.188 219.438C468.24 219.478 468.301 219.505 468.366 219.517H468.802L468.951 219.012H468.852C468.793 219.025 468.732 219.025 468.673 219.012C468.67 218.976 468.67 218.939 468.673 218.903L468.594 218.387H468.257L468.406 218.219H469.218L469.347 217.803H468.594L468.703 217.426H469.446L469.595 216.97H467.335L467.196 217.426L467.176 217.446ZM460.367 219.042L460.555 218.417H461.328L461.467 217.951H460.694L460.813 217.565H461.566L461.705 217.109H459.831L459.702 217.565H460.129L460.01 217.951H459.583L459.435 218.417H459.871L459.613 219.25C459.613 219.359 459.613 219.398 459.663 219.458C459.695 219.507 459.745 219.542 459.802 219.557H460H460.872L461.031 219.042L460.644 219.101C460.525 219.161 460.367 219.151 460.386 219.081L460.367 219.042ZM460.456 216.068L460.258 216.425C460.233 216.482 460.196 216.533 460.148 216.573C460.09 216.589 460.029 216.589 459.97 216.573H459.871L459.732 217.019H460.069C460.19 217.017 460.309 216.986 460.416 216.93C460.486 216.93 460.495 216.93 460.545 216.871L460.664 216.772H461.725L461.863 216.296H461.09L461.229 216.038L460.456 216.068ZM462.022 219.042C462.022 219.042 462.022 218.972 462.022 218.873L462.309 217.882H463.677C463.764 217.871 463.848 217.844 463.925 217.803C463.998 217.762 464.059 217.704 464.104 217.634C464.183 217.508 464.243 217.371 464.282 217.228L464.649 216.018H463.618C463.456 216.041 463.297 216.077 463.142 216.127C463.015 216.189 462.895 216.266 462.785 216.355L462.884 216.018H462.22L461.288 219.091L461.229 219.349C461.229 219.349 461.308 219.458 461.348 219.498C461.419 219.518 461.495 219.518 461.566 219.498H462.438L462.597 218.972H462.141C462.141 219.001 462.132 219.028 462.113 219.05C462.095 219.072 462.07 219.086 462.042 219.091L462.022 219.042ZM462.508 217.317H463.598L463.529 217.525C463.529 217.525 463.529 217.525 463.38 217.525H462.508V217.317ZM462.726 216.593H463.816L463.737 216.851C463.737 216.851 463.231 216.851 463.142 216.851C462.931 216.885 462.733 216.974 462.567 217.109L462.726 216.593ZM463.548 218.249C463.548 218.249 463.548 218.308 463.548 218.318C463.548 218.328 463.489 218.318 463.439 218.318H463.281V218.06H462.637V219.339C462.637 219.438 462.637 219.488 462.716 219.527C462.894 219.591 463.084 219.611 463.271 219.587H463.677L463.826 219.111H463.469H463.36H463.311C463.311 219.111 463.311 219.111 463.311 219.022V218.715H463.687C463.751 218.719 463.815 218.709 463.874 218.687C463.934 218.665 463.989 218.63 464.034 218.586C464.098 218.529 464.14 218.452 464.153 218.368L464.223 218.08H463.717L463.648 218.278L463.548 218.249Z" fill="#FEFEFE"/>
<mask id="path-28-inside-2_4003_5367" fill="white">
<path d="M105.643 234.576H295.973V274.226H111.643C108.329 274.226 105.643 271.54 105.643 268.226V234.576Z"/>
</mask>
<path d="M105.643 234.576H295.973V274.226H111.643C108.329 274.226 105.643 271.54 105.643 268.226V234.576Z" fill="white"/>
<path d="M104.643 233.576H295.973V235.576H106.643L104.643 233.576ZM295.973 275.226H111.643C107.777 275.226 104.643 272.092 104.643 268.226H106.643C106.643 270.988 108.881 273.226 111.643 273.226H295.973V275.226ZM111.643 275.226C107.777 275.226 104.643 272.092 104.643 268.226V233.576L106.643 235.576V268.226C106.643 270.988 108.881 273.226 111.643 273.226V275.226ZM295.973 234.576V274.226V234.576Z" fill="#E6EBF1" mask="url(#path-28-inside-2_4003_5367)"/>
<path d="M119.548 249.656H121.058L123.683 256.066H123.78L126.405 249.656H127.915V257.902H126.731V251.935H126.655L124.223 257.89H123.241L120.809 251.931H120.732V257.902H119.548V249.656ZM129.924 249.656H131.434L134.059 256.066H134.156L136.781 249.656H138.291V257.902H137.107V251.935H137.03L134.598 257.89H133.616L131.184 251.931H131.108V257.902H129.924V249.656ZM143.343 249.27L140.686 259.142H139.611L142.268 249.27H143.343ZM144.026 249.656H145.44L147.594 253.405H147.682L149.836 249.656H151.25L148.258 254.665V257.902H147.018V254.665L144.026 249.656ZM151.988 249.656H153.401L155.555 253.405H155.644L157.798 249.656H159.211L156.22 254.665V257.902H154.98V254.665L151.988 249.656Z" fill="#425466"/>
<path d="M296.473 235.076H485.803V268.226C485.803 271.264 483.34 273.726 480.303 273.726H296.473V235.076Z" fill="white"/>
<path d="M296.473 235.076H485.803V268.226C485.803 271.264 483.34 273.726 480.303 273.726H296.473V235.076Z" stroke="#E6EBF1"/>
<path d="M316.744 252.247H315.467C315.418 251.974 315.327 251.734 315.193 251.527C315.059 251.319 314.896 251.143 314.702 250.999C314.508 250.854 314.291 250.745 314.051 250.671C313.814 250.598 313.562 250.561 313.294 250.561C312.811 250.561 312.379 250.682 311.997 250.925C311.618 251.168 311.318 251.524 311.097 251.993C310.878 252.462 310.769 253.035 310.769 253.712C310.769 254.394 310.878 254.97 311.097 255.439C311.318 255.908 311.619 256.263 312.001 256.503C312.383 256.743 312.813 256.863 313.29 256.863C313.555 256.863 313.806 256.827 314.043 256.757C314.283 256.683 314.5 256.575 314.694 256.433C314.888 256.291 315.051 256.118 315.185 255.913C315.321 255.706 315.415 255.469 315.467 255.201L316.744 255.206C316.676 255.617 316.544 255.997 316.347 256.343C316.153 256.687 315.904 256.984 315.598 257.235C315.295 257.484 314.949 257.676 314.559 257.812C314.169 257.949 313.743 258.017 313.282 258.017C312.556 258.017 311.91 257.845 311.342 257.501C310.775 257.155 310.327 256.66 310 256.016C309.675 255.372 309.513 254.604 309.513 253.712C309.513 252.817 309.677 252.049 310.004 251.408C310.331 250.764 310.779 250.27 311.346 249.926C311.914 249.58 312.559 249.407 313.282 249.407C313.727 249.407 314.141 249.471 314.526 249.599C314.913 249.725 315.261 249.91 315.57 250.156C315.878 250.398 316.133 250.696 316.335 251.048C316.537 251.397 316.673 251.797 316.744 252.247ZM319.19 249.521L321.522 256.347H321.616L323.949 249.521H325.316L322.3 257.902H320.839L317.823 249.521H319.19ZM333.271 252.247H331.994C331.945 251.974 331.853 251.734 331.72 251.527C331.586 251.319 331.422 251.143 331.229 250.999C331.035 250.854 330.818 250.745 330.578 250.671C330.341 250.598 330.088 250.561 329.821 250.561C329.338 250.561 328.906 250.682 328.524 250.925C328.145 251.168 327.844 251.524 327.623 251.993C327.405 252.462 327.296 253.035 327.296 253.712C327.296 254.394 327.405 254.97 327.623 255.439C327.844 255.908 328.146 256.263 328.528 256.503C328.91 256.743 329.339 256.863 329.817 256.863C330.082 256.863 330.333 256.827 330.57 256.757C330.81 256.683 331.027 256.575 331.221 256.433C331.414 256.291 331.578 256.118 331.712 255.913C331.848 255.706 331.942 255.469 331.994 255.201L333.271 255.206C333.203 255.617 333.07 255.997 332.874 256.343C332.68 256.687 332.431 256.984 332.125 257.235C331.822 257.484 331.476 257.676 331.086 257.812C330.695 257.949 330.27 258.017 329.809 258.017C329.083 258.017 328.436 257.845 327.869 257.501C327.301 257.155 326.854 256.66 326.527 256.016C326.202 255.372 326.04 254.604 326.04 253.712C326.04 252.817 326.203 252.049 326.531 251.408C326.858 250.764 327.306 250.27 327.873 249.926C328.441 249.58 329.086 249.407 329.809 249.407C330.253 249.407 330.668 249.471 331.053 249.599C331.44 249.725 331.788 249.91 332.096 250.156C332.405 250.398 332.66 250.696 332.862 251.048C333.063 251.397 333.2 251.797 333.271 252.247Z" fill="#425466"/>
<path opacity="0.2" fill-rule="evenodd" clip-rule="evenodd" d="M466.466 248.678H453.219C452.6 248.678 451.873 249.391 451.873 250.024V260.123C451.873 260.756 452.6 261.47 453.219 261.47H470.047C470.667 261.47 471.394 260.756 471.394 260.123V255.053C470.827 255.564 470.126 255.902 469.374 256.03V256.084C469.374 256.528 469.132 256.757 468.701 256.757H453.892C453.462 256.757 453.219 256.528 453.219 256.084V255.41C453.219 254.966 453.462 254.737 453.892 254.737H465.692C465.304 254.306 465.013 253.797 464.839 253.243C464.666 252.69 464.614 252.105 464.688 251.53C464.761 250.954 464.958 250.401 465.265 249.909C465.572 249.417 465.982 248.997 466.466 248.678Z" fill="#565656"/>
<path opacity="0.3" fill-rule="evenodd" clip-rule="evenodd" d="M464.891 250.699H451.873V252.719H464.716C464.603 252.042 464.663 251.347 464.891 250.699Z" fill="#565656"/>
<path d="M113.7 297.129V305.916H112.481L108.015 299.472H107.934V305.916H106.608V297.129H107.835L112.305 303.582H112.387V297.129H113.7ZM117.648 306.062C117.231 306.062 116.853 305.985 116.516 305.83C116.178 305.673 115.911 305.446 115.714 305.148C115.519 304.851 115.422 304.486 115.422 304.054C115.422 303.682 115.493 303.376 115.636 303.136C115.779 302.896 115.972 302.705 116.215 302.565C116.459 302.425 116.73 302.319 117.031 302.248C117.331 302.176 117.637 302.122 117.949 302.085C118.343 302.039 118.664 302.002 118.91 301.973C119.156 301.942 119.335 301.892 119.446 301.823C119.558 301.754 119.613 301.643 119.613 301.488V301.458C119.613 301.084 119.508 300.793 119.296 300.587C119.087 300.382 118.775 300.279 118.361 300.279C117.929 300.279 117.588 300.374 117.34 300.566C117.094 300.755 116.923 300.965 116.829 301.197L115.623 300.922C115.766 300.522 115.975 300.198 116.25 299.952C116.527 299.704 116.846 299.523 117.207 299.412C117.567 299.297 117.946 299.24 118.343 299.24C118.607 299.24 118.885 299.272 119.18 299.335C119.478 299.395 119.755 299.506 120.012 299.669C120.273 299.832 120.486 300.065 120.652 300.369C120.818 300.669 120.9 301.059 120.9 301.54V305.916H119.648V305.015H119.596C119.513 305.181 119.389 305.344 119.223 305.504C119.057 305.664 118.844 305.797 118.584 305.903C118.323 306.009 118.012 306.062 117.648 306.062ZM117.927 305.032C118.282 305.032 118.585 304.962 118.837 304.822C119.091 304.682 119.284 304.499 119.416 304.273C119.55 304.044 119.618 303.799 119.618 303.539V302.69C119.572 302.735 119.483 302.778 119.352 302.818C119.223 302.856 119.076 302.888 118.91 302.917C118.744 302.943 118.582 302.967 118.425 302.99C118.268 303.01 118.136 303.027 118.03 303.042C117.781 303.073 117.554 303.126 117.348 303.2C117.145 303.275 116.982 303.382 116.859 303.522C116.739 303.659 116.679 303.842 116.679 304.071C116.679 304.389 116.796 304.629 117.031 304.792C117.265 304.952 117.564 305.032 117.927 305.032ZM122.809 305.916V299.326H124.04V300.399H124.122C124.259 300.035 124.484 299.752 124.796 299.549C125.107 299.343 125.481 299.24 125.915 299.24C126.356 299.24 126.725 299.343 127.022 299.549C127.323 299.755 127.544 300.038 127.687 300.399H127.756C127.913 300.047 128.163 299.767 128.507 299.558C128.85 299.346 129.259 299.24 129.734 299.24C130.331 299.24 130.819 299.428 131.197 299.802C131.577 300.177 131.767 300.742 131.767 301.497V305.916H130.484V301.617C130.484 301.171 130.363 300.848 130.12 300.648C129.877 300.447 129.586 300.347 129.249 300.347C128.831 300.347 128.507 300.476 128.275 300.733C128.043 300.988 127.927 301.315 127.927 301.716V305.916H126.649V301.536C126.649 301.178 126.537 300.891 126.314 300.673C126.091 300.456 125.801 300.347 125.443 300.347C125.2 300.347 124.976 300.412 124.77 300.54C124.567 300.666 124.402 300.842 124.276 301.068C124.153 301.294 124.092 301.556 124.092 301.853V305.916H122.809ZM136.527 306.049C135.878 306.049 135.318 305.91 134.849 305.633C134.383 305.353 134.023 304.959 133.768 304.453C133.516 303.944 133.391 303.348 133.391 302.664C133.391 301.989 133.516 301.394 133.768 300.879C134.023 300.364 134.377 299.962 134.832 299.674C135.29 299.385 135.825 299.24 136.437 299.24C136.809 299.24 137.169 299.302 137.518 299.425C137.867 299.548 138.18 299.741 138.457 300.004C138.735 300.267 138.954 300.609 139.114 301.029C139.274 301.447 139.354 301.955 139.354 302.552V303.007H134.116V302.046H138.097C138.097 301.709 138.028 301.41 137.891 301.149C137.754 300.886 137.561 300.679 137.312 300.527C137.066 300.376 136.777 300.3 136.445 300.3C136.085 300.3 135.77 300.389 135.501 300.566C135.235 300.74 135.029 300.969 134.884 301.252C134.741 301.533 134.669 301.837 134.669 302.166V302.917C134.669 303.358 134.746 303.732 134.901 304.041C135.058 304.35 135.277 304.586 135.557 304.749C135.838 304.909 136.165 304.989 136.54 304.989C136.783 304.989 137.004 304.955 137.205 304.886C137.405 304.815 137.578 304.709 137.724 304.569C137.87 304.429 137.981 304.256 138.058 304.05L139.273 304.269C139.175 304.626 139.001 304.939 138.749 305.208C138.5 305.474 138.187 305.681 137.81 305.83C137.435 305.976 137.007 306.049 136.527 306.049ZM147.151 306.049C146.533 306.049 145.994 305.907 145.533 305.624C145.073 305.341 144.715 304.945 144.461 304.436C144.206 303.927 144.079 303.332 144.079 302.651C144.079 301.967 144.206 301.37 144.461 300.858C144.715 300.346 145.073 299.948 145.533 299.665C145.994 299.382 146.533 299.24 147.151 299.24C147.768 299.24 148.308 299.382 148.768 299.665C149.229 299.948 149.586 300.346 149.841 300.858C150.095 301.37 150.222 301.967 150.222 302.651C150.222 303.332 150.095 303.927 149.841 304.436C149.586 304.945 149.229 305.341 148.768 305.624C148.308 305.907 147.768 306.049 147.151 306.049ZM147.155 304.972C147.555 304.972 147.887 304.866 148.15 304.655C148.413 304.443 148.608 304.161 148.734 303.809C148.862 303.458 148.927 303.07 148.927 302.647C148.927 302.226 148.862 301.84 148.734 301.488C148.608 301.134 148.413 300.849 148.15 300.635C147.887 300.42 147.555 300.313 147.155 300.313C146.752 300.313 146.417 300.42 146.151 300.635C145.888 300.849 145.692 301.134 145.563 301.488C145.437 301.84 145.374 302.226 145.374 302.647C145.374 303.07 145.437 303.458 145.563 303.809C145.692 304.161 145.888 304.443 146.151 304.655C146.417 304.866 146.752 304.972 147.155 304.972ZM153.137 302.003V305.916H151.854V299.326H153.086V300.399H153.167C153.319 300.05 153.556 299.769 153.879 299.558C154.205 299.346 154.616 299.24 155.111 299.24C155.56 299.24 155.953 299.335 156.291 299.523C156.628 299.709 156.89 299.987 157.076 300.356C157.262 300.725 157.355 301.181 157.355 301.724V305.916H156.072V301.879C156.072 301.401 155.947 301.028 155.699 300.759C155.45 300.487 155.108 300.351 154.673 300.351C154.376 300.351 154.111 300.416 153.879 300.545C153.651 300.673 153.469 300.862 153.335 301.111C153.203 301.357 153.137 301.654 153.137 302.003ZM165.448 306.049C164.81 306.049 164.261 305.905 163.801 305.616C163.343 305.324 162.991 304.922 162.745 304.41C162.499 303.898 162.376 303.312 162.376 302.651C162.376 301.982 162.502 301.391 162.754 300.879C163.006 300.364 163.36 299.962 163.818 299.674C164.275 299.385 164.815 299.24 165.435 299.24C165.936 299.24 166.382 299.333 166.774 299.519C167.166 299.702 167.482 299.96 167.722 300.291C167.965 300.623 168.11 301.011 168.155 301.454H166.907C166.838 301.145 166.681 300.879 166.435 300.656C166.192 300.433 165.866 300.321 165.457 300.321C165.099 300.321 164.786 300.416 164.517 300.605C164.251 300.791 164.044 301.057 163.895 301.403C163.746 301.746 163.672 302.152 163.672 302.621C163.672 303.102 163.745 303.516 163.891 303.865C164.037 304.214 164.243 304.484 164.509 304.676C164.777 304.868 165.094 304.964 165.457 304.964C165.7 304.964 165.92 304.919 166.117 304.831C166.318 304.739 166.485 304.609 166.619 304.44C166.757 304.271 166.853 304.068 166.907 303.831H168.155C168.11 304.257 167.971 304.638 167.739 304.972C167.508 305.307 167.197 305.57 166.808 305.762C166.422 305.953 165.969 306.049 165.448 306.049ZM171.645 306.062C171.227 306.062 170.85 305.985 170.512 305.83C170.175 305.673 169.907 305.446 169.71 305.148C169.516 304.851 169.418 304.486 169.418 304.054C169.418 303.682 169.49 303.376 169.633 303.136C169.776 302.896 169.969 302.705 170.212 302.565C170.455 302.425 170.727 302.319 171.027 302.248C171.327 302.176 171.634 302.122 171.945 302.085C172.34 302.039 172.66 302.002 172.906 301.973C173.152 301.942 173.331 301.892 173.443 301.823C173.554 301.754 173.61 301.643 173.61 301.488V301.458C173.61 301.084 173.504 300.793 173.292 300.587C173.084 300.382 172.772 300.279 172.357 300.279C171.925 300.279 171.585 300.374 171.336 300.566C171.09 300.755 170.92 300.965 170.825 301.197L169.62 300.922C169.763 300.522 169.972 300.198 170.246 299.952C170.524 299.704 170.843 299.523 171.203 299.412C171.563 299.297 171.942 299.24 172.34 299.24C172.603 299.24 172.882 299.272 173.177 299.335C173.474 299.395 173.751 299.506 174.009 299.669C174.269 299.832 174.482 300.065 174.648 300.369C174.814 300.669 174.897 301.059 174.897 301.54V305.916H173.644V305.015H173.593C173.51 305.181 173.385 305.344 173.219 305.504C173.054 305.664 172.841 305.797 172.58 305.903C172.32 306.009 172.008 306.062 171.645 306.062ZM171.924 305.032C172.278 305.032 172.582 304.962 172.833 304.822C173.088 304.682 173.281 304.499 173.413 304.273C173.547 304.044 173.614 303.799 173.614 303.539V302.69C173.568 302.735 173.48 302.778 173.348 302.818C173.219 302.856 173.072 302.888 172.906 302.917C172.74 302.943 172.579 302.967 172.421 302.99C172.264 303.01 172.133 303.027 172.027 303.042C171.778 303.073 171.551 303.126 171.345 303.2C171.142 303.275 170.979 303.382 170.856 303.522C170.735 303.659 170.675 303.842 170.675 304.071C170.675 304.389 170.793 304.629 171.027 304.792C171.262 304.952 171.561 305.032 171.924 305.032ZM176.806 305.916V299.326H178.046V300.373H178.114C178.234 300.018 178.446 299.739 178.749 299.536C179.055 299.33 179.401 299.227 179.787 299.227C179.867 299.227 179.962 299.23 180.071 299.236C180.182 299.242 180.269 299.249 180.332 299.257V300.484C180.281 300.47 180.189 300.454 180.058 300.437C179.926 300.417 179.795 300.407 179.663 300.407C179.36 300.407 179.089 300.472 178.852 300.6C178.618 300.726 178.432 300.902 178.294 301.128C178.157 301.351 178.088 301.606 178.088 301.892V305.916H176.806ZM183.873 306.045C183.341 306.045 182.867 305.909 182.449 305.637C182.034 305.363 181.708 304.972 181.471 304.466C181.236 303.957 181.119 303.346 181.119 302.634C181.119 301.922 181.238 301.313 181.475 300.806C181.715 300.3 182.044 299.912 182.462 299.644C182.879 299.375 183.353 299.24 183.882 299.24C184.291 299.24 184.62 299.309 184.869 299.446C185.12 299.581 185.315 299.738 185.452 299.918C185.592 300.098 185.701 300.257 185.778 300.394H185.855V297.129H187.138V305.916H185.885V304.891H185.778C185.701 305.031 185.589 305.191 185.444 305.371C185.301 305.551 185.103 305.709 184.852 305.843C184.6 305.978 184.274 306.045 183.873 306.045ZM184.157 304.951C184.525 304.951 184.837 304.853 185.092 304.659C185.349 304.462 185.544 304.188 185.675 303.84C185.81 303.491 185.877 303.084 185.877 302.621C185.877 302.163 185.811 301.763 185.68 301.42C185.548 301.077 185.355 300.809 185.1 300.617C184.846 300.426 184.531 300.33 184.157 300.33C183.77 300.33 183.449 300.43 183.191 300.63C182.934 300.831 182.739 301.104 182.608 301.45C182.479 301.796 182.415 302.186 182.415 302.621C182.415 303.062 182.48 303.458 182.612 303.809C182.744 304.161 182.938 304.44 183.195 304.646C183.456 304.849 183.776 304.951 184.157 304.951Z" fill="#0A2540"/>
</g>
</g>
</g>
<g opacity="0.3">
<path d="M4.14258 4.66406H460.143V304.664C460.143 306.873 458.352 308.664 456.143 308.664H8.14259C5.93345 308.664 4.14258 306.873 4.14258 304.664V4.66406Z" fill="url(#paint0_linear_4003_5367)"/>
</g>
</g>
<defs>
<linearGradient id="paint0_linear_4003_5367" x1="232.143" y1="4.66406" x2="232.143" y2="308.664" gradientUnits="userSpaceOnUse">
<stop stop-color="#BEC9DC" stop-opacity="0"/>
<stop offset="1" stop-color="#BEC9DC" stop-opacity="0.4"/>
</linearGradient>
<clipPath id="clip0_4003_5367">
<rect x="4.14258" y="4.66406" width="456" height="304" rx="4" fill="white"/>
</clipPath>
<clipPath id="clip1_4003_5367">
<rect x="4.14258" y="4.66406" width="456" height="304" rx="4" fill="white"/>
</clipPath>
<clipPath id="clip2_4003_5367">
<rect width="456" height="304" fill="white" transform="translate(67.9727 65.4531)"/>
</clipPath>
<clipPath id="clip3_4003_5367">
<rect x="67.9727" y="65.4531" width="456" height="359.84" rx="8" fill="white"/>
</clipPath>
</defs>
</svg>
