<svg width="465" height="309" viewBox="0 0 465 309" fill="none" xmlns="http://www.w3.org/2000/svg">
<g clip-path="url(#clip0_4003_5592)">
<rect x="4.14258" y="4.66406" width="456" height="304" rx="4" fill="#F6F9FC"/>
<g clip-path="url(#clip1_4003_5592)">
<g clip-path="url(#clip2_4003_5592)">
<path d="M86.6199 63.7397V67.2537H85.0029V58.1777H88.6299C90.6529 58.1777 91.9169 59.1257 91.9169 60.9587C91.9169 62.7667 90.6529 63.7397 88.6299 63.7397H86.6199ZM86.6199 62.3497H88.5429C89.7059 62.3497 90.3249 61.8437 90.3249 60.9597C90.3249 60.0617 89.7049 59.5687 88.5429 59.5687H86.6209V62.3487L86.6199 62.3497ZM98.5829 63.9417C98.5829 66.0017 97.2559 67.3927 95.3859 67.3927C93.5149 67.3927 92.1879 66.0027 92.1879 63.9427C92.1879 61.8817 93.5149 60.4917 95.3859 60.4917C97.2559 60.4917 98.5829 61.8817 98.5829 63.9417ZM93.7169 63.9417C93.7169 65.2947 94.3619 66.1157 95.3859 66.1157C96.4089 66.1157 97.0539 65.2947 97.0539 63.9417C97.0539 62.5897 96.4089 61.7677 95.3859 61.7677C94.3619 61.7677 93.7169 62.5897 93.7169 63.9417ZM102.801 60.6177H104.052L105.24 65.0167L106.416 60.6177H107.92L105.923 67.2537H104.608L103.395 62.9057L102.181 67.2537H100.867L98.8699 60.6177H100.424L101.625 65.0167L102.801 60.6177ZM111.117 67.3927C109.259 67.3927 108.197 65.8257 108.197 63.9427C108.197 62.0587 109.259 60.4917 111.117 60.4917C111.977 60.4917 112.609 60.8317 113.026 61.3257V58.1777H114.543V67.2537H113.026V66.5587C112.609 67.0517 111.976 67.3927 111.117 67.3927ZM113.064 63.7527C113.064 62.5007 112.356 61.8187 111.421 61.8187C110.321 61.8187 109.727 62.6787 109.727 63.9417C109.727 65.2057 110.321 66.0657 111.421 66.0657C112.356 66.0657 113.064 65.3707 113.064 64.1447V63.7527ZM121.656 60.6177V67.2537H120.139V66.5457C119.759 66.9887 119.191 67.3927 118.331 67.3927C116.941 67.3927 116.081 66.4447 116.081 65.0167V60.6177H117.598V64.6877C117.598 65.4967 117.952 66.0147 118.774 66.0147C119.456 66.0147 120.139 65.5097 120.139 64.5617V60.6177H121.656ZM127.021 60.6047V62.1217C126.837 62.0956 126.651 62.0829 126.465 62.0837C125.505 62.0837 124.771 62.7037 124.771 63.7647V67.2537H123.254V60.6177H124.771V61.6037C125.061 60.9837 125.744 60.5797 126.591 60.5797C126.768 60.5797 126.907 60.5927 127.021 60.6047Z" fill="#2E3A55"/>
<path d="M78.6426 62.5039C78.6426 69.2689 73.1576 74.7539 66.3926 74.7539C59.6276 74.7539 54.1426 69.2689 54.1426 62.5039C54.1426 55.7389 59.6276 50.2539 66.3926 50.2539C73.1576 50.2539 78.6426 55.7389 78.6426 62.5039Z" fill="black"/>
<path d="M67.2726 56.4335C66.8166 56.4335 66.4096 56.5795 66.0476 56.8785C65.7016 57.1725 65.4676 57.5865 65.3476 58.1135V65.0715C65.6696 65.4195 66.0876 65.5905 66.6116 65.5905C67.4656 65.5905 68.0816 65.1835 68.4556 64.3745C68.8306 63.5495 69.0156 62.3575 69.0156 60.7885C69.0156 59.2205 68.8626 58.1015 68.5566 57.4355C68.2586 56.7655 67.8316 56.4325 67.2716 56.4325L67.2726 56.4335ZM68.4526 55.6035C69.1486 55.6035 69.7606 55.7825 70.2966 56.1425C70.8436 56.5025 71.2706 57.0405 71.5806 57.7605C71.8866 58.4805 72.0436 59.3605 72.0436 60.4015C72.0436 62.2415 71.6216 63.6545 70.7796 64.6415C69.9496 65.6175 68.8226 66.1055 67.3926 66.1055C66.9896 66.1055 66.6116 66.0555 66.2486 65.9505C65.9209 65.8573 65.6145 65.701 65.3466 65.4905V67.4175C65.3466 67.9835 65.4966 68.3745 65.7896 68.5955C66.0836 68.8115 66.5396 68.9245 67.1546 68.9245V69.3305L66.6146 69.3105C65.6731 69.2826 64.7314 69.2636 63.7896 69.2535C63.3866 69.2535 62.5446 69.2805 61.2646 69.3305V68.9245C61.7036 68.9245 62.0136 68.8275 62.1866 68.6345C62.3716 68.4515 62.4686 68.1145 62.4686 67.6115V57.9695C62.4686 57.3775 62.3686 56.9475 62.1666 56.6765C61.9816 56.4065 61.6506 56.2705 61.1836 56.2705V55.8635C61.6106 55.9025 62.0256 55.9215 62.4286 55.9215C63.5916 55.9215 64.5666 55.8325 65.3556 55.6505V57.4235C65.6142 56.8575 66.0423 56.3858 66.5806 56.0735C67.1036 55.7635 67.7316 55.6035 68.4526 55.6035Z" fill="white"/>
<rect x="54.1426" y="95.2539" width="356" height="212" rx="8" fill="white"/>
<path d="M83.4977 151.525V128.812H84.9528V151.525H83.4977ZM88.0492 135.857C87.9546 135.017 87.5642 134.366 86.8781 133.905C86.1919 133.438 85.3284 133.204 84.2873 133.204C83.5421 133.204 82.8973 133.322 82.3532 133.559C81.809 133.789 81.3861 134.109 81.0844 134.517C80.7887 134.919 80.6408 135.378 80.6408 135.892C80.6408 136.324 80.7414 136.697 80.9425 137.01C81.1495 137.324 81.4186 137.587 81.7499 137.8C82.087 138.007 82.4478 138.181 82.8323 138.323C83.2168 138.459 83.5864 138.572 83.9413 138.66L85.7158 139.122C86.2954 139.264 86.8899 139.456 87.4991 139.698C88.1083 139.941 88.6732 140.26 89.1937 140.657C89.7142 141.053 90.1342 141.544 90.4536 142.129C90.7789 142.715 90.9416 143.416 90.9416 144.232C90.9416 145.261 90.6754 146.175 90.1431 146.974C89.6166 147.772 88.8507 148.402 87.8451 148.864C86.8455 149.325 85.6359 149.556 84.2164 149.556C82.8559 149.556 81.6789 149.34 80.6852 148.908C79.6915 148.476 78.9137 147.864 78.3518 147.071C77.7899 146.273 77.4793 145.326 77.4202 144.232H80.1706C80.2238 144.889 80.4368 145.436 80.8094 145.874C81.188 146.305 81.67 146.628 82.2556 146.841C82.8471 147.048 83.4948 147.151 84.1986 147.151C84.9735 147.151 85.6625 147.03 86.2659 146.787C86.8751 146.539 87.3542 146.196 87.7032 145.758C88.0522 145.315 88.2266 144.797 88.2266 144.206C88.2266 143.667 88.0729 143.227 87.7653 142.884C87.4636 142.541 87.0525 142.257 86.532 142.032C86.0174 141.807 85.4348 141.609 84.7842 141.437L82.6371 140.852C81.182 140.456 80.0286 139.873 79.1769 139.104C78.3311 138.335 77.9082 137.318 77.9082 136.052C77.9082 135.005 78.1921 134.091 78.7599 133.31C79.3277 132.53 80.0967 131.923 81.0667 131.492C82.0367 131.054 83.131 130.835 84.3494 130.835C85.5797 130.835 86.6651 131.051 87.6056 131.483C88.552 131.914 89.2972 132.509 89.8414 133.266C90.3856 134.017 90.6695 134.881 90.6931 135.857H88.0492ZM101.263 131.083V149.254H98.5126V133.834H98.4061L94.0587 136.673V134.047L98.5924 131.083H101.263ZM106.197 145.705V143.487L114.049 131.083H115.797V134.348H114.688L109.071 143.238V143.38H119.833V145.705H106.197ZM114.812 149.254V145.031L114.829 144.019V131.083H117.429V149.254H114.812ZM122.944 145.705V143.487L130.796 131.083H132.544V134.348H131.435L125.819 143.238V143.38H136.581V145.705H122.944ZM131.559 149.254V145.031L131.577 144.019V131.083H134.176V149.254H131.559ZM141.173 149.422C140.688 149.422 140.271 149.251 139.922 148.908C139.573 148.559 139.398 148.139 139.398 147.648C139.398 147.163 139.573 146.749 139.922 146.406C140.271 146.057 140.688 145.882 141.173 145.882C141.658 145.882 142.075 146.057 142.424 146.406C142.773 146.749 142.947 147.163 142.947 147.648C142.947 147.973 142.864 148.272 142.699 148.544C142.539 148.81 142.326 149.023 142.06 149.183C141.794 149.343 141.498 149.422 141.173 149.422ZM147.014 149.254L154.946 133.568V133.435H145.772V131.083H157.785V133.514L149.879 149.254H147.014ZM167.044 149.502C165.772 149.502 164.648 149.283 163.672 148.846C162.702 148.408 161.942 147.805 161.392 147.036C160.842 146.267 160.57 145.392 160.576 144.41C160.57 143.641 160.727 142.934 161.046 142.289C161.371 141.639 161.812 141.097 162.368 140.666C162.924 140.228 163.545 139.95 164.231 139.832V139.725C163.326 139.506 162.602 139.021 162.057 138.27C161.513 137.519 161.244 136.655 161.25 135.679C161.244 134.751 161.49 133.923 161.986 133.195C162.489 132.462 163.178 131.885 164.054 131.465C164.929 131.045 165.926 130.835 167.044 130.835C168.15 130.835 169.138 131.048 170.007 131.474C170.882 131.894 171.572 132.47 172.074 133.204C172.577 133.931 172.831 134.757 172.837 135.679C172.831 136.655 172.553 137.519 172.003 138.27C171.453 139.021 170.738 139.506 169.856 139.725V139.832C170.536 139.95 171.149 140.228 171.693 140.666C172.243 141.097 172.681 141.639 173.006 142.289C173.337 142.934 173.506 143.641 173.512 144.41C173.506 145.392 173.228 146.267 172.678 147.036C172.128 147.805 171.365 148.408 170.389 148.846C169.419 149.283 168.304 149.502 167.044 149.502ZM167.044 147.258C167.795 147.258 168.446 147.133 168.996 146.885C169.546 146.631 169.972 146.279 170.273 145.829C170.575 145.374 170.729 144.841 170.735 144.232C170.729 143.599 170.563 143.04 170.238 142.555C169.918 142.07 169.484 141.689 168.933 141.411C168.383 141.133 167.753 140.994 167.044 140.994C166.328 140.994 165.692 141.133 165.136 141.411C164.58 141.689 164.142 142.07 163.823 142.555C163.504 143.04 163.347 143.599 163.353 144.232C163.347 144.841 163.492 145.374 163.788 145.829C164.089 146.279 164.518 146.631 165.074 146.885C165.63 147.133 166.287 147.258 167.044 147.258ZM167.044 138.802C167.647 138.802 168.182 138.681 168.65 138.439C169.117 138.196 169.484 137.859 169.75 137.427C170.022 136.995 170.161 136.49 170.167 135.91C170.161 135.342 170.025 134.845 169.759 134.419C169.498 133.994 169.135 133.665 168.667 133.435C168.2 133.198 167.659 133.08 167.044 133.08C166.417 133.08 165.867 133.198 165.393 133.435C164.926 133.665 164.562 133.994 164.302 134.419C164.042 134.845 163.915 135.342 163.921 135.91C163.915 136.49 164.045 136.995 164.311 137.427C164.577 137.859 164.944 138.196 165.411 138.439C165.884 138.681 166.429 138.802 167.044 138.802Z" fill="#0A2540"/>
<path d="M79.0989 170.254H76.8916V163.436H79.1688C79.8369 163.436 80.4106 163.572 80.89 163.845C81.3694 164.116 81.7367 164.506 81.992 165.014C82.2494 165.52 82.3782 166.127 82.3782 166.835C82.3782 167.545 82.2483 168.155 81.9886 168.666C81.7312 169.176 81.3583 169.569 80.87 169.844C80.3817 170.117 79.7914 170.254 79.0989 170.254ZM77.9204 169.355H79.0423C79.5617 169.355 79.9933 169.257 80.3374 169.062C80.6814 168.865 80.9388 168.579 81.1097 168.206C81.2806 167.831 81.3661 167.374 81.3661 166.835C81.3661 166.3 81.2806 165.846 81.1097 165.473C80.9411 165.1 80.6891 164.817 80.354 164.624C80.0189 164.431 79.6027 164.335 79.1056 164.335H77.9204V169.355ZM86.8968 168.133V165.14H87.8956V170.254H86.9168V169.368H86.8635C86.7459 169.641 86.5572 169.869 86.2975 170.051C86.0401 170.231 85.7194 170.32 85.3354 170.32C85.0069 170.32 84.7162 170.248 84.4632 170.104C84.2124 169.958 84.0148 169.741 83.8706 169.455C83.7285 169.169 83.6575 168.815 83.6575 168.393V165.14H84.6529V168.273C84.6529 168.621 84.7495 168.899 84.9426 169.105C85.1357 169.312 85.3865 169.415 85.695 169.415C85.8814 169.415 86.0667 169.368 86.2509 169.275C86.4374 169.182 86.5916 169.041 86.7137 168.852C86.838 168.664 86.899 168.424 86.8968 168.133ZM91.517 170.357C91.0132 170.357 90.5793 170.249 90.2153 170.034C89.8535 169.817 89.5738 169.511 89.3763 169.119C89.181 168.724 89.0833 168.261 89.0833 167.73C89.0833 167.207 89.181 166.745 89.3763 166.345C89.5738 165.946 89.8491 165.634 90.2019 165.41C90.5571 165.186 90.9721 165.074 91.4471 165.074C91.7356 165.074 92.0152 165.121 92.286 165.217C92.5568 165.312 92.7998 165.462 93.0151 165.666C93.2304 165.87 93.4002 166.136 93.5245 166.462C93.6488 166.786 93.7109 167.18 93.7109 167.644V167.997H89.646V167.251H92.7355C92.7355 166.989 92.6822 166.757 92.5757 166.555C92.4691 166.351 92.3193 166.19 92.1262 166.072C91.9353 165.955 91.7112 165.896 91.4537 165.896C91.1741 165.896 90.9299 165.965 90.7213 166.102C90.5149 166.238 90.3551 166.415 90.2419 166.635C90.1309 166.853 90.0754 167.089 90.0754 167.344V167.927C90.0754 168.269 90.1354 168.559 90.2552 168.799C90.3773 169.039 90.5471 169.222 90.7646 169.348C90.9821 169.473 91.2362 169.535 91.527 169.535C91.7156 169.535 91.8876 169.508 92.043 169.455C92.1984 169.399 92.3326 169.317 92.4458 169.209C92.559 169.1 92.6456 168.966 92.7055 168.806L93.6477 168.975C93.5722 169.253 93.4368 169.496 93.2415 169.705C93.0484 169.911 92.8054 170.072 92.5124 170.187C92.2217 170.301 91.8898 170.357 91.517 170.357ZM97.5364 170.254V163.436H101.764V164.321H98.5651V166.399H101.461V167.281H98.5651V170.254H97.5364ZM104.858 170.357C104.354 170.357 103.92 170.249 103.556 170.034C103.195 169.817 102.915 169.511 102.718 169.119C102.522 168.724 102.425 168.261 102.425 167.73C102.425 167.207 102.522 166.745 102.718 166.345C102.915 165.946 103.19 165.634 103.543 165.41C103.898 165.186 104.313 165.074 104.788 165.074C105.077 165.074 105.356 165.121 105.627 165.217C105.898 165.312 106.141 165.462 106.356 165.666C106.572 165.87 106.741 166.136 106.866 166.462C106.99 166.786 107.052 167.18 107.052 167.644V167.997H102.987V167.251H106.077C106.077 166.989 106.023 166.757 105.917 166.555C105.81 166.351 105.661 166.19 105.467 166.072C105.277 165.955 105.052 165.896 104.795 165.896C104.515 165.896 104.271 165.965 104.062 166.102C103.856 166.238 103.696 166.415 103.583 166.635C103.472 166.853 103.417 167.089 103.417 167.344V167.927C103.417 168.269 103.477 168.559 103.596 168.799C103.718 169.039 103.888 169.222 104.106 169.348C104.323 169.473 104.577 169.535 104.868 169.535C105.057 169.535 105.229 169.508 105.384 169.455C105.54 169.399 105.674 169.317 105.787 169.209C105.9 169.1 105.987 168.966 106.047 168.806L106.989 168.975C106.913 169.253 106.778 169.496 106.583 169.705C106.39 169.911 106.147 170.072 105.854 170.187C105.563 170.301 105.231 170.357 104.858 170.357ZM108.316 170.254V163.436H109.312V165.969H109.372C109.43 165.863 109.513 165.74 109.622 165.6C109.73 165.46 109.881 165.338 110.074 165.233C110.267 165.127 110.523 165.074 110.84 165.074C111.253 165.074 111.621 165.178 111.945 165.387C112.269 165.595 112.523 165.896 112.708 166.289C112.894 166.682 112.987 167.154 112.987 167.707C112.987 168.26 112.895 168.734 112.711 169.129C112.527 169.521 112.274 169.824 111.952 170.038C111.63 170.248 111.263 170.354 110.85 170.354C110.539 170.354 110.285 170.302 110.088 170.197C109.892 170.093 109.739 169.971 109.628 169.831C109.517 169.691 109.432 169.567 109.372 169.458H109.289V170.254H108.316ZM109.292 167.697C109.292 168.057 109.344 168.372 109.448 168.643C109.553 168.913 109.704 169.125 109.901 169.278C110.099 169.429 110.341 169.505 110.627 169.505C110.924 169.505 111.173 169.426 111.373 169.268C111.572 169.109 111.723 168.892 111.825 168.619C111.93 168.346 111.982 168.039 111.982 167.697C111.982 167.36 111.931 167.057 111.829 166.788C111.729 166.52 111.578 166.308 111.376 166.152C111.176 165.997 110.927 165.919 110.627 165.919C110.338 165.919 110.094 165.994 109.895 166.142C109.697 166.291 109.547 166.499 109.445 166.765C109.343 167.031 109.292 167.342 109.292 167.697ZM119.32 163.436V170.254H118.288V164.468H118.248L116.616 165.533V164.548L118.318 163.436H119.32ZM123.511 163.343C123.815 163.345 124.115 163.4 124.41 163.509C124.705 163.618 124.972 163.795 125.209 164.042C125.449 164.288 125.64 164.621 125.782 165.04C125.926 165.458 125.999 165.977 126.001 166.598C126.001 167.195 125.942 167.727 125.822 168.193C125.702 168.657 125.53 169.049 125.306 169.368C125.084 169.688 124.814 169.931 124.497 170.097C124.179 170.264 123.822 170.347 123.425 170.347C123.018 170.347 122.658 170.267 122.343 170.107C122.027 169.948 121.771 169.727 121.574 169.445C121.376 169.161 121.253 168.835 121.204 168.466H122.219C122.286 168.759 122.421 168.997 122.626 169.179C122.832 169.358 123.098 169.448 123.425 169.448C123.924 169.448 124.314 169.231 124.593 168.796C124.873 168.358 125.014 167.748 125.016 166.965H124.963C124.847 167.156 124.703 167.32 124.53 167.457C124.359 167.595 124.167 167.702 123.954 167.777C123.741 167.852 123.513 167.89 123.271 167.89C122.879 167.89 122.521 167.794 122.199 167.601C121.878 167.407 121.621 167.142 121.43 166.805C121.24 166.468 121.144 166.082 121.144 165.65C121.144 165.219 121.242 164.828 121.437 164.478C121.635 164.127 121.91 163.85 122.263 163.645C122.618 163.439 123.034 163.338 123.511 163.343ZM123.515 164.208C123.255 164.208 123.021 164.272 122.812 164.401C122.606 164.528 122.443 164.7 122.323 164.917C122.203 165.133 122.143 165.372 122.143 165.636C122.143 165.9 122.201 166.14 122.316 166.355C122.434 166.568 122.593 166.738 122.795 166.865C123 166.989 123.233 167.051 123.495 167.051C123.69 167.051 123.872 167.013 124.041 166.938C124.209 166.863 124.357 166.758 124.483 166.625C124.61 166.49 124.709 166.337 124.78 166.166C124.851 165.995 124.886 165.815 124.886 165.626C124.886 165.376 124.826 165.142 124.706 164.927C124.589 164.712 124.427 164.539 124.22 164.408C124.014 164.275 123.779 164.208 123.515 164.208Z" fill="#727F96"/>
<mask id="mask0_4003_5592" style="mask-type:luminance" maskUnits="userSpaceOnUse" x="318" y="119" width="61" height="71">
<path d="M318.143 119.254H378.143V189.254H318.143V119.254Z" fill="white"/>
</mask>
<g mask="url(#mask0_4003_5592)">
<path d="M365.765 123.254H325.226C323.523 123.254 322.143 124.634 322.143 126.337V177.865C322.143 179.568 323.523 180.948 325.226 180.948H365.765C367.467 180.948 368.848 179.568 368.848 177.865V126.337C368.848 124.634 367.467 123.254 365.765 123.254Z" fill="white"/>
<path d="M335.881 134.242C335.881 131.966 334.036 130.121 331.76 130.121C329.484 130.121 327.639 131.966 327.639 134.242C327.639 136.518 329.484 138.363 331.76 138.363C334.036 138.363 335.881 136.518 335.881 134.242Z" fill="#E7ECF1"/>
<path d="M349.615 132.869H341.374C340.615 132.869 340 133.484 340 134.243C340 135.001 340.615 135.616 341.374 135.616H349.615C350.374 135.616 350.989 135.001 350.989 134.243C350.989 133.484 350.374 132.869 349.615 132.869Z" fill="#E7ECF1"/>
<path d="M334.507 145.232H329.013C328.254 145.232 327.639 145.847 327.639 146.606C327.639 147.364 328.254 147.979 329.013 147.979H334.507C335.266 147.979 335.881 147.364 335.881 146.606C335.881 145.847 335.266 145.232 334.507 145.232Z" fill="#E7ECF1"/>
<path d="M334.507 152.102H329.013C328.254 152.102 327.639 152.717 327.639 153.475C327.639 154.234 328.254 154.849 329.013 154.849H334.507C335.266 154.849 335.881 154.234 335.881 153.475C335.881 152.717 335.266 152.102 334.507 152.102Z" fill="#E7ECF1"/>
<path d="M361.979 169.959H356.485C355.726 169.959 355.111 170.574 355.111 171.332C355.111 172.091 355.726 172.706 356.485 172.706H361.979C362.738 172.706 363.353 172.091 363.353 171.332C363.353 170.574 362.738 169.959 361.979 169.959Z" fill="#E7ECF1"/>
<path d="M353.736 145.232H341.374C340.615 145.232 340 145.847 340 146.606C340 147.364 340.615 147.979 341.374 147.979H353.736C354.495 147.979 355.11 147.364 355.11 146.606C355.11 145.847 354.495 145.232 353.736 145.232Z" fill="#E7ECF1"/>
<path d="M353.736 152.102H341.374C340.615 152.102 340 152.717 340 153.475C340 154.234 340.615 154.849 341.374 154.849H353.736C354.495 154.849 355.11 154.234 355.11 153.475C355.11 152.717 354.495 152.102 353.736 152.102Z" fill="#E7ECF1"/>
<path d="M348.244 169.959H329.013C328.254 169.959 327.639 170.574 327.639 171.332C327.639 172.091 328.254 172.706 329.013 172.706H348.244C349.003 172.706 349.618 172.091 349.618 171.332C349.618 170.574 349.003 169.959 348.244 169.959Z" fill="#E7ECF1"/>
<path d="M361.98 163.092H329.013C328.254 163.092 327.639 163.707 327.639 164.465C327.639 165.224 328.254 165.839 329.013 165.839H361.98C362.739 165.839 363.354 165.224 363.354 164.465C363.354 163.707 362.739 163.092 361.98 163.092Z" fill="#E7ECF1"/>
<path d="M376.102 179.525C376.102 174.417 371.96 170.275 366.852 170.275C361.743 170.275 357.602 174.417 357.602 179.525C357.602 184.634 361.743 188.775 366.852 188.775C371.96 188.775 376.102 184.634 376.102 179.525Z" fill="white"/>
<path fill-rule="evenodd" clip-rule="evenodd" d="M367.43 182.173L370.084 179.519C370.138 179.465 370.201 179.423 370.272 179.393C370.342 179.364 370.417 179.349 370.493 179.349C370.569 179.349 370.645 179.364 370.715 179.393C370.785 179.423 370.849 179.465 370.903 179.519C370.957 179.573 370.999 179.637 371.028 179.707C371.057 179.777 371.072 179.852 371.072 179.928C371.072 180.004 371.057 180.08 371.028 180.15C370.999 180.22 370.957 180.284 370.903 180.338L367.261 183.98C367.207 184.034 367.143 184.076 367.073 184.105C367.003 184.135 366.928 184.15 366.852 184.15C366.776 184.15 366.701 184.135 366.63 184.105C366.56 184.076 366.496 184.034 366.443 183.98L362.801 180.338C362.744 180.285 362.699 180.221 362.668 180.15C362.637 180.079 362.62 180.003 362.619 179.925C362.618 179.848 362.632 179.771 362.662 179.699C362.691 179.628 362.734 179.562 362.788 179.508C362.843 179.453 362.908 179.41 362.98 179.38C363.052 179.351 363.129 179.337 363.206 179.338C363.283 179.339 363.36 179.355 363.431 179.387C363.502 179.418 363.566 179.463 363.619 179.519L366.273 182.174V175.477C366.273 175.324 366.334 175.176 366.442 175.068C366.551 174.959 366.698 174.898 366.851 174.898C367.005 174.898 367.152 174.959 367.26 175.068C367.369 175.176 367.43 175.324 367.43 175.477V182.174V182.173Z" fill="#727F96"/>
</g>
<path d="M78.5416 199.519V198.663H83.6425V199.519H81.5861V205.254H80.5949V199.519H78.5416ZM86.1378 205.354C85.6744 205.354 85.2699 205.247 84.9245 205.035C84.5791 204.823 84.3109 204.526 84.12 204.144C83.929 203.762 83.8335 203.315 83.8335 202.805C83.8335 202.292 83.929 201.844 84.12 201.46C84.3109 201.076 84.5791 200.777 84.9245 200.565C85.2699 200.353 85.6744 200.246 86.1378 200.246C86.6012 200.246 87.0056 200.353 87.3511 200.565C87.6965 200.777 87.9647 201.076 88.1556 201.46C88.3466 201.844 88.442 202.292 88.442 202.805C88.442 203.315 88.3466 203.762 88.1556 204.144C87.9647 204.526 87.6965 204.823 87.3511 205.035C87.0056 205.247 86.6012 205.354 86.1378 205.354ZM86.141 204.546C86.4414 204.546 86.6902 204.467 86.8876 204.308C87.085 204.149 87.2309 203.938 87.3253 203.674C87.4219 203.41 87.4701 203.119 87.4701 202.802C87.4701 202.486 87.4219 202.197 87.3253 201.933C87.2309 201.667 87.085 201.453 86.8876 201.292C86.6902 201.131 86.4414 201.051 86.141 201.051C85.8385 201.051 85.5875 201.131 85.3879 201.292C85.1906 201.453 85.0436 201.667 84.947 201.933C84.8526 202.197 84.8054 202.486 84.8054 202.802C84.8054 203.119 84.8526 203.41 84.947 203.674C85.0436 203.938 85.1906 204.149 85.3879 204.308C85.5875 204.467 85.8385 204.546 86.141 204.546Z" fill="#727F96"/>
<path d="M131.428 198.663H132.42V203.336C132.42 203.759 132.336 204.12 132.169 204.42C132.003 204.721 131.771 204.95 131.47 205.109C131.17 205.266 130.818 205.344 130.415 205.344C130.043 205.344 129.71 205.276 129.414 205.141C129.12 205.006 128.887 204.81 128.715 204.552C128.546 204.293 128.461 203.977 128.461 203.606H129.449C129.449 203.789 129.491 203.946 129.575 204.079C129.661 204.212 129.777 204.316 129.925 204.391C130.076 204.464 130.247 204.501 130.44 204.501C130.651 204.501 130.829 204.457 130.975 204.369C131.123 204.279 131.235 204.147 131.313 203.973C131.39 203.799 131.428 203.587 131.428 203.336V198.663ZM136 205.354C135.513 205.354 135.094 205.25 134.742 205.042C134.392 204.831 134.122 204.536 133.931 204.156C133.742 203.775 133.648 203.327 133.648 202.814C133.648 202.308 133.742 201.862 133.931 201.476C134.122 201.09 134.388 200.788 134.729 200.571C135.072 200.355 135.473 200.246 135.933 200.246C136.212 200.246 136.482 200.292 136.744 200.385C137.005 200.477 137.24 200.622 137.448 200.819C137.657 201.017 137.821 201.273 137.941 201.588C138.061 201.902 138.121 202.282 138.121 202.731V203.072H134.192V202.351H137.178C137.178 202.098 137.127 201.874 137.024 201.678C136.921 201.481 136.776 201.326 136.589 201.212C136.405 201.098 136.188 201.041 135.939 201.041C135.669 201.041 135.433 201.108 135.231 201.241C135.032 201.372 134.877 201.543 134.768 201.756C134.66 201.966 134.607 202.194 134.607 202.441V203.004C134.607 203.335 134.665 203.616 134.781 203.848C134.899 204.079 135.063 204.256 135.273 204.379C135.483 204.499 135.729 204.559 136.01 204.559C136.192 204.559 136.358 204.533 136.509 204.482C136.659 204.428 136.789 204.349 136.898 204.243C137.008 204.138 137.091 204.008 137.149 203.854L138.06 204.018C137.987 204.286 137.856 204.521 137.667 204.723C137.481 204.922 137.246 205.078 136.962 205.19C136.681 205.299 136.361 205.354 136 205.354ZM140.231 202.319V205.254H139.269V200.311H140.192V201.115H140.253C140.367 200.854 140.545 200.643 140.788 200.485C141.032 200.326 141.34 200.246 141.711 200.246C142.048 200.246 142.343 200.317 142.596 200.459C142.849 200.598 143.046 200.806 143.185 201.083C143.325 201.36 143.394 201.702 143.394 202.11V205.254H142.432V202.226C142.432 201.867 142.339 201.587 142.152 201.386C141.966 201.182 141.709 201.08 141.383 201.08C141.16 201.08 140.961 201.128 140.788 201.225C140.616 201.321 140.48 201.463 140.379 201.65C140.28 201.834 140.231 202.057 140.231 202.319ZM145.727 202.319V205.254H144.765V200.311H145.689V201.115H145.75C145.863 200.854 146.041 200.643 146.284 200.485C146.528 200.326 146.836 200.246 147.208 200.246C147.544 200.246 147.839 200.317 148.093 200.459C148.346 200.598 148.542 200.806 148.681 201.083C148.821 201.36 148.891 201.702 148.891 202.11V205.254H147.928V202.226C147.928 201.867 147.835 201.587 147.648 201.386C147.462 201.182 147.205 201.08 146.879 201.08C146.656 201.08 146.458 201.128 146.284 201.225C146.112 201.321 145.976 201.463 145.875 201.65C145.777 201.834 145.727 202.057 145.727 202.319ZM150.692 207.108C150.549 207.108 150.418 207.096 150.3 207.072C150.182 207.051 150.094 207.027 150.036 207.001L150.268 206.213C150.444 206.26 150.6 206.281 150.737 206.274C150.875 206.268 150.996 206.216 151.101 206.12C151.208 206.023 151.303 205.865 151.384 205.647L151.503 205.318L149.695 200.311H150.725L151.976 204.147H152.028L153.28 200.311H154.313L152.276 205.914C152.181 206.171 152.061 206.389 151.915 206.567C151.769 206.747 151.596 206.882 151.394 206.972C151.192 207.063 150.958 207.108 150.692 207.108ZM157.853 205.254V198.663H160.202C160.713 198.663 161.136 198.751 161.473 198.927C161.812 199.103 162.065 199.346 162.233 199.657C162.4 199.966 162.484 200.324 162.484 200.729C162.484 201.132 162.399 201.488 162.23 201.794C162.062 202.099 161.809 202.336 161.47 202.506C161.133 202.675 160.71 202.76 160.199 202.76H158.419V201.904H160.109C160.431 201.904 160.692 201.858 160.894 201.765C161.098 201.673 161.247 201.539 161.341 201.363C161.436 201.187 161.483 200.976 161.483 200.729C161.483 200.48 161.435 200.265 161.338 200.082C161.244 199.9 161.095 199.76 160.891 199.664C160.689 199.565 160.424 199.516 160.096 199.516H158.847V205.254H157.853ZM161.106 202.28L162.735 205.254H161.602L160.006 202.28H161.106ZM165.717 205.354C165.253 205.354 164.849 205.247 164.504 205.035C164.158 204.823 163.89 204.526 163.699 204.144C163.508 203.762 163.413 203.315 163.413 202.805C163.413 202.292 163.508 201.844 163.699 201.46C163.89 201.076 164.158 200.777 164.504 200.565C164.849 200.353 165.253 200.246 165.717 200.246C166.18 200.246 166.585 200.353 166.93 200.565C167.276 200.777 167.544 201.076 167.735 201.46C167.926 201.844 168.021 202.292 168.021 202.805C168.021 203.315 167.926 203.762 167.735 204.144C167.544 204.526 167.276 204.823 166.93 205.035C166.585 205.247 166.18 205.354 165.717 205.354ZM165.72 204.546C166.02 204.546 166.269 204.467 166.467 204.308C166.664 204.149 166.81 203.938 166.904 203.674C167.001 203.41 167.049 203.119 167.049 202.802C167.049 202.486 167.001 202.197 166.904 201.933C166.81 201.667 166.664 201.453 166.467 201.292C166.269 201.131 166.02 201.051 165.72 201.051C165.418 201.051 165.167 201.131 164.967 201.292C164.77 201.453 164.623 201.667 164.526 201.933C164.432 202.197 164.385 202.486 164.385 202.802C164.385 203.119 164.432 203.41 164.526 203.674C164.623 203.938 164.77 204.149 164.967 204.308C165.167 204.467 165.418 204.546 165.72 204.546ZM172.879 201.518L172.007 201.672C171.971 201.56 171.913 201.454 171.833 201.353C171.756 201.253 171.651 201.17 171.518 201.106C171.385 201.041 171.219 201.009 171.019 201.009C170.747 201.009 170.519 201.07 170.337 201.193C170.155 201.313 170.063 201.468 170.063 201.659C170.063 201.824 170.125 201.957 170.247 202.058C170.369 202.159 170.567 202.242 170.839 202.306L171.624 202.486C172.079 202.591 172.418 202.753 172.641 202.972C172.864 203.191 172.976 203.475 172.976 203.825C172.976 204.121 172.89 204.385 172.718 204.617C172.549 204.846 172.312 205.026 172.007 205.157C171.705 205.288 171.354 205.354 170.955 205.354C170.401 205.354 169.95 205.236 169.6 205C169.25 204.762 169.036 204.424 168.956 203.986L169.886 203.844C169.944 204.087 170.063 204.27 170.244 204.395C170.424 204.517 170.659 204.578 170.948 204.578C171.264 204.578 171.516 204.513 171.705 204.382C171.894 204.249 171.988 204.087 171.988 203.896C171.988 203.741 171.93 203.612 171.814 203.506C171.7 203.401 171.526 203.322 171.29 203.268L170.453 203.085C169.992 202.98 169.65 202.812 169.429 202.583C169.211 202.353 169.101 202.063 169.101 201.711C169.101 201.419 169.183 201.164 169.346 200.945C169.509 200.726 169.734 200.555 170.022 200.433C170.309 200.309 170.638 200.246 171.01 200.246C171.544 200.246 171.964 200.362 172.271 200.594C172.578 200.823 172.781 201.131 172.879 201.518ZM176.244 205.354C175.757 205.354 175.338 205.25 174.986 205.042C174.636 204.831 174.366 204.536 174.175 204.156C173.986 203.775 173.892 203.327 173.892 202.814C173.892 202.308 173.986 201.862 174.175 201.476C174.366 201.09 174.632 200.788 174.973 200.571C175.316 200.355 175.718 200.246 176.177 200.246C176.456 200.246 176.726 200.292 176.988 200.385C177.25 200.477 177.484 200.622 177.693 200.819C177.901 201.017 178.065 201.273 178.185 201.588C178.305 201.902 178.365 202.282 178.365 202.731V203.072H174.436V202.351H177.422C177.422 202.098 177.371 201.874 177.268 201.678C177.165 201.481 177.02 201.326 176.833 201.212C176.649 201.098 176.432 201.041 176.183 201.041C175.913 201.041 175.677 201.108 175.475 201.241C175.276 201.372 175.121 201.543 175.012 201.756C174.905 201.966 174.851 202.194 174.851 202.441V203.004C174.851 203.335 174.909 203.616 175.025 203.848C175.143 204.079 175.307 204.256 175.517 204.379C175.727 204.499 175.973 204.559 176.254 204.559C176.436 204.559 176.603 204.533 176.753 204.482C176.903 204.428 177.033 204.349 177.142 204.243C177.252 204.138 177.335 204.008 177.393 203.854L178.304 204.018C178.231 204.286 178.1 204.521 177.911 204.723C177.725 204.922 177.49 205.078 177.207 205.19C176.926 205.299 176.605 205.354 176.244 205.354ZM180.475 202.319V205.254H179.513V200.311H180.436V201.115H180.498C180.611 200.854 180.789 200.643 181.032 200.485C181.276 200.326 181.584 200.246 181.955 200.246C182.292 200.246 182.587 200.317 182.84 200.459C183.094 200.598 183.29 200.806 183.429 201.083C183.569 201.36 183.639 201.702 183.639 202.11V205.254H182.676V202.226C182.676 201.867 182.583 201.587 182.396 201.386C182.21 201.182 181.953 201.08 181.627 201.08C181.404 201.08 181.206 201.128 181.032 201.225C180.86 201.321 180.724 201.463 180.623 201.65C180.524 201.834 180.475 202.057 180.475 202.319Z" fill="#0A2540"/>
<path d="M78.8667 222.254V215.663H82.9538V216.519H79.8611V218.527H82.661V219.38H79.8611V222.254H78.8667ZM84.1175 222.254V217.311H85.0476V218.096H85.0991C85.1892 217.83 85.348 217.621 85.5754 217.468C85.805 217.314 86.0646 217.237 86.3542 217.237C86.4143 217.237 86.4851 217.239 86.5666 217.243C86.6503 217.247 86.7157 217.253 86.7629 217.259V218.18C86.7243 218.169 86.6556 218.157 86.557 218.144C86.4583 218.129 86.3596 218.122 86.2609 218.122C86.0335 218.122 85.8307 218.17 85.6526 218.267C85.4767 218.361 85.3373 218.493 85.2343 218.662C85.1313 218.83 85.0798 219.021 85.0798 219.235V222.254H84.1175ZM89.5808 222.354C89.1174 222.354 88.713 222.247 88.3676 222.035C88.0221 221.823 87.7539 221.526 87.563 221.144C87.3721 220.762 87.2766 220.315 87.2766 219.805C87.2766 219.292 87.3721 218.844 87.563 218.46C87.7539 218.076 88.0221 217.777 88.3676 217.565C88.713 217.353 89.1174 217.246 89.5808 217.246C90.0442 217.246 90.4487 217.353 90.7941 217.565C91.1395 217.777 91.4077 218.076 91.5986 218.46C91.7896 218.844 91.8851 219.292 91.8851 219.805C91.8851 220.315 91.7896 220.762 91.5986 221.144C91.4077 221.526 91.1395 221.823 90.7941 222.035C90.4487 222.247 90.0442 222.354 89.5808 222.354ZM89.584 221.546C89.8844 221.546 90.1333 221.467 90.3307 221.308C90.528 221.149 90.6739 220.938 90.7683 220.674C90.8649 220.41 90.9132 220.119 90.9132 219.802C90.9132 219.486 90.8649 219.197 90.7683 218.933C90.6739 218.667 90.528 218.453 90.3307 218.292C90.1333 218.131 89.8844 218.051 89.584 218.051C89.2815 218.051 89.0305 218.131 88.831 218.292C88.6336 218.453 88.4866 218.667 88.3901 218.933C88.2957 219.197 88.2485 219.486 88.2485 219.802C88.2485 220.119 88.2957 220.41 88.3901 220.674C88.4866 220.938 88.6336 221.149 88.831 221.308C89.0305 221.467 89.2815 221.546 89.584 221.546ZM93.0391 222.254V217.311H93.9628V218.115H94.0239C94.1269 217.843 94.2953 217.63 94.5292 217.478C94.763 217.324 95.043 217.246 95.3691 217.246C95.6995 217.246 95.9763 217.324 96.1994 217.478C96.4247 217.633 96.591 217.845 96.6983 218.115H96.7497C96.8678 217.851 97.0555 217.641 97.3129 217.485C97.5704 217.326 97.8772 217.246 98.2333 217.246C98.6818 217.246 99.0476 217.387 99.3308 217.668C99.6161 217.949 99.7588 218.373 99.7588 218.939V222.254H98.7965V219.029C98.7965 218.695 98.7054 218.452 98.523 218.302C98.3406 218.152 98.1229 218.077 97.8697 218.077C97.5564 218.077 97.3129 218.173 97.1392 218.366C96.9654 218.557 96.8785 218.803 96.8785 219.103V222.254H95.9194V218.968C95.9194 218.7 95.8358 218.484 95.6684 218.321C95.5011 218.158 95.2833 218.077 95.0151 218.077C94.8328 218.077 94.6643 218.125 94.5099 218.221C94.3575 218.316 94.2342 218.448 94.1398 218.617C94.0475 218.787 94.0014 218.983 94.0014 219.206V222.254H93.0391Z" fill="#727F96"/>
<path d="M128.879 222.254V215.549H131.269C131.791 215.549 132.223 215.644 132.565 215.834C132.908 216.024 133.164 216.284 133.335 216.613C133.505 216.941 133.59 217.31 133.59 217.72C133.59 218.132 133.504 218.503 133.331 218.833C133.161 219.16 132.904 219.42 132.559 219.612C132.216 219.802 131.785 219.897 131.266 219.897H129.622V219.039H131.174C131.504 219.039 131.771 218.982 131.976 218.869C132.181 218.753 132.332 218.596 132.428 218.397C132.524 218.199 132.572 217.973 132.572 217.72C132.572 217.467 132.524 217.242 132.428 217.045C132.332 216.849 132.18 216.695 131.973 216.584C131.768 216.473 131.497 216.417 131.161 216.417H129.891V222.254H128.879ZM136.832 222.355C136.361 222.355 135.95 222.247 135.598 222.031C135.247 221.815 134.974 221.513 134.78 221.124C134.586 220.736 134.488 220.282 134.488 219.763C134.488 219.241 134.586 218.785 134.78 218.394C134.974 218.004 135.247 217.7 135.598 217.484C135.95 217.268 136.361 217.16 136.832 217.16C137.304 217.16 137.715 217.268 138.067 217.484C138.418 217.7 138.691 218.004 138.885 218.394C139.079 218.785 139.176 219.241 139.176 219.763C139.176 220.282 139.079 220.736 138.885 221.124C138.691 221.513 138.418 221.815 138.067 222.031C137.715 222.247 137.304 222.355 136.832 222.355ZM136.836 221.534C137.141 221.534 137.394 221.453 137.595 221.291C137.796 221.13 137.944 220.915 138.04 220.647C138.139 220.378 138.188 220.082 138.188 219.759C138.188 219.439 138.139 219.144 138.04 218.875C137.944 218.605 137.796 218.388 137.595 218.224C137.394 218.06 137.141 217.978 136.836 217.978C136.528 217.978 136.273 218.06 136.07 218.224C135.869 218.388 135.719 218.605 135.621 218.875C135.525 219.144 135.477 219.439 135.477 219.759C135.477 220.082 135.525 220.378 135.621 220.647C135.719 220.915 135.869 221.13 136.07 221.291C136.273 221.453 136.528 221.534 136.836 221.534ZM141.286 222.254L139.806 217.225H140.818L141.803 220.918H141.852L142.841 217.225H143.853L144.835 220.902H144.884L145.863 217.225H146.874L145.398 222.254H144.399L143.378 218.623H143.303L142.281 222.254H141.286ZM149.613 222.352C149.207 222.352 148.844 222.248 148.526 222.041C148.209 221.832 147.96 221.534 147.779 221.147C147.6 220.759 147.511 220.293 147.511 219.75C147.511 219.206 147.601 218.741 147.783 218.355C147.966 217.969 148.217 217.673 148.535 217.468C148.854 217.263 149.215 217.16 149.619 217.16C149.931 217.16 150.182 217.212 150.372 217.317C150.564 217.42 150.713 217.54 150.817 217.677C150.924 217.815 151.007 217.936 151.066 218.041H151.125V215.549H152.104V222.254H151.148V221.471H151.066C151.007 221.578 150.922 221.701 150.811 221.838C150.702 221.976 150.551 222.096 150.359 222.198C150.167 222.301 149.918 222.352 149.613 222.352ZM149.829 221.517C150.11 221.517 150.348 221.443 150.542 221.295C150.739 221.144 150.887 220.936 150.988 220.669C151.09 220.403 151.141 220.093 151.141 219.74C151.141 219.391 151.091 219.085 150.991 218.823C150.89 218.561 150.743 218.357 150.549 218.211C150.355 218.065 150.115 217.992 149.829 217.992C149.534 217.992 149.288 218.068 149.092 218.221C148.896 218.373 148.747 218.582 148.647 218.846C148.549 219.11 148.499 219.408 148.499 219.74C148.499 220.076 148.55 220.378 148.65 220.647C148.75 220.915 148.899 221.128 149.095 221.285C149.294 221.44 149.538 221.517 149.829 221.517ZM156.766 220.169V217.225H157.748V222.254H156.786V221.383H156.733C156.618 221.652 156.432 221.875 156.177 222.054C155.924 222.231 155.608 222.319 155.231 222.319C154.908 222.319 154.622 222.248 154.373 222.107C154.127 221.963 153.932 221.75 153.79 221.468C153.651 221.187 153.581 220.839 153.581 220.424V217.225H154.56V220.306C154.56 220.649 154.655 220.922 154.845 221.124C155.034 221.327 155.281 221.429 155.584 221.429C155.768 221.429 155.95 221.383 156.131 221.291C156.314 221.2 156.466 221.061 156.586 220.876C156.708 220.69 156.768 220.454 156.766 220.169ZM159.144 222.254V217.225H160.09V218.024H160.142C160.234 217.754 160.395 217.541 160.627 217.386C160.86 217.229 161.124 217.15 161.419 217.15C161.48 217.15 161.552 217.152 161.635 217.157C161.72 217.161 161.786 217.167 161.835 217.173V218.109C161.795 218.098 161.725 218.086 161.625 218.073C161.525 218.058 161.424 218.05 161.324 218.05C161.092 218.05 160.886 218.1 160.705 218.198C160.526 218.294 160.384 218.428 160.279 218.6C160.175 218.771 160.122 218.965 160.122 219.183V222.254H159.144Z" fill="#0A2540"/>
<path d="M78.9041 232.322H80.1734L82.3802 237.71H82.4614L84.6682 232.322H85.9375V239.254H84.9424V234.238H84.8781L82.8337 239.244H82.0079L79.9635 234.234H79.8992V239.254H78.9041V232.322ZM89.6975 239.359C89.1853 239.359 88.7441 239.249 88.3741 239.031C88.0063 238.809 87.722 238.499 87.5211 238.1C87.3226 237.698 87.2233 237.228 87.2233 236.688C87.2233 236.156 87.3226 235.686 87.5211 235.28C87.722 234.874 88.0018 234.557 88.3605 234.329C88.7216 234.101 89.1435 233.987 89.6264 233.987C89.9197 233.987 90.2041 234.036 90.4793 234.133C90.7546 234.23 91.0017 234.382 91.2206 234.59C91.4395 234.797 91.6121 235.067 91.7384 235.399C91.8648 235.728 91.928 236.129 91.928 236.6V236.959H87.7953V236.201H90.9363C90.9363 235.935 90.8821 235.699 90.7738 235.494C90.6655 235.286 90.5132 235.122 90.3169 235.003C90.1228 234.883 89.8949 234.823 89.6332 234.823C89.3489 234.823 89.1006 234.893 88.8885 235.033C88.6787 235.171 88.5162 235.351 88.4011 235.575C88.2883 235.796 88.2319 236.036 88.2319 236.296V236.888C88.2319 237.236 88.2928 237.531 88.4147 237.775C88.5388 238.018 88.7114 238.205 88.9325 238.333C89.1537 238.46 89.412 238.523 89.7076 238.523C89.8994 238.523 90.0743 238.496 90.2323 238.442C90.3902 238.385 90.5267 238.302 90.6418 238.191C90.7569 238.081 90.8449 237.944 90.9058 237.782L91.8637 237.954C91.787 238.236 91.6493 238.483 91.4507 238.695C91.2544 238.905 91.0073 239.069 90.7095 239.186C90.4139 239.301 90.0766 239.359 89.6975 239.359ZM93.1308 239.254V234.055H94.1022V234.901H94.1666C94.2749 234.615 94.452 234.391 94.698 234.231C94.9439 234.069 95.2384 233.987 95.5814 233.987C95.9288 233.987 96.2199 234.069 96.4546 234.231C96.6915 234.394 96.8664 234.617 96.9792 234.901H97.0334C97.1575 234.624 97.3549 234.403 97.6257 234.238C97.8965 234.071 98.2191 233.987 98.5937 233.987C99.0653 233.987 99.45 234.135 99.7479 234.431C100.048 234.726 100.198 235.172 100.198 235.768V239.254H99.186V235.862C99.186 235.51 99.0901 235.255 98.8983 235.098C98.7065 234.94 98.4775 234.861 98.2112 234.861C97.8818 234.861 97.6257 234.962 97.4429 235.165C97.2602 235.366 97.1688 235.624 97.1688 235.94V239.254H96.1601V235.798C96.1601 235.516 96.0721 235.289 95.8961 235.118C95.7201 234.946 95.4911 234.861 95.209 234.861C95.0172 234.861 94.8401 234.911 94.6776 235.013C94.5174 235.112 94.3877 235.251 94.2884 235.429C94.1914 235.607 94.1429 235.814 94.1429 236.049V239.254H93.1308ZM103.824 239.359C103.337 239.359 102.912 239.247 102.548 239.024C102.185 238.8 101.903 238.488 101.702 238.086C101.501 237.685 101.401 237.215 101.401 236.678C101.401 236.139 101.501 235.667 101.702 235.263C101.903 234.859 102.185 234.546 102.548 234.322C102.912 234.099 103.337 233.987 103.824 233.987C104.312 233.987 104.737 234.099 105.1 234.322C105.464 234.546 105.746 234.859 105.947 235.263C106.147 235.667 106.248 236.139 106.248 236.678C106.248 237.215 106.147 237.685 105.947 238.086C105.746 238.488 105.464 238.8 105.1 239.024C104.737 239.247 104.312 239.359 103.824 239.359ZM103.828 238.509C104.144 238.509 104.405 238.426 104.613 238.259C104.821 238.092 104.974 237.87 105.073 237.592C105.175 237.314 105.226 237.009 105.226 236.675C105.226 236.343 105.175 236.038 105.073 235.761C104.974 235.481 104.821 235.257 104.613 235.087C104.405 234.918 104.144 234.834 103.828 234.834C103.51 234.834 103.246 234.918 103.036 235.087C102.828 235.257 102.674 235.481 102.572 235.761C102.473 236.038 102.423 236.343 102.423 236.675C102.423 237.009 102.473 237.314 102.572 237.592C102.674 237.87 102.828 238.092 103.036 238.259C103.246 238.426 103.51 238.509 103.828 238.509Z" fill="#727F96"/>
<path d="M134.186 232.663V239.254H133.272L129.922 234.42H129.861V239.254H128.867V232.663H129.787L133.14 237.503H133.202V232.663H134.186ZM137.722 239.354C137.259 239.354 136.854 239.247 136.509 239.035C136.163 238.823 135.895 238.526 135.704 238.144C135.513 237.762 135.418 237.315 135.418 236.805C135.418 236.292 135.513 235.844 135.704 235.46C135.895 235.076 136.163 234.777 136.509 234.565C136.854 234.353 137.259 234.246 137.722 234.246C138.185 234.246 138.59 234.353 138.935 234.565C139.281 234.777 139.549 235.076 139.74 235.46C139.931 235.844 140.026 236.292 140.026 236.805C140.026 237.315 139.931 237.762 139.74 238.144C139.549 238.526 139.281 238.823 138.935 239.035C138.59 239.247 138.185 239.354 137.722 239.354ZM137.725 238.546C138.026 238.546 138.274 238.467 138.472 238.308C138.669 238.149 138.815 237.938 138.909 237.674C139.006 237.41 139.054 237.119 139.054 236.802C139.054 236.486 139.006 236.197 138.909 235.933C138.815 235.667 138.669 235.453 138.472 235.292C138.274 235.131 138.026 235.051 137.725 235.051C137.423 235.051 137.172 235.131 136.972 235.292C136.775 235.453 136.628 235.667 136.531 235.933C136.437 236.197 136.39 236.486 136.39 236.802C136.39 237.119 136.437 237.41 136.531 237.674C136.628 237.938 136.775 238.149 136.972 238.308C137.172 238.467 137.423 238.546 137.725 238.546ZM143.488 234.311V235.083H140.788V234.311H143.488ZM141.512 233.126H142.474V237.802C142.474 237.989 142.502 238.13 142.558 238.224C142.613 238.316 142.685 238.38 142.773 238.414C142.863 238.446 142.961 238.462 143.066 238.462C143.143 238.462 143.211 238.457 143.269 238.446C143.327 238.435 143.372 238.427 143.404 238.42L143.578 239.215C143.522 239.237 143.443 239.258 143.34 239.28C143.237 239.303 143.108 239.316 142.954 239.318C142.7 239.323 142.464 239.278 142.246 239.183C142.027 239.089 141.85 238.943 141.714 238.745C141.579 238.548 141.512 238.3 141.512 238.002V233.126ZM146.71 239.354C146.222 239.354 145.803 239.25 145.451 239.042C145.101 238.831 144.831 238.536 144.64 238.156C144.451 237.775 144.357 237.327 144.357 236.814C144.357 236.308 144.451 235.862 144.64 235.476C144.831 235.09 145.097 234.788 145.438 234.571C145.782 234.355 146.183 234.246 146.642 234.246C146.921 234.246 147.191 234.292 147.453 234.385C147.715 234.477 147.95 234.622 148.158 234.819C148.366 235.017 148.53 235.273 148.65 235.588C148.77 235.902 148.83 236.282 148.83 236.731V237.072H144.901V236.351H147.887C147.887 236.098 147.836 235.874 147.733 235.678C147.63 235.481 147.485 235.326 147.298 235.212C147.114 235.098 146.897 235.041 146.648 235.041C146.378 235.041 146.142 235.108 145.94 235.241C145.741 235.372 145.586 235.543 145.477 235.756C145.37 235.966 145.316 236.194 145.316 236.441V237.004C145.316 237.335 145.374 237.616 145.49 237.848C145.608 238.079 145.772 238.256 145.982 238.379C146.192 238.499 146.438 238.559 146.719 238.559C146.902 238.559 147.068 238.533 147.218 238.482C147.368 238.428 147.498 238.349 147.607 238.243C147.717 238.138 147.8 238.008 147.858 237.854L148.769 238.018C148.696 238.286 148.565 238.521 148.377 238.723C148.19 238.922 147.955 239.078 147.672 239.19C147.391 239.299 147.07 239.354 146.71 239.354ZM154.764 234.311V235.083H152.064V234.311H154.764ZM152.788 233.126H153.75V237.802C153.75 237.989 153.778 238.13 153.834 238.224C153.89 238.316 153.961 238.38 154.049 238.414C154.139 238.446 154.237 238.462 154.342 238.462C154.419 238.462 154.487 238.457 154.545 238.446C154.603 238.435 154.648 238.427 154.68 238.42L154.854 239.215C154.798 239.237 154.719 239.258 154.616 239.28C154.513 239.303 154.384 239.316 154.23 239.318C153.976 239.323 153.74 239.278 153.522 239.183C153.303 239.089 153.126 238.943 152.991 238.745C152.855 238.548 152.788 238.3 152.788 238.002V233.126ZM156.977 236.319V239.254H156.014V232.663H156.964V235.115H157.025C157.141 234.849 157.318 234.638 157.556 234.481C157.794 234.325 158.105 234.246 158.489 234.246C158.828 234.246 159.124 234.316 159.377 234.456C159.633 234.595 159.83 234.803 159.97 235.08C160.111 235.354 160.182 235.698 160.182 236.11V239.254H159.22V236.226C159.22 235.863 159.126 235.582 158.94 235.382C158.753 235.181 158.494 235.08 158.161 235.08C157.934 235.08 157.73 235.128 157.55 235.225C157.371 235.321 157.231 235.463 157.128 235.65C157.027 235.834 156.977 236.057 156.977 236.319ZM161.546 239.254V234.311H162.508V239.254H161.546ZM162.032 233.548C161.865 233.548 161.721 233.492 161.601 233.381C161.483 233.267 161.424 233.132 161.424 232.975C161.424 232.816 161.483 232.681 161.601 232.57C161.721 232.456 161.865 232.399 162.032 232.399C162.199 232.399 162.342 232.456 162.46 232.57C162.58 232.681 162.64 232.816 162.64 232.975C162.64 233.132 162.58 233.267 162.46 233.381C162.342 233.492 162.199 233.548 162.032 233.548ZM167.587 235.518L166.715 235.672C166.678 235.56 166.62 235.454 166.541 235.353C166.464 235.253 166.359 235.17 166.226 235.106C166.093 235.041 165.926 235.009 165.727 235.009C165.454 235.009 165.227 235.07 165.045 235.193C164.862 235.313 164.771 235.468 164.771 235.659C164.771 235.824 164.832 235.957 164.955 236.058C165.077 236.159 165.274 236.242 165.547 236.306L166.332 236.486C166.787 236.591 167.126 236.753 167.349 236.972C167.572 237.191 167.684 237.475 167.684 237.825C167.684 238.121 167.598 238.385 167.426 238.617C167.257 238.846 167.02 239.026 166.715 239.157C166.412 239.288 166.062 239.354 165.663 239.354C165.109 239.354 164.657 239.236 164.308 239C163.958 238.762 163.743 238.424 163.664 237.986L164.594 237.844C164.652 238.087 164.771 238.27 164.951 238.395C165.132 238.517 165.366 238.578 165.656 238.578C165.971 238.578 166.224 238.513 166.412 238.382C166.601 238.249 166.696 238.087 166.696 237.896C166.696 237.741 166.638 237.612 166.522 237.506C166.408 237.401 166.233 237.322 165.997 237.268L165.161 237.085C164.699 236.98 164.358 236.812 164.137 236.583C163.918 236.353 163.809 236.063 163.809 235.711C163.809 235.419 163.89 235.164 164.053 234.945C164.216 234.726 164.442 234.555 164.729 234.433C165.017 234.309 165.346 234.246 165.717 234.246C166.251 234.246 166.672 234.362 166.979 234.594C167.286 234.823 167.488 235.131 167.587 235.518ZM171.3 239.254V234.311H172.262V239.254H171.3ZM171.786 233.548C171.619 233.548 171.475 233.492 171.355 233.381C171.237 233.267 171.178 233.132 171.178 232.975C171.178 232.816 171.237 232.681 171.355 232.57C171.475 232.456 171.619 232.399 171.786 232.399C171.953 232.399 172.096 232.456 172.214 232.57C172.334 232.681 172.394 232.816 172.394 232.975C172.394 233.132 172.334 233.267 172.214 233.381C172.096 233.492 171.953 233.548 171.786 233.548ZM174.599 236.319V239.254H173.637V234.311H174.56V235.115H174.622C174.735 234.854 174.913 234.643 175.156 234.485C175.4 234.326 175.708 234.246 176.079 234.246C176.416 234.246 176.711 234.317 176.964 234.459C177.218 234.598 177.414 234.806 177.553 235.083C177.693 235.36 177.762 235.702 177.762 236.11V239.254H176.8V236.226C176.8 235.867 176.707 235.587 176.52 235.386C176.334 235.182 176.077 235.08 175.751 235.08C175.528 235.08 175.33 235.128 175.156 235.225C174.984 235.321 174.848 235.463 174.747 235.65C174.648 235.834 174.599 236.057 174.599 236.319ZM181.215 239.354C180.737 239.354 180.325 239.245 179.979 239.029C179.636 238.81 179.372 238.508 179.188 238.124C179.003 237.74 178.911 237.3 178.911 236.805C178.911 236.303 179.005 235.86 179.194 235.476C179.383 235.09 179.649 234.788 179.992 234.571C180.336 234.355 180.74 234.246 181.206 234.246C181.581 234.246 181.916 234.316 182.21 234.456C182.504 234.593 182.741 234.786 182.921 235.035C183.103 235.284 183.212 235.574 183.246 235.907H182.309C182.258 235.675 182.14 235.476 181.955 235.308C181.773 235.141 181.528 235.057 181.222 235.057C180.953 235.057 180.718 235.128 180.517 235.27C180.317 235.409 180.162 235.609 180.05 235.868C179.939 236.126 179.883 236.43 179.883 236.782C179.883 237.143 179.938 237.454 180.047 237.716C180.156 237.977 180.311 238.18 180.51 238.324C180.712 238.468 180.949 238.539 181.222 238.539C181.404 238.539 181.569 238.506 181.717 238.44C181.867 238.371 181.993 238.273 182.094 238.147C182.197 238.02 182.269 237.868 182.309 237.69H183.246C183.212 238.01 183.107 238.295 182.934 238.546C182.76 238.797 182.527 238.994 182.235 239.138C181.946 239.282 181.606 239.354 181.215 239.354ZM185.317 232.663V239.254H184.355V232.663H185.317ZM189.823 237.204V234.311H190.788V239.254H189.842V238.398H189.791C189.677 238.662 189.495 238.882 189.244 239.058C188.995 239.231 188.685 239.318 188.314 239.318C187.996 239.318 187.715 239.249 187.47 239.109C187.228 238.967 187.037 238.758 186.898 238.482C186.76 238.205 186.692 237.863 186.692 237.455V234.311H187.654V237.339C187.654 237.676 187.747 237.944 187.934 238.144C188.121 238.343 188.363 238.443 188.661 238.443C188.841 238.443 189.021 238.398 189.199 238.308C189.379 238.218 189.528 238.081 189.646 237.899C189.766 237.717 189.825 237.485 189.823 237.204ZM194.012 239.35C193.613 239.35 193.257 239.249 192.943 239.045C192.632 238.839 192.388 238.546 192.21 238.166C192.034 237.784 191.946 237.326 191.946 236.792C191.946 236.258 192.035 235.801 192.213 235.421C192.393 235.041 192.64 234.751 192.953 234.549C193.266 234.347 193.621 234.246 194.018 234.246C194.325 234.246 194.572 234.298 194.758 234.401C194.947 234.502 195.093 234.62 195.196 234.755C195.301 234.89 195.383 235.009 195.441 235.112H195.499V232.663H196.461V239.254H195.521V238.485H195.441C195.383 238.59 195.299 238.71 195.19 238.845C195.082 238.98 194.934 239.098 194.746 239.199C194.557 239.3 194.312 239.35 194.012 239.35ZM194.224 238.53C194.501 238.53 194.735 238.457 194.926 238.311C195.119 238.163 195.265 237.958 195.364 237.696C195.464 237.435 195.515 237.13 195.515 236.782C195.515 236.439 195.465 236.139 195.367 235.881C195.268 235.624 195.123 235.423 194.932 235.279C194.741 235.136 194.505 235.064 194.224 235.064C193.935 235.064 193.693 235.139 193.5 235.289C193.307 235.439 193.161 235.644 193.062 235.904C192.966 236.163 192.918 236.456 192.918 236.782C192.918 237.113 192.967 237.41 193.066 237.674C193.164 237.938 193.31 238.147 193.503 238.301C193.699 238.454 193.939 238.53 194.224 238.53ZM200.045 239.354C199.558 239.354 199.138 239.25 198.786 239.042C198.437 238.831 198.166 238.536 197.975 238.156C197.787 237.775 197.692 237.327 197.692 236.814C197.692 236.308 197.787 235.862 197.975 235.476C198.166 235.09 198.432 234.788 198.774 234.571C199.117 234.355 199.518 234.246 199.977 234.246C200.256 234.246 200.526 234.292 200.788 234.385C201.05 234.477 201.285 234.622 201.493 234.819C201.701 235.017 201.865 235.273 201.985 235.588C202.105 235.902 202.166 236.282 202.166 236.731V237.072H198.236V236.351H201.223C201.223 236.098 201.171 235.874 201.068 235.678C200.965 235.481 200.82 235.326 200.634 235.212C200.449 235.098 200.232 235.041 199.984 235.041C199.713 235.041 199.477 235.108 199.276 235.241C199.076 235.372 198.922 235.543 198.812 235.756C198.705 235.966 198.651 236.194 198.651 236.441V237.004C198.651 237.335 198.709 237.616 198.825 237.848C198.943 238.079 199.107 238.256 199.317 238.379C199.528 238.499 199.773 238.559 200.054 238.559C200.237 238.559 200.403 238.533 200.553 238.482C200.703 238.428 200.833 238.349 200.943 238.243C201.052 238.138 201.136 238.008 201.194 237.854L202.104 238.018C202.031 238.286 201.901 238.521 201.712 238.723C201.525 238.922 201.29 239.078 201.007 239.19C200.726 239.299 200.405 239.354 200.045 239.354ZM207.017 235.518L206.145 235.672C206.109 235.56 206.051 235.454 205.971 235.353C205.894 235.253 205.789 235.17 205.656 235.106C205.523 235.041 205.357 235.009 205.157 235.009C204.885 235.009 204.657 235.07 204.475 235.193C204.293 235.313 204.201 235.468 204.201 235.659C204.201 235.824 204.263 235.957 204.385 236.058C204.507 236.159 204.705 236.242 204.977 236.306L205.762 236.486C206.217 236.591 206.556 236.753 206.779 236.972C207.002 237.191 207.114 237.475 207.114 237.825C207.114 238.121 207.028 238.385 206.856 238.617C206.687 238.846 206.45 239.026 206.145 239.157C205.843 239.288 205.492 239.354 205.093 239.354C204.539 239.354 204.088 239.236 203.738 239C203.388 238.762 203.174 238.424 203.094 237.986L204.024 237.844C204.082 238.087 204.201 238.27 204.382 238.395C204.562 238.517 204.797 238.578 205.086 238.578C205.402 238.578 205.654 238.513 205.843 238.382C206.032 238.249 206.126 238.087 206.126 237.896C206.126 237.741 206.068 237.612 205.952 237.506C205.838 237.401 205.664 237.322 205.428 237.268L204.591 237.085C204.13 236.98 203.788 236.812 203.567 236.583C203.349 236.353 203.239 236.063 203.239 235.711C203.239 235.419 203.321 235.164 203.484 234.945C203.647 234.726 203.872 234.555 204.16 234.433C204.447 234.309 204.776 234.246 205.148 234.246C205.682 234.246 206.102 234.362 206.409 234.594C206.716 234.823 206.919 235.131 207.017 235.518ZM211.693 236.319V239.254H210.73V234.311H211.654V235.115H211.715C211.829 234.854 212.007 234.643 212.249 234.485C212.494 234.326 212.802 234.246 213.173 234.246C213.51 234.246 213.805 234.317 214.058 234.459C214.311 234.598 214.507 234.806 214.647 235.083C214.786 235.36 214.856 235.702 214.856 236.11V239.254H213.894V236.226C213.894 235.867 213.8 235.587 213.614 235.386C213.427 235.182 213.171 235.08 212.845 235.08C212.622 235.08 212.423 235.128 212.249 235.225C212.078 235.321 211.941 235.463 211.841 235.65C211.742 235.834 211.693 236.057 211.693 236.319ZM216.227 239.254V234.311H217.189V239.254H216.227ZM216.712 233.548C216.545 233.548 216.401 233.492 216.281 233.381C216.163 233.267 216.104 233.132 216.104 232.975C216.104 232.816 216.163 232.681 216.281 232.57C216.401 232.456 216.545 232.399 216.712 232.399C216.88 232.399 217.023 232.456 217.141 232.57C217.261 232.681 217.321 232.816 217.321 232.975C217.321 233.132 217.261 233.267 217.141 233.381C217.023 233.492 216.88 233.548 216.712 233.548ZM219.526 236.319V239.254H218.563V234.311H219.487V235.115H219.548C219.662 234.854 219.84 234.643 220.082 234.485C220.327 234.326 220.635 234.246 221.006 234.246C221.343 234.246 221.638 234.317 221.891 234.459C222.144 234.598 222.34 234.806 222.48 235.083C222.619 235.36 222.689 235.702 222.689 236.11V239.254H221.727V236.226C221.727 235.867 221.633 235.587 221.447 235.386C221.26 235.182 221.004 235.08 220.678 235.08C220.455 235.08 220.256 235.128 220.082 235.225C219.911 235.321 219.774 235.463 219.674 235.65C219.575 235.834 219.526 236.057 219.526 236.319ZM226.19 239.354C225.703 239.354 225.284 239.25 224.932 239.042C224.582 238.831 224.312 238.536 224.121 238.156C223.932 237.775 223.838 237.327 223.838 236.814C223.838 236.308 223.932 235.862 224.121 235.476C224.312 235.09 224.578 234.788 224.919 234.571C225.262 234.355 225.663 234.246 226.122 234.246C226.401 234.246 226.672 234.292 226.933 234.385C227.195 234.477 227.43 234.622 227.638 234.819C227.846 235.017 228.01 235.273 228.131 235.588C228.251 235.902 228.311 236.282 228.311 236.731V237.072H224.381V236.351H227.368C227.368 236.098 227.316 235.874 227.213 235.678C227.11 235.481 226.966 235.326 226.779 235.212C226.594 235.098 226.378 235.041 226.129 235.041C225.859 235.041 225.623 235.108 225.421 235.241C225.221 235.372 225.067 235.543 224.957 235.756C224.85 235.966 224.797 236.194 224.797 236.441V237.004C224.797 237.335 224.854 237.616 224.97 237.848C225.088 238.079 225.252 238.256 225.463 238.379C225.673 238.499 225.919 238.559 226.2 238.559C226.382 238.559 226.548 238.533 226.699 238.482C226.849 238.428 226.978 238.349 227.088 238.243C227.197 238.138 227.281 238.008 227.339 237.854L228.25 238.018C228.177 238.286 228.046 238.521 227.857 238.723C227.67 238.922 227.435 239.078 227.152 239.19C226.871 239.299 226.55 239.354 226.19 239.354ZM234.067 239.354C233.58 239.354 233.161 239.25 232.809 239.042C232.459 238.831 232.189 238.536 231.998 238.156C231.809 237.775 231.715 237.327 231.715 236.814C231.715 236.308 231.809 235.862 231.998 235.476C232.189 235.09 232.455 234.788 232.796 234.571C233.139 234.355 233.541 234.246 234 234.246C234.279 234.246 234.549 234.292 234.811 234.385C235.072 234.477 235.307 234.622 235.516 234.819C235.724 235.017 235.888 235.273 236.008 235.588C236.128 235.902 236.188 236.282 236.188 236.731V237.072H232.259V236.351H235.245C235.245 236.098 235.194 235.874 235.091 235.678C234.988 235.481 234.843 235.326 234.656 235.212C234.472 235.098 234.255 235.041 234.006 235.041C233.736 235.041 233.5 235.108 233.298 235.241C233.099 235.372 232.944 235.543 232.835 235.756C232.727 235.966 232.674 236.194 232.674 236.441V237.004C232.674 237.335 232.732 237.616 232.848 237.848C232.966 238.079 233.13 238.256 233.34 238.379C233.55 238.499 233.796 238.559 234.077 238.559C234.259 238.559 234.426 238.533 234.576 238.482C234.726 238.428 234.856 238.349 234.965 238.243C235.075 238.138 235.158 238.008 235.216 237.854L236.127 238.018C236.054 238.286 235.923 238.521 235.734 238.723C235.548 238.922 235.313 239.078 235.03 239.19C234.749 239.299 234.428 239.354 234.067 239.354ZM239.186 239.35C238.787 239.35 238.431 239.249 238.118 239.045C237.807 238.839 237.562 238.546 237.384 238.166C237.208 237.784 237.12 237.326 237.12 236.792C237.12 236.258 237.209 235.801 237.387 235.421C237.567 235.041 237.814 234.751 238.127 234.549C238.441 234.347 238.796 234.246 239.193 234.246C239.499 234.246 239.746 234.298 239.933 234.401C240.122 234.502 240.268 234.62 240.371 234.755C240.476 234.89 240.557 235.009 240.615 235.112H240.673V232.663H241.635V239.254H240.696V238.485H240.615C240.557 238.59 240.474 238.71 240.364 238.845C240.257 238.98 240.109 239.098 239.92 239.199C239.731 239.3 239.487 239.35 239.186 239.35ZM239.399 238.53C239.675 238.53 239.909 238.457 240.1 238.311C240.293 238.163 240.439 237.958 240.538 237.696C240.639 237.435 240.689 237.13 240.689 236.782C240.689 236.439 240.64 236.139 240.541 235.881C240.442 235.624 240.298 235.423 240.107 235.279C239.916 235.136 239.68 235.064 239.399 235.064C239.109 235.064 238.868 235.139 238.675 235.289C238.481 235.439 238.336 235.644 238.237 235.904C238.14 236.163 238.092 236.456 238.092 236.782C238.092 237.113 238.141 237.41 238.24 237.674C238.339 237.938 238.485 238.147 238.678 238.301C238.873 238.454 239.113 238.53 239.399 238.53ZM243.089 239.254V234.311H244.051V239.254H243.089ZM243.575 233.548C243.407 233.548 243.264 233.492 243.143 233.381C243.025 233.267 242.966 233.132 242.966 232.975C242.966 232.816 243.025 232.681 243.143 232.57C243.264 232.456 243.407 232.399 243.575 232.399C243.742 232.399 243.885 232.456 244.003 232.57C244.123 232.681 244.183 232.816 244.183 232.975C244.183 233.132 244.123 233.267 244.003 233.381C243.885 233.492 243.742 233.548 243.575 233.548ZM247.733 234.311V235.083H245.033V234.311H247.733ZM245.757 233.126H246.719V237.802C246.719 237.989 246.747 238.13 246.803 238.224C246.859 238.316 246.931 238.38 247.018 238.414C247.109 238.446 247.206 238.462 247.311 238.462C247.389 238.462 247.456 238.457 247.514 238.446C247.572 238.435 247.617 238.427 247.649 238.42L247.823 239.215C247.767 239.237 247.688 239.258 247.585 239.28C247.482 239.303 247.353 239.316 247.199 239.318C246.946 239.323 246.71 239.278 246.491 239.183C246.272 239.089 246.095 238.943 245.96 238.745C245.825 238.548 245.757 238.3 245.757 238.002V233.126ZM250.906 239.354C250.443 239.354 250.039 239.247 249.693 239.035C249.348 238.823 249.08 238.526 248.889 238.144C248.698 237.762 248.602 237.315 248.602 236.805C248.602 236.292 248.698 235.844 248.889 235.46C249.08 235.076 249.348 234.777 249.693 234.565C250.039 234.353 250.443 234.246 250.906 234.246C251.37 234.246 251.774 234.353 252.12 234.565C252.465 234.777 252.733 235.076 252.924 235.46C253.115 235.844 253.211 236.292 253.211 236.805C253.211 237.315 253.115 237.762 252.924 238.144C252.733 238.526 252.465 238.823 252.12 239.035C251.774 239.247 251.37 239.354 250.906 239.354ZM250.91 238.546C251.21 238.546 251.459 238.467 251.656 238.308C251.854 238.149 252 237.938 252.094 237.674C252.19 237.41 252.239 237.119 252.239 236.802C252.239 236.486 252.19 236.197 252.094 235.933C252 235.667 251.854 235.453 251.656 235.292C251.459 235.131 251.21 235.051 250.91 235.051C250.607 235.051 250.356 235.131 250.157 235.292C249.959 235.453 249.812 235.667 249.716 235.933C249.621 236.197 249.574 236.486 249.574 236.802C249.574 237.119 249.621 237.41 249.716 237.674C249.812 237.938 249.959 238.149 250.157 238.308C250.356 238.467 250.607 238.546 250.91 238.546ZM254.365 239.254V234.311H255.295V235.096H255.346C255.436 234.83 255.595 234.621 255.823 234.468C256.052 234.314 256.312 234.237 256.601 234.237C256.661 234.237 256.732 234.239 256.814 234.243C256.897 234.247 256.963 234.253 257.01 234.259V235.18C256.972 235.169 256.903 235.157 256.804 235.144C256.705 235.129 256.607 235.122 256.508 235.122C256.281 235.122 256.078 235.17 255.9 235.267C255.724 235.361 255.584 235.493 255.481 235.662C255.378 235.83 255.327 236.021 255.327 236.235V239.254H254.365ZM261.627 235.518L260.755 235.672C260.718 235.56 260.66 235.454 260.581 235.353C260.504 235.253 260.399 235.17 260.266 235.106C260.133 235.041 259.966 235.009 259.767 235.009C259.494 235.009 259.267 235.07 259.085 235.193C258.902 235.313 258.811 235.468 258.811 235.659C258.811 235.824 258.872 235.957 258.994 236.058C259.117 236.159 259.314 236.242 259.587 236.306L260.372 236.486C260.827 236.591 261.166 236.753 261.389 236.972C261.612 237.191 261.724 237.475 261.724 237.825C261.724 238.121 261.638 238.385 261.466 238.617C261.297 238.846 261.06 239.026 260.755 239.157C260.452 239.288 260.102 239.354 259.703 239.354C259.149 239.354 258.697 239.236 258.348 239C257.998 238.762 257.783 238.424 257.704 237.986L258.634 237.844C258.692 238.087 258.811 238.27 258.991 238.395C259.172 238.517 259.406 238.578 259.696 238.578C260.011 238.578 260.264 238.513 260.452 238.382C260.641 238.249 260.736 238.087 260.736 237.896C260.736 237.741 260.678 237.612 260.562 237.506C260.448 237.401 260.273 237.322 260.037 237.268L259.2 237.085C258.739 236.98 258.398 236.812 258.177 236.583C257.958 236.353 257.849 236.063 257.849 235.711C257.849 235.419 257.93 235.164 258.093 234.945C258.256 234.726 258.482 234.555 258.769 234.433C259.057 234.309 259.386 234.246 259.757 234.246C260.291 234.246 260.712 234.362 261.019 234.594C261.326 234.823 261.528 235.131 261.627 235.518ZM266.778 239.363C266.465 239.363 266.182 239.305 265.929 239.19C265.676 239.072 265.475 238.901 265.327 238.678C265.181 238.455 265.108 238.181 265.108 237.857C265.108 237.578 265.162 237.349 265.269 237.169C265.376 236.988 265.521 236.846 265.704 236.74C265.886 236.635 266.09 236.556 266.315 236.502C266.54 236.449 266.77 236.408 267.004 236.38C267.3 236.346 267.54 236.318 267.725 236.296C267.909 236.273 268.043 236.235 268.127 236.184C268.211 236.132 268.252 236.049 268.252 235.933V235.91C268.252 235.629 268.173 235.411 268.014 235.257C267.858 235.102 267.624 235.025 267.313 235.025C266.989 235.025 266.733 235.097 266.547 235.241C266.362 235.382 266.235 235.54 266.164 235.714L265.259 235.508C265.367 235.208 265.523 234.965 265.729 234.781C265.937 234.594 266.177 234.459 266.447 234.375C266.717 234.289 267.002 234.246 267.3 234.246C267.497 234.246 267.706 234.27 267.927 234.317C268.15 234.362 268.359 234.446 268.552 234.568C268.747 234.69 268.907 234.865 269.031 235.093C269.156 235.318 269.218 235.611 269.218 235.971V239.254H268.278V238.578H268.24C268.177 238.703 268.084 238.825 267.96 238.945C267.835 239.065 267.675 239.165 267.48 239.244C267.285 239.324 267.051 239.363 266.778 239.363ZM266.988 238.591C267.254 238.591 267.481 238.538 267.67 238.433C267.861 238.328 268.006 238.191 268.104 238.021C268.205 237.85 268.256 237.666 268.256 237.471V236.834C268.221 236.868 268.155 236.9 268.056 236.93C267.96 236.958 267.849 236.983 267.725 237.004C267.6 237.024 267.479 237.042 267.361 237.059C267.243 237.074 267.144 237.087 267.065 237.098C266.878 237.121 266.708 237.161 266.553 237.217C266.401 237.273 266.279 237.353 266.186 237.458C266.096 237.561 266.051 237.698 266.051 237.87C266.051 238.108 266.139 238.288 266.315 238.411C266.491 238.531 266.715 238.591 266.988 238.591ZM271.542 236.319V239.254H270.58V234.311H271.503V235.115H271.564C271.678 234.854 271.856 234.643 272.099 234.485C272.343 234.326 272.651 234.246 273.022 234.246C273.359 234.246 273.654 234.317 273.907 234.459C274.16 234.598 274.357 234.806 274.496 235.083C274.636 235.36 274.705 235.702 274.705 236.11V239.254H273.743V236.226C273.743 235.867 273.65 235.587 273.463 235.386C273.276 235.182 273.02 235.08 272.694 235.08C272.471 235.08 272.272 235.128 272.099 235.225C271.927 235.321 271.791 235.463 271.69 235.65C271.591 235.834 271.542 236.057 271.542 236.319ZM277.926 239.35C277.527 239.35 277.171 239.249 276.858 239.045C276.547 238.839 276.302 238.546 276.124 238.166C275.948 237.784 275.86 237.326 275.86 236.792C275.86 236.258 275.949 235.801 276.127 235.421C276.307 235.041 276.554 234.751 276.867 234.549C277.181 234.347 277.536 234.246 277.933 234.246C278.24 234.246 278.486 234.298 278.673 234.401C278.862 234.502 279.008 234.62 279.111 234.755C279.216 234.89 279.297 235.009 279.355 235.112H279.413V232.663H280.375V239.254H279.436V238.485H279.355C279.297 238.59 279.214 238.71 279.104 238.845C278.997 238.98 278.849 239.098 278.66 239.199C278.471 239.3 278.227 239.35 277.926 239.35ZM278.139 238.53C278.415 238.53 278.649 238.457 278.84 238.311C279.033 238.163 279.179 237.958 279.278 237.696C279.379 237.435 279.429 237.13 279.429 236.782C279.429 236.439 279.38 236.139 279.281 235.881C279.182 235.624 279.038 235.423 278.847 235.279C278.656 235.136 278.42 235.064 278.139 235.064C277.849 235.064 277.608 235.139 277.415 235.289C277.221 235.439 277.076 235.644 276.977 235.904C276.88 236.163 276.832 236.456 276.832 236.782C276.832 237.113 276.881 237.41 276.98 237.674C277.079 237.938 277.225 238.147 277.418 238.301C277.613 238.454 277.853 238.53 278.139 238.53ZM287.438 237.204V234.311H288.404V239.254H287.458V238.398H287.406C287.293 238.662 287.11 238.882 286.859 239.058C286.61 239.231 286.3 239.318 285.929 239.318C285.612 239.318 285.33 239.249 285.086 239.109C284.843 238.967 284.653 238.758 284.513 238.482C284.376 238.205 284.307 237.863 284.307 237.455V234.311H285.269V237.339C285.269 237.676 285.363 237.944 285.549 238.144C285.736 238.343 285.978 238.443 286.277 238.443C286.457 238.443 286.636 238.398 286.814 238.308C286.994 238.218 287.143 238.081 287.261 237.899C287.382 237.717 287.441 237.485 287.438 237.204ZM290.739 236.319V239.254H289.777V234.311H290.7V235.115H290.762C290.875 234.854 291.053 234.643 291.296 234.485C291.54 234.326 291.848 234.246 292.219 234.246C292.556 234.246 292.851 234.317 293.104 234.459C293.358 234.598 293.554 234.806 293.693 235.083C293.833 235.36 293.903 235.702 293.903 236.11V239.254H292.94V236.226C292.94 235.867 292.847 235.587 292.66 235.386C292.474 235.182 292.217 235.08 291.891 235.08C291.668 235.08 291.47 235.128 291.296 235.225C291.124 235.321 290.988 235.463 290.887 235.65C290.788 235.834 290.739 236.057 290.739 236.319ZM296.235 232.663V239.254H295.273V232.663H296.235ZM297.61 239.254V234.311H298.572V239.254H297.61ZM298.096 233.548C297.928 233.548 297.785 233.492 297.665 233.381C297.547 233.267 297.488 233.132 297.488 232.975C297.488 232.816 297.547 232.681 297.665 232.57C297.785 232.456 297.928 232.399 298.096 232.399C298.263 232.399 298.406 232.456 298.524 232.57C298.644 232.681 298.704 232.816 298.704 232.975C298.704 233.132 298.644 233.267 298.524 233.381C298.406 233.492 298.263 233.548 298.096 233.548ZM299.947 239.254V234.311H300.87V235.115H300.931C301.034 234.843 301.203 234.63 301.437 234.478C301.67 234.324 301.95 234.246 302.277 234.246C302.607 234.246 302.884 234.324 303.107 234.478C303.332 234.633 303.498 234.845 303.606 235.115H303.657C303.775 234.851 303.963 234.641 304.22 234.485C304.478 234.326 304.785 234.246 305.141 234.246C305.589 234.246 305.955 234.387 306.238 234.668C306.524 234.949 306.666 235.373 306.666 235.939V239.254H305.704V236.029C305.704 235.695 305.613 235.452 305.43 235.302C305.248 235.152 305.03 235.077 304.777 235.077C304.464 235.077 304.22 235.173 304.047 235.366C303.873 235.557 303.786 235.803 303.786 236.103V239.254H302.827V235.968C302.827 235.7 302.743 235.484 302.576 235.321C302.409 235.158 302.191 235.077 301.923 235.077C301.74 235.077 301.572 235.125 301.417 235.221C301.265 235.316 301.142 235.448 301.047 235.617C300.955 235.787 300.909 235.983 300.909 236.206V239.254H299.947ZM308.036 239.254V234.311H308.998V239.254H308.036ZM308.522 233.548C308.355 233.548 308.211 233.492 308.091 233.381C307.973 233.267 307.914 233.132 307.914 232.975C307.914 232.816 307.973 232.681 308.091 232.57C308.211 232.456 308.355 232.399 308.522 232.399C308.689 232.399 308.832 232.456 308.95 232.57C309.07 232.681 309.13 232.816 309.13 232.975C309.13 233.132 309.07 233.267 308.95 233.381C308.832 233.492 308.689 233.548 308.522 233.548ZM312.68 234.311V235.083H309.98V234.311H312.68ZM310.704 233.126H311.666V237.802C311.666 237.989 311.694 238.13 311.75 238.224C311.806 238.316 311.878 238.38 311.966 238.414C312.056 238.446 312.153 238.462 312.259 238.462C312.336 238.462 312.403 238.457 312.461 238.446C312.519 238.435 312.564 238.427 312.596 238.42L312.77 239.215C312.714 239.237 312.635 239.258 312.532 239.28C312.429 239.303 312.3 239.316 312.146 239.318C311.893 239.323 311.657 239.278 311.438 239.183C311.219 239.089 311.042 238.943 310.907 238.745C310.772 238.548 310.704 238.3 310.704 238.002V233.126ZM315.902 239.354C315.415 239.354 314.995 239.25 314.644 239.042C314.294 238.831 314.024 238.536 313.833 238.156C313.644 237.775 313.549 237.327 313.549 236.814C313.549 236.308 313.644 235.862 313.833 235.476C314.024 235.09 314.29 234.788 314.631 234.571C314.974 234.355 315.375 234.246 315.834 234.246C316.113 234.246 316.384 234.292 316.645 234.385C316.907 234.477 317.142 234.622 317.35 234.819C317.558 235.017 317.722 235.273 317.843 235.588C317.963 235.902 318.023 236.282 318.023 236.731V237.072H314.093V236.351H317.08C317.08 236.098 317.028 235.874 316.925 235.678C316.822 235.481 316.678 235.326 316.491 235.212C316.306 235.098 316.09 235.041 315.841 235.041C315.57 235.041 315.334 235.108 315.133 235.241C314.933 235.372 314.779 235.543 314.669 235.756C314.562 235.966 314.508 236.194 314.508 236.441V237.004C314.508 237.335 314.566 237.616 314.682 237.848C314.8 238.079 314.964 238.256 315.175 238.379C315.385 238.499 315.631 238.559 315.912 238.559C316.094 238.559 316.26 238.533 316.41 238.482C316.561 238.428 316.69 238.349 316.8 238.243C316.909 238.138 316.993 238.008 317.051 237.854L317.962 238.018C317.889 238.286 317.758 238.521 317.569 238.723C317.382 238.922 317.147 239.078 316.864 239.19C316.583 239.299 316.262 239.354 315.902 239.354ZM321.021 239.35C320.622 239.35 320.266 239.249 319.952 239.045C319.641 238.839 319.397 238.546 319.219 238.166C319.043 237.784 318.955 237.326 318.955 236.792C318.955 236.258 319.044 235.801 319.222 235.421C319.402 235.041 319.649 234.751 319.962 234.549C320.275 234.347 320.63 234.246 321.027 234.246C321.334 234.246 321.581 234.298 321.768 234.401C321.956 234.502 322.102 234.62 322.205 234.755C322.31 234.89 322.392 235.009 322.45 235.112H322.508V232.663H323.47V239.254H322.53V238.485H322.45C322.392 238.59 322.308 238.71 322.199 238.845C322.091 238.98 321.943 239.098 321.755 239.199C321.566 239.3 321.321 239.35 321.021 239.35ZM321.233 238.53C321.51 238.53 321.744 238.457 321.935 238.311C322.128 238.163 322.274 237.958 322.373 237.696C322.473 237.435 322.524 237.13 322.524 236.782C322.524 236.439 322.474 236.139 322.376 235.881C322.277 235.624 322.132 235.423 321.941 235.279C321.75 235.136 321.514 235.064 321.233 235.064C320.944 235.064 320.702 235.139 320.509 235.289C320.316 235.439 320.17 235.644 320.072 235.904C319.975 236.163 319.927 236.456 319.927 236.782C319.927 237.113 319.976 237.41 320.075 237.674C320.173 237.938 320.319 238.147 320.512 238.301C320.708 238.454 320.948 238.53 321.233 238.53ZM128.789 258.108V251.311H129.729V252.112H129.81C129.865 252.009 129.946 251.89 130.051 251.755C130.156 251.62 130.302 251.502 130.489 251.401C130.675 251.298 130.922 251.246 131.229 251.246C131.628 251.246 131.984 251.347 132.297 251.549C132.611 251.751 132.856 252.041 133.034 252.421C133.214 252.801 133.305 253.258 133.305 253.792C133.305 254.326 133.216 254.784 133.037 255.166C132.859 255.546 132.615 255.839 132.304 256.045C131.993 256.249 131.638 256.35 131.239 256.35C130.938 256.35 130.692 256.3 130.502 256.199C130.313 256.098 130.165 255.98 130.057 255.845C129.95 255.71 129.868 255.59 129.81 255.485H129.752V258.108H128.789ZM129.732 253.782C129.732 254.13 129.783 254.435 129.884 254.696C129.984 254.958 130.13 255.163 130.321 255.311C130.512 255.457 130.746 255.53 131.023 255.53C131.31 255.53 131.551 255.454 131.744 255.301C131.937 255.147 132.083 254.938 132.181 254.674C132.282 254.41 132.333 254.113 132.333 253.782C132.333 253.456 132.283 253.163 132.185 252.904C132.088 252.644 131.942 252.439 131.747 252.289C131.554 252.139 131.313 252.064 131.023 252.064C130.744 252.064 130.508 252.136 130.315 252.279C130.124 252.423 129.979 252.624 129.88 252.881C129.782 253.139 129.732 253.439 129.732 253.782ZM134.463 256.254V251.311H135.393V252.096H135.444C135.534 251.83 135.693 251.621 135.921 251.468C136.15 251.314 136.41 251.237 136.699 251.237C136.759 251.237 136.83 251.239 136.912 251.243C136.995 251.247 137.061 251.253 137.108 251.259V252.18C137.069 252.169 137.001 252.157 136.902 252.144C136.803 252.129 136.705 252.122 136.606 252.122C136.379 252.122 136.176 252.17 135.998 252.267C135.822 252.361 135.682 252.493 135.579 252.662C135.476 252.83 135.425 253.021 135.425 253.235V256.254H134.463ZM139.926 256.354C139.463 256.354 139.058 256.247 138.713 256.035C138.367 255.823 138.099 255.526 137.908 255.144C137.717 254.762 137.622 254.315 137.622 253.805C137.622 253.292 137.717 252.844 137.908 252.46C138.099 252.076 138.367 251.777 138.713 251.565C139.058 251.353 139.463 251.246 139.926 251.246C140.389 251.246 140.794 251.353 141.139 251.565C141.485 251.777 141.753 252.076 141.944 252.46C142.135 252.844 142.23 253.292 142.23 253.805C142.23 254.315 142.135 254.762 141.944 255.144C141.753 255.526 141.485 255.823 141.139 256.035C140.794 256.247 140.389 256.354 139.926 256.354ZM139.929 255.546C140.23 255.546 140.478 255.467 140.676 255.308C140.873 255.149 141.019 254.938 141.113 254.674C141.21 254.41 141.258 254.119 141.258 253.802C141.258 253.486 141.21 253.197 141.113 252.933C141.019 252.667 140.873 252.453 140.676 252.292C140.478 252.131 140.23 252.051 139.929 252.051C139.627 252.051 139.376 252.131 139.176 252.292C138.979 252.453 138.832 252.667 138.735 252.933C138.641 253.197 138.594 253.486 138.594 253.802C138.594 254.119 138.641 254.41 138.735 254.674C138.832 254.938 138.979 255.149 139.176 255.308C139.376 255.467 139.627 255.546 139.929 255.546ZM143.384 251.311H144.347V256.576C144.347 256.906 144.286 257.185 144.166 257.412C144.048 257.64 143.872 257.813 143.639 257.931C143.407 258.049 143.12 258.108 142.779 258.108C142.745 258.108 142.713 258.108 142.683 258.108C142.651 258.108 142.617 258.107 142.583 258.104V257.277C142.613 257.277 142.64 257.277 142.663 257.277C142.685 257.277 142.71 257.277 142.737 257.277C142.965 257.277 143.129 257.216 143.23 257.094C143.333 256.974 143.384 256.799 143.384 256.569V251.311ZM143.861 250.548C143.693 250.548 143.549 250.492 143.429 250.381C143.311 250.267 143.252 250.132 143.252 249.975C143.252 249.816 143.311 249.681 143.429 249.57C143.549 249.456 143.693 249.399 143.861 249.399C144.028 249.399 144.171 249.456 144.289 249.57C144.409 249.681 144.469 249.816 144.469 249.975C144.469 250.132 144.409 250.267 144.289 250.381C144.171 250.492 144.028 250.548 143.861 250.548ZM147.852 256.354C147.365 256.354 146.945 256.25 146.593 256.042C146.243 255.831 145.973 255.536 145.782 255.156C145.593 254.775 145.499 254.327 145.499 253.814C145.499 253.308 145.593 252.862 145.782 252.476C145.973 252.09 146.239 251.788 146.58 251.571C146.924 251.355 147.325 251.246 147.784 251.246C148.063 251.246 148.333 251.292 148.595 251.385C148.857 251.477 149.092 251.622 149.3 251.819C149.508 252.017 149.672 252.273 149.792 252.588C149.912 252.902 149.972 253.282 149.972 253.731V254.072H146.043V253.351H149.029C149.029 253.098 148.978 252.874 148.875 252.678C148.772 252.481 148.627 252.326 148.44 252.212C148.256 252.098 148.039 252.041 147.79 252.041C147.52 252.041 147.284 252.108 147.082 252.241C146.883 252.372 146.728 252.543 146.619 252.756C146.512 252.966 146.458 253.194 146.458 253.441V254.004C146.458 254.335 146.516 254.616 146.632 254.848C146.75 255.079 146.914 255.256 147.124 255.379C147.334 255.499 147.58 255.559 147.861 255.559C148.044 255.559 148.21 255.533 148.36 255.482C148.51 255.428 148.64 255.349 148.749 255.243C148.859 255.138 148.943 255.008 149 254.854L149.911 255.018C149.838 255.286 149.707 255.521 149.519 255.723C149.332 255.922 149.097 256.078 148.814 256.19C148.533 256.299 148.212 256.354 147.852 256.354ZM153.202 256.354C152.724 256.354 152.312 256.245 151.966 256.029C151.623 255.81 151.359 255.508 151.175 255.124C150.99 254.74 150.898 254.3 150.898 253.805C150.898 253.303 150.992 252.86 151.181 252.476C151.37 252.09 151.636 251.788 151.979 251.571C152.323 251.355 152.727 251.246 153.193 251.246C153.568 251.246 153.903 251.316 154.197 251.456C154.491 251.593 154.728 251.786 154.908 252.035C155.09 252.284 155.199 252.574 155.233 252.907H154.296C154.245 252.675 154.127 252.476 153.942 252.308C153.76 252.141 153.515 252.057 153.209 252.057C152.94 252.057 152.705 252.128 152.504 252.27C152.304 252.409 152.149 252.609 152.037 252.868C151.926 253.126 151.87 253.43 151.87 253.782C151.87 254.143 151.925 254.454 152.034 254.716C152.143 254.977 152.298 255.18 152.497 255.324C152.699 255.468 152.936 255.539 153.209 255.539C153.391 255.539 153.556 255.506 153.704 255.44C153.854 255.371 153.98 255.273 154.081 255.147C154.184 255.02 154.256 254.868 154.296 254.69H155.233C155.199 255.01 155.094 255.295 154.921 255.546C154.747 255.797 154.514 255.994 154.222 256.138C153.933 256.282 153.593 256.354 153.202 256.354ZM158.649 251.311V252.083H155.949V251.311H158.649ZM156.673 250.126H157.636V254.802C157.636 254.989 157.664 255.13 157.719 255.224C157.775 255.316 157.847 255.38 157.935 255.414C158.025 255.446 158.123 255.462 158.228 255.462C158.305 255.462 158.373 255.457 158.431 255.446C158.488 255.435 158.533 255.427 158.566 255.42L158.739 256.215C158.684 256.237 158.604 256.258 158.501 256.28C158.398 256.303 158.27 256.316 158.115 256.318C157.862 256.323 157.626 256.278 157.407 256.183C157.188 256.089 157.011 255.943 156.876 255.745C156.741 255.548 156.673 255.3 156.673 255.002V250.126ZM163.418 252.518L162.546 252.672C162.51 252.56 162.452 252.454 162.372 252.353C162.295 252.253 162.19 252.17 162.057 252.106C161.924 252.041 161.758 252.009 161.558 252.009C161.286 252.009 161.058 252.07 160.876 252.193C160.694 252.313 160.602 252.468 160.602 252.659C160.602 252.824 160.663 252.957 160.786 253.058C160.908 253.159 161.105 253.242 161.378 253.306L162.163 253.486C162.618 253.591 162.957 253.753 163.18 253.972C163.403 254.191 163.515 254.475 163.515 254.825C163.515 255.121 163.429 255.385 163.257 255.617C163.088 255.846 162.851 256.026 162.546 256.157C162.244 256.288 161.893 256.354 161.494 256.354C160.94 256.354 160.489 256.236 160.139 256C159.789 255.762 159.575 255.424 159.495 254.986L160.425 254.844C160.483 255.087 160.602 255.27 160.783 255.395C160.963 255.517 161.198 255.578 161.487 255.578C161.803 255.578 162.055 255.513 162.244 255.382C162.432 255.249 162.527 255.087 162.527 254.896C162.527 254.741 162.469 254.612 162.353 254.506C162.239 254.401 162.064 254.322 161.828 254.268L160.992 254.085C160.53 253.98 160.189 253.812 159.968 253.583C159.75 253.353 159.64 253.063 159.64 252.711C159.64 252.419 159.722 252.164 159.885 251.945C160.048 251.726 160.273 251.555 160.561 251.433C160.848 251.309 161.177 251.246 161.549 251.246C162.083 251.246 162.503 251.362 162.81 251.594C163.117 251.823 163.32 252.131 163.418 252.518ZM165.287 256.315C165.111 256.315 164.96 256.253 164.833 256.128C164.706 256.002 164.643 255.849 164.643 255.671C164.643 255.495 164.706 255.345 164.833 255.221C164.96 255.094 165.111 255.031 165.287 255.031C165.463 255.031 165.614 255.094 165.741 255.221C165.867 255.345 165.93 255.495 165.93 255.671C165.93 255.789 165.9 255.898 165.84 255.996C165.782 256.093 165.705 256.17 165.609 256.228C165.512 256.286 165.405 256.315 165.287 256.315Z" fill="#0A2540"/>
<path d="M129.465 278.549L131.331 284.01H131.406L133.272 278.549H134.366L131.953 285.254H130.784L128.372 278.549H129.465ZM135.336 285.254V280.225H136.314V285.254H135.336ZM135.83 279.45C135.66 279.45 135.513 279.393 135.391 279.279C135.271 279.164 135.211 279.026 135.211 278.867C135.211 278.705 135.271 278.568 135.391 278.454C135.513 278.339 135.66 278.281 135.83 278.281C136 278.281 136.145 278.339 136.265 278.454C136.387 278.568 136.449 278.705 136.449 278.867C136.449 279.026 136.387 279.164 136.265 279.279C136.145 279.393 136 279.45 135.83 279.45ZM139.878 285.355C139.383 285.355 138.956 285.25 138.598 285.038C138.243 284.824 137.968 284.524 137.773 284.138C137.581 283.749 137.485 283.294 137.485 282.772C137.485 282.257 137.581 281.803 137.773 281.411C137.968 281.018 138.238 280.711 138.585 280.491C138.934 280.27 139.343 280.16 139.81 280.16C140.093 280.16 140.368 280.207 140.635 280.301C140.901 280.395 141.14 280.542 141.352 280.743C141.563 280.944 141.73 281.204 141.852 281.525C141.975 281.844 142.036 282.231 142.036 282.687V283.034H138.039V282.301H141.077C141.077 282.043 141.024 281.815 140.919 281.617C140.815 281.416 140.667 281.258 140.477 281.142C140.29 281.026 140.069 280.969 139.816 280.969C139.541 280.969 139.301 281.036 139.096 281.172C138.893 281.305 138.736 281.479 138.625 281.695C138.515 281.909 138.461 282.142 138.461 282.393V282.966C138.461 283.302 138.52 283.588 138.638 283.823C138.758 284.059 138.925 284.239 139.139 284.363C139.352 284.486 139.602 284.547 139.888 284.547C140.074 284.547 140.243 284.521 140.396 284.468C140.548 284.414 140.68 284.333 140.792 284.226C140.903 284.119 140.988 283.987 141.047 283.83L141.974 283.997C141.899 284.27 141.766 284.509 141.574 284.714C141.384 284.917 141.145 285.075 140.857 285.188C140.571 285.3 140.245 285.355 139.878 285.355ZM144.283 285.254L142.803 280.225H143.815L144.8 283.918H144.849L145.838 280.225H146.85L147.832 283.902H147.881L148.86 280.225H149.871L148.395 285.254H147.396L146.375 281.623H146.3L145.278 285.254H144.283ZM153.4 285.254V280.225H154.379V285.254H153.4ZM153.894 279.45C153.724 279.45 153.578 279.393 153.455 279.279C153.335 279.164 153.275 279.026 153.275 278.867C153.275 278.705 153.335 278.568 153.455 278.454C153.578 278.339 153.724 278.281 153.894 278.281C154.064 278.281 154.21 278.339 154.33 278.454C154.452 278.568 154.513 278.705 154.513 278.867C154.513 279.026 154.452 279.164 154.33 279.279C154.21 279.393 154.064 279.45 153.894 279.45ZM156.754 282.268V285.254H155.775V280.225H156.715V281.044H156.777C156.893 280.778 157.074 280.564 157.321 280.402C157.569 280.241 157.883 280.16 158.26 280.16C158.603 280.16 158.903 280.232 159.161 280.376C159.418 280.518 159.618 280.73 159.76 281.011C159.901 281.293 159.972 281.641 159.972 282.055V285.254H158.994V282.173C158.994 281.809 158.899 281.524 158.709 281.319C158.519 281.112 158.258 281.008 157.926 281.008C157.699 281.008 157.497 281.057 157.321 281.155C157.146 281.253 157.007 281.397 156.905 281.587C156.805 281.775 156.754 282.002 156.754 282.268ZM165.487 280.225L163.663 285.254H162.616L160.789 280.225H161.84L163.113 284.095H163.166L164.436 280.225H165.487ZM168.434 285.355C167.962 285.355 167.551 285.247 167.199 285.031C166.848 284.815 166.575 284.513 166.381 284.124C166.187 283.736 166.09 283.282 166.09 282.763C166.09 282.241 166.187 281.785 166.381 281.394C166.575 281.004 166.848 280.7 167.199 280.484C167.551 280.268 167.962 280.16 168.434 280.16C168.905 280.16 169.316 280.268 169.668 280.484C170.019 280.7 170.292 281.004 170.486 281.394C170.681 281.785 170.778 282.241 170.778 282.763C170.778 283.282 170.681 283.736 170.486 284.124C170.292 284.513 170.019 284.815 169.668 285.031C169.316 285.247 168.905 285.355 168.434 285.355ZM168.437 284.534C168.742 284.534 168.996 284.453 169.196 284.291C169.397 284.13 169.546 283.915 169.642 283.647C169.74 283.378 169.789 283.082 169.789 282.759C169.789 282.439 169.74 282.144 169.642 281.875C169.546 281.605 169.397 281.388 169.196 281.224C168.996 281.06 168.742 280.978 168.437 280.978C168.129 280.978 167.874 281.06 167.671 281.224C167.47 281.388 167.321 281.605 167.222 281.875C167.126 282.144 167.078 282.439 167.078 282.759C167.078 283.082 167.126 283.378 167.222 283.647C167.321 283.915 167.47 284.13 167.671 284.291C167.874 284.453 168.129 284.534 168.437 284.534ZM171.95 285.254V280.225H172.929V285.254H171.95ZM172.445 279.45C172.274 279.45 172.128 279.393 172.006 279.279C171.886 279.164 171.826 279.026 171.826 278.867C171.826 278.705 171.886 278.568 172.006 278.454C172.128 278.339 172.274 278.281 172.445 278.281C172.615 278.281 172.76 278.339 172.88 278.454C173.002 278.568 173.063 278.705 173.063 278.867C173.063 279.026 173.002 279.164 172.88 279.279C172.76 279.393 172.615 279.45 172.445 279.45ZM176.444 285.355C175.957 285.355 175.538 285.245 175.187 285.025C174.838 284.802 174.569 284.495 174.382 284.105C174.194 283.714 174.1 283.267 174.1 282.763C174.1 282.252 174.196 281.801 174.388 281.411C174.58 281.018 174.851 280.711 175.2 280.491C175.549 280.27 175.961 280.16 176.434 280.16C176.816 280.16 177.157 280.231 177.456 280.373C177.755 280.512 177.996 280.709 178.179 280.962C178.365 281.215 178.475 281.511 178.51 281.849H177.557C177.505 281.614 177.385 281.411 177.197 281.24C177.011 281.07 176.763 280.985 176.451 280.985C176.178 280.985 175.939 281.057 175.734 281.201C175.531 281.343 175.372 281.546 175.259 281.81C175.145 282.072 175.089 282.382 175.089 282.74C175.089 283.106 175.144 283.423 175.256 283.689C175.367 283.955 175.524 284.162 175.727 284.308C175.932 284.454 176.173 284.527 176.451 284.527C176.636 284.527 176.804 284.493 176.955 284.426C177.107 284.356 177.235 284.257 177.338 284.128C177.442 283.999 177.516 283.844 177.557 283.663H178.51C178.475 283.988 178.369 284.278 178.192 284.534C178.015 284.789 177.779 284.99 177.482 285.136C177.187 285.282 176.841 285.355 176.444 285.355ZM181.804 285.355C181.308 285.355 180.882 285.25 180.524 285.038C180.168 284.824 179.893 284.524 179.699 284.138C179.507 283.749 179.411 283.294 179.411 282.772C179.411 282.257 179.507 281.803 179.699 281.411C179.893 281.018 180.164 280.711 180.511 280.491C180.86 280.27 181.268 280.16 181.735 280.16C182.019 280.16 182.294 280.207 182.56 280.301C182.826 280.395 183.065 280.542 183.277 280.743C183.489 280.944 183.656 281.204 183.778 281.525C183.9 281.844 183.961 282.231 183.961 282.687V283.034H179.964V282.301H183.002C183.002 282.043 182.949 281.815 182.845 281.617C182.74 281.416 182.593 281.258 182.403 281.142C182.215 281.026 181.995 280.969 181.741 280.969C181.466 280.969 181.226 281.036 181.021 281.172C180.818 281.305 180.661 281.479 180.55 281.695C180.441 281.909 180.386 282.142 180.386 282.393V282.966C180.386 283.302 180.445 283.588 180.563 283.823C180.683 284.059 180.85 284.239 181.064 284.363C181.278 284.486 181.528 284.547 181.814 284.547C181.999 284.547 182.168 284.521 182.321 284.468C182.474 284.414 182.606 284.333 182.717 284.226C182.828 284.119 182.913 283.987 182.972 283.83L183.899 283.997C183.825 284.27 183.692 284.509 183.499 284.714C183.31 284.917 183.071 285.075 182.783 285.188C182.497 285.3 182.17 285.355 181.804 285.355ZM189.529 285.352C189.123 285.352 188.761 285.248 188.442 285.041C188.126 284.832 187.877 284.534 187.696 284.147C187.517 283.759 187.427 283.293 187.427 282.75C187.427 282.206 187.518 281.741 187.699 281.355C187.883 280.969 188.134 280.673 188.452 280.468C188.771 280.263 189.132 280.16 189.536 280.16C189.848 280.16 190.099 280.212 190.289 280.317C190.481 280.42 190.629 280.54 190.734 280.677C190.841 280.815 190.924 280.936 190.983 281.041H191.042V278.549H192.021V285.254H191.065V284.471H190.983C190.924 284.578 190.839 284.701 190.727 284.838C190.618 284.976 190.468 285.096 190.276 285.198C190.084 285.301 189.835 285.352 189.529 285.352ZM189.745 284.517C190.027 284.517 190.265 284.443 190.459 284.295C190.655 284.144 190.804 283.936 190.904 283.669C191.007 283.403 191.058 283.093 191.058 282.74C191.058 282.391 191.008 282.085 190.907 281.823C190.807 281.561 190.66 281.357 190.465 281.211C190.271 281.065 190.031 280.992 189.745 280.992C189.451 280.992 189.205 281.068 189.009 281.221C188.812 281.373 188.664 281.582 188.563 281.846C188.465 282.11 188.416 282.408 188.416 282.74C188.416 283.076 188.466 283.378 188.567 283.647C188.667 283.915 188.816 284.128 189.012 284.285C189.211 284.44 189.455 284.517 189.745 284.517ZM195.665 285.355C195.169 285.355 194.743 285.25 194.385 285.038C194.029 284.824 193.754 284.524 193.56 284.138C193.368 283.749 193.272 283.294 193.272 282.772C193.272 282.257 193.368 281.803 193.56 281.411C193.754 281.018 194.025 280.711 194.372 280.491C194.721 280.27 195.129 280.16 195.596 280.16C195.88 280.16 196.155 280.207 196.421 280.301C196.687 280.395 196.926 280.542 197.138 280.743C197.35 280.944 197.517 281.204 197.639 281.525C197.761 281.844 197.822 282.231 197.822 282.687V283.034H193.825V282.301H196.863C196.863 282.043 196.811 281.815 196.706 281.617C196.601 281.416 196.454 281.258 196.264 281.142C196.076 281.026 195.856 280.969 195.603 280.969C195.328 280.969 195.087 281.036 194.882 281.172C194.679 281.305 194.522 281.479 194.411 281.695C194.302 281.909 194.247 282.142 194.247 282.393V282.966C194.247 283.302 194.306 283.588 194.424 283.823C194.544 284.059 194.711 284.239 194.925 284.363C195.139 284.486 195.389 284.547 195.675 284.547C195.86 284.547 196.029 284.521 196.182 284.468C196.335 284.414 196.467 284.333 196.578 284.226C196.689 284.119 196.775 283.987 196.833 283.83L197.76 283.997C197.686 284.27 197.553 284.509 197.361 284.714C197.171 284.917 196.932 285.075 196.644 285.188C196.358 285.3 196.031 285.355 195.665 285.355ZM201.335 280.225V281.011H198.589V280.225H201.335ZM199.325 279.021H200.304V283.777C200.304 283.967 200.333 284.11 200.389 284.206C200.446 284.3 200.519 284.365 200.609 284.399C200.7 284.432 200.8 284.449 200.907 284.449C200.985 284.449 201.054 284.443 201.113 284.432C201.172 284.421 201.218 284.413 201.25 284.406L201.427 285.215C201.37 285.236 201.29 285.258 201.185 285.28C201.08 285.304 200.949 285.317 200.792 285.319C200.534 285.324 200.294 285.278 200.072 285.182C199.849 285.086 199.669 284.937 199.532 284.737C199.394 284.536 199.325 284.284 199.325 283.98V279.021ZM203.962 285.365C203.643 285.365 203.355 285.306 203.097 285.188C202.84 285.068 202.636 284.895 202.485 284.668C202.337 284.441 202.262 284.163 202.262 283.833C202.262 283.549 202.317 283.316 202.426 283.133C202.535 282.949 202.683 282.804 202.868 282.697C203.054 282.59 203.261 282.509 203.49 282.455C203.719 282.4 203.953 282.359 204.191 282.33C204.492 282.296 204.736 282.267 204.924 282.245C205.112 282.221 205.248 282.183 205.333 282.131C205.418 282.078 205.461 281.993 205.461 281.875V281.853C205.461 281.567 205.38 281.345 205.219 281.188C205.059 281.031 204.821 280.952 204.505 280.952C204.175 280.952 203.916 281.025 203.726 281.172C203.538 281.316 203.408 281.476 203.336 281.653L202.416 281.443C202.525 281.138 202.685 280.891 202.894 280.703C203.106 280.514 203.349 280.376 203.624 280.291C203.899 280.204 204.189 280.16 204.492 280.16C204.693 280.16 204.905 280.184 205.13 280.232C205.357 280.278 205.569 280.363 205.765 280.487C205.964 280.612 206.127 280.79 206.253 281.021C206.38 281.25 206.443 281.548 206.443 281.915V285.254H205.487V284.566H205.448C205.385 284.693 205.29 284.817 205.163 284.94C205.036 285.062 204.874 285.163 204.675 285.244C204.477 285.325 204.239 285.365 203.962 285.365ZM204.174 284.58C204.445 284.58 204.676 284.526 204.868 284.419C205.063 284.312 205.21 284.172 205.31 284C205.413 283.825 205.464 283.639 205.464 283.44V282.792C205.429 282.827 205.362 282.86 205.261 282.89C205.163 282.919 205.051 282.944 204.924 282.966C204.797 282.985 204.674 283.004 204.554 283.021C204.434 283.037 204.334 283.05 204.253 283.061C204.063 283.085 203.89 283.125 203.732 283.182C203.577 283.238 203.453 283.32 203.359 283.427C203.268 283.532 203.222 283.672 203.222 283.846C203.222 284.088 203.311 284.272 203.49 284.396C203.669 284.518 203.897 284.58 204.174 284.58ZM207.827 285.254V280.225H208.806V285.254H207.827ZM208.321 279.45C208.151 279.45 208.005 279.393 207.882 279.279C207.762 279.164 207.702 279.026 207.702 278.867C207.702 278.705 207.762 278.568 207.882 278.454C208.005 278.339 208.151 278.281 208.321 278.281C208.491 278.281 208.636 278.339 208.756 278.454C208.879 278.568 208.94 278.705 208.94 278.867C208.94 279.026 208.879 279.164 208.756 279.279C208.636 279.393 208.491 279.45 208.321 279.45ZM211.181 278.549V285.254H210.202V278.549H211.181ZM216.346 281.453L215.459 281.61C215.422 281.497 215.363 281.389 215.282 281.286C215.204 281.184 215.097 281.1 214.961 281.034C214.826 280.969 214.657 280.936 214.454 280.936C214.177 280.936 213.945 280.998 213.76 281.122C213.574 281.245 213.482 281.403 213.482 281.597C213.482 281.765 213.544 281.901 213.668 282.003C213.793 282.106 213.993 282.19 214.271 282.255L215.069 282.439C215.532 282.545 215.877 282.71 216.104 282.933C216.331 283.155 216.444 283.445 216.444 283.8C216.444 284.102 216.357 284.37 216.182 284.606C216.01 284.839 215.769 285.023 215.459 285.156C215.151 285.289 214.794 285.355 214.388 285.355C213.825 285.355 213.366 285.235 213.01 284.995C212.655 284.753 212.436 284.409 212.356 283.964L213.302 283.82C213.361 284.067 213.482 284.253 213.665 284.38C213.848 284.504 214.087 284.566 214.382 284.566C214.703 284.566 214.959 284.5 215.151 284.367C215.343 284.231 215.439 284.067 215.439 283.872C215.439 283.715 215.38 283.583 215.263 283.476C215.147 283.369 214.969 283.289 214.729 283.234L213.878 283.047C213.409 282.94 213.062 282.77 212.837 282.537C212.614 282.303 212.503 282.007 212.503 281.65C212.503 281.353 212.586 281.093 212.752 280.87C212.918 280.648 213.147 280.474 213.439 280.35C213.732 280.223 214.067 280.16 214.444 280.16C214.988 280.16 215.415 280.278 215.727 280.514C216.04 280.747 216.246 281.06 216.346 281.453Z" fill="#727F96"/>
<g clip-path="url(#clip3_4003_5592)">
<path fill-rule="evenodd" clip-rule="evenodd" d="M221.68 280.034C221.593 279.943 221.545 279.821 221.547 279.695C221.548 279.569 221.599 279.449 221.688 279.36C221.777 279.271 221.898 279.22 222.024 279.219C222.15 279.218 222.271 279.266 222.362 279.353L225.397 282.389C225.487 282.479 225.538 282.602 225.538 282.729C225.538 282.857 225.487 282.979 225.397 283.069L222.362 286.105C222.272 286.196 222.149 286.246 222.021 286.246C221.893 286.246 221.771 286.196 221.68 286.105C221.59 286.015 221.539 285.892 221.539 285.764C221.539 285.636 221.59 285.514 221.68 285.423L224.372 282.728L221.68 280.034Z" fill="#727F96"/>
</g>
</g>
</g>
<g opacity="0.3">
<path d="M4.14258 4.66406H460.143V304.664C460.143 306.873 458.352 308.664 456.143 308.664H8.14259C5.93345 308.664 4.14258 306.873 4.14258 304.664V4.66406Z" fill="url(#paint0_linear_4003_5592)"/>
</g>
</g>
<defs>
<linearGradient id="paint0_linear_4003_5592" x1="232.143" y1="4.66406" x2="232.143" y2="308.664" gradientUnits="userSpaceOnUse">
<stop stop-color="#BEC9DC" stop-opacity="0"/>
<stop offset="1" stop-color="#BEC9DC" stop-opacity="0.4"/>
</linearGradient>
<clipPath id="clip0_4003_5592">
<rect x="4.14258" y="4.66406" width="456" height="304" rx="4" fill="white"/>
</clipPath>
<clipPath id="clip1_4003_5592">
<rect x="4.14258" y="4.66406" width="456" height="304" rx="4" fill="white"/>
</clipPath>
<clipPath id="clip2_4003_5592">
<rect width="456" height="304" fill="white" transform="translate(4.14258 50.2539)"/>
</clipPath>
<clipPath id="clip3_4003_5592">
<rect width="5" height="8" fill="white" transform="translate(221.143 278.754)"/>
</clipPath>
</defs>
</svg>
