<svg width="108" height="41" viewBox="0 0 108 41" fill="none" xmlns="http://www.w3.org/2000/svg">
<rect x="0.142578" y="0.664062" width="107" height="40" rx="4" fill="#F6F9FC"/>
<path d="M16.3921 11.1641C15.7018 11.1641 15.1421 11.7237 15.1421 12.4141V28.8298C15.1421 29.3955 14.7622 29.8907 14.2158 30.0372L28.2157 26.2841C28.7621 26.1377 29.1421 25.6424 29.1421 25.0767V12.4141C29.1421 11.7237 28.5825 11.1641 27.8921 11.1641H16.3921Z" fill="#00D924"/>
<path d="M10.7698 22.9373C10.1719 23.2825 9.96702 24.0469 10.3122 24.6448L13.0507 29.388C13.3336 29.8779 13.9103 30.1168 14.4567 29.9704L27.5303 26.4673L22.4365 17.6448C22.0915 17.0469 21.3269 16.842 20.729 17.1873L10.7698 22.9373Z" fill="url(#paint0_linear_4003_5655)"/>
<path d="M14.3438 29.9951C14.3814 29.9887 14.4191 29.9804 14.4566 29.9704L27.5301 26.4673L22.4363 17.6448C22.0914 17.0469 21.3267 16.842 20.7288 17.1873L15.143 20.4123V28.8292C15.143 29.3499 14.8211 29.8108 14.3438 29.9951Z" fill="url(#paint1_linear_4003_5655)"/>
<path d="M44.3115 16.8459V25.1641H43.0564V16.8459H44.3115ZM47.2561 21.4599V25.1641H46.0417V18.9254H47.2074V19.9408H47.2846C47.4281 19.6105 47.6528 19.3451 47.9588 19.1448C48.2675 18.9444 48.6561 18.8442 49.1245 18.8442C49.5496 18.8442 49.9219 18.9335 50.2414 19.1123C50.5609 19.2883 50.8087 19.5509 50.9847 19.9002C51.1607 20.2495 51.2487 20.6814 51.2487 21.1959V25.1641H50.0343V21.3421C50.0343 20.8899 49.9165 20.5365 49.6809 20.282C49.4454 20.0248 49.1218 19.8962 48.7102 19.8962C48.4286 19.8962 48.1781 19.9571 47.9588 20.0789C47.7422 20.2008 47.5702 20.3795 47.443 20.6151C47.3184 20.8479 47.2561 21.1295 47.2561 21.4599ZM57.991 18.9254L55.7287 25.1641H54.429L52.1626 18.9254H53.4664L55.0463 23.7263H55.1113L56.6872 18.9254H57.991ZM61.5479 25.29C60.9631 25.29 60.4527 25.1559 60.0167 24.8879C59.5808 24.6198 59.2423 24.2448 59.0013 23.7628C58.7603 23.2808 58.6398 22.7176 58.6398 22.0732C58.6398 21.426 58.7603 20.8601 59.0013 20.3754C59.2423 19.8907 59.5808 19.5144 60.0167 19.2463C60.4527 18.9782 60.9631 18.8442 61.5479 18.8442C62.1328 18.8442 62.6432 18.9782 63.0792 19.2463C63.5151 19.5144 63.8536 19.8907 64.0946 20.3754C64.3356 20.8601 64.4561 21.426 64.4561 22.0732C64.4561 22.7176 64.3356 23.2808 64.0946 23.7628C63.8536 24.2448 63.5151 24.6198 63.0792 24.8879C62.6432 25.1559 62.1328 25.29 61.5479 25.29ZM61.552 24.2705C61.9311 24.2705 62.2452 24.1703 62.4943 23.9699C62.7434 23.7696 62.9275 23.5029 63.0467 23.1698C63.1685 22.8368 63.2295 22.4699 63.2295 22.0691C63.2295 21.6711 63.1685 21.3055 63.0467 20.9725C62.9275 20.6367 62.7434 20.3673 62.4943 20.1642C62.2452 19.9611 61.9311 19.8596 61.552 19.8596C61.1702 19.8596 60.8534 19.9611 60.6016 20.1642C60.3525 20.3673 60.167 20.6367 60.0451 20.9725C59.926 21.3055 59.8664 21.6711 59.8664 22.0691C59.8664 22.4699 59.926 22.8368 60.0451 23.1698C60.167 23.5029 60.3525 23.7696 60.6016 23.9699C60.8534 24.1703 61.1702 24.2705 61.552 24.2705ZM65.8116 25.1641V18.9254H67.026V25.1641H65.8116ZM66.4249 17.9628C66.2137 17.9628 66.0323 17.8924 65.8807 17.7516C65.7317 17.6081 65.6573 17.4375 65.6573 17.2399C65.6573 17.0395 65.7317 16.8689 65.8807 16.7281C66.0323 16.5846 66.2137 16.5128 66.4249 16.5128C66.6361 16.5128 66.8162 16.5846 66.9651 16.7281C67.1168 16.8689 67.1926 17.0395 67.1926 17.2399C67.1926 17.4375 67.1168 17.6081 66.9651 17.7516C66.8162 17.8924 66.6361 17.9628 66.4249 17.9628ZM71.2877 25.29C70.6839 25.29 70.164 25.1532 69.728 24.8797C69.2948 24.6036 68.9617 24.2231 68.7289 23.7384C68.496 23.2538 68.3796 22.6987 68.3796 22.0732C68.3796 21.4396 68.4987 20.8804 68.737 20.3957C68.9753 19.9083 69.311 19.5279 69.7443 19.2544C70.1775 18.9809 70.6879 18.8442 71.2755 18.8442C71.7494 18.8442 72.1718 18.9322 72.5427 19.1082C72.9137 19.2815 73.2129 19.5252 73.4403 19.8393C73.6705 20.1534 73.8072 20.5203 73.8506 20.94H72.6686C72.6037 20.6475 72.4547 20.3957 72.2219 20.1845C71.9917 19.9733 71.683 19.8677 71.2958 19.8677C70.9573 19.8677 70.6609 19.9571 70.4063 20.1358C70.1545 20.3118 69.9582 20.5636 69.8174 20.8912C69.6766 21.2162 69.6062 21.6007 69.6062 22.0447C69.6062 22.4996 69.6752 22.8923 69.8133 23.2226C69.9514 23.553 70.1464 23.8088 70.3982 23.9903C70.6527 24.1717 70.9519 24.2624 71.2958 24.2624C71.526 24.2624 71.7345 24.2204 71.9213 24.1365C72.1108 24.0498 72.2692 23.9266 72.3965 23.7669C72.5265 23.6071 72.6172 23.4149 72.6686 23.1901H73.8506C73.8072 23.5936 73.6759 23.9537 73.4566 24.2705C73.2373 24.5873 72.9435 24.8364 72.5752 25.0178C72.2097 25.1993 71.7805 25.29 71.2877 25.29ZM75.1493 25.1641V18.9254H76.3637V25.1641H75.1493ZM75.7626 17.9628C75.5514 17.9628 75.37 17.8924 75.2183 17.7516C75.0694 17.6081 74.9949 17.4375 74.9949 17.2399C74.9949 17.0395 75.0694 16.8689 75.2183 16.7281C75.37 16.5846 75.5514 16.5128 75.7626 16.5128C75.9738 16.5128 76.1538 16.5846 76.3028 16.7281C76.4544 16.8689 76.5302 17.0395 76.5302 17.2399C76.5302 17.4375 76.4544 17.6081 76.3028 17.7516C76.1538 17.8924 75.9738 17.9628 75.7626 17.9628ZM79.2119 21.4599V25.1641H77.9975V18.9254H79.1632V19.9408H79.2403C79.3838 19.6105 79.6086 19.3451 79.9146 19.1448C80.2232 18.9444 80.6118 18.8442 81.0802 18.8442C81.5054 18.8442 81.8777 18.9335 82.1972 19.1123C82.5167 19.2883 82.7645 19.5509 82.9405 19.9002C83.1165 20.2495 83.2045 20.6814 83.2045 21.1959V25.1641H81.99V21.3421C81.99 20.8899 81.8723 20.5365 81.6367 20.282C81.4011 20.0248 81.0775 19.8962 80.666 19.8962C80.3843 19.8962 80.1339 19.9571 79.9146 20.0789C79.6979 20.2008 79.526 20.3795 79.3987 20.6151C79.2742 20.8479 79.2119 21.1295 79.2119 21.4599ZM87.4488 27.6335C86.9533 27.6335 86.5269 27.5685 86.1694 27.4386C85.8147 27.3086 85.525 27.1367 85.3003 26.9227C85.0755 26.7088 84.9076 26.4746 84.7966 26.2201L85.8404 25.7896C85.9136 25.9087 86.011 26.0346 86.1329 26.1673C86.2574 26.3027 86.4253 26.4177 86.6365 26.5125C86.8504 26.6073 87.1253 26.6547 87.461 26.6547C87.9213 26.6547 88.3018 26.5423 88.6023 26.3176C88.9029 26.0955 89.0532 25.7408 89.0532 25.2534V24.0268H88.976C88.9029 24.1595 88.7973 24.3071 88.6592 24.4695C88.5238 24.632 88.337 24.7728 88.0987 24.8919C87.8604 25.0111 87.5504 25.0706 87.1686 25.0706C86.6758 25.0706 86.2317 24.9556 85.8364 24.7254C85.4438 24.4925 85.1324 24.15 84.9022 23.6978C84.6748 23.2429 84.561 22.6838 84.561 22.0204C84.561 21.357 84.6734 20.7884 84.8982 20.3145C85.1256 19.8406 85.437 19.4778 85.8323 19.226C86.2277 18.9715 86.6758 18.8442 87.1767 18.8442C87.5639 18.8442 87.8767 18.9092 88.115 19.0392C88.3532 19.1664 88.5387 19.3153 88.6714 19.4859C88.8068 19.6565 88.911 19.8068 88.9841 19.9368H89.0735V18.9254H90.2635V25.3022C90.2635 25.8383 90.139 26.2783 89.8899 26.6222C89.6408 26.9661 89.3037 27.2206 88.8785 27.3858C88.4561 27.5509 87.9796 27.6335 87.4488 27.6335ZM87.4367 24.0634C87.786 24.0634 88.0811 23.9821 88.3221 23.8197C88.5658 23.6545 88.7499 23.4189 88.8745 23.1129C89.0017 22.8043 89.0654 22.4347 89.0654 22.0041C89.0654 21.5844 89.0031 21.2148 88.8785 20.8953C88.754 20.5758 88.5712 20.3267 88.3302 20.148C88.0892 19.9666 87.7914 19.8758 87.4367 19.8758C87.0711 19.8758 86.7665 19.9706 86.5228 20.1602C86.2791 20.347 86.095 20.6015 85.9704 20.9237C85.8486 21.246 85.7876 21.6061 85.7876 22.0041C85.7876 22.413 85.8499 22.7718 85.9745 23.0805C86.099 23.3891 86.2832 23.6301 86.5269 23.8034C86.7733 23.9767 87.0765 24.0634 87.4367 24.0634Z" fill="#2E3A55"/>
<defs>
<linearGradient id="paint0_linear_4003_5655" x1="18.8379" y1="20.7885" x2="18.8377" y2="29.6635" gradientUnits="userSpaceOnUse">
<stop stop-color="#FFD748"/>
<stop offset="1" stop-color="#FFC148"/>
</linearGradient>
<linearGradient id="paint1_linear_4003_5655" x1="20.9373" y1="17.0196" x2="20.9369" y2="29.9951" gradientUnits="userSpaceOnUse">
<stop stop-color="#00A600"/>
<stop offset="1" stop-color="#00D924"/>
</linearGradient>
</defs>
</svg>
