<svg width="87" height="41" viewBox="0 0 87 41" fill="none" xmlns="http://www.w3.org/2000/svg">
<rect x="0.142578" y="0.673828" width="86" height="40" rx="4" fill="#F6F9FC"/>
<mask id="mask0_4003_5349" style="mask-type:luminance" maskUnits="userSpaceOnUse" x="10" y="10" width="21" height="21">
<path d="M10.1426 10.6738H30.1426V30.6738H10.1426V10.6738Z" fill="white"/>
</mask>
<g mask="url(#mask0_4003_5349)">
<path d="M20.3973 10.8242C20.8973 10.8242 21.3573 11.1092 21.5773 11.5592L25.6873 19.7692L30.0123 28.4242C30.1 28.5984 30.1479 28.7899 30.1528 28.9848C30.1576 29.1797 30.1192 29.3733 30.0404 29.5516C29.9615 29.7299 29.8441 29.8886 29.6966 30.0161C29.5491 30.1437 29.3751 30.2369 29.1873 30.2892L29.1023 30.3092C29.0423 30.3242 28.9823 30.3292 28.9223 30.3342H28.8323L20.3923 28.6692L15.1123 19.7692L19.2123 11.5592C19.3219 11.3376 19.4916 11.1511 19.702 11.0212C19.9123 10.8912 20.155 10.823 20.4023 10.8242H20.3973Z" fill="#FFBB00"/>
<path d="M20.3973 10.8242C20.8973 10.8242 21.3573 11.1092 21.5773 11.5592L25.6873 19.7692L20.3923 28.6642L11.9673 30.3392C11.7413 30.3404 11.5188 30.2835 11.3211 30.174C11.1234 30.0645 10.9571 29.906 10.8382 29.7138C10.7192 29.5216 10.6516 29.3021 10.6419 29.0763C10.6321 28.8505 10.6805 28.626 10.7823 28.4242L15.1123 19.7742L19.2123 11.5592C19.3219 11.3376 19.4916 11.1511 19.702 11.0212C19.9124 10.8912 20.1551 10.823 20.4023 10.8242H20.3973Z" fill="url(#paint0_linear_4003_5349)"/>
<path d="M20.3973 10.8242C20.8973 10.8242 21.3573 11.1092 21.5773 11.5592L25.6873 19.7692L20.3923 28.6642L15.1123 19.7692L19.2123 11.5592C19.3148 11.3508 19.4704 11.173 19.6636 11.044C19.8567 10.9149 20.0805 10.8391 20.3123 10.8242H20.4023H20.3973Z" fill="url(#paint1_linear_4003_5349)"/>
</g>
<path d="M43.7326 25.1738H42.4222L45.3666 16.992H46.7928L49.7371 25.1738H48.4268L46.1136 18.4782H46.0497L43.7326 25.1738ZM43.9523 21.9698H48.203V23.0085H43.9523V21.9698ZM53.3027 19.0375V19.9963H49.9509V19.0375H53.3027ZM50.8497 17.5673H52.0443V23.3721C52.0443 23.6038 52.0789 23.7782 52.1481 23.8954C52.2174 24.0099 52.3066 24.0885 52.4158 24.1311C52.5277 24.1711 52.6488 24.1911 52.7793 24.1911C52.8752 24.1911 52.9591 24.1844 53.031 24.1711C53.1029 24.1578 53.1589 24.1471 53.1988 24.1391L53.4146 25.1259C53.3453 25.1525 53.2468 25.1792 53.1189 25.2058C52.9911 25.2351 52.8313 25.2511 52.6395 25.2537C52.3252 25.2591 52.0323 25.2031 51.7606 25.0859C51.4889 24.9688 51.2692 24.7876 51.1014 24.5426C50.9336 24.2976 50.8497 23.99 50.8497 23.6198V17.5673ZM55.9504 16.992V25.1738H54.7559V16.992H55.9504ZM59.3432 25.3097C58.9543 25.3097 58.6028 25.2377 58.2885 25.0939C57.9742 24.9474 57.7252 24.7357 57.5414 24.4587C57.3603 24.1817 57.2698 23.8422 57.2698 23.44C57.2698 23.0937 57.3363 22.8088 57.4695 22.585C57.6027 22.3613 57.7824 22.1842 58.0088 22.0537C58.2352 21.9232 58.4882 21.8247 58.7679 21.7581C59.0475 21.6915 59.3325 21.6409 59.6228 21.6063C59.9904 21.5637 60.2887 21.529 60.5177 21.5024C60.7468 21.4731 60.9132 21.4265 61.0171 21.3626C61.121 21.2987 61.1729 21.1948 61.1729 21.051V21.023C61.1729 20.6741 61.0744 20.4038 60.8773 20.212C60.6828 20.0202 60.3925 19.9244 60.0063 19.9244C59.6042 19.9244 59.2872 20.0136 59.0555 20.192C58.8265 20.3678 58.668 20.5636 58.5801 20.7793L57.4575 20.5236C57.5907 20.1507 57.7851 19.8498 58.0408 19.6207C58.2991 19.389 58.5961 19.2212 58.9317 19.1174C59.2673 19.0108 59.6202 18.9576 59.9904 18.9576C60.2354 18.9576 60.4951 18.9869 60.7694 19.0455C61.0464 19.1014 61.3047 19.2053 61.5444 19.3571C61.7868 19.5089 61.9852 19.7259 62.1397 20.0083C62.2942 20.2879 62.3714 20.6515 62.3714 21.0989V25.1738H61.2049V24.3349H61.1569C61.0797 24.4893 60.9638 24.6412 60.8093 24.7903C60.6549 24.9395 60.4565 25.0633 60.2141 25.1618C59.9717 25.2604 59.6814 25.3097 59.3432 25.3097ZM59.6028 24.3509C59.9331 24.3509 60.2154 24.2856 60.4498 24.1551C60.6868 24.0246 60.8666 23.8541 60.9891 23.6437C61.1143 23.4307 61.1769 23.2029 61.1769 22.9606V22.1696C61.1343 22.2122 61.0517 22.2521 60.9292 22.2894C60.8093 22.324 60.6722 22.3547 60.5177 22.3813C60.3632 22.4053 60.2128 22.4279 60.0663 22.4492C59.9198 22.4679 59.7973 22.4838 59.6987 22.4972C59.467 22.5265 59.2553 22.5757 59.0635 22.645C58.8744 22.7142 58.7226 22.8141 58.6081 22.9446C58.4962 23.0724 58.4403 23.2429 58.4403 23.456C58.4403 23.7516 58.5495 23.9753 58.7679 24.1271C58.9863 24.2763 59.2646 24.3509 59.6028 24.3509ZM68.5607 20.5356L67.478 20.7274C67.4328 20.5889 67.3609 20.457 67.2623 20.3319C67.1664 20.2067 67.0359 20.1041 66.8708 20.0242C66.7057 19.9443 66.4993 19.9044 66.2516 19.9044C65.9133 19.9044 65.631 19.9803 65.4046 20.1321C65.1782 20.2812 65.0651 20.4743 65.0651 20.7114C65.0651 20.9165 65.141 21.0816 65.2928 21.2068C65.4446 21.3319 65.6896 21.4345 66.0279 21.5144L67.0026 21.7381C67.5673 21.8686 67.9881 22.0697 68.2651 22.3414C68.5421 22.613 68.6806 22.9659 68.6806 23.4C68.6806 23.7676 68.574 24.0952 68.361 24.3828C68.1505 24.6678 67.8562 24.8915 67.478 25.054C67.1025 25.2164 66.6671 25.2977 66.1717 25.2977C65.4845 25.2977 64.9239 25.1512 64.4898 24.8582C64.0556 24.5626 63.7893 24.1431 63.6908 23.5998L64.8453 23.424C64.9172 23.725 65.0651 23.9527 65.2888 24.1072C65.5125 24.259 65.8041 24.3349 66.1637 24.3349C66.5552 24.3349 66.8681 24.2536 67.1025 24.0912C67.3369 23.926 67.4541 23.725 67.4541 23.4879C67.4541 23.2962 67.3822 23.135 67.2383 23.0045C67.0972 22.874 66.8801 22.7755 66.5872 22.7089L65.5485 22.4812C64.9758 22.3507 64.5524 22.1429 64.278 21.858C64.0064 21.573 63.8705 21.2121 63.8705 20.7753C63.8705 20.4131 63.9717 20.0961 64.1742 19.8245C64.3766 19.5528 64.6562 19.3411 65.0131 19.1893C65.37 19.0348 65.7788 18.9576 66.2396 18.9576C66.9028 18.9576 67.4248 19.1014 67.8056 19.389C68.1865 19.674 68.4382 20.0562 68.5607 20.5356Z" fill="#2E3A55"/>
<defs>
<linearGradient id="paint0_linear_4003_5349" x1="18.1573" y1="19.6792" x2="18.1123" y2="30.3392" gradientUnits="userSpaceOnUse">
<stop stop-color="#FFD748"/>
<stop offset="0.54" stop-color="#FFCD48"/>
<stop offset="1" stop-color="#FFCB48"/>
</linearGradient>
<linearGradient id="paint1_linear_4003_5349" x1="20.3973" y1="28.0342" x2="20.3973" y2="18.1792" gradientUnits="userSpaceOnUse">
<stop stop-color="#FFAD00"/>
<stop offset="1" stop-color="#FF7600"/>
</linearGradient>
</defs>
</svg>
