<svg width="136" height="41" viewBox="0 0 136 41" fill="none" xmlns="http://www.w3.org/2000/svg">
<rect x="0.142578" y="0.673828" width="135" height="40" rx="4" fill="#F6F9FC"/>
<path d="M15.9227 18.7787C15.7584 18.3606 16.0666 17.9082 16.5158 17.9082H24.4072C24.4072 18.0665 24.3777 18.2247 24.3188 18.3746L22.565 22.8354C22.3733 23.323 21.9028 23.6436 21.3789 23.6436H17.788C17.788 23.5645 17.7732 23.4853 17.7438 23.4104L15.9227 18.7787Z" fill="url(#paint0_linear_4003_5578)"/>
<path d="M10.1874 13.0443C10.023 12.6262 10.3312 12.1738 10.7805 12.1738H17.4923C17.5016 12.1738 17.5108 12.174 17.5199 12.1744C17.5328 12.174 17.5458 12.1738 17.5588 12.1738H21.3789C21.9028 12.1738 22.3733 12.4944 22.565 12.982L24.3188 17.4428C24.3778 17.5927 24.4072 17.7509 24.4072 17.9092H16.5158C16.0666 17.9092 15.7584 18.3615 15.9227 18.7796L17.7438 23.4114C17.7732 23.4863 17.788 23.5654 17.788 23.6445H10.7805C10.3312 23.6445 10.023 23.1922 10.1874 22.7741L12.0084 18.1424C12.0673 17.9925 12.0673 17.8259 12.0084 17.676L10.1874 13.0443Z" fill="url(#paint1_linear_4003_5578)"/>
<path fill-rule="evenodd" clip-rule="evenodd" d="M17.788 23.6436C17.788 23.7227 17.7732 23.8018 17.7438 23.8768L15.9227 28.5085C15.7584 28.9266 16.0666 29.3789 16.5158 29.3789H27.1142C27.6381 29.3789 28.1087 29.0583 28.3004 28.5708L30.0542 24.1099C30.172 23.8102 30.172 23.477 30.0542 23.1772L28.3004 18.7164C28.1087 18.2288 27.6381 17.9082 27.1142 17.9082H24.4072C24.4072 18.0665 24.3777 18.2247 24.3188 18.3746L22.565 22.8354C22.3733 23.323 21.9028 23.6436 21.3789 23.6436H17.788Z" fill="#9966FF"/>
<path d="M43.0265 25.1738V17.1284H45.8942C46.5202 17.1284 47.0387 17.2423 47.4499 17.4701C47.8611 17.698 48.1688 18.0097 48.3731 18.4051C48.5774 18.798 48.6795 19.2406 48.6795 19.7329C48.6795 20.2279 48.5761 20.6731 48.3692 21.0686C48.1649 21.4614 47.8558 21.7731 47.4421 22.0036C47.0309 22.2314 46.5136 22.3453 45.8903 22.3453H43.9182V21.3161H45.7803C46.1758 21.3161 46.4966 21.248 46.7428 21.1118C46.989 20.973 47.1697 20.7844 47.2849 20.5461C47.4001 20.3078 47.4578 20.0367 47.4578 19.7329C47.4578 19.4291 47.4001 19.1594 47.2849 18.9237C47.1697 18.688 46.9877 18.5033 46.7389 18.3698C46.4927 18.2362 46.1679 18.1694 45.7646 18.1694H44.2404V25.1738H43.0265ZM51.7103 25.3074C51.3279 25.3074 50.9822 25.2367 50.6732 25.0953C50.3642 24.9512 50.1193 24.743 49.9386 24.4706C49.7605 24.1983 49.6714 23.8643 49.6714 23.4689C49.6714 23.1284 49.7369 22.8482 49.8679 22.6282C49.9988 22.4082 50.1756 22.234 50.3982 22.1057C50.6208 21.9774 50.8696 21.8805 51.1446 21.815C51.4196 21.7495 51.6998 21.6998 51.9853 21.6657C52.3467 21.6238 52.64 21.5898 52.8653 21.5636C53.0905 21.5348 53.2542 21.4889 53.3563 21.4261C53.4585 21.3632 53.5095 21.2611 53.5095 21.1197V21.0922C53.5095 20.7491 53.4126 20.4833 53.2188 20.2947C53.0276 20.1061 52.7422 20.0119 52.3624 20.0119C51.967 20.0119 51.6553 20.0996 51.4275 20.2751C51.2022 20.4479 51.0464 20.6404 50.96 20.8525L49.8561 20.6011C49.987 20.2345 50.1782 19.9385 50.4296 19.7133C50.6837 19.4854 50.9757 19.3204 51.3057 19.2183C51.6357 19.1135 51.9827 19.0612 52.3467 19.0612C52.5877 19.0612 52.843 19.09 53.1128 19.1476C53.3851 19.2026 53.6392 19.3047 53.8749 19.454C54.1132 19.6033 54.3083 19.8167 54.4602 20.0943C54.6121 20.3693 54.6881 20.7268 54.6881 21.1668V25.1738H53.541V24.3489H53.4938C53.4179 24.5008 53.3039 24.65 53.152 24.7967C53.0001 24.9434 52.805 25.0651 52.5667 25.162C52.3284 25.2589 52.0429 25.3074 51.7103 25.3074ZM51.9657 24.3646C52.2904 24.3646 52.568 24.3004 52.7985 24.1721C53.0316 24.0437 53.2084 23.8761 53.3288 23.6692C53.4519 23.4597 53.5135 23.2358 53.5135 22.9975V22.2196C53.4716 22.2615 53.3904 22.3008 53.2699 22.3375C53.152 22.3715 53.0172 22.4017 52.8653 22.4278C52.7134 22.4514 52.5654 22.4737 52.4214 22.4946C52.2773 22.513 52.1568 22.5287 52.0599 22.5418C51.8321 22.5706 51.6239 22.619 51.4353 22.6871C51.2494 22.7552 51.1001 22.8534 50.9875 22.9818C50.8775 23.1075 50.8225 23.2751 50.8225 23.4846C50.8225 23.7753 50.9299 23.9953 51.1446 24.1446C51.3594 24.2912 51.633 24.3646 51.9657 24.3646ZM56.779 27.4366C56.6035 27.4366 56.4438 27.4222 56.2997 27.3934C56.1557 27.3672 56.0483 27.3384 55.9776 27.307L56.2604 26.3445C56.4752 26.4021 56.6664 26.427 56.834 26.4191C57.0016 26.4113 57.1496 26.3484 57.2779 26.2306C57.4088 26.1127 57.5241 25.9202 57.6236 25.6531L57.7689 25.2524L55.5612 19.1397H56.8183L58.3464 23.8224H58.4093L59.9375 19.1397H61.1985L58.7118 25.9792C58.5965 26.2934 58.4499 26.5593 58.2718 26.7766C58.0937 26.9966 57.8816 27.1616 57.6354 27.2716C57.3892 27.3816 57.1037 27.4366 56.779 27.4366ZM62.3024 25.1738V19.1397H63.4298V20.1218H63.5045C63.6302 19.7892 63.8358 19.53 64.1212 19.344C64.4067 19.1555 64.7485 19.0612 65.1466 19.0612C65.5499 19.0612 65.8877 19.1555 66.1601 19.344C66.4351 19.5326 66.6381 19.7919 66.769 20.1218H66.8319C66.9759 19.7997 67.2051 19.5431 67.5193 19.3519C67.8336 19.1581 68.2081 19.0612 68.6429 19.0612C69.1902 19.0612 69.6368 19.2327 69.9825 19.5758C70.3308 19.9189 70.505 20.4361 70.505 21.1275V25.1738H69.3304V21.2375C69.3304 20.829 69.2191 20.533 68.9964 20.3497C68.7738 20.1664 68.508 20.0747 68.199 20.0747C67.8166 20.0747 67.5193 20.1926 67.3072 20.4283C67.0951 20.6614 66.989 20.9612 66.989 21.3279V25.1738H65.8183V21.1629C65.8183 20.8355 65.7162 20.5723 65.5119 20.3733C65.3076 20.1742 65.0418 20.0747 64.7144 20.0747C64.4918 20.0747 64.2862 20.1336 64.0977 20.2515C63.9117 20.3667 63.7611 20.5278 63.6459 20.7347C63.5333 20.9416 63.477 21.1812 63.477 21.4536V25.1738H62.3024ZM74.6799 25.2956C74.0854 25.2956 73.5734 25.1686 73.1439 24.9146C72.717 24.6579 72.387 24.2978 72.1539 23.8342C71.9235 23.3681 71.8082 22.822 71.8082 22.1961C71.8082 21.578 71.9235 21.0332 72.1539 20.5618C72.387 20.0904 72.7118 19.7225 73.1282 19.4579C73.5472 19.1934 74.037 19.0612 74.5974 19.0612C74.9379 19.0612 75.2679 19.1175 75.5874 19.2301C75.9069 19.3427 76.1937 19.5195 76.4477 19.7604C76.7018 20.0014 76.9021 20.3143 77.0488 20.6993C77.1954 21.0817 77.2688 21.5466 77.2688 22.0939V22.5103H72.4721V21.6304H76.1177C76.1177 21.3213 76.0549 21.0477 75.9292 20.8093C75.8035 20.5684 75.6267 20.3785 75.3988 20.2397C75.1736 20.1009 74.9091 20.0315 74.6053 20.0315C74.2753 20.0315 73.9872 20.1127 73.741 20.2751C73.4975 20.4348 73.3089 20.6443 73.1753 20.9036C73.0444 21.1603 72.9789 21.4392 72.9789 21.7404V22.4278C72.9789 22.8312 73.0496 23.1742 73.191 23.4571C73.3351 23.7399 73.5354 23.956 73.7921 24.1053C74.0488 24.252 74.3486 24.3253 74.6917 24.3253C74.9143 24.3253 75.1173 24.2939 75.3006 24.231C75.4839 24.1655 75.6424 24.0686 75.776 23.9403C75.9095 23.812 76.0117 23.6535 76.0824 23.465L77.1941 23.6653C77.1051 23.9927 76.9453 24.2795 76.7149 24.5256C76.487 24.7692 76.2002 24.9591 75.8545 25.0953C75.5114 25.2288 75.1199 25.2956 74.6799 25.2956ZM79.7466 21.5911V25.1738H78.572V19.1397H79.6995V20.1218H79.7741C79.9129 19.8023 80.1303 19.5457 80.4263 19.3519C80.7248 19.1581 81.1006 19.0612 81.5537 19.0612C81.9649 19.0612 82.325 19.1476 82.634 19.3204C82.9431 19.4907 83.1827 19.7447 83.3529 20.0826C83.5232 20.4204 83.6083 20.8381 83.6083 21.3357V25.1738H82.4337V21.4772C82.4337 21.0398 82.3198 20.698 82.0919 20.4518C81.8641 20.203 81.5511 20.0786 81.153 20.0786C80.8806 20.0786 80.6384 20.1376 80.4263 20.2554C80.2167 20.3733 80.0504 20.5461 79.9273 20.774C79.8069 20.9992 79.7466 21.2716 79.7466 21.5911ZM88.0003 19.1397V20.0826H84.7043V19.1397H88.0003ZM85.5882 17.6941H86.7628V23.4021C86.7628 23.6299 86.7969 23.8015 86.865 23.9167C86.9331 24.0293 87.0208 24.1066 87.1282 24.1485C87.2382 24.1878 87.3573 24.2074 87.4857 24.2074C87.58 24.2074 87.6624 24.2009 87.7332 24.1878C87.8039 24.1747 87.8589 24.1642 87.8982 24.1564L88.1103 25.1267C88.0422 25.1529 87.9453 25.1791 87.8196 25.2053C87.6939 25.2341 87.5367 25.2498 87.3482 25.2524C87.0391 25.2576 86.751 25.2026 86.4839 25.0874C86.2168 24.9722 86.0007 24.7941 85.8357 24.5531C85.6707 24.3122 85.5882 24.0097 85.5882 23.6457V17.6941ZM92.3216 25.1738V17.1284H93.5355V24.1289H97.1811V25.1738H92.3216ZM98.4716 25.1738V19.1397H99.6462V25.1738H98.4716ZM99.0648 18.2087C98.8605 18.2087 98.685 18.1406 98.5383 18.0044C98.3943 17.8656 98.3223 17.7006 98.3223 17.5094C98.3223 17.3156 98.3943 17.1506 98.5383 17.0144C98.685 16.8756 98.8605 16.8062 99.0648 16.8062C99.269 16.8062 99.4432 16.8756 99.5872 17.0144C99.7339 17.1506 99.8072 17.3156 99.8072 17.5094C99.8072 17.7006 99.7339 17.8656 99.5872 18.0044C99.4432 18.1406 99.269 18.2087 99.0648 18.2087ZM102.401 21.5911V25.1738H101.226V19.1397H102.354V20.1218H102.428C102.567 19.8023 102.785 19.5457 103.081 19.3519C103.379 19.1581 103.755 19.0612 104.208 19.0612C104.619 19.0612 104.979 19.1476 105.288 19.3204C105.597 19.4907 105.837 19.7447 106.007 20.0826C106.178 20.4204 106.263 20.8381 106.263 21.3357V25.1738H105.088V21.4772C105.088 21.0398 104.974 20.698 104.746 20.4518C104.518 20.203 104.205 20.0786 103.807 20.0786C103.535 20.0786 103.293 20.1376 103.081 20.2554C102.871 20.3733 102.705 20.5461 102.582 20.774C102.461 20.9992 102.401 21.2716 102.401 21.5911ZM108.918 23.1271L108.91 21.6932H109.115L111.519 19.1397H112.925L110.183 22.0468H109.999L108.918 23.1271ZM107.838 25.1738V17.1284H109.013V25.1738H107.838ZM111.649 25.1738L109.488 22.3061L110.297 21.485L113.09 25.1738H111.649ZM118.517 20.6129L117.453 20.8015C117.408 20.6653 117.338 20.5356 117.241 20.4126C117.146 20.2895 117.018 20.1886 116.856 20.1101C116.693 20.0315 116.49 19.9922 116.247 19.9922C115.914 19.9922 115.637 20.0668 115.414 20.2161C115.191 20.3628 115.08 20.5527 115.08 20.7858C115.08 20.9874 115.155 21.1498 115.304 21.2729C115.453 21.396 115.694 21.4968 116.027 21.5754L116.985 21.7954C117.541 21.9237 117.954 22.1214 118.227 22.3886C118.499 22.6557 118.635 23.0027 118.635 23.4296C118.635 23.791 118.531 24.1131 118.321 24.396C118.114 24.6762 117.825 24.8962 117.453 25.056C117.084 25.2157 116.655 25.2956 116.168 25.2956C115.493 25.2956 114.941 25.1516 114.514 24.8635C114.087 24.5728 113.826 24.1603 113.729 23.626L114.864 23.4532C114.935 23.7491 115.08 23.973 115.3 24.1249C115.52 24.2742 115.807 24.3489 116.16 24.3489C116.545 24.3489 116.853 24.269 117.084 24.1092C117.314 23.9468 117.429 23.7491 117.429 23.516C117.429 23.3275 117.359 23.169 117.217 23.0407C117.078 22.9124 116.865 22.8155 116.577 22.75L115.555 22.5261C114.992 22.3977 114.576 22.1934 114.306 21.9132C114.039 21.633 113.905 21.2781 113.905 20.8486C113.905 20.4924 114.005 20.1808 114.204 19.9136C114.403 19.6465 114.678 19.4383 115.029 19.289C115.38 19.1371 115.782 19.0612 116.235 19.0612C116.887 19.0612 117.4 19.2026 117.775 19.4854C118.149 19.7657 118.397 20.1415 118.517 20.6129Z" fill="#2E3A55"/>
<defs>
<linearGradient id="paint0_linear_4003_5578" x1="17.1737" y1="23.0063" x2="24.8208" y2="16.9523" gradientUnits="userSpaceOnUse">
<stop stop-color="#0048E5"/>
<stop offset="0.63979" stop-color="#625AF5"/>
<stop offset="1" stop-color="#8A62FC"/>
</linearGradient>
<linearGradient id="paint1_linear_4003_5578" x1="17.2749" y1="12.9271" x2="17.1737" y2="23.0073" gradientUnits="userSpaceOnUse">
<stop stop-color="#11EFE3"/>
<stop offset="0.33" stop-color="#15E8E2"/>
<stop offset="0.74" stop-color="#1FD3E0"/>
<stop offset="1" stop-color="#21CFE0"/>
</linearGradient>
</defs>
</svg>
