<svg width="110" height="41" viewBox="0 0 110 41" fill="none" xmlns="http://www.w3.org/2000/svg">
<rect x="0.142578" y="0.664062" width="109" height="40" rx="4" fill="#F6F9FC"/>
<path d="M25.9126 12.6641H16.0626C15.6426 12.6641 15.2476 12.8791 15.0176 13.2341C14.9045 13.4101 14.8371 13.6115 14.8214 13.8202C14.8057 14.0288 14.8422 14.2381 14.9276 14.4291L17.4776 20.1591C17.6276 20.4791 17.6276 20.8491 17.4776 21.1691L14.1426 28.6641H25.9126C26.3976 28.6641 26.8426 28.3741 27.0426 27.9241L30.0326 21.1741C30.1826 20.8491 30.1826 20.4791 30.0326 20.1541L27.0426 13.4041C26.9459 13.1847 26.7877 12.998 26.5872 12.8667C26.3866 12.7354 26.1523 12.665 25.9126 12.6641Z" fill="#9966FF"/>
<path d="M13.7577 28.6641C13.5883 28.6639 13.4209 28.6264 13.2677 28.5541H13.2877C13.0138 28.432 12.7948 28.2129 12.6727 27.9391L10.2527 22.4291C10.1683 22.2389 10.132 22.031 10.1468 21.8235C10.1616 21.616 10.2272 21.4153 10.3377 21.2391C10.4476 21.0636 10.6001 20.9188 10.7811 20.8182C10.9621 20.7177 11.1657 20.6646 11.3727 20.6641H21.1227C21.6077 20.6641 22.0427 20.9491 22.2377 21.3941L24.6377 26.8191L24.9777 27.5841C25.0277 27.6941 25.0927 27.7941 25.1677 27.8841C25.4127 28.2041 25.7677 28.5341 26.1577 28.6391C26.1027 28.6541 26.0077 28.6641 25.8827 28.6641H13.7527H13.7577Z" fill="url(#paint0_linear_4003_5449)"/>
<path d="M21.1276 20.6632C21.5776 20.6632 21.9876 20.9132 22.1976 21.3132L22.2376 21.3932L24.6376 26.8182L24.9776 27.5832C25.2296 28.0439 25.6372 28.4001 26.1276 28.5882L26.2176 28.6232C26.1176 28.6482 26.0176 28.6632 25.9126 28.6632H14.1426L17.4776 21.1632C17.5526 21.0032 17.5876 20.8332 17.5876 20.6582H21.1276V20.6632Z" fill="url(#paint1_linear_4003_5449)"/>
<path d="M49.7088 19.735H48.4831C48.4359 19.4731 48.3482 19.2426 48.2199 19.0435C48.0916 18.8445 47.9344 18.6756 47.7485 18.5368C47.5625 18.398 47.3543 18.2932 47.1238 18.2225C46.896 18.1518 46.6537 18.1164 46.3971 18.1164C45.9335 18.1164 45.5184 18.233 45.1518 18.4661C44.7877 18.6992 44.4996 19.0409 44.2875 19.4914C44.078 19.9418 43.9732 20.4918 43.9732 21.1413C43.9732 21.7961 44.078 22.3487 44.2875 22.7991C44.4996 23.2496 44.789 23.5901 45.1557 23.8205C45.5224 24.051 45.9348 24.1662 46.3932 24.1662C46.6472 24.1662 46.8881 24.1322 47.116 24.0641C47.3465 23.9934 47.5547 23.8899 47.7406 23.7538C47.9266 23.6176 48.0837 23.4513 48.212 23.2548C48.343 23.0558 48.4333 22.8279 48.4831 22.5713L49.7088 22.5752C49.6433 22.9707 49.5163 23.3347 49.3277 23.6673C49.1418 23.9973 48.9021 24.2828 48.6088 24.5237C48.3181 24.7621 47.9855 24.9467 47.611 25.0776C47.2365 25.2086 46.8279 25.2741 46.3853 25.2741C45.6887 25.2741 45.068 25.1091 44.5232 24.7791C43.9785 24.4465 43.549 23.9711 43.2347 23.353C42.923 22.735 42.7672 21.9977 42.7672 21.1413C42.7672 20.2823 42.9243 19.5451 43.2386 18.9296C43.5529 18.3115 43.9824 17.8375 44.5271 17.5075C45.0719 17.1749 45.6913 17.0086 46.3853 17.0086C46.8122 17.0086 47.2103 17.0702 47.5795 17.1932C47.9514 17.3137 48.2854 17.4918 48.5813 17.7275C48.8772 17.9606 49.1221 18.2461 49.3159 18.5839C49.5097 18.9191 49.6407 19.3028 49.7088 19.735ZM52.2416 21.5813V25.1641H51.067V17.1186H52.2259V20.1121H52.3006C52.442 19.7873 52.658 19.5294 52.9487 19.3382C53.2395 19.147 53.6192 19.0514 54.088 19.0514C54.5018 19.0514 54.8632 19.1365 55.1722 19.3068C55.4839 19.477 55.7248 19.731 55.8951 20.0689C56.0679 20.4041 56.1544 20.8231 56.1544 21.326V25.1641H54.9798V21.4674C54.9798 21.0248 54.8658 20.6817 54.638 20.4381C54.4101 20.192 54.0932 20.0689 53.6873 20.0689C53.4097 20.0689 53.1609 20.1278 52.9409 20.2456C52.7235 20.3635 52.552 20.5364 52.4263 20.7642C52.3032 20.9894 52.2416 21.2618 52.2416 21.5813ZM60.3224 25.2858C59.7279 25.2858 59.2159 25.1588 58.7864 24.9048C58.3595 24.6481 58.0295 24.288 57.7964 23.8245C57.566 23.3583 57.4507 22.8122 57.4507 22.1863C57.4507 21.5682 57.566 21.0235 57.7964 20.5521C58.0295 20.0807 58.3543 19.7127 58.7707 19.4482C59.1897 19.1837 59.6795 19.0514 60.2399 19.0514C60.5804 19.0514 60.9104 19.1077 61.2299 19.2203C61.5494 19.3329 61.8362 19.5097 62.0902 19.7507C62.3443 19.9916 62.5446 20.3046 62.6913 20.6896C62.838 21.0719 62.9113 21.5368 62.9113 22.0842V22.5006H58.1147V21.6206H61.7602C61.7602 21.3116 61.6974 21.0379 61.5717 20.7996C61.446 20.5586 61.2692 20.3687 61.0413 20.2299C60.8161 20.0911 60.5516 20.0217 60.2478 20.0217C59.9178 20.0217 59.6297 20.1029 59.3835 20.2653C59.14 20.425 58.9514 20.6346 58.8178 20.8938C58.6869 21.1505 58.6214 21.4294 58.6214 21.7306V22.4181C58.6214 22.8214 58.6921 23.1645 58.8336 23.4473C58.9776 23.7302 59.178 23.9462 59.4346 24.0955C59.6913 24.2422 59.9911 24.3155 60.3342 24.3155C60.5568 24.3155 60.7598 24.2841 60.9431 24.2212C61.1265 24.1558 61.2849 24.0589 61.4185 23.9305C61.552 23.8022 61.6542 23.6438 61.7249 23.4552L62.8366 23.6555C62.7476 23.9829 62.5878 24.2697 62.3574 24.5159C62.1295 24.7594 61.8427 24.9493 61.497 25.0855C61.154 25.2191 60.7624 25.2858 60.3224 25.2858ZM66.7562 25.2858C66.1722 25.2858 65.6694 25.1536 65.2477 24.8891C64.8287 24.6219 64.5066 24.254 64.2813 23.7852C64.0561 23.3164 63.9435 22.7795 63.9435 22.1745C63.9435 21.5617 64.0587 21.0209 64.2892 20.5521C64.5197 20.0807 64.8444 19.7127 65.2634 19.4482C65.6825 19.1837 66.1761 19.0514 66.7445 19.0514C67.2028 19.0514 67.6113 19.1365 67.9701 19.3068C68.3289 19.4744 68.6183 19.7101 68.8383 20.0139C69.0609 20.3177 69.1932 20.6725 69.2351 21.0785H68.0919C68.0291 20.7956 67.885 20.5521 67.6598 20.3478C67.4372 20.1435 67.1386 20.0414 66.7641 20.0414C66.4367 20.0414 66.15 20.1278 65.9038 20.3006C65.6602 20.4709 65.4703 20.7144 65.3342 21.0313C65.198 21.3456 65.1299 21.7175 65.1299 22.147C65.1299 22.587 65.1967 22.9668 65.3302 23.2863C65.4638 23.6058 65.6524 23.8533 65.8959 24.0287C66.1421 24.2042 66.4315 24.2919 66.7641 24.2919C66.9867 24.2919 67.1884 24.2514 67.3691 24.1702C67.5524 24.0864 67.7056 23.9672 67.8287 23.8127C67.9544 23.6582 68.0422 23.4722 68.0919 23.2548H69.2351C69.1932 23.6451 69.0662 23.9934 68.854 24.2998C68.6419 24.6062 68.3577 24.8472 68.0016 25.0226C67.648 25.1981 67.2329 25.2858 66.7562 25.2858ZM71.5715 23.1173L71.5637 21.6835H71.768L74.1722 19.13H75.5786L72.8365 22.037H72.6519L71.5715 23.1173ZM70.4912 25.1641V17.1186H71.6658V25.1641H70.4912ZM74.3018 25.1641L72.1412 22.2963L72.9504 21.4753L75.7435 25.1641H74.3018ZM78.9423 25.2858C78.3766 25.2858 77.8829 25.1562 77.4613 24.8969C77.0396 24.6377 76.7122 24.2749 76.4791 23.8087C76.2461 23.3426 76.1295 22.7978 76.1295 22.1745C76.1295 21.5486 76.2461 21.0012 76.4791 20.5324C76.7122 20.0636 77.0396 19.6996 77.4613 19.4403C77.8829 19.181 78.3766 19.0514 78.9423 19.0514C79.508 19.0514 80.0017 19.181 80.4233 19.4403C80.845 19.6996 81.1723 20.0636 81.4054 20.5324C81.6385 21.0012 81.755 21.5486 81.755 22.1745C81.755 22.7978 81.6385 23.3426 81.4054 23.8087C81.1723 24.2749 80.845 24.6377 80.4233 24.8969C80.0017 25.1562 79.508 25.2858 78.9423 25.2858ZM78.9462 24.2998C79.3129 24.2998 79.6167 24.2029 79.8576 24.0091C80.0986 23.8153 80.2766 23.5573 80.3919 23.2352C80.5097 22.9131 80.5687 22.5582 80.5687 22.1706C80.5687 21.7856 80.5097 21.432 80.3919 21.1099C80.2766 20.7852 80.0986 20.5246 79.8576 20.3281C79.6167 20.1317 79.3129 20.0335 78.9462 20.0335C78.5769 20.0335 78.2705 20.1317 78.027 20.3281C77.786 20.5246 77.6066 20.7852 77.4888 21.1099C77.3735 21.432 77.3159 21.7856 77.3159 22.1706C77.3159 22.5582 77.3735 22.9131 77.4888 23.2352C77.6066 23.5573 77.786 23.8153 78.027 24.0091C78.2705 24.2029 78.5769 24.2998 78.9462 24.2998ZM86.8885 22.6616V19.13H88.0671V25.1641H86.9121V24.1191H86.8493C86.7105 24.4412 86.4878 24.7097 86.1814 24.9244C85.8776 25.1366 85.4992 25.2426 85.0461 25.2426C84.6585 25.2426 84.3154 25.1575 84.0169 24.9873C83.7209 24.8144 83.4878 24.5591 83.3176 24.2212C83.15 23.8834 83.0662 23.4657 83.0662 22.9681V19.13H84.2408V22.8266C84.2408 23.2378 84.3547 23.5652 84.5825 23.8087C84.8104 24.0523 85.1063 24.1741 85.4704 24.1741C85.6904 24.1741 85.9091 24.1191 86.1264 24.0091C86.3464 23.8991 86.5284 23.7328 86.6725 23.5102C86.8191 23.2876 86.8912 23.0047 86.8885 22.6616ZM92.462 19.13V20.0728H89.1661V19.13H92.462ZM90.05 17.6843H91.2246V23.3923C91.2246 23.6202 91.2586 23.7917 91.3267 23.907C91.3948 24.0196 91.4825 24.0968 91.5899 24.1387C91.6999 24.178 91.8191 24.1977 91.9474 24.1977C92.0417 24.1977 92.1242 24.1911 92.1949 24.178C92.2656 24.1649 92.3206 24.1545 92.3599 24.1466L92.572 25.1169C92.5039 25.1431 92.407 25.1693 92.2813 25.1955C92.1556 25.2243 91.9985 25.24 91.8099 25.2426C91.5009 25.2479 91.2128 25.1929 90.9456 25.0776C90.6785 24.9624 90.4624 24.7843 90.2975 24.5434C90.1325 24.3024 90.05 23.9999 90.05 23.6359V17.6843Z" fill="#2E3A55"/>
<defs>
<linearGradient id="paint0_linear_4003_5449" x1="18.1477" y1="28.4591" x2="18.1477" y2="21.2441" gradientUnits="userSpaceOnUse">
<stop stop-color="#21CFE0"/>
<stop offset="0.17" stop-color="#20D1E0"/>
<stop offset="0.38" stop-color="#18E2E2"/>
<stop offset="0.61" stop-color="#13ECE3"/>
<stop offset="1" stop-color="#11EFE3"/>
</linearGradient>
<linearGradient id="paint1_linear_4003_5449" x1="20.6776" y1="32.1632" x2="20.6776" y2="17.9132" gradientUnits="userSpaceOnUse">
<stop stop-color="#0048E5"/>
<stop offset="1" stop-color="#9B66FF"/>
</linearGradient>
</defs>
</svg>
