<svg width="310" height="206" viewBox="0 0 310 206" fill="none" xmlns="http://www.w3.org/2000/svg">
<g clip-path="url(#clip0_4003_5983)">
<rect x="4.47266" y="4.58203" width="301.33" height="200.88" rx="4" fill="#F6F9FC"/>
<g clip-path="url(#clip1_4003_5983)">
<g clip-path="url(#clip2_4003_5983)">
<g clip-path="url(#clip3_4003_5983)">
<g clip-path="url(#clip4_4003_5983)">
<mask id="mask0_4003_5983" style="mask-type:luminance" maskUnits="userSpaceOnUse" x="113" y="100" width="9" height="10">
<path d="M113.378 100.938H121.462V109.022H113.378V100.938Z" fill="white"/>
</mask>
<g mask="url(#mask0_4003_5983)">
<path d="M116.253 108.369C116.183 108.44 116.094 108.487 115.997 108.507C115.9 108.526 115.799 108.517 115.708 108.479C115.616 108.441 115.538 108.377 115.483 108.294C115.428 108.212 115.399 108.115 115.399 108.016V101.944C115.399 101.845 115.428 101.748 115.483 101.666C115.538 101.583 115.616 101.519 115.708 101.481C115.799 101.443 115.9 101.434 115.997 101.453C116.094 101.473 116.183 101.52 116.253 101.591L119.295 104.627C119.341 104.674 119.378 104.729 119.403 104.789C119.428 104.85 119.441 104.914 119.441 104.98C119.441 105.045 119.428 105.11 119.403 105.171C119.378 105.231 119.341 105.286 119.295 105.333L116.253 108.369Z" fill="#7A73FF"/>
</g>
<mask id="mask1_4003_5983" style="mask-type:luminance" maskUnits="userSpaceOnUse" x="121" y="100" width="9" height="10">
<path d="M121.462 100.938H129.546V109.022H121.462V100.938Z" fill="white"/>
</mask>
<g mask="url(#mask1_4003_5983)">
<path d="M124.336 108.369C124.266 108.44 124.177 108.487 124.08 108.507C123.983 108.526 123.882 108.517 123.791 108.479C123.699 108.441 123.621 108.377 123.566 108.294C123.511 108.212 123.482 108.115 123.482 108.016V101.944C123.482 101.845 123.511 101.748 123.566 101.666C123.621 101.583 123.699 101.519 123.791 101.481C123.882 101.443 123.983 101.434 124.08 101.453C124.177 101.473 124.266 101.52 124.336 101.591L127.378 104.627C127.424 104.674 127.461 104.729 127.486 104.789C127.511 104.85 127.524 104.914 127.524 104.98C127.524 105.045 127.511 105.11 127.486 105.171C127.461 105.231 127.424 105.286 127.378 105.333L124.336 108.369Z" fill="#7A73FF"/>
</g>
<mask id="mask2_4003_5983" style="mask-type:luminance" maskUnits="userSpaceOnUse" x="129" y="100" width="9" height="10">
<path d="M129.545 100.938H137.629V109.022H129.545V100.938Z" fill="white"/>
</mask>
<g mask="url(#mask2_4003_5983)">
<path d="M132.42 108.369C132.35 108.44 132.261 108.487 132.164 108.507C132.067 108.526 131.966 108.517 131.875 108.479C131.783 108.441 131.705 108.377 131.65 108.294C131.595 108.212 131.566 108.115 131.566 108.016V101.944C131.566 101.845 131.595 101.748 131.65 101.666C131.705 101.583 131.783 101.519 131.875 101.481C131.966 101.443 132.067 101.434 132.164 101.453C132.261 101.473 132.35 101.52 132.42 101.591L135.461 104.627C135.507 104.674 135.544 104.728 135.57 104.789C135.595 104.85 135.608 104.914 135.608 104.98C135.608 105.046 135.595 105.11 135.57 105.171C135.544 105.232 135.507 105.286 135.461 105.333L132.42 108.369Z" fill="#7A73FF"/>
</g>
<mask id="mask3_4003_5983" style="mask-type:luminance" maskUnits="userSpaceOnUse" x="137" y="100" width="9" height="10">
<path d="M137.629 100.938H145.713V109.022H137.629V100.938Z" fill="white"/>
</mask>
<g mask="url(#mask3_4003_5983)">
<path d="M140.503 108.369C140.433 108.44 140.344 108.487 140.247 108.507C140.15 108.526 140.049 108.517 139.958 108.479C139.866 108.441 139.788 108.377 139.733 108.294C139.678 108.212 139.649 108.115 139.649 108.016V101.944C139.649 101.845 139.678 101.748 139.733 101.666C139.788 101.583 139.866 101.519 139.958 101.481C140.049 101.443 140.15 101.434 140.247 101.453C140.344 101.473 140.433 101.52 140.503 101.591L143.545 104.627C143.591 104.674 143.628 104.729 143.653 104.789C143.678 104.85 143.691 104.914 143.691 104.98C143.691 105.045 143.678 105.11 143.653 105.171C143.628 105.231 143.591 105.286 143.545 105.333L140.503 108.369Z" fill="#7A73FF"/>
</g>
<mask id="mask4_4003_5983" style="mask-type:luminance" maskUnits="userSpaceOnUse" x="145" y="100" width="9" height="10">
<path d="M145.712 100.938H153.796V109.022H145.712V100.938Z" fill="white"/>
</mask>
<g mask="url(#mask4_4003_5983)">
<path d="M148.587 108.369C148.517 108.44 148.428 108.487 148.331 108.507C148.234 108.526 148.133 108.517 148.042 108.479C147.95 108.441 147.872 108.377 147.817 108.294C147.762 108.212 147.733 108.115 147.733 108.016V101.944C147.733 101.845 147.762 101.748 147.817 101.666C147.872 101.583 147.95 101.519 148.042 101.481C148.133 101.443 148.234 101.434 148.331 101.453C148.428 101.473 148.517 101.52 148.587 101.591L151.628 104.627C151.674 104.674 151.711 104.728 151.737 104.789C151.762 104.85 151.775 104.914 151.775 104.98C151.775 105.046 151.762 105.11 151.737 105.171C151.711 105.232 151.674 105.286 151.628 105.333L148.587 108.369Z" fill="#7A73FF"/>
</g>
<mask id="mask5_4003_5983" style="mask-type:luminance" maskUnits="userSpaceOnUse" x="153" y="100" width="9" height="10">
<path d="M153.796 100.938H161.88V109.022H153.796V100.938Z" fill="white"/>
</mask>
<g mask="url(#mask5_4003_5983)">
<path d="M156.67 108.369C156.6 108.44 156.511 108.487 156.414 108.507C156.317 108.526 156.216 108.517 156.125 108.479C156.033 108.441 155.955 108.377 155.9 108.294C155.845 108.212 155.816 108.115 155.816 108.016V101.944C155.816 101.845 155.845 101.748 155.9 101.666C155.955 101.583 156.033 101.519 156.125 101.481C156.216 101.443 156.317 101.434 156.414 101.453C156.511 101.473 156.6 101.52 156.67 101.591L159.712 104.627C159.758 104.674 159.795 104.729 159.82 104.789C159.845 104.85 159.858 104.914 159.858 104.98C159.858 105.045 159.845 105.11 159.82 105.171C159.795 105.231 159.758 105.286 159.712 105.333L156.67 108.369Z" fill="#7A73FF"/>
</g>
<mask id="mask6_4003_5983" style="mask-type:luminance" maskUnits="userSpaceOnUse" x="161" y="100" width="9" height="10">
<path d="M161.879 100.938H169.963V109.022H161.879V100.938Z" fill="white"/>
</mask>
<g mask="url(#mask6_4003_5983)">
<path d="M164.754 108.369C164.684 108.44 164.595 108.487 164.498 108.507C164.401 108.526 164.3 108.517 164.209 108.479C164.117 108.441 164.039 108.377 163.984 108.294C163.929 108.212 163.9 108.115 163.9 108.016V101.944C163.9 101.845 163.929 101.748 163.984 101.666C164.039 101.583 164.117 101.519 164.209 101.481C164.3 101.443 164.401 101.434 164.498 101.453C164.595 101.473 164.684 101.52 164.754 101.591L167.795 104.627C167.841 104.674 167.878 104.728 167.904 104.789C167.929 104.85 167.942 104.914 167.942 104.98C167.942 105.046 167.929 105.11 167.904 105.171C167.878 105.232 167.841 105.286 167.795 105.333L164.754 108.369Z" fill="#7A73FF"/>
</g>
<mask id="mask7_4003_5983" style="mask-type:luminance" maskUnits="userSpaceOnUse" x="169" y="100" width="10" height="10">
<path d="M169.963 100.938H178.047V109.022H169.963V100.938Z" fill="white"/>
</mask>
<g mask="url(#mask7_4003_5983)">
<path d="M172.837 108.369C172.767 108.44 172.678 108.487 172.581 108.507C172.484 108.526 172.383 108.517 172.292 108.479C172.2 108.441 172.122 108.377 172.067 108.294C172.012 108.212 171.983 108.115 171.983 108.016V101.944C171.983 101.845 172.012 101.748 172.067 101.666C172.122 101.583 172.2 101.519 172.292 101.481C172.383 101.443 172.484 101.434 172.581 101.453C172.678 101.473 172.767 101.52 172.837 101.591L175.879 104.627C175.925 104.674 175.962 104.729 175.987 104.789C176.012 104.85 176.025 104.914 176.025 104.98C176.025 105.045 176.012 105.11 175.987 105.171C175.962 105.231 175.925 105.286 175.879 105.333L172.837 108.369Z" fill="#7A73FF"/>
</g>
<mask id="mask8_4003_5983" style="mask-type:luminance" maskUnits="userSpaceOnUse" x="178" y="100" width="9" height="10">
<path d="M178.047 100.938H186.131V109.022H178.047V100.938Z" fill="white"/>
</mask>
<g mask="url(#mask8_4003_5983)">
<path d="M180.922 108.369C180.852 108.44 180.763 108.487 180.666 108.507C180.569 108.526 180.468 108.517 180.377 108.479C180.285 108.441 180.207 108.377 180.152 108.294C180.097 108.212 180.068 108.115 180.068 108.016V101.944C180.068 101.845 180.097 101.748 180.152 101.666C180.207 101.583 180.285 101.519 180.377 101.481C180.468 101.443 180.569 101.434 180.666 101.453C180.763 101.473 180.852 101.52 180.922 101.591L183.963 104.627C184.009 104.674 184.046 104.728 184.072 104.789C184.097 104.85 184.11 104.914 184.11 104.98C184.11 105.046 184.097 105.11 184.072 105.171C184.046 105.232 184.009 105.286 183.963 105.333L180.922 108.369Z" fill="#7A73FF"/>
</g>
<mask id="mask9_4003_5983" style="mask-type:luminance" maskUnits="userSpaceOnUse" x="186" y="100" width="9" height="10">
<path d="M186.131 100.938H194.215V109.022H186.131V100.938Z" fill="white"/>
</mask>
<g mask="url(#mask9_4003_5983)">
<path d="M189.005 108.369C188.935 108.44 188.846 108.487 188.749 108.507C188.652 108.526 188.551 108.517 188.46 108.479C188.368 108.441 188.29 108.377 188.235 108.294C188.18 108.212 188.151 108.115 188.151 108.016V101.944C188.151 101.845 188.18 101.748 188.235 101.666C188.29 101.583 188.368 101.519 188.46 101.481C188.551 101.443 188.652 101.434 188.749 101.453C188.846 101.473 188.935 101.52 189.005 101.591L192.047 104.627C192.093 104.674 192.13 104.729 192.155 104.789C192.18 104.85 192.193 104.914 192.193 104.98C192.193 105.045 192.18 105.11 192.155 105.171C192.13 105.231 192.093 105.286 192.047 105.333L189.005 108.369Z" fill="#7A73FF"/>
</g>
<mask id="mask10_4003_5983" style="mask-type:luminance" maskUnits="userSpaceOnUse" x="194" y="100" width="9" height="10">
<path d="M194.214 100.938H202.298V109.022H194.214V100.938Z" fill="white"/>
</mask>
<g mask="url(#mask10_4003_5983)">
<path d="M197.088 108.369C197.019 108.44 196.93 108.487 196.833 108.507C196.736 108.526 196.635 108.517 196.544 108.479C196.452 108.441 196.374 108.377 196.319 108.294C196.264 108.212 196.235 108.115 196.235 108.016V101.944C196.235 101.845 196.264 101.748 196.319 101.666C196.374 101.583 196.452 101.519 196.544 101.481C196.635 101.443 196.736 101.434 196.833 101.453C196.93 101.473 197.019 101.52 197.088 101.591L200.13 104.627C200.176 104.674 200.213 104.728 200.239 104.789C200.264 104.85 200.277 104.914 200.277 104.98C200.277 105.046 200.264 105.11 200.239 105.171C200.213 105.232 200.176 105.286 200.13 105.333L197.088 108.369Z" fill="#7A73FF"/>
</g>
<path d="M232.274 149.95C257.336 149.95 277.654 129.632 277.654 104.57C277.654 79.5068 257.336 59.1895 232.274 59.1895C207.211 59.1895 186.894 79.5068 186.894 104.57C186.894 129.632 207.211 149.95 232.274 149.95Z" fill="white"/>
<path fill-rule="evenodd" clip-rule="evenodd" d="M221.575 89.1133C220.132 89.1133 218.748 89.6864 217.728 90.7066C216.707 91.7268 216.134 93.1105 216.134 94.5534V107.713C216.134 109.156 216.707 110.54 217.727 111.56C218.748 112.581 220.132 113.154 221.575 113.154H241.602C243.045 113.154 244.429 112.581 245.449 111.56C246.47 110.54 247.043 109.156 247.043 107.713V94.5534C247.043 93.1105 246.469 91.7268 245.449 90.7066C244.429 89.6864 243.045 89.1133 241.602 89.1133H221.575ZM219.997 94.2648C220.167 94.2648 220.334 94.2314 220.491 94.1666C220.647 94.1017 220.789 94.0067 220.909 93.887C221.028 93.7673 221.123 93.6252 221.188 93.4688C221.253 93.3124 221.286 93.1448 221.286 92.9756C221.286 92.8063 221.252 92.6388 221.188 92.4824C221.123 92.3261 221.028 92.184 220.908 92.0644C220.788 91.9448 220.646 91.8499 220.49 91.7852C220.333 91.7205 220.166 91.6872 219.997 91.6872C219.655 91.6874 219.327 91.8233 219.085 92.065C218.844 92.3068 218.708 92.6347 218.708 92.9765C218.708 93.3183 218.844 93.6461 219.086 93.8877C219.328 94.1293 219.656 94.265 219.997 94.2648ZM225.578 92.976C225.578 93.1452 225.545 93.3126 225.48 93.4689C225.416 93.6251 225.321 93.7671 225.201 93.8867C225.081 94.0063 224.94 94.1012 224.783 94.1659C224.627 94.2306 224.46 94.2639 224.29 94.2639C224.121 94.2639 223.954 94.2306 223.798 94.1659C223.641 94.1012 223.499 94.0063 223.38 93.8867C223.26 93.7671 223.165 93.6251 223.101 93.4689C223.036 93.3126 223.003 93.1452 223.003 92.976C223.003 92.6345 223.138 92.3069 223.38 92.0654C223.621 91.8238 223.949 91.6881 224.29 91.6881C224.632 91.6881 224.96 91.8238 225.201 92.0654C225.443 92.3069 225.578 92.6345 225.578 92.976ZM228.583 94.2648C228.925 94.2648 229.253 94.1291 229.494 93.8876C229.736 93.6461 229.871 93.3185 229.871 92.9769C229.871 92.6354 229.736 92.3078 229.494 92.0663C229.253 91.8247 228.925 91.6891 228.583 91.6891C228.242 91.6891 227.914 91.8247 227.673 92.0663C227.431 92.3078 227.295 92.6354 227.295 92.9769C227.295 93.3185 227.431 93.6461 227.673 93.8876C227.914 94.1291 228.242 94.2648 228.583 94.2648Z" fill="#80E9FF"/>
<path fill-rule="evenodd" clip-rule="evenodd" d="M246.075 98.5586C247.606 98.5586 248.161 98.7183 248.721 99.0178C249.281 99.3174 249.719 99.7566 250.019 100.316C250.318 100.876 250.478 101.431 250.478 102.961V115.622C250.478 117.152 250.318 117.707 250.019 118.267C249.726 118.82 249.274 119.272 248.721 119.565C248.161 119.865 247.606 120.023 246.075 120.023H227.406C225.875 120.023 225.319 119.865 224.759 119.565C224.206 119.272 223.754 118.82 223.461 118.267C223.162 117.707 223.003 117.152 223.003 115.622V102.961C223.003 101.431 223.162 100.876 223.461 100.316C223.761 99.7566 224.2 99.3174 224.759 99.0178C225.319 98.7183 225.875 98.5586 227.406 98.5586H246.075ZM237.017 103.71C234.275 103.71 232.447 105.108 232.447 107.444C232.447 111.096 237.586 110.504 237.586 112.078C237.586 112.688 237.044 112.885 236.289 112.885C235.169 112.885 233.724 112.434 232.59 111.831V114.982C233.847 115.51 235.12 115.73 236.286 115.73C239.097 115.73 241.033 114.375 241.033 112C241.033 108.067 235.866 108.772 235.866 107.287C235.866 106.772 236.306 106.573 237.014 106.573C238.042 106.573 239.348 106.879 240.376 107.421V104.315C239.256 103.878 238.137 103.71 237.017 103.71Z" fill="#7A73FF"/>
<path fill-rule="evenodd" clip-rule="evenodd" d="M247.043 98.5878C246.721 98.567 246.398 98.5573 246.075 98.5587H227.406C225.875 98.5587 225.319 98.7185 224.759 99.018C224.2 99.3175 223.761 99.7568 223.461 100.316C223.162 100.876 223.003 101.431 223.003 102.962V113.155H232.59V111.832C233.724 112.434 235.169 112.885 236.289 112.885C237.044 112.885 237.586 112.688 237.586 112.078C237.586 111.454 236.779 111.171 235.804 110.828C234.32 110.307 232.447 109.649 232.447 107.444C232.447 105.108 234.275 103.71 237.017 103.71C238.137 103.71 239.256 103.878 240.376 104.315V107.421C239.348 106.88 238.042 106.573 237.014 106.573C236.306 106.573 235.866 106.773 235.866 107.287C235.866 107.853 236.614 108.1 237.542 108.407C239.05 108.907 241.033 109.563 241.033 112C241.033 112.418 240.973 112.803 240.86 113.155H241.602C242.317 113.155 243.024 113.014 243.685 112.741C244.345 112.468 244.945 112.067 245.45 111.562C245.955 111.057 246.356 110.457 246.629 109.797C246.903 109.137 247.043 108.429 247.043 107.715V98.5878Z" fill="#0048E5"/>
<path d="M78.8889 149.95C103.952 149.95 124.269 129.632 124.269 104.57C124.269 79.5068 103.952 59.1895 78.8889 59.1895C53.8261 59.1895 33.5088 79.5068 33.5088 104.57C33.5088 129.632 53.8261 149.95 78.8889 149.95Z" fill="white"/>
<path fill-rule="evenodd" clip-rule="evenodd" d="M78.6174 90.7734C87.4392 90.7734 94.5912 97.9253 94.5912 106.747C94.5912 111.826 92.2214 116.351 88.5265 119.277C87.6407 115.971 83.5411 113.473 78.6174 113.473C73.6936 113.473 69.594 115.971 68.7063 119.276C66.8143 117.782 65.2858 115.878 64.2357 113.708C63.1855 111.538 62.6412 109.158 62.6436 106.747C62.6436 97.9253 69.7955 90.7734 78.6174 90.7734ZM78.6174 100.757C77.2934 100.757 76.0238 101.283 75.0876 102.219C74.1515 103.155 73.6255 104.425 73.6255 105.749C73.6255 107.073 74.1515 108.342 75.0876 109.279C76.0238 110.215 77.2934 110.741 78.6174 110.741C79.9413 110.741 81.211 110.215 82.1471 109.279C83.0832 108.342 83.6092 107.073 83.6092 105.749C83.6092 104.425 83.0832 103.155 82.1471 102.219C81.211 101.283 79.9413 100.757 78.6174 100.757Z" fill="#80E9FF"/>
<path fill-rule="evenodd" clip-rule="evenodd" d="M92.5392 85.0885C93.5793 85.7783 96.323 87.4011 99.5023 87.7206C100.096 87.7796 100.581 88.2579 100.581 88.8551V93.266C100.581 102.071 93.2263 105.746 92.0945 105.746C90.9636 105.746 83.6084 102.071 83.6084 93.266V88.8551C83.6084 88.2579 84.0931 87.7796 84.6866 87.7206C87.866 87.4011 90.6105 85.7783 91.6498 85.0885C91.7817 85.0015 91.9364 84.9551 92.0945 84.9551C92.2526 84.9551 92.4072 85.0015 92.5392 85.0885ZM90.5697 96.9164L96.4991 90.8763C97.0981 90.2682 98.0066 90.9761 97.2578 91.7748C97.2578 91.7748 91.5672 98.9231 91.2677 99.3324C91.1781 99.4769 91.0532 99.5961 90.9047 99.6788C90.7562 99.7615 90.589 99.8049 90.419 99.8049C90.2491 99.8049 90.0819 99.7615 89.9334 99.6788C89.7849 99.5961 89.66 99.4769 89.5704 99.3324L87.7035 96.1377C87.6086 95.9643 87.5788 95.7628 87.6195 95.5694C87.6601 95.376 87.7685 95.2035 87.9252 95.083C88.0818 94.9625 88.2763 94.902 88.4737 94.9123C88.671 94.9226 88.8582 95.0031 89.0014 95.1393L90.5697 96.9164Z" fill="#7A73FF"/>
<path fill-rule="evenodd" clip-rule="evenodd" d="M94.4598 104.692C93.3525 105.407 92.4376 105.745 92.0955 105.745C90.9637 105.745 83.6094 102.07 83.6094 93.2656V91.5684C86.4674 92.5109 89.0017 94.2404 90.921 96.5584L90.5698 96.9159L89.0023 95.1389C88.8591 95.0027 88.672 94.9222 88.4746 94.9119C88.2773 94.9016 88.0828 94.9621 87.9261 95.0826C87.7695 95.2031 87.6611 95.3756 87.6204 95.5689C87.5798 95.7623 87.6096 95.9639 87.7045 96.1372L89.5714 99.332C89.6609 99.4765 89.7859 99.5957 89.9344 99.6784C90.0829 99.761 90.2501 99.8044 90.42 99.8044C90.59 99.8044 90.7571 99.761 90.9056 99.6784C91.0542 99.5957 91.1791 99.4765 91.2686 99.332C91.334 99.2421 91.6616 98.8246 92.1327 98.2292C93.371 100.188 94.1653 102.394 94.4598 104.692Z" fill="#0048E5"/>
</g>
</g>
</g>
</g>
<g opacity="0.3">
<path d="M4.47266 4.58203H305.803V201.462C305.803 203.671 304.012 205.462 301.803 205.462H8.47266C6.26352 205.462 4.47266 203.671 4.47266 201.462V4.58203Z" fill="url(#paint0_linear_4003_5983)"/>
</g>
</g>
<defs>
<linearGradient id="paint0_linear_4003_5983" x1="155.138" y1="4.58203" x2="155.138" y2="205.462" gradientUnits="userSpaceOnUse">
<stop stop-color="#BEC9DC" stop-opacity="0"/>
<stop offset="1" stop-color="#BEC9DC" stop-opacity="0.4"/>
</linearGradient>
<clipPath id="clip0_4003_5983">
<rect x="4.47266" y="4.58203" width="301.33" height="200.88" rx="4" fill="white"/>
</clipPath>
<clipPath id="clip1_4003_5983">
<rect x="4.47266" y="4.58203" width="301.33" height="200.88" rx="4" fill="white"/>
</clipPath>
<clipPath id="clip2_4003_5983">
<rect width="301.33" height="200.88" fill="white" transform="translate(4.47266 4.58203)"/>
</clipPath>
<clipPath id="clip3_4003_5983">
<rect width="301.33" height="200.58" fill="white" transform="translate(4.46289 4.73242)"/>
</clipPath>
<clipPath id="clip4_4003_5983">
<rect width="301.33" height="200.58" fill="white" transform="translate(4.46289 4.73242)"/>
</clipPath>
</defs>
</svg>
