<svg width="302" height="202" viewBox="0 0 302 202" fill="none" xmlns="http://www.w3.org/2000/svg">
<g clip-path="url(#clip0_4003_5953)">
<rect x="0.142578" y="0.582031" width="301.33" height="200.88" rx="4" fill="#F6F9FC"/>
<g clip-path="url(#clip1_4003_5953)">
<g clip-path="url(#clip2_4003_5953)">
<g clip-path="url(#clip3_4003_5953)">
<g clip-path="url(#clip4_4003_5953)">
<g clip-path="url(#clip5_4003_5953)">
<mask id="mask0_4003_5953" style="mask-type:luminance" maskUnits="userSpaceOnUse" x="0" y="3" width="327" height="229">
<path d="M326.653 3.2832H0.142578V231.75H326.653V3.2832Z" fill="white"/>
</mask>
<g mask="url(#mask0_4003_5953)">
<path d="M86.3254 231.759C111.164 231.759 131.299 211.42 131.299 186.331C131.299 161.241 111.164 140.902 86.3254 140.902C61.487 140.902 41.3516 161.241 41.3516 186.331C41.3516 211.42 61.487 231.759 86.3254 231.759Z" fill="#0077C5"/>
<path fill-rule="evenodd" clip-rule="evenodd" d="M104.543 191.405C104.426 191.404 104.314 191.355 104.231 191.27C104.148 191.184 104.101 191.067 104.101 190.945C104.105 190.827 104.155 190.715 104.237 190.633C104.319 190.551 104.429 190.505 104.543 190.505C104.658 190.505 104.767 190.551 104.85 190.633C104.933 190.715 104.981 190.827 104.987 190.945C104.987 191.197 104.789 191.405 104.543 191.405ZM104.543 190.401C104.253 190.401 104.017 190.643 104.017 190.945C104.017 191.248 104.253 191.484 104.543 191.484C104.835 191.484 105.07 191.247 105.07 190.945C105.07 190.643 104.835 190.401 104.543 190.401ZM104.444 190.904V190.729H104.542C104.597 190.729 104.659 190.747 104.659 190.814C104.659 190.888 104.59 190.904 104.53 190.904H104.444ZM104.765 190.816C104.765 190.684 104.657 190.636 104.546 190.636H104.339V191.248H104.444V190.993H104.521L104.659 191.249H104.789L104.629 190.981C104.712 190.962 104.765 190.905 104.765 190.816ZM101.452 183.045C101.595 183.049 101.737 183.022 101.87 182.967C102.003 182.912 102.125 182.83 102.227 182.727C102.329 182.622 102.411 182.498 102.466 182.362C102.521 182.225 102.55 182.077 102.55 181.929C102.55 181.781 102.521 181.634 102.466 181.496C102.411 181.36 102.33 181.235 102.227 181.132C102.125 181.028 102.004 180.946 101.871 180.891C101.738 180.836 101.596 180.81 101.453 180.813C101.171 180.818 100.903 180.939 100.705 181.147C100.508 181.356 100.398 181.637 100.398 181.929C100.398 182.221 100.508 182.502 100.705 182.711C100.903 182.919 101.171 183.04 101.453 183.045H101.452ZM98.5654 184.009V185.647H100.561V191.406H102.342V185.647H104.338V184.009H98.5654ZM83.0292 183.045C83.1705 183.045 83.3104 183.016 83.441 182.961C83.5715 182.904 83.6901 182.822 83.79 182.719C83.89 182.615 83.9692 182.492 84.0233 182.356C84.0774 182.22 84.1052 182.076 84.1052 181.929C84.1052 181.782 84.0774 181.638 84.0233 181.502C83.9692 181.366 83.89 181.244 83.79 181.139C83.6901 181.036 83.5715 180.954 83.441 180.897C83.3104 180.841 83.1705 180.813 83.0292 180.813C82.7476 180.818 82.4794 180.939 82.2823 181.147C82.0852 181.356 81.9747 181.637 81.9747 181.929C81.9747 182.221 82.0852 182.502 82.2823 182.711C82.4794 182.919 82.7476 183.04 83.0292 183.045ZM80.1424 185.646H82.1386V191.406H83.9189V185.647H85.9156V184.009H80.1428V185.647L80.1424 185.646ZM95.5368 191.406H97.3178V184.014H95.5368V191.406ZM91.9335 188.08C91.9335 189.065 91.3984 190.081 90.2713 190.081C89.129 190.081 88.9361 188.988 88.9361 188.11V184.014H87.1553V188.634C87.1553 190.143 87.9267 191.621 89.7821 191.621C90.8353 191.621 91.6808 190.959 91.9929 190.219H92.0226V191.406H93.7136V184.014H91.9335V188.08ZM76.6091 183.798C75.5555 183.798 74.7099 184.461 74.3983 185.199H74.3683V184.014H72.6771V191.406H74.4575V187.34C74.4575 186.354 74.992 185.338 76.1196 185.338C77.2617 185.338 77.455 186.432 77.455 187.31V191.406H79.2355V186.785C79.2355 185.277 78.4645 183.798 76.6091 183.798ZM69.0723 191.406H70.8526V184.014H69.0723V191.406Z" fill="white"/>
<path d="M156.907 121.114C181.746 121.114 201.881 100.978 201.881 76.1398C201.881 51.3015 181.746 31.166 156.907 31.166C132.069 31.166 111.934 51.3015 111.934 76.1398C111.934 100.978 132.069 121.114 156.907 121.114Z" fill="black"/>
<path fill-rule="evenodd" clip-rule="evenodd" d="M129.559 74.0287C130.228 74.0287 130.857 74.2998 131.329 74.792C132.304 75.8098 132.304 77.4661 131.329 78.4839L127.609 82.3636L126.937 81.663L130.657 77.7831C130.95 77.4777 131.111 77.0711 131.111 76.6378C131.111 76.2047 130.95 75.7981 130.657 75.4928C130.051 74.8617 129.066 74.8615 128.461 75.4929L124.151 79.9896L123.479 79.2887L127.789 74.7923C128.261 74.2999 128.89 74.0289 129.559 74.0287ZM129.219 76.2814L129.888 76.9833L125.597 81.4863C125.128 81.9794 124.502 82.2508 123.837 82.251C123.17 82.251 122.545 81.9795 122.076 81.4867L121.741 81.1358L122.409 80.4339L122.744 80.7848C123.347 81.4171 124.326 81.4169 124.929 80.7846L129.219 76.2814ZM143.132 73.6908C143.54 73.6908 143.912 73.7637 144.25 73.9093C144.586 74.055 144.873 74.2587 145.109 74.5209C145.345 74.7832 145.529 75.097 145.66 75.4623C145.79 75.8278 145.856 76.2276 145.856 76.6618C145.856 77.1122 145.787 77.5185 145.648 77.8813C145.51 78.2441 145.313 78.5578 145.056 78.8225L145.78 79.7203V79.9983H144.86L144.355 79.3471C144.178 79.4317 143.99 79.4978 143.789 79.5455C143.587 79.5932 143.372 79.617 143.14 79.617C142.723 79.617 142.347 79.5441 142.013 79.3986C141.678 79.2529 141.394 79.049 141.16 78.7869C140.926 78.5247 140.745 78.2124 140.617 77.8494C140.489 77.4867 140.425 77.0909 140.425 76.6618C140.425 76.2276 140.489 75.8292 140.617 75.4662C140.745 75.1036 140.928 74.7911 141.164 74.5289C141.4 74.2667 141.685 74.0616 142.02 73.9132C142.354 73.7651 142.726 73.6908 143.132 73.6908ZM148.324 73.6908V77.1858C148.324 77.7072 148.431 78.0942 148.647 78.347C148.863 78.5997 149.163 78.7259 149.549 78.7259C149.935 78.7259 150.236 78.5997 150.451 78.347C150.666 78.0942 150.774 77.7072 150.774 77.1858V73.6908H151.721V77.2097C151.721 77.6248 151.672 77.9797 151.571 78.2751C151.471 78.5703 151.328 78.8123 151.143 79.0013C150.958 79.1902 150.729 79.3285 150.459 79.4163C150.188 79.504 149.885 79.5478 149.549 79.5478C149.208 79.5478 148.903 79.504 148.636 79.4163C148.367 79.3285 148.141 79.1902 147.955 79.0013C147.77 78.8123 147.627 78.5703 147.527 78.2751C147.426 77.9797 147.377 77.6248 147.377 77.2097V73.6908H148.324ZM137.192 73.5782C137.751 73.5782 138.193 73.7178 138.521 73.9971C138.847 74.2766 139.039 74.6503 139.094 75.1185L138.188 75.1982C138.133 74.9588 138.022 74.7726 137.856 74.6397C137.691 74.5066 137.458 74.4401 137.163 74.4401C136.885 74.4401 136.669 74.5079 136.513 74.6436C136.357 74.7794 136.279 74.9537 136.279 75.1664C136.279 75.2887 136.302 75.391 136.347 75.4735C136.393 75.5561 136.457 75.6279 136.544 75.689C136.629 75.7503 136.733 75.8048 136.857 75.8525C136.98 75.9005 137.119 75.9513 137.275 76.0043L137.66 76.132C137.902 76.2118 138.12 76.2955 138.313 76.3833C138.506 76.4711 138.671 76.5762 138.807 76.6987C138.943 76.821 139.048 76.9673 139.12 77.1376C139.194 77.3079 139.23 77.5181 139.23 77.7681C139.23 78.0342 139.179 78.2776 139.079 78.4982C138.978 78.7192 138.837 78.9067 138.657 79.0609C138.475 79.2152 138.26 79.335 138.011 79.4199C137.762 79.505 137.486 79.5478 137.185 79.5478C136.626 79.5478 136.161 79.4095 135.789 79.1327C135.417 78.8561 135.187 78.4384 135.102 77.8797L136.023 77.7919C136.078 78.0792 136.207 78.3041 136.411 78.4662C136.615 78.6287 136.883 78.7097 137.215 78.7097C137.542 78.7097 137.795 78.6299 137.973 78.4703C138.152 78.3108 138.241 78.1006 138.241 77.8398C138.241 77.7121 138.218 77.6044 138.17 77.5166C138.121 77.4288 138.055 77.3544 137.969 77.2931C137.884 77.2321 137.779 77.1801 137.653 77.1376C137.527 77.095 137.386 77.0498 137.23 77.0019L136.823 76.8822C136.581 76.8131 136.365 76.7293 136.173 76.6308C135.982 76.5324 135.819 76.4166 135.683 76.2836C135.547 76.1506 135.444 75.9977 135.373 75.8247C135.303 75.6519 135.268 75.4508 135.268 75.2222C135.268 74.9827 135.313 74.762 135.404 74.5597C135.494 74.3578 135.623 74.1845 135.789 74.041C135.955 73.8974 136.156 73.7844 136.393 73.7017C136.629 73.6196 136.895 73.5782 137.192 73.5782ZM187.782 73.6908C188.381 73.6908 188.883 73.835 189.287 74.1227C189.691 74.4104 189.977 74.7926 190.145 75.2689L189.177 75.465C189.045 75.1773 188.861 74.9508 188.624 74.7859C188.389 74.6211 188.103 74.5388 187.767 74.5388C187.498 74.5388 187.258 74.5922 187.048 74.6991C186.836 74.8061 186.659 74.9533 186.514 75.141C186.369 75.3287 186.259 75.5503 186.182 75.8059C186.107 76.0614 186.068 76.3351 186.068 76.6271C186.068 76.9243 186.108 77.1994 186.186 77.4523C186.265 77.7054 186.379 77.9242 186.529 78.1094C186.679 78.2945 186.86 78.4391 187.074 78.5433C187.287 78.6477 187.531 78.6999 187.806 78.6999C188.161 78.6999 188.454 78.6109 188.685 78.4329C188.917 78.2549 189.096 78.0377 189.222 77.7812L190.175 77.9461C190.089 78.1661 189.976 78.373 189.836 78.5671C189.696 78.7612 189.527 78.9312 189.329 79.0764C189.132 79.2216 188.901 79.3365 188.64 79.4209C188.378 79.5054 188.087 79.5478 187.767 79.5478C187.361 79.5478 186.992 79.4744 186.659 79.3277C186.326 79.1814 186.042 78.9785 185.806 78.7195C185.571 78.4603 185.39 78.1517 185.262 77.7931C185.133 77.4346 185.07 77.046 185.07 76.6271C185.07 76.2085 185.133 75.8199 185.262 75.4613C185.39 75.1028 185.572 74.7926 185.811 74.5308C186.048 74.2694 186.333 74.0636 186.666 73.9147C186.999 73.7654 187.371 73.6908 187.782 73.6908ZM171.409 73.5782C171.968 73.5782 172.41 73.7178 172.738 73.9971C173.064 74.2766 173.256 74.6503 173.311 75.1185L172.406 75.1982C172.35 74.9588 172.239 74.7726 172.074 74.6397C171.908 74.5066 171.676 74.4401 171.38 74.4401C171.102 74.4401 170.886 74.5079 170.73 74.6436C170.574 74.7794 170.496 74.9537 170.496 75.1664C170.496 75.2887 170.519 75.391 170.565 75.4735C170.61 75.5561 170.675 75.6279 170.761 75.689C170.846 75.7503 170.95 75.8048 171.074 75.8525C171.197 75.9005 171.336 75.9513 171.492 76.0043L171.877 76.132C172.119 76.2118 172.337 76.2955 172.53 76.3833C172.723 76.4711 172.889 76.5762 173.024 76.6987C173.16 76.821 173.265 76.9673 173.338 77.1376C173.411 77.3079 173.447 77.5181 173.447 77.7681C173.447 78.0342 173.396 78.2776 173.296 78.4982C173.195 78.7192 173.054 78.9067 172.874 79.0609C172.692 79.2152 172.477 79.335 172.228 79.4199C171.979 79.505 171.703 79.5478 171.402 79.5478C170.843 79.5478 170.378 79.4095 170.006 79.1327C169.634 78.8561 169.404 78.4384 169.319 77.8797L170.24 77.7919C170.295 78.0792 170.424 78.3041 170.628 78.4662C170.832 78.6287 171.1 78.7097 171.432 78.7097C171.759 78.7097 172.012 78.6299 172.191 78.4703C172.369 78.3108 172.458 78.1006 172.458 77.8398C172.458 77.7121 172.435 77.6044 172.387 77.5166C172.339 77.4288 172.272 77.3544 172.186 77.2931C172.101 77.2321 171.996 77.1801 171.87 77.1376C171.744 77.095 171.603 77.0498 171.447 77.0019L171.04 76.8822C170.798 76.8131 170.582 76.7293 170.391 76.6308C170.199 76.5324 170.036 76.4166 169.901 76.2836C169.764 76.1506 169.662 75.9977 169.59 75.8247C169.52 75.6519 169.485 75.4508 169.485 75.2222C169.485 74.9827 169.53 74.762 169.621 74.5597C169.712 74.3578 169.84 74.1845 170.006 74.041C170.172 73.8974 170.373 73.7844 170.61 73.7017C170.846 73.6196 171.112 73.5782 171.409 73.5782ZM156.095 73.8035L158.022 79.1606V79.4351H157.073L156.523 77.8271H154.145L153.594 79.4351H152.699V79.1606L154.649 73.8035H156.095ZM160.982 73.8035C161.26 73.8035 161.523 73.823 161.773 73.8623C162.023 73.9015 162.249 73.9917 162.451 74.1328C162.88 74.4255 163.094 74.8674 163.094 75.458C163.094 75.7143 163.058 75.9378 162.985 76.1287C162.912 76.3194 162.815 76.4814 162.693 76.6148C162.572 76.7482 162.432 76.8566 162.273 76.9401C162.114 77.0238 161.949 77.0865 161.777 77.1283L163.344 79.1604V79.4351H162.428L160.769 77.2232H160.156V79.4351H159.217V73.8035H160.982ZM168.071 73.8035V74.6662H165.474V76.1408H167.889V76.9878H165.474V78.5723H168.124V79.4351H164.54V73.8035H168.071ZM176.876 73.8035C177.251 73.8035 177.565 73.8479 177.82 73.9368C178.073 74.0257 178.278 74.1485 178.436 74.3055C178.592 74.4623 178.705 74.6466 178.774 74.8585C178.843 75.0702 178.878 75.299 178.878 75.5447C178.878 75.8377 178.831 76.0924 178.735 76.3094C178.641 76.5264 178.503 76.7054 178.323 76.8467C178.144 76.9878 177.926 77.0937 177.67 77.1644C177.412 77.235 177.123 77.2703 176.8 77.2703H175.821V79.4351H174.859V73.8035H176.876ZM182.491 73.8035L184.418 79.1606V79.4351H183.47L182.919 77.8271H180.541L179.99 79.4351H179.095V79.1606L181.045 73.8035H182.491ZM194.969 73.7355V74.6066H192.357V76.0955H194.787V76.9507H192.357V78.5505H195.023V79.4217H191.418V73.7355H194.969ZM122.934 70.875L123.606 71.5757L119.885 75.4555C119.28 76.0869 119.28 77.1144 119.885 77.7458C120.491 78.3771 121.476 78.377 122.081 77.7456L126.391 73.249L127.063 73.9499L122.753 78.4463C122.281 78.9385 121.653 79.2099 120.983 79.2099C120.314 79.2099 119.686 78.9386 119.214 78.4465C118.238 77.4289 118.238 75.7727 119.214 74.7548L122.934 70.875ZM143.125 74.5487C142.854 74.5487 142.611 74.6017 142.397 74.7074C142.183 74.8132 142.003 74.9598 141.854 75.1473C141.706 75.3351 141.592 75.5572 141.514 75.8133C141.437 76.0699 141.398 76.3488 141.398 76.6499C141.398 76.9513 141.438 77.2314 141.519 77.4906C141.599 77.7495 141.713 77.9741 141.861 78.1645C142.01 78.3547 142.191 78.504 142.405 78.6126C142.619 78.7208 142.861 78.7748 143.132 78.7748C143.404 78.7748 143.647 78.7235 143.861 78.6204C144.074 78.5173 144.256 78.3733 144.404 78.1881C144.552 78.0033 144.667 77.7797 144.747 77.5183C144.827 77.2565 144.867 76.9698 144.867 76.6579C144.867 76.3513 144.827 76.0685 144.747 75.8095C144.667 75.5507 144.552 75.3286 144.404 75.1435C144.256 74.9586 144.073 74.8132 143.856 74.7074C143.641 74.6017 143.397 74.5487 143.125 74.5487ZM155.476 74.6507H155.238L155.147 74.9173C155.116 75.0063 155.082 75.1057 155.043 75.2153C155.005 75.3252 154.963 75.4506 154.917 75.5919C154.871 75.7329 154.815 75.8978 154.749 76.0859L154.435 76.9801H156.248L155.95 76.0859C155.832 75.7358 155.738 75.4506 155.667 75.2312C155.596 75.0115 155.532 74.818 155.476 74.6507ZM181.872 74.6507H181.634L181.543 74.9173C181.512 75.0063 181.478 75.1057 181.439 75.2153C181.401 75.3252 181.359 75.4506 181.313 75.5919C181.267 75.7329 181.212 75.8978 181.145 76.0859L180.831 76.9801H182.644L182.346 76.0859C182.228 75.7358 182.134 75.4506 182.063 75.2312C181.992 75.0115 181.928 74.818 181.872 74.6507ZM126.706 70.9876C127.373 70.9876 127.998 71.2591 128.467 71.752L128.802 72.1028L128.133 72.8046L127.799 72.4539C127.508 72.1479 127.12 71.9798 126.706 71.9798C126.293 71.9798 125.906 72.148 125.613 72.454L121.324 76.9572L120.654 76.2553L124.945 71.7523C125.414 71.2593 126.04 70.9878 126.706 70.9876ZM176.761 74.6506H175.821V76.4232H176.746C176.915 76.4232 177.071 76.4089 177.212 76.3803C177.352 76.3519 177.475 76.3041 177.581 76.2366C177.686 76.1692 177.769 76.0786 177.827 75.9644C177.886 75.8505 177.916 75.7105 177.916 75.5445C177.916 75.3736 177.886 75.2299 177.827 75.1132C177.769 74.9967 177.688 74.9047 177.585 74.8372C177.482 74.7697 177.36 74.7218 177.219 74.6934C177.078 74.6649 176.925 74.6506 176.761 74.6506ZM160.982 74.6506H160.156V76.3762H160.982C161.345 76.3762 161.632 76.3074 161.841 76.1702C162.051 76.033 162.155 75.8088 162.155 75.4977C162.155 75.1816 162.049 74.9614 161.837 74.837C161.626 74.7128 161.34 74.6506 160.982 74.6506Z" fill="white"/>
<path d="M229.509 218.258C254.347 218.258 274.483 198.123 274.483 173.284C274.483 148.446 254.347 128.311 229.509 128.311C204.671 128.311 184.535 148.446 184.535 173.284C184.535 198.123 204.671 218.258 229.509 218.258Z" fill="white"/>
<path d="M228.568 160.391L229.826 162.679C230.078 163.152 230.078 163.73 229.826 164.204L222.326 177.8L225.875 184.217C226.429 185.216 227.461 185.848 228.568 185.848C229.675 185.848 230.707 185.216 231.261 184.217L234.809 177.8L233.878 176.064L229.852 183.349C229.6 183.822 229.097 184.112 228.593 184.112C228.064 184.112 227.587 183.822 227.335 183.349L224.239 177.8L231.211 165.177L232.469 167.465C232.721 167.938 232.721 168.517 232.469 168.991L227.612 177.8L228.568 179.536L233.853 169.963L237.326 176.248C237.855 177.222 237.855 178.405 237.326 179.378L233.803 185.768C233.275 186.742 231.588 188.924 228.568 188.924C225.548 188.924 223.887 186.742 223.333 185.768L219.81 179.378C219.281 178.405 219.281 177.222 219.81 176.248L228.568 160.391Z" fill="#ED5153"/>
<path d="M280.759 93.2309C305.597 93.2309 325.733 73.0954 325.733 48.257C325.733 23.4187 305.597 3.2832 280.759 3.2832C255.921 3.2832 235.785 23.4187 235.785 48.257C235.785 73.0954 255.921 93.2309 280.759 93.2309Z" fill="#FF7A59"/>
<path d="M283.892 43.1082V39.2568C284.384 39.0191 284.8 38.6417 285.092 38.1685C285.385 37.6952 285.541 37.1457 285.544 36.584V36.4942C285.542 35.7091 285.24 34.9568 284.704 34.4017C284.168 33.8466 283.441 33.5338 282.682 33.5317H282.595C281.837 33.5338 281.11 33.8466 280.574 34.4017C280.037 34.9568 279.736 35.7091 279.733 36.4942V36.584C279.736 37.1457 279.892 37.6952 280.185 38.1685C280.477 38.6417 280.894 39.0191 281.386 39.2568V43.1082C279.972 43.332 278.64 43.9383 277.526 44.866L267.31 36.638C267.383 36.3665 267.421 36.0866 267.426 35.805C267.427 35.144 267.238 34.4976 266.883 33.9476C266.529 33.3975 266.025 32.9686 265.436 32.7149C264.846 32.4612 264.198 32.3943 263.571 32.5224C262.945 32.6506 262.369 32.9682 261.916 33.435C261.465 33.9018 261.156 34.497 261.031 35.145C260.906 35.7932 260.969 36.4652 261.213 37.0762C261.457 37.6871 261.87 38.2096 262.4 38.5775C262.931 38.9453 263.554 39.1421 264.193 39.1429C264.754 39.1408 265.305 38.9858 265.789 38.6935L275.833 46.7878C274.929 48.2007 274.457 49.8632 274.479 51.5581C274.502 53.253 275.017 54.9016 275.959 56.2883L272.902 59.4525C272.657 59.3716 272.402 59.3285 272.143 59.3247C271.619 59.3247 271.106 59.4858 270.669 59.7876C270.233 60.0894 269.893 60.5184 269.692 61.0203C269.492 61.5222 269.439 62.0745 269.541 62.6072C269.644 63.1401 269.897 63.6295 270.267 64.0136C270.639 64.3977 271.112 64.6593 271.626 64.7653C272.141 64.8713 272.674 64.8169 273.159 64.609C273.644 64.4011 274.058 64.0491 274.35 63.5974C274.641 63.1457 274.797 62.6146 274.797 62.0714C274.793 61.8048 274.752 61.5403 274.674 61.2863L277.698 58.1561C278.685 58.9366 279.831 59.4733 281.049 59.7252C282.267 59.9772 283.525 59.9377 284.725 59.6098C285.927 59.282 287.04 58.6744 287.979 57.8334C288.919 56.9925 289.661 55.9404 290.147 54.7576C290.634 53.5747 290.854 52.2923 290.789 51.0083C290.724 49.7242 290.377 48.4725 289.773 47.3487C289.17 46.2248 288.326 45.2586 287.307 44.5236C286.288 43.7887 285.119 43.3046 283.892 43.1082ZM282.639 55.777C281.812 55.777 281.003 55.523 280.315 55.047C279.627 54.5712 279.091 53.8948 278.774 53.1035C278.458 52.3121 278.375 51.4413 278.536 50.6013C278.698 49.7612 279.096 48.9895 279.681 48.3838C280.267 47.7781 281.012 47.3657 281.824 47.1986C282.635 47.0314 283.476 47.1173 284.241 47.445C285.005 47.7728 285.659 48.3279 286.119 49.0401C286.578 49.7523 286.824 50.5896 286.824 51.4462C286.824 52.5947 286.382 53.6963 285.598 54.5085C284.814 55.3207 283.749 55.777 282.639 55.777Z" fill="white"/>
</g>
</g>
</g>
</g>
</g>
</g>
<g opacity="0.3">
<path d="M0.142578 0.582031H301.473V197.462C301.473 199.671 299.682 201.462 297.473 201.462H4.14258C1.93344 201.462 0.142578 199.671 0.142578 197.462V0.582031Z" fill="url(#paint0_linear_4003_5953)"/>
</g>
</g>
<defs>
<linearGradient id="paint0_linear_4003_5953" x1="150.808" y1="0.582031" x2="150.808" y2="201.462" gradientUnits="userSpaceOnUse">
<stop stop-color="#BEC9DC" stop-opacity="0"/>
<stop offset="1" stop-color="#BEC9DC" stop-opacity="0.4"/>
</linearGradient>
<clipPath id="clip0_4003_5953">
<rect x="0.142578" y="0.582031" width="301.33" height="200.88" rx="4" fill="white"/>
</clipPath>
<clipPath id="clip1_4003_5953">
<rect x="0.142578" y="0.582031" width="301.33" height="200.88" rx="4" fill="white"/>
</clipPath>
<clipPath id="clip2_4003_5953">
<rect width="301.33" height="200.88" fill="white" transform="translate(0.142578 0.582031)"/>
</clipPath>
<clipPath id="clip3_4003_5953">
<rect width="326.51" height="233.86" fill="white" transform="translate(0.142578 0.582031)"/>
</clipPath>
<clipPath id="clip4_4003_5953">
<rect width="326.51" height="233.86" fill="white" transform="translate(0.142578 0.582031)"/>
</clipPath>
<clipPath id="clip5_4003_5953">
<rect width="326.51" height="228.467" fill="white" transform="translate(0.142578 3.2832)"/>
</clipPath>
</defs>
</svg>
